<svg width="154" height="50" viewBox="0 0 154 50" fill="none" xmlns="http://www.w3.org/2000/svg">
<g clip-path="url(#clip0_1204_5955)">
<path d="M153.061 43.2337C153.061 46.9537 150.039 50 146.285 50H6.8062C3.05158 50 0.0302734 46.9537 0.0302734 43.2337V6.76626C0.0302734 3.01699 3.05158 0 6.8062 0H146.314C150.039 0 153.09 3.01699 153.09 6.76626V43.2337H153.061Z" fill="black"/>
<path d="M39.9231 33.0405C39.1018 34.8273 38.7205 35.6475 37.6938 37.2291C36.2272 39.4553 34.1739 42.2087 31.6512 42.2087C29.3926 42.2379 28.8059 40.7441 25.7553 40.7441C22.7046 40.7734 22.0593 42.2087 19.8007 42.2087C17.2487 42.1794 15.2834 39.7189 13.8461 37.4928C9.76879 31.3123 9.35811 24.0481 11.8514 20.1817C13.6408 17.4284 16.4567 15.8466 19.0967 15.8466C21.7953 15.8466 23.4967 17.3112 25.726 17.3112C27.8966 17.3112 29.2166 15.8466 32.3259 15.8466C34.6725 15.8466 37.1658 17.1354 38.9551 19.3322C33.1179 22.525 34.0565 30.8144 39.9231 33.0405Z" fill="white"/>
<path d="M29.95 13.3568C31.094 11.8923 31.9446 9.87115 31.622 7.76221C29.774 7.8794 27.6034 9.05099 26.3421 10.6034C25.1981 11.9802 24.2594 14.0598 24.6114 16.0516C26.6353 16.1102 28.718 14.9093 29.95 13.3568Z" fill="white"/>
<path d="M52.3311 20.0937L46.4938 37.229H49.1631L50.8937 31.9566H56.5257L58.315 37.229H61.0723L55.2057 20.0937H52.3311ZM53.7097 22.9057C53.9151 23.6672 54.1204 24.4581 54.3844 25.3368L55.9683 29.8769H51.5097L53.0644 25.3075C53.299 24.546 53.5044 23.7551 53.7097 22.9057Z" fill="white"/>
<path d="M68.6402 24.5461C66.8802 24.5461 65.4428 25.2197 64.5042 26.5378L64.3868 24.839H62.0109V25.044C62.0696 26.0985 62.0989 27.2701 62.0989 28.9397V42.15H64.7095V35.9989C65.5015 36.9655 66.7921 37.5221 68.2588 37.5221C69.7841 37.5221 71.1628 36.9362 72.1895 35.8524C73.3334 34.6515 73.9201 32.9234 73.9201 30.8729C73.9201 29.0569 73.3921 27.4752 72.4241 26.3328C71.4855 25.1612 70.1362 24.5461 68.6402 24.5461ZM67.9948 26.6843C70.3121 26.6843 71.3388 28.8225 71.3388 30.9608C71.3388 33.6849 70.0188 35.3838 67.8775 35.3838C66.4109 35.3838 65.1789 34.3879 64.8268 32.9819C64.7682 32.7476 64.7389 32.484 64.7389 32.1324V30.0527C64.7389 29.8771 64.7682 29.6427 64.8268 29.4084C64.8268 29.3498 64.8562 29.2619 64.8562 29.2034C65.2375 27.7095 66.5282 26.6843 67.9948 26.6843Z" fill="white"/>
<path d="M82.0159 24.5461C80.2561 24.5461 78.8189 25.2197 77.8803 26.5378L77.7629 24.839H75.4161V25.044C75.4748 26.0985 75.5041 27.2701 75.5041 28.9397V42.15H78.1144V35.9989C78.9068 36.9655 80.1977 37.5221 81.6644 37.5221C83.1894 37.5221 84.5682 36.9362 85.5947 35.8524C86.7386 34.6515 87.325 32.9234 87.325 30.8729C87.325 29.0569 86.797 27.4752 85.8295 26.3328C84.8614 25.1612 83.5121 24.5461 82.0159 24.5461ZM81.3705 26.6843C83.6879 26.6843 84.7144 28.8225 84.7144 30.9608C84.7144 33.6849 83.3947 35.3838 81.253 35.3838C79.8159 35.3838 78.5545 34.3879 78.203 32.9819C78.1439 32.7476 78.1144 32.484 78.1144 32.1324V30.0527C78.1144 29.8771 78.1439 29.6427 78.203 29.4084C78.203 29.3498 78.2318 29.2619 78.2318 29.2034C78.6136 27.7095 79.9038 26.6843 81.3705 26.6843Z" fill="white"/>
<path d="M98.7651 27.358C96.3302 26.4206 95.5681 25.6883 95.5681 24.3117C95.5681 23.1693 96.4772 21.9977 98.5302 21.9977C100.202 21.9977 101.288 22.5835 101.581 22.7593L101.816 22.9057L102.549 20.7381L102.402 20.6503C101.963 20.3867 100.73 19.8008 98.6181 19.8008C95.3037 19.8008 92.9863 21.7633 92.9863 24.546C92.9863 26.8014 94.4241 28.3831 97.5332 29.4962C99.7332 30.3164 100.554 31.1658 100.554 32.6011C100.554 34.2414 99.2931 35.2373 97.2401 35.2373C95.9196 35.2373 94.5408 34.8564 93.4855 34.1828L93.2507 34.0363L92.5469 36.2624L92.6635 36.3503C93.6317 36.9947 95.4795 37.4634 97.0635 37.4634C101.523 37.4634 103.107 34.7393 103.107 32.4253C103.136 30.0527 101.874 28.5882 98.7651 27.358Z" fill="white"/>
<path d="M107.8 21.8512L105.248 22.6421V24.8096H103.37V26.8893H105.248V33.2454C105.248 34.7686 105.541 35.8524 106.157 36.5261C106.744 37.1705 107.623 37.522 108.679 37.522C109.648 37.522 110.351 37.317 110.674 37.1998L110.821 37.1412L110.704 35.0615L110.469 35.1494C110.146 35.2373 109.795 35.2958 109.267 35.2958C108.269 35.2958 107.829 34.6514 107.829 33.1576V26.8893H110.967V24.8096H107.829V21.8512H107.8Z" fill="white"/>
<path d="M117.392 24.5461C113.755 24.5461 111.232 27.2409 111.232 31.1365C111.232 34.8859 113.695 37.5221 117.216 37.5221H117.245C120.208 37.5221 123.405 35.4424 123.405 30.9022C123.405 29.0569 122.848 27.4752 121.762 26.3035C120.618 25.1612 119.122 24.5461 117.392 24.5461ZM117.304 26.5671C119.65 26.5671 120.706 28.8518 120.706 30.9608C120.706 33.5677 119.269 35.4424 117.245 35.4424H117.216C115.25 35.4424 113.813 33.597 113.813 31.0194C113.842 28.8225 114.898 26.5671 117.304 26.5671Z" fill="white"/>
<path d="M131.325 24.6632L131.178 24.6339C130.943 24.5753 130.767 24.5461 130.533 24.5461C129.183 24.5461 127.952 25.3369 127.277 26.6257L127.189 24.8096H124.871L124.901 25.0147C124.96 26.0399 124.989 27.1822 124.989 28.7347L124.96 37.1998H127.57V30.58C127.57 30.2285 127.599 29.8771 127.629 29.5841C127.922 28.0024 129.008 26.9772 130.357 26.9772C130.621 26.9772 130.827 27.0065 131.061 27.0065L131.325 27.0358V24.6632Z" fill="white"/>
<path d="M137.162 24.5167C133.701 24.5167 131.295 27.2701 131.295 31.2244C131.295 35.0323 133.701 37.4927 137.426 37.4927C139.392 37.4927 140.741 37.0533 141.533 36.7018L141.68 36.6432L141.181 34.71L140.976 34.7979C140.271 35.0908 139.333 35.3837 137.72 35.3837C136.605 35.3837 133.994 35.0029 133.818 31.6345L142.208 31.6638L142.236 31.488C142.295 31.2244 142.325 30.8729 142.325 30.4042C142.325 27.6801 140.976 24.5167 137.162 24.5167ZM136.986 26.4792C137.778 26.4792 138.423 26.7135 138.892 27.2115C139.626 27.9731 139.773 29.0861 139.773 29.6134H133.848C134.111 28.1195 135.05 26.4792 136.986 26.4792Z" fill="white"/>
<path d="M46.4938 8.3773C47.2271 8.28942 48.0484 8.20154 48.9871 8.20154C50.6591 8.20154 51.8617 8.55305 52.6537 9.19745C53.4751 9.87116 53.9444 10.8085 53.9444 12.1266C53.9444 13.4447 53.4751 14.5284 52.6537 15.29C51.803 16.0516 50.3951 16.4617 48.6644 16.4617C47.8138 16.4617 47.1391 16.4324 46.5231 16.3738V8.3773H46.4938ZM47.6964 15.583C47.9898 15.6415 48.4298 15.6415 48.8698 15.6415C51.363 15.6415 52.7124 14.382 52.7124 12.2145C52.7124 10.2812 51.5097 9.08033 49.0457 9.08033C48.4298 9.08033 47.9898 9.13889 47.6671 9.19745V15.583H47.6964Z" fill="white"/>
<path d="M58.1096 16.5202C56.379 16.5202 55.0004 15.3779 55.0004 13.5325C55.0004 11.57 56.4376 10.4277 58.227 10.4277C60.075 10.4277 61.3363 11.6287 61.3363 13.4154C61.3363 15.5829 59.6643 16.5202 58.1096 16.5202ZM58.139 15.7294C59.2536 15.7294 60.1043 14.7921 60.1043 13.4447C60.1043 12.4488 59.547 11.2186 58.1683 11.2186C56.7897 11.2186 56.1737 12.3609 56.1737 13.474C56.203 14.7627 56.995 15.7294 58.139 15.7294Z" fill="white"/>
<path d="M63.2136 10.5742L64.0936 13.5326C64.2696 14.177 64.4456 14.7921 64.563 15.4072H64.5923C64.7389 14.8214 64.9442 14.2062 65.1789 13.5618L66.2349 10.6034H67.2322L68.2295 13.5033C68.4642 14.177 68.6695 14.8214 68.8162 15.4072H68.8455C68.9629 14.8214 69.1389 14.2062 69.3442 13.5033L70.2535 10.5742H71.4268L69.3442 16.4031H68.2589L67.2616 13.6204C67.0269 12.9468 66.8509 12.3902 66.6749 11.6872H66.6455C66.4989 12.3902 66.2936 13.0053 66.0589 13.6204L65.0029 16.3738H63.9176L61.9523 10.5449H63.2136V10.5742Z" fill="white"/>
<path d="M72.6001 12.1265C72.6001 11.5114 72.6001 11.0427 72.5415 10.5448H73.5975L73.6561 11.4821H73.6854C74.0082 10.9549 74.7708 10.3983 75.8265 10.3983C76.7364 10.3983 78.1144 10.867 78.1144 12.8881V16.3738H76.9417V13.0345C76.9417 12.0973 76.5598 11.3063 75.4454 11.3063C74.6828 11.3063 74.0668 11.8043 73.8615 12.3901C73.8028 12.5366 73.7735 12.7123 73.7735 12.8881V16.403H72.6001V12.1265Z" fill="white"/>
<path d="M80.0211 7.8501H81.1946V16.4031H80.0211V7.8501Z" fill="white"/>
<path d="M85.8 16.5202C84.0697 16.5202 82.6909 15.3779 82.6909 13.5325C82.6909 11.57 84.128 10.4277 85.9174 10.4277C87.7652 10.4277 89.0265 11.6287 89.0265 13.4154C89.0265 15.5829 87.3545 16.5202 85.8 16.5202ZM85.8295 15.7294C86.9439 15.7294 87.7947 14.7921 87.7947 13.4447C87.7947 12.4488 87.2371 11.2186 85.8583 11.2186C84.4803 11.2186 83.8644 12.3609 83.8644 13.474C83.8932 14.7627 84.6856 15.7294 85.8295 15.7294Z" fill="white"/>
<path d="M95.0689 14.997C95.0689 15.495 95.0984 15.9929 95.1575 16.403H94.1015L93.984 15.6708H93.9545C93.6022 16.1394 92.8984 16.5495 91.9598 16.5495C90.6401 16.5495 89.9651 15.7293 89.9651 14.8798C89.9651 13.4739 91.3439 12.7123 93.8666 12.7123V12.5951C93.8666 12.1265 93.7196 11.2478 92.3999 11.2478C91.784 11.2478 91.1681 11.3942 90.6984 11.6871L90.4348 10.9842C90.9628 10.6912 91.7545 10.4862 92.5757 10.4862C94.5704 10.4862 95.0401 11.6871 95.0401 12.8588V14.997H95.0689ZM93.9249 13.4153C92.6348 13.3861 91.1681 13.5911 91.1681 14.7334C91.1681 15.4364 91.6666 15.7586 92.253 15.7586C93.1037 15.7586 93.6613 15.2899 93.8371 14.792C93.8666 14.6748 93.8961 14.5576 93.8961 14.4405V13.4153H93.9249Z" fill="white"/>
<path d="M102.549 7.8501V14.8799C102.549 15.4072 102.549 15.993 102.607 16.3738H101.551L101.493 15.3486H101.464C101.112 15.993 100.32 16.4909 99.2635 16.4909C97.709 16.4909 96.4772 15.29 96.4772 13.5325C96.4772 11.57 97.8264 10.3984 99.381 10.3984C100.379 10.3984 101.053 10.8085 101.346 11.2771H101.376V7.8501H102.549ZM101.376 12.9468C101.376 12.8003 101.376 12.6245 101.317 12.4781C101.141 11.8043 100.496 11.2771 99.6158 11.2771C98.384 11.2771 97.6795 12.2437 97.6795 13.5033C97.6795 14.7042 98.3249 15.6708 99.5863 15.6708C100.379 15.6708 101.112 15.2021 101.317 14.4113C101.346 14.2648 101.376 14.1184 101.376 13.9426V12.9468Z" fill="white"/>
<path d="M110 16.5202C108.269 16.5202 106.89 15.3779 106.89 13.5325C106.89 11.57 108.328 10.4277 110.117 10.4277C111.965 10.4277 113.227 11.6287 113.227 13.4154C113.227 15.5829 111.555 16.5202 110 16.5202ZM110.029 15.7294C111.144 15.7294 111.995 14.7921 111.995 13.4447C111.995 12.4488 111.437 11.2186 110.058 11.2186C108.68 11.2186 108.064 12.3609 108.064 13.474C108.064 14.7627 108.885 15.7294 110.029 15.7294Z" fill="white"/>
<path d="M114.693 12.1265C114.693 11.5114 114.693 11.0427 114.634 10.5448H115.69L115.749 11.4821H115.778C116.101 10.9549 116.864 10.3983 117.92 10.3983C118.829 10.3983 120.208 10.867 120.208 12.8881V16.3738H119.034V13.0345C119.034 12.0973 118.653 11.3063 117.539 11.3063C116.776 11.3063 116.16 11.8043 115.954 12.3901C115.895 12.5366 115.867 12.7123 115.867 12.8881V16.403H114.693V12.1265Z" fill="white"/>
<path d="M126.397 9.16809V10.5741H128.098V11.3942H126.397V14.5284C126.397 15.2607 126.632 15.6707 127.276 15.6707C127.599 15.6707 127.776 15.6414 127.951 15.6122L128.01 16.4323C127.776 16.4909 127.423 16.5788 126.954 16.5788C126.397 16.5788 125.957 16.403 125.693 16.1394C125.37 15.8172 125.223 15.29 125.223 14.6163V11.365H124.226V10.5448H125.223V9.46105L126.397 9.16809Z" fill="white"/>
<path d="M129.418 7.8501H130.592V11.4821H130.621C130.797 11.1893 131.09 10.8964 131.471 10.7499C131.824 10.5449 132.234 10.457 132.674 10.457C133.554 10.457 134.933 10.9256 134.933 12.9468V16.4031H133.76V13.0346C133.76 12.0973 133.378 11.3065 132.264 11.3065C131.501 11.3065 130.914 11.7751 130.68 12.3609C130.621 12.5074 130.592 12.6538 130.592 12.8589V16.3738H129.418V7.8501Z" fill="white"/>
<path d="M137.514 13.6497C137.543 15.0849 138.541 15.6707 139.714 15.6707C140.564 15.6707 141.092 15.5243 141.503 15.3779L141.709 16.1101C141.298 16.2859 140.564 16.4909 139.538 16.4909C137.543 16.4909 136.341 15.29 136.341 13.5618C136.341 11.8043 137.514 10.3983 139.392 10.3983C141.503 10.3983 142.061 12.0679 142.061 13.1517C142.061 13.3567 142.061 13.5325 142.031 13.6497H137.514ZM140.946 12.8881C140.946 12.2144 140.623 11.1599 139.332 11.1599C138.13 11.1599 137.632 12.1558 137.514 12.8881H140.946Z" fill="white"/>
</g>
<defs>
<clipPath id="clip0_1204_5955">
<rect width="153.03" height="50" fill="white" transform="translate(0.0302734)"/>
</clipPath>
</defs>
</svg>
