<svg width="123" height="123" viewBox="0 0 123 123" fill="none" xmlns="http://www.w3.org/2000/svg">
<path d="M105.381 35.9146C99.5221 35.9146 94.1165 33.9737 89.7756 30.6995C84.797 26.946 81.22 21.4402 79.9568 15.0942C79.6441 13.5262 79.4756 11.9082 79.4596 10.25H62.7235V55.9811L62.7034 81.0302C62.7034 87.727 58.3424 93.4053 52.2972 95.4023C50.5428 95.9818 48.648 96.2565 46.6751 96.1482C44.1567 96.0099 41.7968 95.25 39.7456 94.0229C35.3806 91.4123 32.4212 86.6764 32.341 81.2587C32.2147 72.7914 39.0599 65.888 47.5212 65.888C49.1914 65.888 50.7954 66.1607 52.2972 66.656V54.1565V49.6632C50.7132 49.4286 49.1012 49.3063 47.4711 49.3063C38.2098 49.3063 29.548 53.156 23.3564 60.0915C18.6766 65.3326 15.8695 72.0195 15.4364 79.0311C14.869 88.2423 18.2395 96.9984 24.7759 103.459C25.7364 104.407 26.7449 105.287 27.7996 106.099C33.4037 110.412 40.2549 112.75 47.4711 112.75C49.1012 112.75 50.7132 112.63 52.2972 112.395C59.0382 111.397 65.2578 108.311 70.1662 103.459C76.1974 97.4976 79.5298 89.5837 79.5659 81.1605L79.4796 43.7543C82.3569 45.9739 85.5028 47.8105 88.8793 49.2361C94.1305 51.4517 99.6985 52.5745 105.429 52.5725V40.4199V35.9106C105.433 35.9146 105.385 35.9146 105.381 35.9146Z" fill="black"/>
</svg>
