<svg width="123" height="123" viewBox="0 0 123 123" fill="none" xmlns="http://www.w3.org/2000/svg">
<path d="M68.5213 10.7321C56.2585 9.04518 43.7995 11.8521 33.4449 18.6346C23.0902 25.4171 15.5392 35.7169 12.1862 47.6324C8.83321 59.5478 9.90462 72.2741 15.2026 83.4612C20.5006 94.6483 29.6674 103.541 41.0103 108.497C40.7035 104.56 40.9851 100.599 41.8456 96.7449C42.7938 92.4451 48.4876 68.7471 48.4876 68.7471C47.3538 66.2056 46.7872 63.4476 46.8271 60.6649C46.8271 53.0543 51.2193 47.3758 56.6825 47.3758C57.664 47.3615 58.637 47.5587 59.5355 47.9541C60.4339 48.3494 61.2367 48.9335 61.8892 49.6668C62.5418 50.4001 63.0288 51.2652 63.3171 52.2035C63.6055 53.1418 63.6884 54.1311 63.5603 55.1043C63.5603 59.7168 60.598 66.6971 59.0503 73.2468C58.7444 74.448 58.725 75.7043 58.9936 76.9143C59.2622 78.1244 59.8114 79.2545 60.5968 80.2134C61.3822 81.1724 62.3819 81.9334 63.5153 82.4352C64.6487 82.9369 65.8842 83.1654 67.1221 83.1022C76.8494 83.1022 83.3684 70.6433 83.3684 55.9346C83.3684 44.6596 75.9013 36.2136 62.1355 36.2136C58.842 36.0856 55.5569 36.6283 52.4797 37.8087C49.4024 38.9892 46.5971 40.7827 44.2341 43.0805C41.8712 45.3782 39.9999 48.1323 38.7338 51.1753C37.4678 54.2184 36.8334 57.4871 36.8692 60.7828C36.7225 64.4386 37.902 68.0242 40.1903 70.8791C40.6178 71.1982 40.9301 71.6478 41.0798 72.1599C41.2296 72.6721 41.2088 73.219 41.0205 73.7183C40.7847 74.6613 40.1903 76.9112 39.9545 77.7363C39.9055 78.0161 39.7914 78.2805 39.6215 78.5082C39.4516 78.7359 39.2306 78.9205 38.9763 79.0471C38.722 79.1738 38.4415 79.2389 38.1574 79.2373C37.8734 79.2358 37.5936 79.1675 37.3407 79.0381C30.2477 76.1988 26.9062 68.3934 26.9062 59.4811C26.9062 44.8902 39.1243 27.4242 63.5705 27.4242C83.025 27.4242 95.9605 41.6563 95.9605 56.8776C95.9605 76.9112 84.8034 91.9735 68.3162 91.9735C65.8521 92.0523 63.4079 91.5085 61.2096 90.3923C59.0113 89.2762 57.1299 87.6237 55.7395 85.5878C55.7395 85.5878 52.7773 97.4573 52.193 99.702C51.0004 103.58 49.2405 107.26 46.9706 110.623C51.701 112.058 56.6159 112.776 61.5564 112.755C68.2885 112.761 74.9555 111.438 81.1757 108.863C87.396 106.289 93.0472 102.512 97.8058 97.75C102.564 92.988 106.337 87.3342 108.908 81.1121C111.478 74.8901 112.796 68.2221 112.786 61.4901C112.78 49.1132 108.295 37.1565 100.161 27.8279C92.0269 18.4993 80.7922 12.4288 68.5315 10.7372L68.5213 10.7321Z" fill="black"/>
</svg>
