<svg width="123" height="123" viewBox="0 0 123 123" fill="none" xmlns="http://www.w3.org/2000/svg">
<path d="M91.2952 29.2173C89.9232 29.2173 88.8067 30.3338 88.8067 31.7057C88.8067 33.0777 89.9232 34.1941 91.2952 34.1941C92.6673 34.1941 93.7836 33.0779 93.7836 31.7057C93.7836 30.3336 92.6673 29.2173 91.2952 29.2173Z" fill="black"/>
<path d="M61.4998 39.4385C49.3355 39.4385 39.4391 49.3349 39.4391 61.4992C39.4391 73.6634 49.3355 83.5601 61.4998 83.5601C73.6643 83.5601 83.5607 73.6636 83.5607 61.4994C83.5607 49.3351 73.6643 39.4385 61.4998 39.4385Z" fill="black"/>
<path d="M84.6512 10.25H38.3488C22.8551 10.25 10.25 22.8551 10.25 38.349V84.6512C10.25 100.145 22.8551 112.75 38.3488 112.75H84.6512C100.145 112.75 112.75 100.145 112.75 84.6512V38.349C112.75 22.8551 100.145 10.25 84.6512 10.25ZM61.5 89.6138C45.9979 89.6138 33.3864 77.0021 33.3864 61.5C33.3864 45.9979 45.9981 33.3866 61.5 33.3866C77.0019 33.3866 89.6138 45.9981 89.6138 61.5C89.6138 77.0019 77.0019 89.6138 61.5 89.6138ZM91.2953 40.2465C86.5855 40.2465 82.7537 36.4147 82.7537 31.7049C82.7537 26.9951 86.5855 23.1632 91.2953 23.1632C96.0051 23.1632 99.8368 26.9949 99.8368 31.7047C99.8368 36.4145 96.0051 40.2465 91.2953 40.2465Z" fill="black"/>
</svg>
