<svg width="154" height="50" viewBox="0 0 154 50" fill="none" xmlns="http://www.w3.org/2000/svg">
<g clip-path="url(#clip0_1204_5925)">
<path d="M153.03 43.2457C153.03 46.9814 150.008 50 146.269 50H6.76145C3.02171 50 0 46.9814 0 43.2457V6.75433C0 3.01853 3.02171 0 6.76145 0H146.269C150.008 0 153.03 3.01853 153.03 6.75433V43.2457Z" fill="black"/>
<path d="M11.4885 9.62347V26.5691V43.4848L28.5717 26.5691L11.4885 9.62347Z" fill="url(#paint0_linear_1204_5925)"/>
<path d="M33.1491 21.9965L26.268 18.0215L11.4885 9.50397V9.62351L28.5717 26.5691L33.1491 21.9965Z" fill="url(#paint1_linear_1204_5925)"/>
<path d="M11.4885 43.4848V43.6043L26.268 35.0867L33.1491 31.1118L28.5717 26.5691L11.4885 43.4848Z" fill="url(#paint2_linear_1204_5925)"/>
<path d="M33.1491 21.9965L28.5717 26.569L33.1491 31.1118L41.0474 26.569L33.1491 21.9965Z" fill="url(#paint3_linear_1204_5925)"/>
<path d="M119.103 33.1738C118.475 33.1738 117.877 33.0543 117.338 32.8152C116.8 32.5761 116.351 32.2175 115.992 31.7094H115.872C115.932 32.2772 115.992 32.8152 115.992 33.3532V37.4177H114.496V23.1619H115.723L115.932 24.5068H115.992C116.381 23.9688 116.83 23.5803 117.338 23.3412C117.847 23.1021 118.445 22.9825 119.103 22.9825C120.42 22.9825 121.407 23.4309 122.125 24.3275C122.843 25.2241 123.202 26.4793 123.202 28.0932C123.202 29.707 122.843 30.9622 122.125 31.8588C121.377 32.7256 120.36 33.1738 119.103 33.1738ZM118.864 24.2378C117.847 24.2378 117.129 24.5068 116.68 25.0746C116.231 25.6425 115.992 26.5091 115.992 27.7345V28.0633C115.992 29.4381 116.231 30.4243 116.68 31.022C117.129 31.6197 117.877 31.9186 118.894 31.9186C119.732 31.9186 120.42 31.56 120.898 30.8726C121.377 30.1852 121.617 29.2288 121.617 28.0334C121.617 26.808 121.377 25.8516 120.898 25.1941C120.42 24.5666 119.761 24.2378 118.864 24.2378Z" fill="#F9F9F9"/>
<path d="M126.642 32.9946H125.147V19.0078H126.642V32.9946Z" fill="#F9F9F9"/>
<path d="M135.229 32.9945L134.93 31.5899H134.87C134.392 32.2175 133.883 32.6359 133.404 32.8451C132.926 33.0543 132.297 33.1738 131.579 33.1738C130.592 33.1738 129.844 32.9347 129.276 32.4267C128.707 31.9186 128.438 31.2013 128.438 30.2749C128.438 28.2725 130.023 27.2563 133.224 27.1368L134.9 27.077V26.4793C134.9 25.7022 134.72 25.1344 134.392 24.7757C134.062 24.4171 133.523 24.2378 132.806 24.2378C131.998 24.2378 131.041 24.4769 130.023 24.985L129.575 23.8493C130.053 23.5803 130.592 23.3711 131.161 23.2216C131.729 23.0722 132.327 22.9825 132.895 22.9825C134.062 22.9825 134.93 23.2516 135.498 23.7596C136.067 24.2677 136.336 25.1045 136.336 26.27V32.9945H135.229ZM131.848 31.9485C132.776 31.9485 133.494 31.6795 134.033 31.1715C134.571 30.6634 134.84 29.9461 134.84 29.0196V28.123L133.344 28.1828C132.148 28.2127 131.31 28.4219 130.771 28.7507C130.233 29.0794 129.993 29.5875 129.993 30.2749C129.993 30.8128 130.143 31.2313 130.472 31.5002C130.802 31.7991 131.25 31.9485 131.848 31.9485Z" fill="#F9F9F9"/>
<path d="M137.204 23.1619H138.789L140.943 28.7805C141.422 30.0657 141.721 30.9922 141.811 31.56H141.871C141.961 31.2611 142.111 30.7232 142.349 30.0059C142.589 29.2587 143.426 26.9873 144.803 23.1918H146.418L142.2 34.3693C141.781 35.4751 141.302 36.2522 140.734 36.7304C140.166 37.2085 139.477 37.4177 138.67 37.4177C138.221 37.4177 137.772 37.3579 137.323 37.2683V36.0728C137.652 36.1326 138.011 36.1924 138.43 36.1924C139.448 36.1924 140.195 35.6245 140.614 34.459L141.153 33.0543L137.204 23.1619Z" fill="#F9F9F9"/>
<path d="M91.4296 24.0587C91.9076 24.4471 92.8955 25.284 92.8955 26.8381C92.8955 28.3623 92.0273 29.0796 91.1599 29.7669C90.891 30.0359 90.5917 30.3348 90.5917 30.7831C90.5917 31.2314 90.891 31.4705 91.1304 31.6796L91.8781 32.2475C92.7758 33.0246 93.6129 33.712 93.6129 35.1465C93.6129 37.0891 91.7288 39.0318 88.1985 39.0318C85.2061 39.0318 83.7705 37.5972 83.7705 36.073C83.7705 35.3259 84.1296 34.2798 85.3561 33.5625C86.6425 32.7855 88.3773 32.6659 89.3054 32.6062C89.0061 32.2475 88.6766 31.859 88.6766 31.2015C88.6766 30.8428 88.7667 30.6337 88.8864 30.3946C88.647 30.4244 88.4372 30.4244 88.2281 30.4244C86.044 30.4244 84.8175 28.8106 84.8175 27.1967C84.8175 26.2403 85.2364 25.1943 86.1341 24.4471C87.3008 23.4908 88.7069 23.3115 89.8137 23.3115H94.0622L92.7455 24.0587H91.4296ZM89.9637 33.2039C89.7841 33.174 89.694 33.174 89.4849 33.174C89.3054 33.174 88.1985 33.2039 87.3304 33.5028C86.8819 33.6521 85.5652 34.1603 85.5652 35.6247C85.5652 37.0891 87.0016 38.1352 89.1857 38.1352C91.1599 38.1352 92.2069 37.1788 92.2069 35.9236C92.2069 34.8775 91.5493 34.3097 89.9637 33.2039ZM90.5614 29.2887C91.0402 28.8106 91.0705 28.1531 91.0705 27.7944C91.0705 26.3001 90.1728 23.9989 88.4675 23.9989C87.9288 23.9989 87.3607 24.2678 87.0311 24.6862C86.672 25.1046 86.5826 25.6725 86.5826 26.2105C86.5826 27.5853 87.3902 29.8865 89.1554 29.8865C89.694 29.8865 90.2326 29.6175 90.5614 29.2887Z" fill="#F9F9F9"/>
<path d="M78.4446 32.8751C75.1837 32.8751 73.4186 30.3347 73.4186 28.0335C73.4186 25.3437 75.6325 23.0424 78.7439 23.0424C81.7659 23.0424 83.6507 25.4035 83.6507 27.884C83.6803 30.3048 81.7954 32.8751 78.4446 32.8751ZM81.0174 31.2014C81.5265 30.5439 81.6462 29.7071 81.6462 28.9301C81.6462 27.107 80.7787 23.6701 78.2356 23.6701C77.5469 23.6701 76.8893 23.939 76.3802 24.3574C75.5727 25.0747 75.4231 25.9713 75.4231 26.8679C75.4231 28.9001 76.4401 32.2474 78.9234 32.2474C79.731 32.2773 80.5393 31.8589 81.0174 31.2014Z" fill="#F9F9F9"/>
<path d="M67.2855 32.8751C64.0244 32.8751 62.2593 30.3347 62.2593 28.0335C62.2593 25.3437 64.4732 23.0424 67.5847 23.0424C70.6064 23.0424 72.4912 25.4035 72.4912 27.884C72.5211 30.3048 70.6363 32.8751 67.2855 32.8751ZM69.8584 31.2014C70.367 30.5439 70.4867 29.7071 70.4867 28.9301C70.4867 27.107 69.6191 23.6701 67.0761 23.6701C66.3879 23.6701 65.7297 23.939 65.2212 24.3574C64.4134 25.0747 64.2638 25.9713 64.2638 26.8679C64.2638 28.9001 65.281 32.2474 67.7642 32.2474C68.5719 32.2773 69.3797 31.8589 69.8584 31.2014Z" fill="#F9F9F9"/>
<path d="M60.7035 32.5463L57.7416 33.2337C56.5449 33.413 55.4678 33.5923 54.331 33.5923C48.6166 33.5923 46.4326 29.4082 46.4326 26.1207C46.4326 22.116 49.5141 18.3801 54.7797 18.3801C55.8867 18.3801 56.9638 18.5594 57.951 18.8285C59.5068 19.2767 60.2248 19.8147 60.6735 20.1135L58.9682 21.7573L58.2502 21.9366L58.7588 21.0998C58.0408 20.4124 56.7842 19.1572 54.331 19.1572C51.0699 19.1572 48.5867 21.6378 48.5867 25.2541C48.5867 29.1393 51.399 32.7854 55.9166 32.7854C57.233 32.7854 57.9211 32.5164 58.5494 32.2773V28.9301L55.4379 29.1094L57.0834 28.2128H61.4813L60.9428 28.7209C60.7932 28.8404 60.7633 28.9002 60.7334 29.0496C60.7035 29.2289 60.7035 29.8266 60.7035 30.0359V32.5463Z" fill="#F9F9F9"/>
<path d="M97.9811 31.9486C97.2932 31.8888 97.1432 31.7692 97.1432 30.9623V30.7233V19.2767C97.1432 19.2468 97.1432 19.1871 97.1432 19.1572C97.2334 18.4399 97.4425 18.3204 98.0713 17.9318H95.1394L93.5834 18.679H95.169V30.7531V31.4405C95.169 31.8589 95.0796 31.9187 94.6008 32.5463H98.2508L99.0281 32.098C98.6697 32.0383 98.3402 32.0083 97.9811 31.9486Z" fill="#F9F9F9"/>
<path d="M106.388 32.1578C106.149 32.2773 105.939 32.4268 105.7 32.5164C105.012 32.8153 104.324 32.905 103.695 32.905C103.037 32.905 102.02 32.8751 100.973 32.098C99.5068 31.0819 98.8788 29.3186 98.8788 27.7645C98.8788 24.5965 101.482 23.0126 103.576 23.0126C104.324 23.0126 105.072 23.1919 105.7 23.5804C106.717 24.2678 106.986 25.1345 107.136 25.6126L102.32 27.5852L100.734 27.7048C101.242 30.3048 103.008 31.8291 104.982 31.8291C106.03 31.8291 106.777 31.4705 107.495 31.1118L106.388 32.1578ZM104.473 26.0311C104.862 25.8817 105.072 25.7621 105.072 25.4633C105.072 24.6563 104.145 23.6999 103.037 23.6999C102.2 23.6999 100.674 24.3276 100.674 26.5392C100.674 26.8978 100.704 27.2564 100.734 27.6151L104.473 26.0311Z" fill="#F9F9F9"/>
<path d="M108.392 23.1919V24.5367H108.213V23.1919H107.764V23.0424H108.811V23.1919H108.392Z" fill="#F9F9F9"/>
<path d="M110.217 24.5367V23.162L109.799 24.5367H109.68L109.261 23.162V24.5367H109.111V23.0424H109.38L109.769 24.2379L110.158 23.0424H110.427V24.5367H110.217Z" fill="#F9F9F9"/>
<path d="M50.5614 14.3455H49.5441C49.5441 14.1961 49.4544 13.8076 49.245 13.1501H47.7491C47.5397 13.8076 47.4499 14.1961 47.4499 14.3455H46.4926C46.4926 14.2558 46.7319 13.5685 47.2405 12.2833C47.7491 10.9983 47.9885 10.281 47.9885 10.1614H49.2151C49.2151 10.281 49.4544 10.9683 49.9032 12.2535C50.322 13.5386 50.5614 14.226 50.5614 14.3455ZM49.0655 12.5224C48.7065 11.4167 48.5269 10.8189 48.5269 10.7292H48.4671C48.4671 10.8189 48.2876 11.4167 47.8987 12.5224H49.0655Z" fill="#F9F9FA"/>
<path d="M54.6901 14.3455H53.8823C53.8823 14.2558 53.5831 13.8075 52.9847 12.9408C52.3565 12.0442 52.0274 11.4465 51.9376 11.1178H51.8778C51.9376 11.5959 51.9675 12.0143 51.9675 12.4028C51.9675 12.9408 51.9675 13.5684 52.0274 14.3455H51.2495C51.2794 13.688 51.3094 12.9408 51.3094 12.1637C51.3094 11.3867 51.2794 10.7292 51.2495 10.1614H52.2069C52.2069 10.2809 52.4761 10.7292 53.0147 11.5062C53.5831 12.3431 53.9122 12.9109 53.972 13.2098H54.0319C53.972 12.7316 53.9421 12.3132 53.9421 11.9247C53.9421 11.3568 53.9122 10.7591 53.8823 10.1315H54.6901C54.6601 10.6694 54.6302 11.3269 54.6302 12.1339C54.6601 12.9707 54.6601 13.688 54.6901 14.3455Z" fill="#F9F9FA"/>
<path d="M59.3572 12.104C59.3572 12.7017 59.1478 13.2397 58.7589 13.688C58.3699 14.1364 57.8314 14.3754 57.1134 14.3754C56.7843 14.3754 56.3654 14.3754 55.797 14.3455C55.8269 13.688 55.8269 12.9708 55.8269 12.1638C55.8269 11.3867 55.8269 10.7292 55.797 10.1614H56.3654C56.4552 10.1614 56.6048 10.1614 56.7843 10.1614C56.9638 10.1614 57.0834 10.1614 57.1433 10.1614C57.9212 10.1614 58.4896 10.3408 58.8187 10.7292C59.1778 11.1178 59.3572 11.5661 59.3572 12.104ZM58.4597 12.2535C58.4597 11.8351 58.34 11.5063 58.1007 11.2074C57.8613 10.9385 57.5023 10.789 56.9937 10.789C56.904 10.789 56.7843 10.789 56.6048 10.8189C56.6347 11.2373 56.6347 11.6856 56.6347 12.1638C56.6347 12.6719 56.6347 13.1799 56.6646 13.688C56.8142 13.7179 56.9339 13.7179 57.0834 13.7179C57.5322 13.7179 57.8912 13.5685 58.1007 13.2995C58.3699 13.0006 58.4597 12.6719 58.4597 12.2535Z" fill="#F9F9FA"/>
<path d="M63.6354 14.3455H62.6781C62.4388 13.5983 62.2293 13.1202 62.1097 12.9408C61.99 12.7615 61.7507 12.6719 61.4813 12.6719C61.3617 12.6719 61.242 12.6719 61.1223 12.6719C61.1223 13.2098 61.1223 13.7777 61.1523 14.3455H60.2548C60.2847 13.688 60.2847 12.9708 60.2847 12.1638C60.2847 11.3867 60.2847 10.7292 60.2548 10.1614H60.8232C60.883 10.1614 61.0326 10.1614 61.2121 10.1614C61.4216 10.1614 61.601 10.1614 61.7805 10.1614C62.7679 10.1614 63.2465 10.4902 63.2465 11.1776C63.2465 11.7155 62.9773 12.0742 62.4088 12.2833V12.3431C62.6182 12.4029 62.8277 12.5822 62.9772 12.8512C63.1568 13.0903 63.3662 13.5983 63.6354 14.3455ZM62.4388 11.3867C62.4388 10.9683 62.1695 10.7592 61.601 10.7592C61.3917 10.7592 61.2121 10.7592 61.0626 10.8189C61.0924 11.1477 61.0924 11.596 61.0924 12.104C61.2121 12.104 61.3019 12.104 61.3917 12.104C62.1097 12.104 62.4388 11.8649 62.4388 11.3867Z" fill="#F9F9FA"/>
<path d="M68.2429 12.1936C68.2429 12.8511 68.0335 13.3891 67.6445 13.8374C67.2556 14.2558 66.747 14.4949 66.1486 14.4949C65.5802 14.4949 65.1015 14.2857 64.7425 13.8972C64.3535 13.5086 64.1741 13.0006 64.1741 12.3729C64.1741 11.7154 64.3835 11.1775 64.7724 10.7292C65.1613 10.3108 65.67 10.0717 66.2683 10.0717C66.8367 10.0717 67.3154 10.2809 67.6744 10.6694C68.0634 11.0579 68.2429 11.566 68.2429 12.1936ZM67.3753 12.2833C67.3753 11.835 67.2556 11.4763 67.0462 11.2074C66.8069 10.9384 66.5376 10.789 66.2085 10.789C65.9093 10.789 65.6401 10.9384 65.4007 11.2074C65.1913 11.4763 65.0716 11.835 65.0716 12.2833C65.0716 12.7316 65.1913 13.0902 65.4306 13.3592C65.67 13.6282 65.9392 13.7776 66.2683 13.7776C66.5675 13.7776 66.8367 13.6282 67.0761 13.3592C67.2556 13.0604 67.3753 12.7017 67.3753 12.2833Z" fill="#F9F9FA"/>
<path d="M70.0678 14.3455H69.1703C69.2002 13.688 69.2002 12.9408 69.2002 12.1638C69.2002 11.3867 69.2002 10.7292 69.1703 10.1614H70.0678C70.0379 10.6994 70.0379 11.3569 70.0379 12.1638C70.0379 12.9708 70.0379 13.688 70.0678 14.3455Z" fill="#F9F9FA"/>
<path d="M74.735 12.104C74.735 12.7017 74.5256 13.2397 74.1367 13.688C73.7478 14.1364 73.2093 14.3754 72.4912 14.3754C72.1622 14.3754 71.7433 14.3754 71.1748 14.3455C71.2047 13.688 71.2047 12.9708 71.2047 12.1638C71.2047 11.3867 71.2047 10.7292 71.1748 10.1614H71.7433C71.8331 10.1614 71.9826 10.1614 72.1622 10.1614C72.3416 10.1614 72.4613 10.1614 72.5212 10.1614C73.299 10.1614 73.8675 10.3408 74.1965 10.7292C74.5556 11.1178 74.735 11.5661 74.735 12.104ZM73.8375 12.2535C73.8375 11.8351 73.7178 11.5063 73.4785 11.2074C73.2392 10.9385 72.8802 10.789 72.3715 10.789C72.2818 10.789 72.1622 10.789 71.9826 10.8189C72.0125 11.2373 72.0125 11.6856 72.0125 12.1638C72.0125 12.6719 72.0125 13.1799 72.0425 13.688C72.1921 13.7179 72.3117 13.7179 72.4613 13.7179C72.91 13.7179 73.2691 13.5685 73.4785 13.2995C73.7478 13.0006 73.8375 12.6719 73.8375 12.2535Z" fill="#F9F9FA"/>
<path d="M80.8985 14.3455H79.8811C79.8811 14.1961 79.7909 13.8076 79.5819 13.1501H78.0856C77.8766 13.8076 77.7864 14.1961 77.7864 14.3455H76.8296C76.8296 14.2558 77.069 13.5685 77.5773 12.2833C78.0856 10.9983 78.325 10.281 78.325 10.1614H79.5516C79.5516 10.281 79.791 10.9683 80.2402 12.2535C80.6887 13.5386 80.8985 14.226 80.8985 14.3455ZM79.4319 12.5224C79.0735 11.4167 78.894 10.8189 78.894 10.7292H78.8341C78.8341 10.8189 78.6546 11.4167 78.2652 12.5224H79.4319Z" fill="#F9F9FA"/>
<path d="M84.6675 11.2672C84.6675 11.7753 84.4887 12.1638 84.0993 12.4029C83.7107 12.642 83.2614 12.7615 82.6932 12.7615C82.6038 12.7615 82.5137 12.7615 82.4841 12.7615C82.4841 13.1501 82.4841 13.688 82.5137 14.3455H81.616C81.6463 13.7179 81.6463 13.0006 81.6463 12.1638C81.6463 11.3867 81.6463 10.7292 81.616 10.1614H82.1849C82.2743 10.1614 82.4243 10.1614 82.6334 10.1614C82.8728 10.1614 83.0523 10.1614 83.2319 10.1614C83.6508 10.1614 83.9796 10.2511 84.2493 10.4304C84.5182 10.6097 84.6675 10.8787 84.6675 11.2672ZM83.8304 11.4465C83.8304 10.9983 83.5311 10.7592 82.9023 10.7592C82.7531 10.7592 82.6038 10.789 82.4243 10.8189C82.4538 11.2373 82.4538 11.6856 82.4538 12.1937C82.5137 12.1937 82.5735 12.1937 82.6334 12.1937C83.441 12.1937 83.8304 11.9247 83.8304 11.4465Z" fill="#F9F9FA"/>
<path d="M88.497 11.2672C88.497 11.7753 88.3174 12.1638 87.9288 12.4029C87.5401 12.642 87.0909 12.7615 86.5227 12.7615C86.4333 12.7615 86.3432 12.7615 86.3136 12.7615C86.3136 13.1501 86.3136 13.688 86.3432 14.3455H85.4454C85.4757 13.7179 85.4757 13.0006 85.4757 12.1638C85.4757 11.3867 85.4757 10.7292 85.4454 10.1614H86.0144C86.1038 10.1614 86.2538 10.1614 86.4629 10.1614C86.7023 10.1614 86.8818 10.1614 87.0613 10.1614C87.4803 10.1614 87.8091 10.2511 88.0788 10.4304C88.3773 10.6097 88.497 10.8787 88.497 11.2672ZM87.6894 11.4465C87.6894 10.9983 87.3901 10.7592 86.7621 10.7592C86.6121 10.7592 86.4629 10.789 86.2833 10.8189C86.3136 11.2373 86.3136 11.6856 86.3136 12.1937C86.3735 12.1937 86.4333 12.1937 86.4924 12.1937C87.3007 12.1937 87.6894 11.9247 87.6894 11.4465Z" fill="#F9F9FA"/>
<path d="M94.8098 12.1936C94.8098 12.8511 94.6007 13.3891 94.2113 13.8374C93.8227 14.2857 93.3143 14.4949 92.7158 14.4949C92.1469 14.4949 91.6689 14.2857 91.3098 13.8972C90.9204 13.5086 90.7408 13.0006 90.7408 12.3729C90.7408 11.7154 90.9507 11.1775 91.3393 10.7292C91.7287 10.3108 92.2371 10.0717 92.8355 10.0717C93.4037 10.0717 93.8825 10.2809 94.2416 10.6694C94.6302 11.0579 94.8098 11.566 94.8098 12.1936ZM93.9121 12.2833C93.9121 11.835 93.7924 11.4763 93.5833 11.2074C93.3439 10.9384 93.0749 10.789 92.7454 10.789C92.4461 10.789 92.1772 10.9384 91.9378 11.2074C91.7287 11.4763 91.609 11.835 91.609 12.2833C91.609 12.7316 91.7287 13.0902 91.9674 13.3592C92.2068 13.6282 92.4764 13.7776 92.8052 13.7776C93.1045 13.7776 93.3742 13.6282 93.6136 13.3592C93.8227 13.0604 93.9121 12.7017 93.9121 12.2833Z" fill="#F9F9FA"/>
<path d="M99.178 14.3455H98.3704C98.3704 14.2558 98.0711 13.8075 97.4727 12.9408C96.8446 12.0442 96.5151 11.4465 96.4257 11.1178H96.3658C96.4257 11.5959 96.4552 12.0143 96.4552 12.4028C96.4552 12.9408 96.4552 13.5684 96.5151 14.3455H95.7371C95.7674 13.688 95.7969 12.9408 95.7969 12.1637C95.7969 11.3867 95.7674 10.7292 95.7371 10.1614H96.6946C96.6946 10.2809 96.9643 10.7292 97.5022 11.5062C98.0711 12.3431 98.3999 12.9109 98.4598 13.2098H98.5196C98.4598 12.7316 98.4302 12.3132 98.4302 11.9247C98.4302 11.3568 98.4302 10.7591 98.3704 10.1315H99.178C99.1477 10.6694 99.1181 11.3269 99.1181 12.1339C99.1181 12.9707 99.1477 13.688 99.178 14.3455Z" fill="#F9F9FA"/>
</g>
<defs>
<linearGradient id="paint0_linear_1204_5925" x1="20.0246" y1="9.62673" x2="20.0246" y2="43.4889" gradientUnits="userSpaceOnUse">
<stop stop-color="#257CB0"/>
<stop offset="0.2863" stop-color="#4A93B5"/>
<stop offset="0.767" stop-color="#78BCBB"/>
<stop offset="1" stop-color="#89CFBD"/>
</linearGradient>
<linearGradient id="paint1_linear_1204_5925" x1="11.478" y1="18.0309" x2="33.1624" y2="18.0309" gradientUnits="userSpaceOnUse">
<stop stop-color="#52C1AD"/>
<stop offset="1" stop-color="#DEE89A"/>
</linearGradient>
<linearGradient id="paint2_linear_1204_5925" x1="22.32" y1="26.5581" x2="22.32" y2="43.612" gradientUnits="userSpaceOnUse">
<stop stop-color="#EC413D"/>
<stop offset="0.1668" stop-color="#DA4452"/>
<stop offset="0.5748" stop-color="#B0487A"/>
<stop offset="0.8619" stop-color="#954A92"/>
<stop offset="1" stop-color="#8A4A9D"/>
</linearGradient>
<linearGradient id="paint3_linear_1204_5925" x1="34.8093" y1="22.0103" x2="34.8093" y2="31.1053" gradientUnits="userSpaceOnUse">
<stop stop-color="#F58879"/>
<stop offset="0.1194" stop-color="#F69079"/>
<stop offset="0.7128" stop-color="#FCB877"/>
<stop offset="1" stop-color="#FEC874"/>
</linearGradient>
<clipPath id="clip0_1204_5925">
<rect width="153.03" height="50" fill="white"/>
</clipPath>
</defs>
</svg>
