<svg width="24" height="24" viewBox="0 0 24 24" fill="none" xmlns="http://www.w3.org/2000/svg">
<path d="M5.73477 11.9274C6.87425 10.8174 8.38956 10.2016 10.0048 10.1898V9.35438C9.70496 9.31124 9.3971 9.2877 9.08924 9.2877C7.45798 9.2877 5.92668 9.90351 4.77521 11.0253C3.64372 12.1275 2.99602 13.6337 3.00002 15.1987C3.00002 16.7755 3.63573 18.2542 4.7832 19.372C4.96712 19.5486 5.15503 19.7133 5.35494 19.8623C4.45136 18.8072 3.95958 17.4893 3.95558 16.1008C3.95958 14.5358 4.60329 13.0296 5.73477 11.9274Z" fill="#E94560"/>
<path d="M20.0799 7.62071V6.78133H20.0719C18.9604 6.78133 17.9369 6.42048 17.1133 5.80859C17.829 6.73427 18.8765 7.39322 20.0799 7.62071Z" fill="#E94560"/>
<path d="M9.88511 18.9131C10.2649 18.9327 10.6288 18.8817 10.9646 18.7758C12.1241 18.4032 12.9597 17.3442 12.9597 16.0969L12.9637 11.4293V2.90214H15.2506C15.1907 2.60796 15.1587 2.30986 15.1547 2H12.0041V10.5232L12.0001 15.1908C12.0001 16.4381 11.1645 17.4972 10.005 17.8698C9.6692 17.9796 9.30536 18.0306 8.92554 18.0071C8.44176 17.9796 7.98996 17.8384 7.59814 17.6109C8.08992 18.3561 8.92954 18.8621 9.88511 18.9131Z" fill="#E94560"/>
<path d="M10.0047 21.0312C11.2841 20.8468 12.4636 20.2703 13.3952 19.3681C14.5387 18.2581 15.1704 16.7872 15.1784 15.2183L15.1624 8.24045C15.7061 8.6523 16.3019 8.99746 16.9456 9.26026C17.9411 9.6721 18.9966 9.88391 20.0801 9.88391V7.62072C18.8767 7.39322 17.8292 6.73427 17.1135 5.8086C16.1699 5.11042 15.4902 4.08277 15.2543 2.90215H12.9634V11.4254L12.9594 16.093C12.9594 17.3403 12.1238 18.3993 10.9643 18.7719C10.6284 18.8817 10.2646 18.9327 9.88478 18.9092C8.92522 18.8582 8.08961 18.3522 7.59783 17.6109C6.76221 17.1245 6.19447 16.242 6.17848 15.23C6.15449 13.6533 7.46589 12.3667 9.08915 12.3667C9.409 12.3667 9.71686 12.4177 10.0047 12.5079V10.1859C8.38947 10.1977 6.87416 10.8135 5.73468 11.9235C4.6032 13.0257 3.95549 14.5319 3.95949 16.093C3.95949 17.4815 4.45127 18.7994 5.35885 19.8545C6.42237 20.6586 7.72177 21.0939 9.08915 21.0939C9.39701 21.0979 9.70487 21.0743 10.0047 21.0312Z" fill="#E94560"/>
</svg>
