<svg width="24" height="24" viewBox="0 0 24 24" fill="none" xmlns="http://www.w3.org/2000/svg">
<path d="M13.37 2.09408C10.9772 1.76493 8.54622 2.31263 6.5258 3.63604C4.50538 4.95944 3.03202 6.96918 2.37777 9.29414C1.72353 11.6191 1.93258 14.1023 2.96634 16.2851C4.00009 18.468 5.78873 20.2031 8.00197 21.1701C7.94212 20.4019 7.99706 19.6291 8.16497 18.8771C8.34997 18.0381 9.46097 13.4141 9.46097 13.4141C9.23974 12.9182 9.12918 12.38 9.13697 11.8371C9.13697 10.3521 9.99397 9.24408 11.06 9.24408C11.2515 9.24129 11.4413 9.27977 11.6166 9.35691C11.792 9.43404 11.9486 9.54802 12.0759 9.6911C12.2032 9.83418 12.2983 10.003 12.3545 10.1861C12.4108 10.3691 12.427 10.5622 12.402 10.7521C12.402 11.6521 11.824 13.0141 11.522 14.2921C11.4623 14.5265 11.4585 14.7716 11.5109 15.0077C11.5633 15.2438 11.6705 15.4643 11.8237 15.6514C11.977 15.8385 12.172 15.987 12.3932 16.0849C12.6144 16.1828 12.8554 16.2274 13.097 16.2151C14.995 16.2151 16.267 13.7841 16.267 10.9141C16.267 8.71408 14.81 7.06608 12.124 7.06608C11.4813 7.04111 10.8404 7.147 10.2399 7.37733C9.63946 7.60766 9.09209 7.95762 8.63102 8.40597C8.16996 8.85431 7.80483 9.39168 7.5578 9.98545C7.31076 10.5792 7.18698 11.217 7.19397 11.8601C7.16534 12.5734 7.39548 13.273 7.84197 13.8301C7.92541 13.8924 7.98633 13.9801 8.01555 14.08C8.04477 14.1799 8.04071 14.2867 8.00397 14.3841C7.95797 14.5681 7.84197 15.0071 7.79597 15.1681C7.7864 15.2227 7.76415 15.2743 7.731 15.3187C7.69784 15.3631 7.65472 15.3991 7.6051 15.4238C7.55549 15.4486 7.50076 15.4613 7.44533 15.461C7.3899 15.4607 7.33531 15.4473 7.28597 15.4221C5.90197 14.8681 5.24997 13.3451 5.24997 11.6061C5.24997 8.75908 7.63397 5.35108 12.404 5.35108C16.2 5.35108 18.724 8.12808 18.724 11.0981C18.724 15.0071 16.547 17.9461 13.33 17.9461C12.8492 17.9614 12.3722 17.8553 11.9433 17.6375C11.5144 17.4198 11.1473 17.0973 10.876 16.7001C10.876 16.7001 10.298 19.0161 10.184 19.4541C9.95127 20.2108 9.60788 20.9289 9.16497 21.5851C10.088 21.8651 11.047 22.0051 12.011 22.0011C13.3246 22.0021 14.6254 21.7441 15.8391 21.2417C17.0528 20.7392 18.1555 20.0024 19.084 19.0732C20.0126 18.144 20.7487 17.0408 21.2502 15.8268C21.7518 14.6127 22.0089 13.3117 22.007 11.9981C22.0057 9.58308 21.1308 7.25007 19.5436 5.42986C17.9564 3.60964 15.7643 2.42514 13.372 2.09508L13.37 2.09408Z" fill="white"/>
</svg>
