<svg width="24" height="24" viewBox="0 0 24 24" fill="none" xmlns="http://www.w3.org/2000/svg">
<path d="M17.8137 5.70093C17.546 5.70093 17.3282 5.91878 17.3282 6.18647C17.3282 6.45417 17.546 6.67202 17.8137 6.67202C18.0815 6.67202 18.2993 6.45421 18.2993 6.18647C18.2993 5.91874 18.0815 5.70093 17.8137 5.70093Z" fill="white"/>
<path d="M12 7.69531C9.62645 7.69531 7.69543 9.62633 7.69543 11.9998C7.69543 14.3733 9.62645 16.3044 12 16.3044C14.3735 16.3044 16.3045 14.3734 16.3045 11.9999C16.3045 9.62636 14.3735 7.69531 12 7.69531Z" fill="white"/>
<path d="M16.5173 2H7.4827C4.45953 2 2 4.45953 2 7.48273V16.5173C2 19.5405 4.45953 22 7.4827 22H16.5173C19.5405 22 22 19.5405 22 16.5173V7.48273C22 4.45953 19.5405 2 16.5173 2ZM12 17.4856C8.9752 17.4856 6.51441 15.0248 6.51441 12C6.51441 8.9752 8.97523 6.51445 12 6.51445C15.0248 6.51445 17.4856 8.97523 17.4856 12C17.4856 15.0248 15.0248 17.4856 12 17.4856ZM17.8137 7.85297C16.8947 7.85297 16.1471 7.10531 16.1471 6.18633C16.1471 5.26734 16.8947 4.51965 17.8137 4.51965C18.7327 4.51965 19.4804 5.2673 19.4804 6.18629C19.4804 7.10527 18.7327 7.85297 17.8137 7.85297Z" fill="white"/>
</svg>
