<svg width="24" height="24" viewBox="0 0 24 24" fill="none" xmlns="http://www.w3.org/2000/svg">
<path d="M20.5621 7.00773C19.419 7.00773 18.3642 6.62902 17.5172 5.99014C16.5458 5.25776 15.8478 4.18345 15.6014 2.94521C15.5403 2.63927 15.5075 2.32355 15.5043 2H12.2388V10.9231L12.2348 15.8108C12.2348 17.1175 11.3839 18.2254 10.2044 18.6151C9.86205 18.7282 9.49233 18.7818 9.10736 18.7606C8.61598 18.7336 8.15551 18.5854 7.75528 18.3459C6.90357 17.8365 6.32612 16.9125 6.31047 15.8554C6.28582 14.2032 7.62148 12.8562 9.27246 12.8562C9.59836 12.8562 9.91134 12.9094 10.2044 13.006V10.5671V9.69038C9.8953 9.64461 9.58075 9.62074 9.26268 9.62074C7.4556 9.62074 5.76549 10.3719 4.55738 11.7252C3.64425 12.7478 3.09653 14.0526 3.01202 15.4207C2.9013 17.218 3.55896 18.9265 4.83437 20.187C5.02176 20.3721 5.21855 20.5438 5.42434 20.7023C6.51782 21.5438 7.85465 22 9.26268 22C9.58075 22 9.8953 21.9765 10.2044 21.9308C11.5197 21.7359 12.7333 21.1338 13.691 20.187C14.8678 19.0239 15.518 17.4797 15.5251 15.8362L15.5083 8.53743C16.0697 8.97052 16.6835 9.32889 17.3423 9.60705C18.367 10.0394 19.4534 10.2584 20.5715 10.2581V7.88682V7.00694C20.5723 7.00773 20.5629 7.00773 20.5621 7.00773Z" fill="white"/>
</svg>
