<svg width="555" height="229" viewBox="0 0 555 229" fill="none" xmlns="http://www.w3.org/2000/svg">
<g clip-path="url(#clip0_915_50)">
<path d="M545 0H10C4.47715 0 0 4.47715 0 10V219C0 224.523 4.47715 229 10 229H545C550.523 229 555 224.523 555 219V10C555 4.47715 550.523 0 545 0Z" fill="#D56A34"/>
<mask id="mask0_915_50" style="mask-type:alpha" maskUnits="userSpaceOnUse" x="0" y="0" width="555" height="229">
<path d="M545 0H10C4.47715 0 0 4.47715 0 10V219C0 224.523 4.47715 229 10 229H545C550.523 229 555 224.523 555 219V10C555 4.47715 550.523 0 545 0Z" fill="#D56A34"/>
</mask>
<g mask="url(#mask0_915_50)">
<path opacity="0.15" d="M396.474 226.82C396.45 227.24 396.413 227.661 396.361 228.077C396.366 228.057 396.374 228.038 396.384 228.02L396.474 227.793C396.474 227.467 396.479 227.132 396.474 226.82Z" fill="white"/>
<path d="M459.748 122.589L459.399 120.854C459.394 120.825 459.382 120.797 459.364 120.773C459.347 120.749 459.324 120.729 459.298 120.714C459.272 120.7 459.243 120.691 459.213 120.689C459.183 120.688 459.153 120.692 459.125 120.703C458.653 120.883 457.629 121.322 457.265 121.757C456.793 122.31 456.071 124.838 456.033 124.984L454.173 133.769C454.164 133.811 454.169 133.855 454.186 133.894C454.203 133.934 454.233 133.967 454.27 133.988C454.308 134.01 454.351 134.019 454.394 134.014C454.437 134.01 454.477 133.992 454.509 133.962C454.543 133.931 454.588 133.912 454.635 133.909C454.682 133.907 454.728 133.92 454.766 133.948C454.804 133.976 454.831 134.016 454.843 134.062C454.854 134.108 454.85 134.156 454.83 134.199C453.579 137.076 452.701 139.184 452.545 139.553C452.531 139.592 452.504 139.625 452.469 139.647C452.252 139.794 451.388 140.394 451.379 140.956C451.38 141.004 451.397 141.05 451.426 141.088L453.947 144.06C453.974 144.095 454.013 144.119 454.055 144.129C454.098 144.139 454.143 144.135 454.183 144.117C455.528 143.555 465.04 142.463 467.429 114.527C467.943 108.432 463.789 115.175 460.136 122.631C460.119 122.672 460.089 122.706 460.051 122.728C460.014 122.75 459.97 122.76 459.926 122.755C459.883 122.75 459.842 122.731 459.81 122.701C459.778 122.671 459.756 122.632 459.748 122.589Z" fill="#FFBB8B"/>
<path d="M436.443 137.993L415.507 100.347C414.635 101.602 413.602 102.736 412.434 103.721C410.617 105.304 408.625 106.655 406.699 108.096C406.547 108.212 406.368 108.287 406.179 108.314C405.707 108.786 405.235 109.259 404.735 109.731C403.483 110.903 402.157 111.994 400.765 112.996C400.515 123.283 400.42 120.354 401.067 130.882C401.393 136.165 404.371 145.611 413.029 146.475V168.519H454.036V135.536L436.443 137.993Z" fill="#FFBB8B"/>
<path d="M454.036 152.835H413.029V156.913H454.036V152.835Z" fill="#F59A66"/>
<path d="M453.536 72.9682C453.536 72.9682 462.08 56.4296 469.553 58.5607C478.645 61.1313 465.545 81.6533 454.381 88.6279" fill="#FFBB8B"/>
<path d="M457.832 66.1255V83.0091C459.525 82.099 461.314 81.381 463.166 80.8685C463.166 80.8685 460.494 79.0115 457.832 66.1255Z" fill="#F59A66"/>
<path d="M455.151 117.386H411.821C409.761 117.386 408.091 119.058 408.091 121.119V136.363C408.091 138.425 409.761 140.096 411.821 140.096H455.151C457.21 140.096 458.88 138.425 458.88 136.363V121.119C458.88 119.058 457.21 117.386 455.151 117.386Z" fill="#F59A66"/>
<path d="M453.569 57.8989H413.492C411.137 57.8989 409.229 59.8093 409.229 62.1659V134.591C409.229 136.948 411.137 138.858 413.492 138.858H453.569C455.923 138.858 457.832 136.948 457.832 134.591V62.1659C457.832 59.8093 455.923 57.8989 453.569 57.8989Z" fill="#0F1821"/>
<path d="M454.754 55.9995H412.307C410.607 55.9995 409.229 57.3789 409.229 59.0804V133.878C409.229 135.579 410.607 136.959 412.307 136.959H454.754C456.454 136.959 457.832 135.579 457.832 133.878V59.0804C457.832 57.3789 456.454 55.9995 454.754 55.9995Z" fill="#03283B"/>
<path d="M433.582 135.536C435.444 135.536 436.953 134.025 436.953 132.162C436.953 130.299 435.444 128.788 433.582 128.788C431.721 128.788 430.212 130.299 430.212 132.162C430.212 134.025 431.721 135.536 433.582 135.536Z" fill="#476E80"/>
<path d="M443.005 99.737C443.217 99.737 443.429 99.7134 443.642 99.7134C445.025 99.713 446.387 100.051 447.61 100.697C448.833 101.343 449.88 102.278 450.66 103.421C451.44 104.564 451.93 105.881 452.086 107.256C452.243 108.632 452.061 110.025 451.558 111.314C451.878 111.389 452.193 111.48 452.502 111.588V67.7513C452.502 67.3935 452.373 67.0478 452.139 66.7778L436.344 92.0253C438.137 92.4179 439.756 93.3814 440.956 94.7716C442.157 96.1617 442.876 97.9038 443.005 99.737Z" fill="#CECECE"/>
<path d="M418.089 111.115C417.625 109.833 417.476 108.457 417.655 107.105C417.833 105.753 418.334 104.463 419.115 103.345C419.895 102.227 420.933 101.314 422.141 100.682C423.349 100.049 424.69 99.7174 426.053 99.7133C426.21 97.5664 427.173 95.5588 428.75 94.0952C430.327 92.6317 432.4 91.821 434.55 91.8267C435.164 91.8255 435.777 91.8921 436.377 92.0252L452.172 66.7778C452.033 66.6169 451.861 66.4877 451.668 66.3988C451.475 66.31 451.266 66.2636 451.053 66.2627H416.126C415.732 66.2639 415.355 66.4213 415.077 66.7003C414.799 66.9793 414.643 67.3572 414.643 67.7512V111.697C415.675 111.312 416.767 111.115 417.868 111.115H418.089Z" fill="#BCBCBC"/>
<path d="M452.12 108.219C452.12 105.963 451.225 103.8 449.631 102.205C448.038 100.61 445.876 99.7135 443.623 99.7135C443.41 99.7135 443.198 99.7135 442.986 99.7371C442.857 97.9059 442.141 96.1653 440.943 94.7753C439.745 93.3854 438.13 92.4207 436.339 92.0254L415.191 125.811C415.452 126.017 415.775 126.128 416.107 126.128H451.034C451.427 126.127 451.803 125.97 452.081 125.692C452.359 125.414 452.515 125.037 452.516 124.644V111.588C452.207 111.48 451.892 111.389 451.572 111.314C451.945 110.325 452.131 109.276 452.12 108.219Z" fill="white"/>
<path d="M415.21 125.811L436.358 92.0252C435.758 91.892 435.146 91.8255 434.531 91.8267C432.381 91.821 430.308 92.6316 428.731 94.0952C427.154 95.5588 426.191 97.5664 426.034 99.7133C424.671 99.7174 423.33 100.049 422.122 100.682C420.915 101.314 419.877 102.227 419.096 103.345C418.315 104.463 417.814 105.753 417.636 107.105C417.457 108.457 417.606 109.833 418.071 111.115H417.849C416.748 111.115 415.656 111.312 414.625 111.697V124.644C414.627 124.87 414.681 125.093 414.782 125.295C414.884 125.498 415.03 125.674 415.21 125.811Z" fill="white"/>
<path d="M433.53 89.3083C433.53 88.2882 433.125 87.3098 432.405 86.5885C431.684 85.8672 430.707 85.4619 429.688 85.4619C428.669 85.4619 427.691 85.8672 426.971 86.5885C426.25 87.3098 425.845 88.2882 425.845 89.3083C425.846 89.5477 425.868 89.7865 425.911 90.0219C424.878 90.0464 423.876 90.3769 423.031 90.9716C422.186 91.5662 421.535 92.3983 421.162 93.3627C420.052 92.9389 418.841 92.8514 417.681 93.111C416.521 93.3707 415.463 93.9659 414.639 94.8228C414.639 94.8606 414.639 94.9031 414.639 94.9409V101.084C414.638 101.357 414.611 101.629 414.558 101.897V103.201C415.312 104.016 416.275 104.608 417.342 104.914C418.409 105.219 419.539 105.226 420.609 104.934C421.68 104.642 422.65 104.062 423.414 103.256C424.178 102.451 424.707 101.451 424.944 100.366C425.897 100.57 426.888 100.504 427.805 100.174C428.722 99.8438 429.529 99.2634 430.133 98.4982C430.738 97.7331 431.117 96.8138 431.227 95.8444C431.336 94.875 431.173 93.8942 430.755 93.013C431.556 92.781 432.261 92.294 432.762 91.6256C433.263 90.9573 433.532 90.1438 433.53 89.3083Z" fill="#CECECE"/>
<path d="M435.73 89.3083C435.712 88.7915 435.798 88.2764 435.983 87.7936C436.168 87.3109 436.449 86.8703 436.807 86.4983C437.166 86.1264 437.596 85.8305 438.072 85.6285C438.547 85.4264 439.058 85.3223 439.575 85.3223C440.092 85.3223 440.603 85.4264 441.078 85.6285C441.554 85.8305 441.984 86.1264 442.343 86.4983C442.702 86.8703 442.982 87.3109 443.167 87.7936C443.352 88.2764 443.438 88.7915 443.42 89.3083C443.419 89.5476 443.397 89.7864 443.354 90.0218C444.386 90.0467 445.388 90.3774 446.232 90.972C447.077 91.5667 447.726 92.3986 448.098 93.3626C449.21 92.9391 450.422 92.8521 451.582 93.1126C452.743 93.373 453.802 93.9694 454.627 94.8275C454.624 94.8668 454.624 94.9063 454.627 94.9456V101.089C454.627 101.361 454.654 101.634 454.707 101.901V103.205C453.952 104.019 452.989 104.61 451.923 104.914C450.856 105.219 449.727 105.226 448.657 104.934C447.587 104.642 446.618 104.062 445.853 103.257C445.089 102.453 444.559 101.455 444.322 100.37C443.369 100.574 442.378 100.507 441.462 100.176C440.546 99.8456 439.74 99.2651 439.136 98.5002C438.532 97.7353 438.154 96.8164 438.044 95.8476C437.934 94.8787 438.097 93.8985 438.515 93.0177C437.711 92.7879 437.003 92.3011 436.5 91.6315C435.997 90.9618 435.727 90.146 435.73 89.3083Z" fill="#CECECE"/>
<path d="M451.709 120.902C451.648 118.737 453.366 117.079 455.368 116.739V112.174C454.335 111.786 453.242 111.587 452.139 111.588H451.917C452.382 110.305 452.532 108.929 452.354 107.576C452.176 106.223 451.675 104.933 450.894 103.814C450.113 102.696 449.075 101.782 447.867 101.149C446.659 100.517 445.317 100.185 443.953 100.181C443.797 98.0382 442.837 96.034 441.265 94.571C439.693 93.108 437.626 92.2947 435.48 92.2944C434.866 92.2951 434.253 92.3616 433.653 92.4929L451.719 121.36C451.719 121.213 451.714 121.057 451.709 120.902Z" fill="white"/>
<path d="M450.921 107.468C452.433 107.467 453.89 108.038 454.999 109.067C456.108 110.095 456.788 111.506 456.902 113.015C456.902 112.864 456.902 112.713 456.902 112.543C456.858 110.979 456.207 109.495 455.087 108.405C453.967 107.315 452.467 106.705 450.904 106.705C449.342 106.705 447.842 107.315 446.722 108.405C445.602 109.495 444.951 110.979 444.907 112.543C444.907 112.698 444.907 112.85 444.907 113.015C445.023 111.5 445.708 110.086 446.824 109.057C447.939 108.027 449.404 107.46 450.921 107.468Z" fill="#999999"/>
<path d="M444.496 100.337C446.47 100.336 448.372 101.082 449.82 102.426C451.268 103.769 452.155 105.611 452.304 107.581C452.304 107.387 452.328 107.189 452.328 106.986C452.328 104.907 451.503 102.913 450.034 101.443C448.565 99.9724 446.573 99.1465 444.496 99.1465C442.419 99.1465 440.427 99.9724 438.959 101.443C437.49 102.913 436.665 104.907 436.665 106.986C436.665 107.189 436.665 107.387 436.688 107.581C436.837 105.611 437.725 103.769 439.172 102.426C440.62 101.082 442.522 100.336 444.496 100.337Z" fill="#999999"/>
<path d="M429.556 138.863C429.556 138.863 433.53 139.241 433.53 144.278C433.53 144.278 433.818 138.863 437.67 138.863H429.556Z" fill="#F59A66"/>
<path d="M415.21 125.811L436.358 92.0252C435.758 91.892 435.146 91.8255 434.531 91.8267C432.381 91.821 430.308 92.6316 428.731 94.0952C427.154 95.5588 426.191 97.5664 426.034 99.7133C424.671 99.7174 423.33 100.049 422.122 100.682C420.915 101.314 419.877 102.227 419.096 103.345C418.315 104.463 417.814 105.753 417.636 107.105C417.457 108.457 417.606 109.833 418.071 111.115H417.849C416.748 111.115 415.656 111.312 414.625 111.697V124.644C414.627 124.87 414.681 125.093 414.782 125.295C414.884 125.498 415.03 125.674 415.21 125.811Z" fill="white"/>
<path d="M425.038 100.432C427.011 100.432 428.912 101.178 430.359 102.52C431.807 103.862 432.695 105.702 432.846 107.671C432.846 107.477 432.87 107.279 432.87 107.076C432.87 104.997 432.044 103.003 430.576 101.532C429.107 100.062 427.115 99.2363 425.038 99.2363C422.961 99.2363 420.969 100.062 419.5 101.532C418.032 103.003 417.207 104.997 417.207 107.076C417.207 107.279 417.207 107.477 417.207 107.671C417.359 105.698 418.251 103.856 419.703 102.513C421.156 101.171 423.061 100.427 425.038 100.432Z" fill="#999999"/>
<path d="M419.024 107.751C420.536 107.751 421.993 108.323 423.102 109.351C424.212 110.38 424.893 111.789 425.01 113.299C425.01 113.148 425.01 112.99 425.01 112.826C425.032 112.024 424.894 111.225 424.602 110.477C424.311 109.729 423.873 109.047 423.314 108.471C422.755 107.895 422.086 107.438 421.347 107.125C420.608 106.813 419.814 106.652 419.012 106.652C418.21 106.652 417.416 106.813 416.677 107.125C415.939 107.438 415.27 107.895 414.711 108.471C414.152 109.047 413.713 109.729 413.422 110.477C413.131 111.225 412.992 112.024 413.015 112.826C413.015 112.977 413.015 113.135 413.015 113.299C413.132 111.785 413.816 110.372 414.931 109.343C416.045 108.314 417.508 107.745 419.024 107.751Z" fill="#999999"/>
<path d="M427.79 112.817C428.88 112.817 429.93 113.229 430.729 113.97C431.529 114.711 432.02 115.727 432.105 116.815C432.105 116.706 432.105 116.597 432.105 116.488C432.124 115.908 432.026 115.33 431.818 114.789C431.609 114.247 431.294 113.753 430.891 113.336C430.487 112.919 430.005 112.587 429.471 112.36C428.937 112.134 428.363 112.017 427.783 112.017C427.203 112.017 426.629 112.134 426.095 112.36C425.561 112.587 425.079 112.919 424.675 113.336C424.272 113.753 423.957 114.247 423.748 114.789C423.54 115.33 423.442 115.908 423.461 116.488C423.461 116.597 423.461 116.706 423.461 116.815C423.545 115.724 424.038 114.706 424.841 113.964C425.644 113.222 426.698 112.813 427.79 112.817Z" fill="#999999"/>
<path d="M442.792 112.817C443.881 112.817 444.931 113.229 445.73 113.97C446.529 114.712 447.019 115.727 447.102 116.815C447.102 116.706 447.102 116.597 447.102 116.488C447.121 115.908 447.024 115.33 446.815 114.789C446.606 114.247 446.291 113.753 445.888 113.336C445.485 112.919 445.002 112.587 444.468 112.36C443.934 112.134 443.36 112.017 442.78 112.017C442.2 112.017 441.627 112.134 441.093 112.36C440.559 112.587 440.076 112.919 439.673 113.336C439.269 113.753 438.954 114.247 438.746 114.789C438.537 115.33 438.44 115.908 438.459 116.488C438.459 116.599 438.459 116.707 438.459 116.815C438.542 115.723 439.036 114.704 439.84 113.962C440.644 113.221 441.699 112.811 442.792 112.817Z" fill="#999999"/>
<path d="M428.786 81.2749C429.199 85.8515 428.975 90.4634 428.121 94.9783C428.121 94.9783 435.239 103.233 435.239 103.328C435.239 103.423 434.673 83.1839 434.673 83.1839L428.786 81.2749Z" fill="white"/>
<path d="M440.271 81.2749C439.859 85.8515 440.083 90.4634 440.937 94.9783C440.937 94.9783 433.814 103.229 433.814 103.328C433.814 103.427 434.385 83.1839 434.385 83.1839L440.271 81.2749Z" fill="white"/>
<path d="M438.147 81.4355L430.726 81.6009C430.726 81.6009 428.366 91.2831 431.104 94.8318C431.63 93.6641 432.009 92.4356 432.232 91.1744C432.232 91.1744 432.02 97.5206 434.545 101.287C437.019 97.4119 436.769 91.1744 436.769 91.1744C436.992 92.4356 437.371 93.6641 437.897 94.8318C440.635 91.2831 438.147 81.4355 438.147 81.4355Z" fill="#FDC634"/>
<path d="M436.622 82.0645H432.407C432.407 82.0645 431.038 86.6055 431.51 89.0863C432.149 88.2143 432.615 87.2278 432.884 86.1802C432.884 86.1802 432.435 93.0414 434.545 95.8388C436.655 93.0414 436.15 86.1802 436.15 86.1802C436.416 87.228 436.881 88.2146 437.519 89.0863C437.996 86.6244 436.622 82.0645 436.622 82.0645Z" fill="#FD9500"/>
<path d="M434.489 54.5108V53.1404C429.055 53.1404 425.992 48.3726 425.992 48.3726C425.855 48.9018 425.732 49.4405 425.619 49.9981C426.983 51.4204 430.405 54.5108 434.489 54.5108Z" fill="white"/>
<path d="M434.489 81.9038V56.0752C431.987 56.0752 429.339 55.0687 426.832 53.1691C426.251 52.7249 425.741 52.2854 425.312 51.8838C425.134 53.2358 425.046 54.5981 425.048 55.9617C425.057 63.5176 425.98 71.0446 427.795 78.3787C427.885 78.4637 430.759 81.9038 434.489 81.9038Z" fill="white"/>
<path d="M434.489 53.1404V54.5108C438.737 54.5108 442.16 51.1416 443.326 49.8327C443.222 49.3318 443.108 48.8451 442.986 48.3726C442.986 48.3726 439.922 53.1404 434.489 53.1404Z" fill="#E3E3E3"/>
<path d="M434.489 56.075V81.9272C438.218 81.9272 441.097 78.4872 441.182 78.3785C442.998 71.0444 443.92 63.5174 443.93 55.9616C443.933 54.5517 443.838 53.1433 443.647 51.7466C443.141 52.25 442.607 52.7233 442.046 53.1642C439.61 55.0449 437.014 56.075 434.489 56.075Z" fill="#E3E3E3"/>
<path d="M434.489 81.9037C430.759 81.9037 427.88 78.4637 427.795 78.355C428.243 80.1223 428.56 81.1004 428.56 81.1004C428.56 81.1004 430.703 84.1246 434.489 84.1246C435.65 84.1496 436.799 83.8865 437.833 83.3588C438.868 82.8311 439.756 82.0552 440.418 81.1004C440.418 81.1004 440.739 80.1223 441.182 78.355C441.097 78.4637 438.218 81.9037 434.489 81.9037Z" fill="#FD3300"/>
<path d="M434.489 53.1405V35C434.489 35 428.38 39.2292 425.992 48.3727C425.992 48.3727 429.055 53.1405 434.489 53.1405Z" fill="#FD3300"/>
<path d="M442.986 48.3727C440.597 39.2292 434.489 35 434.489 35V53.1405C439.922 53.1405 442.986 48.3774 442.986 48.3727Z" fill="#DB3300"/>
<path d="M434.489 56.0751V54.5347C430.415 54.5347 426.983 51.4443 425.619 50.022C425.501 50.6268 425.397 51.2458 425.312 51.8837C425.741 52.2854 426.256 52.7249 426.832 53.169C429.339 55.045 431.987 56.0751 434.489 56.0751Z" fill="#03283B"/>
<path d="M434.489 54.5107V56.0748C436.995 56.0748 439.61 55.0683 442.042 53.1593C442.602 52.7184 443.136 52.2451 443.642 51.7417C443.557 51.0896 443.448 50.4611 443.321 49.8516C442.16 51.1416 438.751 54.5107 434.489 54.5107Z" fill="#03283B"/>
<path d="M429.796 64.7268C429.796 65.3513 429.918 65.9697 430.157 66.5467C430.395 67.1237 430.745 67.648 431.186 68.0896C431.627 68.5311 432.151 68.8812 432.727 69.1199C433.304 69.3586 433.921 69.4811 434.545 69.4805V59.9731C433.286 59.9731 432.078 60.474 431.187 61.3655C430.297 62.257 429.796 63.4661 429.796 64.7268Z" fill="#00D6E8"/>
<path d="M439.294 64.7268C439.293 63.4665 438.792 62.2581 437.902 61.3668C437.012 60.4756 435.804 59.9744 434.545 59.9731V69.4805C435.805 69.4805 437.013 68.9797 437.903 68.0882C438.794 67.1967 439.294 65.9876 439.294 64.7268Z" fill="#00BCC5"/>
<path d="M434.545 59.3403C433.481 59.3394 432.44 59.6545 431.554 60.2459C430.669 60.8372 429.978 61.6782 429.57 62.6625C429.162 63.6467 429.055 64.73 429.262 65.7752C429.469 66.8205 429.981 67.7808 430.734 68.5346C431.486 69.2885 432.445 69.802 433.489 70.0102C434.533 70.2185 435.615 70.1121 436.599 69.7045C437.583 69.2969 438.423 68.6064 439.015 67.7205C439.606 66.8345 439.922 65.7928 439.922 64.7272C439.921 63.2997 439.354 61.931 438.346 60.9212C437.338 59.9113 435.971 59.3428 434.545 59.3403ZM434.545 68.8477C433.731 68.8477 432.935 68.606 432.258 68.1533C431.582 67.7005 431.054 67.057 430.742 66.304C430.431 65.5511 430.349 64.7226 430.508 63.9233C430.667 63.124 431.059 62.3898 431.635 61.8136C432.21 61.2373 432.944 60.8449 433.742 60.6859C434.541 60.5269 435.368 60.6085 436.121 60.9204C436.873 61.2322 437.516 61.7604 437.968 62.438C438.42 63.1156 438.662 63.9122 438.662 64.7272C438.657 65.8172 438.221 66.8609 437.45 67.6303C436.678 68.3997 435.634 68.8323 434.545 68.8335V68.8477Z" fill="#FD3300"/>
<path d="M434.564 75.0376C434.533 75.0341 434.502 75.0384 434.473 75.0499C434.445 75.0615 434.419 75.0799 434.399 75.1037C433.433 76.2888 432.921 77.78 432.954 79.3093C432.954 79.985 432.988 80.8261 433.058 81.7381C431.307 81.2575 429.712 80.3256 428.432 79.0352L427.488 75.2549C427.472 75.1861 427.439 75.1226 427.391 75.0707C427.343 75.0188 427.283 74.9801 427.216 74.9587C427.149 74.9372 427.077 74.9337 427.008 74.9483C426.939 74.963 426.875 74.9954 426.822 75.0423C426.723 75.1273 424.368 77.1592 424.193 80.1031C424.028 82.9052 424.609 88.8213 424.632 89.0812C424.642 89.1816 424.689 89.2748 424.763 89.3435C424.836 89.4121 424.933 89.4516 425.033 89.4545C425.132 89.4555 425.227 89.4205 425.302 89.3562C425.377 89.2919 425.426 89.2025 425.439 89.1049C425.651 87.8627 425.939 86.6348 426.303 85.4285C427.002 83.1509 427.823 81.8326 428.612 81.7003C428.665 81.6923 428.717 81.6736 428.763 81.6452C428.809 81.6168 428.849 81.5792 428.881 81.5349C430.028 82.8305 431.569 83.7136 433.266 84.0488C433.516 86.1279 433.894 88.1881 434.347 89.3033C434.361 89.3406 434.386 89.3725 434.419 89.3946C434.452 89.4166 434.491 89.4277 434.531 89.4262V75.1132C434.54 75.087 434.551 75.0617 434.564 75.0376Z" fill="#03283B"/>
<path d="M434.725 89.2751C435.197 88.1599 435.56 86.0949 435.81 84.0158C437.536 83.7259 439.093 82.8068 440.182 81.4358C440.187 81.4564 440.197 81.4756 440.21 81.4925C440.241 81.5405 440.282 81.5814 440.33 81.6124C440.378 81.6433 440.432 81.6637 440.488 81.672C441.277 81.8043 442.098 83.1227 442.802 85.4003C443.163 86.607 443.449 87.8348 443.661 89.0766C443.675 89.1739 443.724 89.2626 443.799 89.3268C443.873 89.391 443.968 89.4263 444.067 89.4263C444.167 89.4232 444.262 89.3836 444.336 89.3148C444.409 89.2461 444.454 89.1529 444.463 89.053C444.487 88.8073 445.067 82.9101 444.902 80.0749C444.732 77.131 442.372 75.0991 442.273 75.014C442.22 74.9683 442.156 74.937 442.087 74.9229C442.019 74.9089 441.948 74.9126 441.881 74.9337C441.814 74.9555 441.754 74.9937 441.706 75.045C441.659 75.0962 441.624 75.1587 441.607 75.2267L440.71 78.8416C439.927 79.6354 438.199 81.1617 436.018 81.6767C436.084 80.7742 436.122 79.9473 436.122 79.2763C436.153 77.7474 435.641 76.2571 434.677 75.0707C434.645 75.0335 434.599 75.0099 434.55 75.0046C434.548 75.0297 434.548 75.055 434.55 75.0802V89.3649C434.584 89.3674 434.619 89.3603 434.65 89.3445C434.681 89.3286 434.707 89.3046 434.725 89.2751Z" fill="#03283B"/>
<path opacity="0.38" d="M436.627 61.1733L431.746 67.7463C432.437 68.3354 433.282 68.7127 434.182 68.8331L438.322 63.0918C437.98 62.2853 437.385 61.612 436.627 61.1733Z" fill="white"/>
<path d="M421.096 88.5946C421.096 88.6881 421.069 88.7794 421.017 88.8571C420.965 88.9348 420.891 88.9954 420.805 89.0312C420.719 89.0669 420.624 89.0763 420.532 89.0581C420.441 89.0398 420.357 88.9948 420.291 88.9287C420.225 88.8626 420.18 88.7784 420.161 88.6868C420.143 88.5951 420.153 88.5001 420.188 88.4138C420.224 88.3274 420.285 88.2536 420.362 88.2017C420.44 88.1498 420.531 88.1221 420.624 88.1221C420.75 88.1221 420.87 88.1719 420.958 88.2605C421.047 88.3491 421.096 88.4693 421.096 88.5946Z" fill="white"/>
<path d="M448.91 86.1233C448.91 86.2551 448.871 86.3839 448.798 86.4935C448.725 86.603 448.621 86.6884 448.499 86.7389C448.378 86.7893 448.244 86.8025 448.115 86.7768C447.985 86.7511 447.867 86.6876 447.774 86.5944C447.681 86.5013 447.617 86.3825 447.592 86.2533C447.566 86.124 447.579 85.9901 447.63 85.8683C447.68 85.7466 447.765 85.6425 447.875 85.5693C447.984 85.4961 448.113 85.457 448.244 85.457C448.332 85.457 448.418 85.4743 448.499 85.5077C448.58 85.5412 448.653 85.5903 448.715 85.6522C448.777 85.7141 448.826 85.7875 448.859 85.8683C448.893 85.9492 448.91 86.0358 448.91 86.1233Z" fill="white"/>
<path d="M421.38 70.1609C421.38 70.2929 421.34 70.4219 421.267 70.5316C421.194 70.6412 421.09 70.7266 420.968 70.7769C420.846 70.8272 420.712 70.8401 420.582 70.814C420.453 70.7879 420.335 70.724 420.242 70.6304C420.149 70.5367 420.086 70.4175 420.061 70.288C420.036 70.1584 420.049 70.0243 420.1 69.9027C420.152 69.781 420.238 69.6773 420.348 69.6046C420.458 69.532 420.587 69.4937 420.719 69.4946C420.806 69.4946 420.892 69.5119 420.973 69.5455C421.053 69.579 421.126 69.6281 421.188 69.6901C421.249 69.752 421.298 69.8255 421.331 69.9063C421.364 69.9871 421.38 70.0736 421.38 70.1609Z" fill="white"/>
<path d="M421.191 77.9531C421.506 77.9531 421.762 77.6971 421.762 77.3813C421.762 77.0656 421.506 76.8096 421.191 76.8096C420.875 76.8096 420.62 77.0656 420.62 77.3813C420.62 77.6971 420.875 77.9531 421.191 77.9531Z" fill="white"/>
<path d="M446.455 70.1611C446.455 70.2744 446.422 70.3851 446.359 70.4793C446.296 70.5734 446.206 70.6467 446.102 70.6898C445.997 70.7329 445.882 70.744 445.771 70.7215C445.66 70.6991 445.558 70.6442 445.479 70.5637C445.399 70.4833 445.345 70.381 445.323 70.2698C445.302 70.1585 445.314 70.0434 445.358 69.939C445.402 69.8346 445.476 69.7457 445.57 69.6834C445.665 69.6212 445.776 69.5884 445.889 69.5894C445.964 69.5894 446.038 69.6042 446.107 69.633C446.176 69.6618 446.238 69.704 446.291 69.7571C446.344 69.8103 446.385 69.8733 446.414 69.9427C446.442 70.012 446.456 70.0863 446.455 70.1611Z" fill="white"/>
<path d="M417.49 81.9416C417.491 82.0548 417.458 82.1658 417.396 82.2605C417.334 82.3551 417.245 82.4292 417.141 82.4732C417.036 82.5172 416.921 82.5292 416.81 82.5076C416.699 82.4861 416.597 82.432 416.517 82.3523C416.436 82.2725 416.381 82.1706 416.359 82.0596C416.336 81.9485 416.347 81.8333 416.391 81.7286C416.434 81.6238 416.507 81.5343 416.601 81.4712C416.695 81.4082 416.806 81.3745 416.919 81.3745C417.069 81.3745 417.214 81.4341 417.321 81.5403C417.428 81.6465 417.489 81.7907 417.49 81.9416Z" fill="white"/>
<path d="M450.336 78.331C450.336 78.4441 450.302 78.5547 450.239 78.6487C450.177 78.7427 450.087 78.816 449.983 78.8593C449.879 78.9026 449.764 78.9139 449.653 78.8918C449.542 78.8698 449.44 78.8153 449.361 78.7353C449.281 78.6554 449.226 78.5535 449.204 78.4426C449.182 78.3317 449.193 78.2167 449.237 78.1122C449.28 78.0078 449.353 77.9185 449.447 77.8556C449.541 77.7928 449.651 77.7593 449.764 77.7593C449.916 77.7593 450.061 77.8195 450.168 77.9267C450.275 78.034 450.336 78.1794 450.336 78.331Z" fill="white"/>
<path d="M467.802 112.92C467.802 112.92 467.99 126.888 456.029 131.543L456.317 118.052" fill="#FFBB8B"/>
<path d="M464.865 118.544C464.865 118.544 460.05 125.632 459.701 129.677C459.352 133.722 459.772 139.718 455.453 140.096C455.453 140.096 454.249 125.211 456.463 123.534C458.677 121.856 464.865 118.544 464.865 118.544Z" fill="#F59A66"/>
<path d="M458.313 82.707C455.986 84.0491 453.743 85.5325 451.596 87.1488C446.115 91.2834 439.946 97.4831 444.317 102.086C448.093 106.041 459.064 99.5055 463.525 95.8528C472.258 88.7081 468.288 76.0868 458.313 82.707Z" fill="#FFBB8B"/>
<mask id="mask1_915_50" style="mask-type:luminance" maskUnits="userSpaceOnUse" x="442" y="80" width="27" height="24">
<path d="M458.313 82.707C455.986 84.0491 453.743 85.5325 451.596 87.1488C446.115 91.2834 439.946 97.4831 444.317 102.086C448.093 106.041 459.064 99.5055 463.525 95.8528C472.258 88.7081 468.288 76.0868 458.313 82.707Z" fill="white"/>
</mask>
<g mask="url(#mask1_915_50)">
<path d="M457.223 83.312C457.223 83.312 446.172 90.452 448.381 96.1885C452.158 106.031 464.757 94.6764 464.757 94.6764C464.757 94.6764 454.107 108.252 449.684 109.16C445.261 110.067 441.749 110.265 441.348 109.66C440.946 109.056 439.931 100.914 440.446 99.4065C440.961 97.8991 444.964 90.1543 445.667 90.0503C446.37 89.9464 454.409 84.0161 457.223 83.312Z" fill="#F59A66"/>
</g>
<path d="M462.335 96.8547C460.121 97.6596 457.959 98.5985 455.859 99.6663C450.501 102.407 444.222 106.82 447.3 111.48C449.948 115.473 460.433 111.48 464.842 109.022C473.471 104.16 471.946 92.6586 462.335 96.8547Z" fill="#FFBB8B"/>
<mask id="mask2_915_50" style="mask-type:luminance" maskUnits="userSpaceOnUse" x="446" y="95" width="25" height="19">
<path d="M462.335 96.8547C460.121 97.6596 457.959 98.5985 455.859 99.6663C450.501 102.407 444.222 106.82 447.3 111.48C449.948 115.473 460.433 111.48 464.842 109.022C473.471 104.16 471.946 92.6586 462.335 96.8547Z" fill="white"/>
</mask>
<g mask="url(#mask2_915_50)">
<path d="M461.301 97.2139C461.301 97.2139 450.671 101.698 451.709 106.986C453.489 116.068 466.083 108.177 466.083 108.177C466.083 108.177 454.82 118.279 450.864 118.388C446.908 118.497 443.84 118.138 443.585 117.552C443.33 116.966 443.703 109.783 444.364 108.574C445.025 107.364 449.675 101.273 450.298 101.292C450.921 101.311 458.766 97.3934 461.301 97.2139Z" fill="#F59A66"/>
</g>
<path d="M460.669 109.32C458.871 110.207 457.129 111.205 455.453 112.306C451.176 115.094 444.959 120.812 448.343 124.12C452.521 128.207 460.395 121.837 463.898 119.342C470.743 114.48 468.42 104.897 460.669 109.32Z" fill="#FFBB8B"/>
<mask id="mask3_915_50" style="mask-type:luminance" maskUnits="userSpaceOnUse" x="447" y="108" width="21" height="18">
<path d="M460.669 109.32C458.871 110.207 457.129 111.205 455.453 112.306C451.176 115.094 444.959 120.812 448.343 124.12C452.521 128.207 460.395 121.837 463.898 119.342C470.743 114.48 468.42 104.897 460.669 109.32Z" fill="white"/>
</mask>
<g mask="url(#mask3_915_50)">
<path d="M459.829 109.717C459.829 109.717 451.251 114.48 452.592 118.851C454.924 126.364 464.865 118.544 464.865 118.544C464.865 118.544 456.269 128.112 452.937 128.566C449.604 129.02 446.979 128.991 446.71 128.524C446.441 128.056 446.101 121.946 446.55 120.85C446.998 119.753 450.369 114.192 450.897 114.154C451.426 114.116 457.7 110.1 459.829 109.717Z" fill="#F59A66"/>
</g>
<path d="M423.282 99.2737C422.81 97.1946 421.474 95.966 420.148 96.0038C416.159 96.1975 413.029 100.564 405.15 104.557C390.148 112.16 401.161 132.209 401.161 132.209L407.884 118.189C406.703 118.581 407.884 118.147 407.884 118.147C420.2 112.585 423.282 99.2737 423.282 99.2737Z" fill="#FFBB8B"/>
<path d="M423.282 99.2739C423.282 99.2739 420.922 111.494 404.579 118.052C404.579 118.052 406.703 118.582 407.883 118.189L408.568 118.052C421.285 112.443 424.203 103.456 423.282 99.2739Z" fill="#F59A66"/>
<path d="M408.95 103.975C408.95 103.975 410.99 106.593 414.426 104.448C417.863 102.303 415.739 98.376 415.739 98.376C415.739 98.376 418.392 101.57 416.508 103.89C414.625 106.211 411.891 107.43 408.95 103.975Z" fill="#F59A66"/>
<path d="M469.888 97.9082C469.888 97.9082 467.424 92.9655 461.349 95.9094C461.349 95.9094 459.734 100.375 460.494 100.375" fill="#FFBB8B"/>
<path d="M404.579 118.052C404.579 118.052 408.091 120.236 408.091 127.031C408.091 127.031 409.229 123.042 409.229 122.542C409.229 122.041 408.662 120.996 408.851 120.524C409.064 119.551 409.222 118.566 409.323 117.575L404.579 118.052Z" fill="#F59A66"/>
<path d="M433.818 166.988H410.56V205.093H433.818V166.988Z" fill="#03283B"/>
<path d="M457.36 166.988H433.818V205.093H457.36V166.988Z" fill="#011B29"/>
<path d="M457.265 156.918H410.466V166.992H457.265V156.918Z" fill="white"/>
<path d="M450.232 184.902C450.232 185.381 450.09 185.85 449.824 186.248C449.558 186.647 449.179 186.958 448.737 187.141C448.294 187.325 447.807 187.373 447.338 187.279C446.868 187.186 446.436 186.955 446.098 186.616C445.759 186.277 445.528 185.845 445.435 185.375C445.342 184.904 445.389 184.417 445.573 183.974C445.756 183.531 446.066 183.152 446.465 182.886C446.863 182.62 447.331 182.478 447.81 182.478C448.452 182.478 449.068 182.733 449.522 183.188C449.977 183.642 450.232 184.259 450.232 184.902Z" fill="white"/>
<path d="M427.304 166.988C427.304 166.988 454.891 166.132 457.265 156.918V166.988H427.304Z" fill="#CECECE"/>
<path d="M389.766 84.0064L385.234 85.5752L390.045 86.8699L391.225 91.5102V79.8765L389.766 84.0064Z" fill="#FDC634"/>
<path d="M392.631 86.9313L397.319 85.5751L392.631 84.0252L391.277 79.6401L391.225 79.8764V91.5102L391.277 91.737L392.631 86.9313Z" fill="#FDD060"/>
<path d="M392.631 86.9313L397.319 85.5751L392.631 84.0252L391.277 79.6401L391.225 79.8764V91.5102L391.277 91.737L392.631 86.9313Z" fill="#ED9200"/>
<path d="M347.399 129.02L343.231 130.466L347.654 131.652L348.74 135.924V125.221L347.399 129.02Z" fill="#FDC634"/>
<path d="M350.033 131.709L354.343 130.466L350.033 129.039L348.787 125.003L348.74 125.221V135.924L348.787 136.132L350.033 131.709Z" fill="#FDD060"/>
<path d="M350.033 131.709L354.343 130.466L350.033 129.039L348.787 125.003L348.74 125.221V135.924L348.787 136.132L350.033 131.709Z" fill="#ED9200"/>
<path d="M520.644 129.02L516.475 130.466L520.899 131.652L521.984 135.924V125.221L520.644 129.02Z" fill="#FDC634"/>
<path d="M523.278 131.709L527.592 130.466L523.278 129.039L522.032 125.003L521.984 125.221V135.924L522.032 136.132L523.278 131.709Z" fill="#FDD060"/>
<path d="M523.278 131.709L527.592 130.466L523.278 129.039L522.032 125.003L521.984 125.221V135.924L522.032 136.132L523.278 131.709Z" fill="#ED9200"/>
<path d="M337.769 180.332L333.605 181.773L338.029 182.964L339.114 187.231V176.528L337.769 180.332Z" fill="#FDC634"/>
<path d="M340.403 183.016L344.718 181.773L340.403 180.346L339.161 176.315L339.114 176.528V187.231L339.161 187.439L340.403 183.016Z" fill="#FDD060"/>
<path d="M340.403 183.016L344.718 181.773L340.403 180.346L339.161 176.315L339.114 176.528V187.231L339.161 187.439L340.403 183.016Z" fill="#ED9200"/>
<path d="M533.389 186.003L529.221 187.444L533.644 188.635L534.73 192.902V182.199L533.389 186.003Z" fill="#FDC634"/>
<path d="M536.023 188.686L540.338 187.444L536.023 186.017L534.777 181.986L534.73 182.198V192.901L534.777 193.109L536.023 188.686Z" fill="#FDD060"/>
<path d="M536.023 188.686L540.338 187.444L536.023 186.017L534.777 181.986L534.73 182.198V192.901L534.777 193.109L536.023 188.686Z" fill="#ED9200"/>
<path d="M479.575 165.211L475.406 166.652L479.83 167.843L480.915 172.11V161.407L479.575 165.211Z" fill="#FDC634"/>
<path d="M482.209 167.895L486.523 166.652L482.209 165.225L480.963 161.194L480.915 161.407V172.11L480.963 172.318L482.209 167.895Z" fill="#FDD060"/>
<path d="M482.209 167.895L486.523 166.652L482.209 165.225L480.963 161.194L480.915 161.407V172.11L480.963 172.318L482.209 167.895Z" fill="#ED9200"/>
<path d="M387.052 151.508L382.883 152.949L387.307 154.14L388.392 158.406V147.704L387.052 151.508Z" fill="#FDC634"/>
<path d="M389.686 154.192L393.996 152.949L389.686 151.522L388.44 147.491L388.392 147.704V158.407L388.44 158.615L389.686 154.192Z" fill="#FDD060"/>
<path d="M389.686 154.192L393.996 152.949L389.686 151.522L388.44 147.491L388.392 147.704V158.407L388.44 158.615L389.686 154.192Z" fill="#ED9200"/>
<path d="M487.142 91.9118L481.562 93.8492L487.486 95.4416L488.94 101.159V86.8179L487.142 91.9118Z" fill="#FDC634"/>
<path d="M490.673 95.5123L496.451 93.849L490.673 91.9352L489.007 86.5342L488.94 86.8177V101.159L489.007 101.438L490.673 95.5123Z" fill="#FDD060"/>
<path d="M490.673 95.5123L496.451 93.849L490.673 91.9352L489.007 86.5342L488.94 86.8177V101.159L489.007 101.438L490.673 95.5123Z" fill="#ED9200"/>
<path d="M512.472 224.235C517.882 224.235 522.268 219.845 522.268 214.43C522.268 209.015 517.882 204.625 512.472 204.625C507.063 204.625 502.677 209.015 502.677 214.43C502.677 219.845 507.063 224.235 512.472 224.235Z" fill="white"/>
<path d="M555.028 238V224.33C550.133 218.489 543.249 214.672 535.707 213.613C528.164 212.555 520.497 214.33 514.186 218.598C513.406 214.98 511.811 211.588 509.521 208.681C507.232 205.774 504.309 203.43 500.976 201.827C497.643 200.224 493.988 199.405 490.29 199.432C486.593 199.459 482.95 200.332 479.641 201.984C478.2 198.129 475.56 194.839 472.11 192.6C468.66 190.361 464.583 189.291 460.479 189.547C456.375 189.803 452.462 191.372 449.317 194.023C446.172 196.674 443.961 200.266 443.009 204.271C439.902 202.141 436.229 200.99 432.463 200.965C428.697 200.941 425.01 202.044 421.875 204.134C420.898 200.148 418.67 196.581 415.52 193.955C412.369 191.33 408.461 189.783 404.368 189.543C400.276 189.302 396.214 190.381 392.778 192.619C389.342 194.858 386.713 198.14 385.277 201.984C381.193 199.944 376.617 199.098 372.075 199.543C367.532 199.989 363.208 201.708 359.597 204.502C358.111 203.606 356.414 203.121 354.679 203.096C352.944 203.072 351.234 203.509 349.724 204.363C348.213 205.217 346.956 206.457 346.082 207.957C345.207 209.457 344.746 211.162 344.746 212.899C344.745 213.695 344.84 214.488 345.029 215.262C342.759 214.755 340.44 214.5 338.114 214.501C331.21 214.482 326.492 224.813 321 229L319 238H555.028Z" fill="white"/>
<path d="M448.622 203.935C451.338 203.936 453.953 204.962 455.945 206.81C457.937 208.658 459.159 211.19 459.366 213.901C459.385 213.63 459.394 213.356 459.394 213.079C459.394 210.219 458.259 207.476 456.239 205.454C454.219 203.431 451.479 202.295 448.622 202.295C445.765 202.295 443.025 203.431 441.005 205.454C438.985 207.476 437.85 210.219 437.85 213.079C437.85 213.359 437.859 213.633 437.878 213.901C438.085 211.19 439.307 208.658 441.299 206.81C443.291 204.962 445.906 203.936 448.622 203.935Z" fill="#CED7DC"/>
<path d="M416.244 203.741C418.959 203.742 421.575 204.769 423.567 206.616C425.559 208.464 426.781 210.997 426.988 213.707C427.006 213.439 427.016 213.165 427.016 212.885C426.957 210.063 425.796 207.378 423.782 205.403C421.767 203.429 419.06 202.323 416.241 202.323C413.422 202.323 410.715 203.429 408.701 205.403C406.687 207.378 405.526 210.063 405.467 212.885C405.467 213.164 405.467 213.438 405.5 213.707C405.707 210.997 406.928 208.464 408.92 206.616C410.912 204.769 413.528 203.742 416.244 203.741Z" fill="#CED7DC"/>
<path d="M371.936 207.805C373.949 207.805 375.887 208.566 377.363 209.936C378.838 211.305 379.743 213.182 379.895 215.191C379.895 214.988 379.919 214.785 379.919 214.581C379.919 212.462 379.078 210.43 377.581 208.931C376.084 207.433 374.054 206.591 371.936 206.591C369.819 206.591 367.789 207.433 366.292 208.931C364.795 210.43 363.954 212.462 363.954 214.581C363.954 214.785 363.954 214.988 363.954 215.191C364.108 213.179 365.016 211.299 366.496 209.929C367.977 208.559 369.92 207.801 371.936 207.805Z" fill="#CED7DC"/>
<path d="M494.695 208.75C496.707 208.751 498.644 209.513 500.12 210.882C501.595 212.251 502.5 214.128 502.654 216.136C502.654 215.933 502.677 215.729 502.677 215.526C502.677 213.407 501.836 211.375 500.339 209.876C498.842 208.377 496.812 207.536 494.695 207.536C492.578 207.536 490.547 208.377 489.05 209.876C487.553 211.375 486.712 213.407 486.712 215.526C486.712 215.729 486.712 215.933 486.736 216.136C486.888 214.127 487.793 212.25 489.269 210.881C490.744 209.511 492.682 208.75 494.695 208.75Z" fill="#CED7DC"/>
<path d="M355.235 212.134C358.541 212.132 361.726 213.381 364.152 215.631C366.577 217.88 368.065 220.963 368.316 224.264C368.316 223.933 368.353 223.602 368.353 223.267C368.387 221.521 368.072 219.787 367.427 218.165C366.783 216.543 365.822 215.066 364.601 213.82C363.38 212.575 361.923 211.585 360.315 210.909C358.707 210.234 356.981 209.886 355.237 209.886C353.494 209.886 351.767 210.234 350.16 210.909C348.552 211.585 347.095 212.575 345.874 213.82C344.652 215.066 343.692 216.543 343.047 218.165C342.403 219.787 342.088 221.521 342.121 223.267C342.121 223.602 342.121 223.933 342.154 224.264C342.408 220.964 343.895 217.882 346.321 215.633C348.746 213.384 351.929 212.135 355.235 212.134Z" fill="#CED7DC"/>
<path d="M512.93 212.606C516.236 212.607 519.42 213.857 521.845 216.106C524.27 218.355 525.758 221.437 526.011 224.736C526.035 224.405 526.044 224.075 526.044 223.739C526.077 221.994 525.762 220.26 525.118 218.638C524.474 217.016 523.513 215.539 522.292 214.293C521.071 213.047 519.613 212.058 518.006 211.382C516.398 210.706 514.672 210.358 512.928 210.358C511.184 210.358 509.458 210.706 507.85 211.382C506.243 212.058 504.786 213.047 503.564 214.293C502.343 215.539 501.382 217.016 500.738 218.638C500.094 220.26 499.779 221.994 499.812 223.739C499.812 224.075 499.812 224.405 499.85 224.736C500.101 221.436 501.588 218.353 504.014 216.103C506.439 213.854 509.624 212.605 512.93 212.606Z" fill="#CED7DC"/>
</g>
<g clip-path="url(#clip1_915_50)">
<path d="M92.8913 84.3468L90.0441 87.6141L87.6274 87.9488L87.1002 88.0281L81.0103 88.9087L78.0752 89.3226L75.2192 86.8744V61.9953L78.0752 58.728L81.0103 58.3141L87.1002 57.4334L87.6274 57.363L90.0441 57.0195L92.8913 59.4678V65.5356L87.1002 66.3547V64.3379L86.0105 63.3956L82.1088 63.9504L81.0103 65.201V81.9866L82.1088 82.8673V82.9201L86.0984 82.3477L87.1881 81.1412V79.1597L92.9792 78.3406L92.8913 84.3468Z" fill="white"/>
<path d="M115.643 56.2359V81.1061L112.795 84.3734L110.388 84.7168L109.86 84.7873L102.927 85.7737L99.9918 86.1964L97.1445 83.7393V58.8691L99.9918 55.6106L102.927 55.1967L109.86 54.2103L110.388 54.1311L112.795 53.7876L115.643 56.2359ZM109.86 77.8916V61.106L108.762 60.1637L104.025 60.833L102.927 62.0923V78.878L104.025 79.8203L108.762 79.1422L109.86 77.8916Z" fill="white"/>
<path d="M145.89 49.0757V79.6527L140.055 80.5333V67.834L135.978 81.0441H135.846L130.195 81.8455H130.063L125.942 69.7803V82.4356L120.151 83.2634V52.7393L125.942 51.9114L132.972 72.7482L140.002 49.9035L145.89 49.0757Z" fill="white"/>
<path d="M156.637 47.5435V78.1293L150.855 78.9483V48.3713L156.637 47.5435Z" fill="white"/>
<path d="M181.41 44.0205V74.5975L175.628 75.4253L167.605 58.8158V76.5702L161.813 77.3892V46.8122L167.605 45.9844L175.628 62.5939V44.8395L181.41 44.0205Z" fill="white"/>
<path d="M205.436 68.3185L202.588 71.5506L200.181 71.894L199.653 71.9645L192.157 73.0389L189.961 73.3471L189.214 73.4528L186.366 71.0045V46.1696L189.214 42.9023L189.961 42.7966L192.157 42.4883L199.653 41.4227L200.181 41.3435L202.588 41L205.436 43.4483V49.428L199.653 50.2559V48.3184L198.555 47.3761L193.282 48.1335L192.193 49.384V66.1697L193.282 67.112L198.555 66.3546L199.653 65.104V60.7007L198.555 59.7584L196.411 60.0666V54.2718L205.436 52.986V68.3185Z" fill="white"/>
<path d="M155.557 124.875L151.365 129.675L148.913 130.018L147.041 130.291L139.352 131.436L135.028 132.053L130.828 128.442V119.635L139.352 118.42V121.264L140.969 122.629L145.486 121.987L147.041 120.146V114.58L130.828 105.897V91.8058L135.028 86.9974L147.041 85.2889L151.435 84.6636L155.636 88.2743V97.0811L147.05 98.3052V95.4606L145.495 94.0604L140.978 94.7032L139.361 96.5527V100.436L155.636 109.049V124.902L155.557 124.875Z" fill="white"/>
<path d="M187.772 83.6689V120.287L183.581 125.096L180.066 125.598L179.292 125.712L169.09 127.165L164.757 127.782L160.566 124.171V87.5438L164.757 82.7442L169.09 82.1277L179.283 80.6746L180.057 80.5689L183.572 80.0581L187.772 83.6689ZM179.283 115.584V90.8375L177.666 89.4461L170.689 90.4412L169.081 92.2907V117.002L170.689 118.394L177.666 117.399L179.283 115.584Z" fill="white"/>
<path d="M221.667 78.8427V115.461L217.475 120.27L213.96 120.772L213.186 120.886L202.984 122.339L198.66 122.956L194.46 119.345V82.7177L198.66 77.918L202.984 77.3015L213.186 75.8484L213.96 75.7427L217.475 75.2319L221.667 78.8427ZM213.151 110.723V86.0114L211.534 84.6199L204.566 85.6415L202.949 87.4909V112.203L204.566 113.594L211.534 112.599L213.151 110.723Z" fill="white"/>
<path d="M257.178 69.5776V114.615L248.654 115.831L236.843 91.3655V117.513L228.319 118.719V73.6904L236.843 72.4751L248.654 96.9314V70.793L257.178 69.5776Z" fill="white"/>
<path d="M213.837 68.7503C213.779 68.7543 213.721 68.7469 213.666 68.7285C213.611 68.7102 213.561 68.6811 213.517 68.6431C213.429 68.5663 213.375 68.4575 213.367 68.3408C213.358 68.224 213.397 68.1087 213.474 68.0204C213.55 67.932 213.659 67.8778 213.775 67.8696L289.508 57.1342C289.624 57.1178 289.743 57.1485 289.837 57.2196C289.931 57.2906 289.992 57.3961 290.009 57.5129C290.025 57.6297 289.994 57.7482 289.924 57.8423C289.853 57.9364 289.747 57.9985 289.631 58.0149L213.898 68.7503H213.837Z" fill="white"/>
<path d="M46.4394 101.705C46.3228 101.712 46.2083 101.672 46.121 101.595C46.0336 101.517 45.9806 101.408 45.9736 101.291C45.9666 101.174 46.0062 101.059 46.0837 100.972C46.1611 100.884 46.2701 100.831 46.3866 100.824L122.11 90.0888C122.225 90.0736 122.34 90.1039 122.432 90.173C122.524 90.2422 122.585 90.3447 122.603 90.4587C122.618 90.5739 122.588 90.6907 122.519 90.7843C122.45 90.8779 122.348 90.9411 122.234 90.9606L46.5009 101.705H46.4394Z" fill="white"/>
</g>
<g clip-path="url(#clip2_915_50)">
<mask id="mask4_915_50" style="mask-type:luminance" maskUnits="userSpaceOnUse" x="58" y="155" width="104" height="34">
<path d="M161.365 155H58.0204V189H161.365V155Z" fill="white"/>
</mask>
<g mask="url(#mask4_915_50)">
<path d="M161.366 184.399C161.366 186.929 159.325 189 156.79 189H62.5964C60.0608 189 58.0204 186.929 58.0204 184.399V159.601C58.0204 157.052 60.0608 155 62.5964 155H156.809C159.325 155 161.385 157.052 161.385 159.601V184.399H161.366Z" fill="black"/>
<path d="M84.9611 177.468C84.4064 178.683 84.1489 179.24 83.4556 180.316C82.4652 181.83 81.0785 183.702 79.3749 183.702C77.8496 183.722 77.4534 182.706 75.3932 182.706C73.333 182.726 72.8972 183.702 71.3719 183.702C69.6485 183.682 68.3213 182.009 67.3506 180.495C64.5971 176.293 64.3198 171.353 66.0036 168.724C67.212 166.852 69.1136 165.776 70.8965 165.776C72.7189 165.776 73.8679 166.772 75.3734 166.772C76.8393 166.772 77.7307 165.776 79.8305 165.776C81.4152 165.776 83.099 166.652 84.3074 168.146C80.3654 170.317 80.9992 175.954 84.9611 177.468Z" fill="white"/>
<path d="M78.226 164.083C78.9985 163.087 79.573 161.712 79.3551 160.278C78.1071 160.358 76.6412 161.155 75.7895 162.21C75.0169 163.147 74.383 164.561 74.6207 165.915C75.9875 165.955 77.394 165.138 78.226 164.083Z" fill="white"/>
<path d="M93.3405 168.664L89.3984 180.316H91.2011L92.3698 176.73H96.1732L97.3816 180.316H99.2437L95.2818 168.664H93.3405ZM94.2715 170.576C94.4102 171.094 94.5489 171.631 94.7272 172.229L95.7968 175.316H92.7858L93.8357 172.209C93.9942 171.691 94.1329 171.153 94.2715 170.576Z" fill="white"/>
<path d="M104.354 171.691C103.166 171.691 102.195 172.149 101.561 173.046L101.482 171.891H99.8775V172.03C99.9171 172.747 99.9369 173.544 99.9369 174.679V183.662H101.7V179.479C102.235 180.137 103.106 180.515 104.097 180.515C105.127 180.515 106.058 180.117 106.751 179.38C107.524 178.563 107.92 177.388 107.92 175.994C107.92 174.759 107.564 173.683 106.91 172.906C106.276 172.11 105.365 171.691 104.354 171.691ZM103.919 173.145C105.484 173.145 106.177 174.599 106.177 176.053C106.177 177.906 105.285 179.061 103.839 179.061C102.849 179.061 102.017 178.384 101.779 177.428C101.74 177.268 101.72 177.089 101.72 176.85V175.436C101.72 175.316 101.74 175.157 101.779 174.998C101.779 174.958 101.799 174.898 101.799 174.858C102.057 173.843 102.928 173.145 103.919 173.145Z" fill="white"/>
<path d="M113.387 171.691C112.199 171.691 111.228 172.149 110.594 173.046L110.515 171.891H108.93V172.03C108.97 172.747 108.99 173.544 108.99 174.679V183.662H110.753V179.479C111.288 180.137 112.159 180.515 113.15 180.515C114.18 180.515 115.111 180.117 115.804 179.38C116.577 178.563 116.973 177.388 116.973 175.994C116.973 174.759 116.616 173.683 115.963 172.906C115.309 172.11 114.398 171.691 113.387 171.691ZM112.952 173.145C114.517 173.145 115.21 174.599 115.21 176.053C115.21 177.906 114.319 179.061 112.872 179.061C111.902 179.061 111.05 178.384 110.812 177.428C110.773 177.268 110.753 177.089 110.753 176.85V175.436C110.753 175.316 110.773 175.157 110.812 174.998C110.812 174.958 110.832 174.898 110.832 174.858C111.09 173.843 111.961 173.145 112.952 173.145Z" fill="white"/>
<path d="M124.699 173.603C123.054 172.966 122.539 172.468 122.539 171.532C122.539 170.755 123.153 169.958 124.54 169.958C125.669 169.958 126.402 170.357 126.6 170.476L126.759 170.576L127.254 169.102L127.155 169.042C126.858 168.863 126.025 168.464 124.599 168.464C122.361 168.464 120.796 169.799 120.796 171.691C120.796 173.225 121.767 174.3 123.867 175.057C125.352 175.615 125.907 176.193 125.907 177.169C125.907 178.284 125.055 178.961 123.669 178.961C122.777 178.961 121.846 178.702 121.133 178.244L120.975 178.144L120.499 179.658L120.578 179.718C121.232 180.156 122.48 180.475 123.549 180.475C126.561 180.475 127.631 178.623 127.631 177.049C127.65 175.436 126.798 174.44 124.699 173.603Z" fill="white"/>
<path d="M130.8 169.859L129.077 170.397V171.871H127.808V173.285H129.077V177.607C129.077 178.643 129.274 179.38 129.69 179.838C130.087 180.276 130.681 180.515 131.394 180.515C132.048 180.515 132.523 180.376 132.741 180.296L132.84 180.256L132.761 178.842L132.602 178.902C132.384 178.961 132.147 179.001 131.791 179.001C131.117 179.001 130.82 178.563 130.82 177.547V173.285H132.939V171.871H130.82V169.859H130.8Z" fill="white"/>
<path d="M137.278 171.691C134.822 171.691 133.118 173.524 133.118 176.173C133.118 178.722 134.781 180.515 137.159 180.515H137.178C139.179 180.515 141.338 179.101 141.338 176.014C141.338 174.759 140.962 173.683 140.229 172.886C139.456 172.11 138.446 171.691 137.278 171.691ZM137.218 173.066C138.803 173.066 139.516 174.619 139.516 176.053C139.516 177.826 138.545 179.101 137.178 179.101H137.159C135.831 179.101 134.861 177.846 134.861 176.093C134.88 174.599 135.593 173.066 137.218 173.066Z" fill="white"/>
<path d="M146.687 171.771L146.588 171.751C146.429 171.711 146.31 171.691 146.152 171.691C145.24 171.691 144.409 172.229 143.953 173.106L143.894 171.871H142.328L142.349 172.01C142.389 172.707 142.408 173.484 142.408 174.54L142.389 180.296H144.151V175.794C144.151 175.555 144.171 175.316 144.191 175.117C144.389 174.042 145.122 173.345 146.033 173.345C146.212 173.345 146.351 173.364 146.509 173.364L146.687 173.384V171.771Z" fill="white"/>
<path d="M150.629 171.671C148.292 171.671 146.667 173.544 146.667 176.233C146.667 178.822 148.292 180.495 150.807 180.495C152.135 180.495 153.046 180.196 153.581 179.957L153.68 179.917L153.343 178.603L153.205 178.663C152.728 178.862 152.095 179.061 151.006 179.061C150.253 179.061 148.489 178.802 148.371 176.511L154.037 176.531L154.055 176.412C154.095 176.233 154.116 175.994 154.116 175.675C154.116 173.822 153.205 171.671 150.629 171.671ZM150.51 173.006C151.045 173.006 151.48 173.165 151.797 173.504C152.293 174.022 152.392 174.779 152.392 175.137H148.391C148.568 174.121 149.203 173.006 150.51 173.006Z" fill="white"/>
<path d="M89.3984 160.697C89.8937 160.637 90.4483 160.577 91.0822 160.577C92.2114 160.577 93.0235 160.816 93.5584 161.254C94.1131 161.712 94.43 162.35 94.43 163.246C94.43 164.142 94.1131 164.879 93.5584 165.397C92.9839 165.915 92.0331 166.194 90.8643 166.194C90.2899 166.194 89.8342 166.174 89.4182 166.134V160.697H89.3984ZM90.2106 165.597C90.4087 165.636 90.7059 165.636 91.003 165.636C92.6867 165.636 93.598 164.78 93.598 163.306C93.598 161.991 92.7858 161.175 91.1218 161.175C90.7059 161.175 90.4087 161.215 90.1908 161.254V165.597H90.2106Z" fill="white"/>
<path d="M97.2428 166.234C96.0741 166.234 95.1431 165.457 95.1431 164.202C95.1431 162.868 96.1137 162.091 97.3221 162.091C98.5701 162.091 99.4219 162.907 99.4219 164.122C99.4219 165.596 98.2928 166.234 97.2428 166.234ZM97.2627 165.696C98.0154 165.696 98.5899 165.059 98.5899 164.142C98.5899 163.465 98.2136 162.629 97.2825 162.629C96.3515 162.629 95.9355 163.405 95.9355 164.162C95.9553 165.039 96.4901 165.696 97.2627 165.696Z" fill="white"/>
<path d="M100.69 162.19L101.284 164.202C101.403 164.64 101.522 165.059 101.601 165.477H101.621C101.72 165.078 101.858 164.66 102.017 164.222L102.73 162.21H103.404L104.077 164.182C104.236 164.64 104.374 165.078 104.473 165.477H104.493C104.572 165.078 104.691 164.66 104.83 164.182L105.444 162.19H106.236L104.83 166.154H104.097L103.423 164.262C103.265 163.804 103.146 163.425 103.027 162.947H103.007C102.908 163.425 102.77 163.843 102.611 164.262L101.898 166.134H101.165L99.8379 162.17H100.69V162.19Z" fill="white"/>
<path d="M107.029 163.246C107.029 162.828 107.029 162.509 106.989 162.17H107.702L107.742 162.808H107.762C107.98 162.449 108.495 162.071 109.208 162.071C109.822 162.071 110.753 162.39 110.753 163.764V166.134H109.961V163.863C109.961 163.226 109.703 162.688 108.95 162.688C108.435 162.688 108.019 163.027 107.881 163.425C107.841 163.525 107.821 163.644 107.821 163.764V166.154H107.029V163.246Z" fill="white"/>
<path d="M112.04 160.338H112.833V166.154H112.04V160.338Z" fill="white"/>
<path d="M115.943 166.234C114.774 166.234 113.843 165.457 113.843 164.202C113.843 162.868 114.814 162.091 116.022 162.091C117.27 162.091 118.122 162.907 118.122 164.122C118.122 165.596 116.993 166.234 115.943 166.234ZM115.963 165.696C116.715 165.696 117.29 165.059 117.29 164.142C117.29 163.465 116.913 162.629 115.982 162.629C115.052 162.629 114.636 163.405 114.636 164.162C114.655 165.039 115.19 165.696 115.963 165.696Z" fill="white"/>
<path d="M122.202 165.198C122.202 165.537 122.222 165.875 122.262 166.154H121.549L121.47 165.656H121.45C121.212 165.975 120.737 166.254 120.103 166.254C119.212 166.254 118.756 165.696 118.756 165.119C118.756 164.162 119.687 163.645 121.39 163.645V163.565C121.39 163.246 121.291 162.649 120.4 162.649C119.984 162.649 119.568 162.748 119.251 162.947L119.073 162.469C119.429 162.27 119.964 162.131 120.519 162.131C121.866 162.131 122.183 162.947 122.183 163.744V165.198H122.202ZM121.43 164.123C120.559 164.103 119.568 164.242 119.568 165.019C119.568 165.497 119.905 165.716 120.301 165.716C120.875 165.716 121.252 165.397 121.371 165.059C121.39 164.979 121.41 164.899 121.41 164.82V164.123H121.43Z" fill="white"/>
<path d="M127.254 160.338V165.118C127.254 165.477 127.254 165.875 127.293 166.134H126.58L126.541 165.437H126.521C126.283 165.875 125.749 166.214 125.035 166.214C123.985 166.214 123.153 165.397 123.153 164.202C123.153 162.867 124.065 162.071 125.114 162.071C125.788 162.071 126.244 162.35 126.441 162.668H126.462V160.338H127.254ZM126.462 163.804C126.462 163.704 126.462 163.584 126.422 163.485C126.303 163.027 125.867 162.668 125.273 162.668C124.441 162.668 123.965 163.326 123.965 164.182C123.965 164.999 124.401 165.656 125.253 165.656C125.788 165.656 126.283 165.337 126.422 164.8C126.441 164.7 126.462 164.6 126.462 164.481V163.804Z" fill="white"/>
<path d="M132.286 166.234C131.117 166.234 130.185 165.457 130.185 164.202C130.185 162.868 131.157 162.091 132.365 162.091C133.613 162.091 134.465 162.907 134.465 164.122C134.465 165.596 133.336 166.234 132.286 166.234ZM132.305 165.696C133.058 165.696 133.633 165.059 133.633 164.142C133.633 163.465 133.256 162.629 132.325 162.629C131.394 162.629 130.978 163.405 130.978 164.162C130.978 165.039 131.533 165.696 132.305 165.696Z" fill="white"/>
<path d="M135.455 163.246C135.455 162.828 135.455 162.509 135.415 162.17H136.128L136.168 162.808H136.188C136.406 162.449 136.921 162.071 137.634 162.071C138.248 162.071 139.179 162.39 139.179 163.764V166.134H138.387V163.863C138.387 163.226 138.129 162.688 137.377 162.688C136.862 162.688 136.446 163.027 136.307 163.425C136.267 163.525 136.248 163.644 136.248 163.764V166.154H135.455V163.246Z" fill="white"/>
<path d="M143.359 161.234V162.19H144.508V162.748H143.359V164.879C143.359 165.377 143.518 165.656 143.953 165.656C144.171 165.656 144.29 165.636 144.408 165.616L144.448 166.174C144.29 166.214 144.052 166.274 143.735 166.274C143.359 166.274 143.062 166.154 142.884 165.975C142.665 165.756 142.566 165.397 142.566 164.939V162.728H141.893V162.171H142.566V161.434L143.359 161.234Z" fill="white"/>
<path d="M145.399 160.338H146.192V162.808H146.212C146.33 162.609 146.528 162.409 146.786 162.31C147.024 162.17 147.301 162.111 147.598 162.111C148.192 162.111 149.124 162.429 149.124 163.804V166.154H148.331V163.863C148.331 163.226 148.073 162.688 147.321 162.688C146.806 162.688 146.409 163.007 146.251 163.405C146.212 163.505 146.192 163.604 146.192 163.744V166.134H145.399V160.338Z" fill="white"/>
<path d="M150.867 164.282C150.886 165.258 151.56 165.656 152.352 165.656C152.926 165.656 153.283 165.556 153.56 165.457L153.7 165.955C153.422 166.074 152.926 166.214 152.233 166.214C150.886 166.214 150.074 165.397 150.074 164.222C150.074 163.027 150.867 162.071 152.135 162.071C153.56 162.071 153.937 163.206 153.937 163.943C153.937 164.083 153.937 164.202 153.917 164.282H150.867ZM153.184 163.764C153.184 163.306 152.966 162.589 152.094 162.589C151.283 162.589 150.946 163.266 150.867 163.764H153.184Z" fill="white"/>
</g>
</g>
<mask id="mask5_915_50" style="mask-type:luminance" maskUnits="userSpaceOnUse" x="187" y="155" width="104" height="34">
<path d="M290.139 155H187V188.699H290.139V155Z" fill="white"/>
</mask>
<g mask="url(#mask5_915_50)">
<path d="M290.139 184.147C290.139 186.664 288.102 188.699 285.582 188.699H191.557C189.037 188.699 187 186.664 187 184.147V159.552C187 157.034 189.037 155 191.557 155H285.582C288.102 155 290.139 157.034 290.139 159.552V184.147Z" fill="black"/>
<path d="M194.743 161.486V172.907V184.308L206.257 172.907L194.743 161.486Z" fill="url(#paint0_linear_915_50)"/>
<path d="M209.342 169.825L204.704 167.146L194.743 161.405V161.486L206.257 172.907L209.342 169.825Z" fill="url(#paint1_linear_915_50)"/>
<path d="M194.743 184.308V184.389L204.704 178.648L209.342 175.969L206.257 172.907L194.743 184.308Z" fill="url(#paint2_linear_915_50)"/>
<path d="M209.342 169.825L206.257 172.907L209.342 175.969L214.665 172.907L209.342 169.825Z" fill="url(#paint3_linear_915_50)"/>
<path d="M267.273 177.358C266.849 177.358 266.446 177.278 266.083 177.117C265.721 176.956 265.418 176.714 265.176 176.371H265.095C265.135 176.754 265.176 177.117 265.176 177.479V180.219H264.168V170.611H264.995L265.135 171.517H265.176C265.438 171.154 265.741 170.893 266.083 170.732C266.426 170.57 266.829 170.49 267.273 170.49C268.16 170.49 268.826 170.792 269.309 171.396C269.793 172.001 270.035 172.847 270.035 173.934C270.035 175.022 269.793 175.868 269.309 176.472C268.805 177.056 268.12 177.358 267.273 177.358ZM267.112 171.336C266.426 171.336 265.942 171.517 265.64 171.9C265.337 172.283 265.176 172.867 265.176 173.692V173.914C265.176 174.841 265.337 175.505 265.64 175.908C265.942 176.311 266.446 176.512 267.132 176.512C267.697 176.512 268.16 176.271 268.482 175.807C268.805 175.344 268.967 174.7 268.967 173.894C268.967 173.068 268.805 172.423 268.482 171.98C268.16 171.557 267.716 171.336 267.112 171.336Z" fill="#F9F9F9"/>
<path d="M272.354 177.238H271.346V167.811H272.354V177.238Z" fill="#F9F9F9"/>
<path d="M278.141 177.238L277.94 176.291H277.899C277.577 176.714 277.234 176.996 276.911 177.137C276.589 177.278 276.165 177.358 275.681 177.358C275.016 177.358 274.512 177.197 274.129 176.855C273.746 176.512 273.564 176.029 273.564 175.405C273.564 174.055 274.633 173.37 276.79 173.29L277.92 173.249V172.847C277.92 172.323 277.798 171.94 277.577 171.698C277.355 171.457 276.991 171.336 276.508 171.336C275.964 171.336 275.319 171.497 274.633 171.839L274.331 171.074C274.653 170.893 275.016 170.752 275.4 170.651C275.782 170.55 276.185 170.49 276.568 170.49C277.355 170.49 277.94 170.671 278.323 171.013C278.706 171.356 278.887 171.92 278.887 172.705V177.238H278.141ZM275.863 176.533C276.488 176.533 276.972 176.351 277.335 176.009C277.698 175.666 277.879 175.183 277.879 174.559V173.954L276.871 173.995C276.065 174.015 275.5 174.156 275.137 174.377C274.774 174.599 274.612 174.941 274.612 175.405C274.612 175.767 274.713 176.049 274.935 176.23C275.158 176.432 275.459 176.533 275.863 176.533Z" fill="#F9F9F9"/>
<path d="M279.472 170.611H280.541L281.992 174.398C282.315 175.264 282.517 175.888 282.577 176.271H282.618C282.678 176.07 282.78 175.707 282.94 175.224C283.102 174.72 283.666 173.189 284.594 170.631H285.682L282.84 178.164C282.557 178.91 282.234 179.433 281.851 179.756C281.469 180.078 281.004 180.219 280.46 180.219C280.158 180.219 279.855 180.179 279.553 180.118V179.312C279.774 179.353 280.016 179.393 280.299 179.393C280.985 179.393 281.488 179.01 281.771 178.225L282.134 177.278L279.472 170.611Z" fill="#F9F9F9"/>
<path d="M248.621 171.215C248.944 171.477 249.609 172.041 249.609 173.088C249.609 174.116 249.024 174.599 248.44 175.062C248.258 175.244 248.057 175.445 248.057 175.747C248.057 176.049 248.258 176.21 248.42 176.351L248.924 176.734C249.529 177.258 250.093 177.721 250.093 178.688C250.093 179.997 248.823 181.307 246.444 181.307C244.427 181.307 243.459 180.34 243.459 179.312C243.459 178.809 243.701 178.104 244.528 177.62C245.395 177.097 246.564 177.016 247.19 176.976C246.988 176.734 246.766 176.472 246.766 176.029C246.766 175.787 246.827 175.646 246.907 175.485C246.746 175.505 246.605 175.505 246.464 175.505C244.992 175.505 244.165 174.418 244.165 173.33C244.165 172.685 244.447 171.98 245.052 171.477C245.839 170.832 246.786 170.711 247.532 170.711H250.396L249.508 171.215H248.621ZM247.633 177.379C247.512 177.359 247.452 177.359 247.311 177.359C247.19 177.359 246.444 177.379 245.859 177.58C245.556 177.681 244.669 178.023 244.669 179.01C244.669 179.997 245.637 180.702 247.109 180.702C248.44 180.702 249.145 180.058 249.145 179.212C249.145 178.507 248.702 178.124 247.633 177.379ZM248.036 174.74C248.359 174.418 248.379 173.975 248.379 173.733C248.379 172.726 247.774 171.175 246.625 171.175C246.262 171.175 245.879 171.356 245.657 171.638C245.415 171.92 245.355 172.303 245.355 172.665C245.355 173.592 245.899 175.143 247.089 175.143C247.452 175.143 247.815 174.962 248.036 174.74Z" fill="#F9F9F9"/>
<path d="M239.87 177.157C237.672 177.157 236.482 175.445 236.482 173.894C236.482 172.081 237.975 170.53 240.072 170.53C242.108 170.53 243.379 172.122 243.379 173.793C243.399 175.425 242.128 177.157 239.87 177.157ZM241.604 176.029C241.947 175.586 242.028 175.022 242.028 174.498C242.028 173.27 241.443 170.953 239.729 170.953C239.265 170.953 238.822 171.135 238.478 171.417C237.934 171.9 237.833 172.504 237.833 173.109C237.833 174.478 238.519 176.734 240.193 176.734C240.737 176.754 241.282 176.472 241.604 176.029Z" fill="#F9F9F9"/>
<path d="M232.349 177.157C230.151 177.157 228.961 175.445 228.961 173.894C228.961 172.081 230.453 170.53 232.551 170.53C234.587 170.53 235.857 172.122 235.857 173.793C235.878 175.425 234.607 177.157 232.349 177.157ZM234.083 176.029C234.426 175.586 234.506 175.022 234.506 174.498C234.506 173.27 233.922 170.953 232.208 170.953C231.744 170.953 231.3 171.135 230.958 171.417C230.413 171.9 230.312 172.504 230.312 173.109C230.312 174.478 230.998 176.734 232.671 176.734C233.216 176.754 233.76 176.472 234.083 176.029Z" fill="#F9F9F9"/>
<path d="M227.913 176.935L225.917 177.399C225.11 177.52 224.384 177.64 223.618 177.64C219.766 177.64 218.294 174.82 218.294 172.605C218.294 169.906 220.371 167.388 223.92 167.388C224.666 167.388 225.392 167.509 226.058 167.69C227.106 167.992 227.59 168.355 227.893 168.556L226.743 169.664L226.259 169.785L226.602 169.221C226.118 168.757 225.271 167.911 223.618 167.911C221.42 167.911 219.746 169.583 219.746 172.021C219.746 174.639 221.642 177.097 224.686 177.097C225.574 177.097 226.037 176.915 226.461 176.754V174.498L224.364 174.619L225.473 174.015H228.437L228.074 174.357C227.973 174.438 227.953 174.478 227.933 174.579C227.913 174.7 227.913 175.102 227.913 175.243V176.935Z" fill="#F9F9F9"/>
<path d="M253.037 176.532C252.573 176.492 252.472 176.412 252.472 175.868V175.707V167.992C252.472 167.972 252.472 167.931 252.472 167.911C252.533 167.428 252.674 167.347 253.098 167.085H251.122L250.073 167.589H251.142V175.727V176.19C251.142 176.472 251.081 176.512 250.759 176.935H253.219L253.743 176.633C253.501 176.593 253.279 176.573 253.037 176.532Z" fill="#F9F9F9"/>
<path d="M258.703 176.674C258.542 176.754 258.4 176.855 258.239 176.916C257.776 177.117 257.312 177.178 256.888 177.178C256.445 177.178 255.759 177.157 255.053 176.634C254.065 175.949 253.642 174.76 253.642 173.713C253.642 171.578 255.397 170.51 256.808 170.51C257.312 170.51 257.816 170.631 258.239 170.893C258.925 171.356 259.106 171.94 259.207 172.263L255.961 173.592L254.892 173.673C255.235 175.425 256.425 176.452 257.755 176.452C258.462 176.452 258.965 176.211 259.449 175.969L258.703 176.674ZM257.412 172.545C257.675 172.444 257.816 172.363 257.816 172.162C257.816 171.618 257.191 170.973 256.445 170.973C255.88 170.973 254.852 171.397 254.852 172.887C254.852 173.129 254.872 173.37 254.892 173.612L257.412 172.545Z" fill="#F9F9F9"/>
<path d="M260.054 170.631V171.537H259.933V170.631H259.63V170.53H260.336V170.631H260.054Z" fill="#F9F9F9"/>
<path d="M261.284 171.537V170.611L261.002 171.537H260.922L260.639 170.611V171.537H260.538V170.53H260.72L260.982 171.336L261.244 170.53H261.425V171.537H261.284Z" fill="#F9F9F9"/>
<path d="M221.077 164.669H220.392C220.392 164.568 220.331 164.306 220.19 163.863H219.182C219.041 164.306 218.98 164.568 218.98 164.669H218.335C218.335 164.608 218.496 164.145 218.839 163.279C219.182 162.413 219.343 161.929 219.343 161.849H220.17C220.17 161.929 220.331 162.392 220.634 163.259C220.916 164.125 221.077 164.588 221.077 164.669ZM220.069 163.44C219.827 162.695 219.706 162.292 219.706 162.231H219.666C219.666 162.292 219.545 162.695 219.283 163.44H220.069Z" fill="#F9F9FA"/>
<path d="M223.86 164.668H223.315C223.315 164.608 223.114 164.306 222.71 163.722C222.287 163.117 222.065 162.714 222.005 162.493H221.964C222.005 162.815 222.025 163.097 222.025 163.359C222.025 163.722 222.025 164.145 222.065 164.668H221.541C221.561 164.225 221.581 163.722 221.581 163.198C221.581 162.674 221.561 162.231 221.541 161.848H222.186C222.186 161.929 222.368 162.231 222.731 162.755C223.114 163.319 223.336 163.701 223.376 163.903H223.416C223.376 163.581 223.356 163.299 223.356 163.037C223.356 162.654 223.336 162.251 223.315 161.828H223.86C223.84 162.191 223.819 162.634 223.819 163.178C223.84 163.742 223.84 164.225 223.86 164.668Z" fill="#F9F9FA"/>
<path d="M227.005 163.158C227.005 163.561 226.864 163.923 226.602 164.225C226.34 164.528 225.977 164.689 225.493 164.689C225.271 164.689 224.989 164.689 224.606 164.669C224.626 164.225 224.626 163.742 224.626 163.198C224.626 162.674 224.626 162.231 224.606 161.849H224.989C225.05 161.849 225.15 161.849 225.271 161.849C225.392 161.849 225.473 161.849 225.513 161.849C226.038 161.849 226.421 161.97 226.642 162.231C226.884 162.493 227.005 162.795 227.005 163.158ZM226.4 163.259C226.4 162.977 226.32 162.755 226.159 162.554C225.997 162.372 225.755 162.272 225.412 162.272C225.352 162.272 225.271 162.272 225.15 162.292C225.17 162.574 225.17 162.876 225.17 163.198C225.17 163.541 225.17 163.883 225.191 164.225C225.291 164.246 225.372 164.246 225.473 164.246C225.775 164.246 226.017 164.145 226.159 163.964C226.34 163.762 226.4 163.541 226.4 163.259Z" fill="#F9F9FA"/>
<path d="M229.889 164.669H229.244C229.082 164.165 228.941 163.843 228.86 163.722C228.78 163.601 228.618 163.541 228.437 163.541C228.356 163.541 228.276 163.541 228.195 163.541C228.195 163.903 228.195 164.286 228.215 164.669H227.61C227.63 164.225 227.63 163.742 227.63 163.198C227.63 162.674 227.63 162.231 227.61 161.849H227.993C228.034 161.849 228.135 161.849 228.255 161.849C228.397 161.849 228.518 161.849 228.639 161.849C229.304 161.849 229.627 162.07 229.627 162.534C229.627 162.896 229.445 163.138 229.062 163.279V163.319C229.203 163.359 229.344 163.48 229.445 163.661C229.566 163.823 229.707 164.165 229.889 164.669ZM229.082 162.674C229.082 162.392 228.901 162.252 228.518 162.252C228.377 162.252 228.255 162.252 228.155 162.292C228.175 162.513 228.175 162.816 228.175 163.158C228.255 163.158 228.316 163.158 228.377 163.158C228.86 163.158 229.082 162.997 229.082 162.674Z" fill="#F9F9FA"/>
<path d="M232.994 163.218C232.994 163.661 232.853 164.024 232.591 164.326C232.329 164.608 231.986 164.769 231.583 164.769C231.2 164.769 230.877 164.628 230.635 164.366C230.373 164.104 230.252 163.762 230.252 163.339C230.252 162.896 230.393 162.533 230.655 162.231C230.917 161.949 231.26 161.788 231.663 161.788C232.046 161.788 232.369 161.929 232.611 162.191C232.873 162.453 232.994 162.795 232.994 163.218ZM232.409 163.279C232.409 162.977 232.329 162.735 232.188 162.554C232.026 162.372 231.845 162.272 231.623 162.272C231.421 162.272 231.24 162.372 231.079 162.554C230.937 162.735 230.857 162.977 230.857 163.279C230.857 163.581 230.937 163.822 231.099 164.004C231.26 164.185 231.441 164.286 231.663 164.286C231.865 164.286 232.046 164.185 232.208 164.004C232.329 163.802 232.409 163.561 232.409 163.279Z" fill="#F9F9FA"/>
<path d="M234.224 164.669H233.619C233.639 164.225 233.639 163.722 233.639 163.198C233.639 162.674 233.639 162.231 233.619 161.849H234.224C234.204 162.211 234.204 162.654 234.204 163.198C234.204 163.742 234.204 164.225 234.224 164.669Z" fill="#F9F9FA"/>
<path d="M237.37 163.158C237.37 163.561 237.229 163.923 236.966 164.225C236.704 164.528 236.341 164.689 235.857 164.689C235.636 164.689 235.353 164.689 234.97 164.669C234.99 164.225 234.99 163.742 234.99 163.198C234.99 162.674 234.99 162.231 234.97 161.849H235.353C235.414 161.849 235.515 161.849 235.636 161.849C235.757 161.849 235.837 161.849 235.878 161.849C236.402 161.849 236.785 161.97 237.007 162.231C237.249 162.493 237.37 162.795 237.37 163.158ZM236.765 163.259C236.765 162.977 236.684 162.755 236.523 162.554C236.362 162.372 236.12 162.272 235.777 162.272C235.716 162.272 235.636 162.272 235.515 162.292C235.535 162.574 235.535 162.876 235.535 163.198C235.535 163.541 235.535 163.883 235.555 164.225C235.656 164.246 235.736 164.246 235.837 164.246C236.14 164.246 236.382 164.145 236.523 163.964C236.704 163.762 236.765 163.541 236.765 163.259Z" fill="#F9F9FA"/>
<path d="M241.524 164.669H240.838C240.838 164.568 240.777 164.306 240.636 163.863H239.628C239.487 164.306 239.426 164.568 239.426 164.669H238.781C238.781 164.608 238.943 164.145 239.285 163.279C239.628 162.413 239.789 161.929 239.789 161.849H240.616C240.616 161.929 240.777 162.392 241.08 163.259C241.382 164.125 241.524 164.588 241.524 164.669ZM240.535 163.44C240.294 162.695 240.173 162.292 240.173 162.231H240.132C240.132 162.292 240.011 162.695 239.749 163.44H240.535Z" fill="#F9F9FA"/>
<path d="M244.064 162.594C244.064 162.936 243.943 163.198 243.681 163.359C243.419 163.521 243.116 163.601 242.733 163.601C242.673 163.601 242.612 163.601 242.592 163.601C242.592 163.863 242.592 164.225 242.612 164.669H242.007C242.028 164.246 242.028 163.762 242.028 163.198C242.028 162.674 242.028 162.231 242.007 161.849H242.391C242.451 161.849 242.552 161.849 242.693 161.849C242.854 161.849 242.975 161.849 243.096 161.849C243.379 161.849 243.6 161.909 243.782 162.03C243.963 162.151 244.064 162.332 244.064 162.594ZM243.5 162.715C243.5 162.413 243.298 162.252 242.874 162.252C242.774 162.252 242.673 162.272 242.552 162.292C242.572 162.574 242.572 162.876 242.572 163.218C242.612 163.218 242.653 163.218 242.693 163.218C243.237 163.218 243.5 163.037 243.5 162.715Z" fill="#F9F9FA"/>
<path d="M246.645 162.594C246.645 162.936 246.524 163.198 246.262 163.359C246 163.521 245.697 163.601 245.314 163.601C245.254 163.601 245.193 163.601 245.173 163.601C245.173 163.863 245.173 164.225 245.193 164.669H244.588C244.609 164.246 244.609 163.762 244.609 163.198C244.609 162.674 244.609 162.231 244.588 161.849H244.972C245.032 161.849 245.133 161.849 245.274 161.849C245.435 161.849 245.556 161.849 245.677 161.849C245.96 161.849 246.181 161.909 246.363 162.03C246.564 162.151 246.645 162.332 246.645 162.594ZM246.101 162.715C246.101 162.413 245.899 162.252 245.476 162.252C245.375 162.252 245.274 162.272 245.153 162.292C245.173 162.574 245.173 162.876 245.173 163.218C245.214 163.218 245.254 163.218 245.294 163.218C245.839 163.218 246.101 163.037 246.101 162.715Z" fill="#F9F9FA"/>
<path d="M250.9 163.218C250.9 163.661 250.759 164.024 250.496 164.326C250.234 164.628 249.892 164.769 249.488 164.769C249.105 164.769 248.783 164.628 248.541 164.366C248.278 164.104 248.157 163.762 248.157 163.339C248.157 162.896 248.299 162.533 248.561 162.231C248.823 161.949 249.166 161.788 249.569 161.788C249.952 161.788 250.275 161.929 250.517 162.191C250.779 162.453 250.9 162.795 250.9 163.218ZM250.295 163.279C250.295 162.977 250.214 162.735 250.073 162.554C249.912 162.372 249.73 162.272 249.508 162.272C249.307 162.272 249.125 162.372 248.964 162.554C248.823 162.735 248.742 162.977 248.742 163.279C248.742 163.581 248.823 163.822 248.984 164.004C249.145 164.185 249.327 164.286 249.549 164.286C249.75 164.286 249.932 164.185 250.093 164.004C250.234 163.802 250.295 163.561 250.295 163.279Z" fill="#F9F9FA"/>
<path d="M253.844 164.668H253.299C253.299 164.608 253.098 164.306 252.694 163.722C252.271 163.117 252.049 162.714 251.989 162.493H251.948C251.989 162.815 252.009 163.097 252.009 163.359C252.009 163.722 252.009 164.145 252.049 164.668H251.525C251.545 164.225 251.565 163.722 251.565 163.198C251.565 162.674 251.545 162.231 251.525 161.848H252.17C252.17 161.929 252.352 162.231 252.714 162.755C253.098 163.319 253.319 163.701 253.36 163.903H253.4C253.36 163.581 253.34 163.299 253.34 163.037C253.34 162.654 253.34 162.251 253.299 161.828H253.844C253.823 162.191 253.803 162.634 253.803 163.178C253.803 163.742 253.823 164.225 253.844 164.668Z" fill="#F9F9FA"/>
</g>
</g>
<defs>
<linearGradient id="paint0_linear_915_50" x1="200.496" y1="161.488" x2="200.496" y2="184.31" gradientUnits="userSpaceOnUse">
<stop stop-color="#257CB0"/>
<stop offset="0.2863" stop-color="#4A93B5"/>
<stop offset="0.767" stop-color="#78BCBB"/>
<stop offset="1" stop-color="#89CFBD"/>
</linearGradient>
<linearGradient id="paint1_linear_915_50" x1="194.736" y1="167.152" x2="209.351" y2="167.152" gradientUnits="userSpaceOnUse">
<stop stop-color="#52C1AD"/>
<stop offset="1" stop-color="#DEE89A"/>
</linearGradient>
<linearGradient id="paint2_linear_915_50" x1="202.043" y1="172.9" x2="202.043" y2="184.394" gradientUnits="userSpaceOnUse">
<stop stop-color="#EC413D"/>
<stop offset="0.1668" stop-color="#DA4452"/>
<stop offset="0.5748" stop-color="#B0487A"/>
<stop offset="0.8619" stop-color="#954A92"/>
<stop offset="1" stop-color="#8A4A9D"/>
</linearGradient>
<linearGradient id="paint3_linear_915_50" x1="210.461" y1="169.834" x2="210.461" y2="175.964" gradientUnits="userSpaceOnUse">
<stop stop-color="#F58879"/>
<stop offset="0.1194" stop-color="#F69079"/>
<stop offset="0.7128" stop-color="#FCB877"/>
<stop offset="1" stop-color="#FEC874"/>
</linearGradient>
<clipPath id="clip0_915_50">
<rect width="555" height="229" fill="white"/>
</clipPath>
<clipPath id="clip1_915_50">
<rect width="244" height="91" fill="white" transform="translate(46 41)"/>
</clipPath>
<clipPath id="clip2_915_50">
<rect width="104" height="34" fill="white" transform="translate(58 155)"/>
</clipPath>
</defs>
</svg>
