<svg width="97" height="28" viewBox="0 0 97 28" fill="none" xmlns="http://www.w3.org/2000/svg">
<path d="M78.2912 0.903841C77.4508 0.315548 76.4497 0 75.4239 0H0V28H75.4239C76.4498 28 77.4508 27.6845 78.2912 27.0962L91.1483 18.0962C93.9919 16.1057 93.9919 11.8943 91.1483 9.90384L78.2912 0.903841Z" fill="url(#paint0_linear_2213_5848)"/>
<path style="mix-blend-mode:overlay" d="M77 0H0V28H77L91.1483 18.0962C93.9919 16.1057 93.9919 11.8943 91.1483 9.90384L77 0Z" fill="url(#paint1_linear_2213_5848)"/>
<path d="M17.7591 18H23.3271V16.62H19.2591V14.388H23.0391V13.008H19.2591V11.016H23.3271V9.636H17.7591V18ZM24.1593 18H25.9593L27.9753 14.904L30.0273 18H31.8273L29.0193 13.824L31.8033 9.636H30.0153L27.9873 12.78L25.9713 9.636H24.1713L26.9553 13.824L24.1593 18ZM33.0052 18H34.4932V14.532H35.7412C37.5892 14.532 38.5852 13.668 38.5852 12.048C38.5852 10.452 37.6132 9.636 35.7412 9.636H33.0052V18ZM34.4932 13.152V11.016H35.5852C36.6532 11.016 37.0852 11.316 37.0852 12.072C37.0852 12.828 36.6412 13.152 35.5852 13.152H34.4932ZM40.0248 18H41.5248V9.636H40.0248V18ZM49.9221 18L47.6661 14.352C48.6621 14.016 49.2141 13.248 49.2141 12.048C49.2141 10.548 48.3621 9.636 46.3701 9.636H43.6341V18H45.1221V14.532H45.6741H46.1781L48.1821 18H49.9221ZM45.1221 13.152V11.016H46.2141C47.1861 11.016 47.7141 11.256 47.7141 12.072C47.7141 12.888 47.1861 13.152 46.2141 13.152H45.1221ZM51.099 18H56.667V16.62H52.599V14.388H56.379V13.008H52.599V11.016H56.667V9.636H51.099V18ZM58.4232 18H60.8352C63.6672 18 65.2032 16.548 65.2032 13.884C65.2032 11.172 63.6192 9.636 60.8472 9.636H58.4232V18ZM59.9232 16.62V11.016H60.8232C62.8032 11.016 63.6912 11.892 63.6912 13.824C63.6912 15.792 62.8032 16.62 60.6912 16.62H59.9232ZM66.9018 15.468H67.9938L68.1618 9.636H66.7338L66.9018 15.468ZM66.6618 18H68.2338V16.44H66.6618V18Z" fill="white"/>
<defs>
<linearGradient id="paint0_linear_2213_5848" x1="102.032" y1="0" x2="-5.54861" y2="0" gradientUnits="userSpaceOnUse">
<stop stop-color="#FF0000"/>
<stop offset="0.572917" stop-color="#FF3D5D"/>
<stop offset="0.9999" stop-color="#FF0000"/>
</linearGradient>
<linearGradient id="paint1_linear_2213_5848" x1="97.3865" y1="0" x2="-10.1755" y2="0" gradientUnits="userSpaceOnUse">
<stop stop-color="#535353"/>
<stop offset="0.3" stop-color="#B5B5B5"/>
<stop offset="0.8" stop-color="#909090"/>
<stop offset="1" stop-color="#323232"/>
</linearGradient>
</defs>
</svg>
