<svg width="97" height="28" viewBox="0 0 97 28" fill="none" xmlns="http://www.w3.org/2000/svg">
<path d="M78.2912 0.903841C77.4508 0.315548 76.4497 0 75.4239 0H0V28H75.4239C76.4498 28 77.4508 27.6845 78.2912 27.0962L91.1483 18.0962C93.9919 16.1057 93.9919 11.8943 91.1483 9.90384L78.2912 0.903841Z" fill="url(#paint0_linear_2213_5859)"/>
<path style="mix-blend-mode:overlay" d="M77 0H0V28H77L91.1483 18.0962C93.9919 16.1057 93.9919 11.8943 91.1483 9.90384L77 0Z" fill="url(#paint1_linear_2213_5859)"/>
<path d="M27.515 18H29.015V14.388H32.915V13.008H29.015V11.016H33.443V9.636H27.515V18ZM41.0686 18L38.8126 14.352C39.8086 14.016 40.3606 13.248 40.3606 12.048C40.3606 10.548 39.5086 9.636 37.5166 9.636H34.7806V18H36.2686V14.532H36.8206H37.3246L39.3286 18H41.0686ZM36.2686 13.152V11.016H37.3606C38.3326 11.016 38.8606 11.256 38.8606 12.072C38.8606 12.888 38.3326 13.152 37.3606 13.152H36.2686ZM42.2455 18H47.8135V16.62H43.7455V14.388H47.5255V13.008H43.7455V11.016H47.8135V9.636H42.2455V18ZM49.5697 18H55.1377V16.62H51.0697V14.388H54.8497V13.008H51.0697V11.016H55.1377V9.636H49.5697V18ZM57.1459 15.468H58.2379L58.4059 9.636H56.9779L57.1459 15.468ZM56.9059 18H58.4779V16.44H56.9059V18Z" fill="white"/>
<defs>
<linearGradient id="paint0_linear_2213_5859" x1="102.032" y1="0" x2="-5.54861" y2="0" gradientUnits="userSpaceOnUse">
<stop stop-color="#00AF27"/>
<stop offset="0.4" stop-color="#09AE1D"/>
<stop offset="0.9999" stop-color="#02A11E"/>
</linearGradient>
<linearGradient id="paint1_linear_2213_5859" x1="97.3865" y1="0" x2="-10.1755" y2="0" gradientUnits="userSpaceOnUse">
<stop stop-color="#535353"/>
<stop offset="0.3" stop-color="#B5B5B5"/>
<stop offset="0.8" stop-color="#909090"/>
<stop offset="1" stop-color="#323232"/>
</linearGradient>
</defs>
</svg>
