<svg width="97" height="28" viewBox="0 0 97 28" fill="none" xmlns="http://www.w3.org/2000/svg">
<path d="M78.2912 0.903841C77.4508 0.315548 76.4497 0 75.4239 0H0V28H75.4239C76.4498 28 77.4508 27.6845 78.2912 27.0962L91.1483 18.0962C93.9919 16.1057 93.9919 11.8943 91.1483 9.90384L78.2912 0.903841Z" fill="url(#paint0_linear_2213_5864)"/>
<path style="mix-blend-mode:overlay" d="M77 0H0V28H77L91.1483 18.0962C93.9919 16.1057 93.9919 11.8943 91.1483 9.90384L77 0Z" fill="url(#paint1_linear_2213_5864)"/>
<path d="M13.6517 18H15.1517V14.388H18.8117V18H20.3117V9.636H18.8117V13.008H15.1517V9.636H13.6517V18ZM25.837 18.18C28.213 18.18 29.833 16.44 29.833 13.824C29.833 11.196 28.225 9.456 25.837 9.456C23.461 9.456 21.841 11.196 21.841 13.824C21.841 16.44 23.461 18.18 25.837 18.18ZM25.837 16.752C24.313 16.752 23.341 15.636 23.341 13.824C23.341 12 24.313 10.884 25.837 10.884C27.361 10.884 28.333 12.012 28.333 13.824C28.333 15.624 27.361 16.752 25.837 16.752ZM32.7921 18H34.3041V11.016H36.9201V9.636H30.1761V11.016H32.7921V18ZM40.9915 18H43.4035C46.2355 18 47.7715 16.548 47.7715 13.884C47.7715 11.172 46.1875 9.636 43.4155 9.636H40.9915V18ZM42.4915 16.62V11.016H43.3915C45.3715 11.016 46.2595 11.892 46.2595 13.824C46.2595 15.792 45.3715 16.62 43.2595 16.62H42.4915ZM49.2884 18H54.8564V16.62H50.7884V14.388H54.5684V13.008H50.7884V11.016H54.8564V9.636H49.2884V18ZM61.7846 18H63.4166L60.0806 9.636H58.9526L55.6046 18H57.2366L57.8726 16.272H61.1486L61.7846 18ZM58.3886 14.892L59.5166 11.844L60.6446 14.892H58.3886ZM64.5228 18H69.5988V16.62H66.0228V9.636H64.5228V18ZM71.0092 15.468H72.1012L72.2692 9.636H70.8412L71.0092 15.468ZM70.7692 18H72.3412V16.44H70.7692V18Z" fill="#2E001D"/>
<defs>
<linearGradient id="paint0_linear_2213_5864" x1="102.032" y1="0" x2="-5.54861" y2="0" gradientUnits="userSpaceOnUse">
<stop stop-color="#FEC107"/>
<stop offset="0.4" stop-color="#FFC618"/>
<stop offset="0.9999" stop-color="#FEC107"/>
<stop offset="1" stop-color="#FD5B47"/>
</linearGradient>
<linearGradient id="paint1_linear_2213_5864" x1="97.3865" y1="0" x2="-10.1755" y2="0" gradientUnits="userSpaceOnUse">
<stop stop-color="#535353"/>
<stop offset="0.3" stop-color="#B5B5B5"/>
<stop offset="0.8" stop-color="#909090"/>
<stop offset="1" stop-color="#323232"/>
</linearGradient>
</defs>
</svg>
