<svg width="17" height="16" viewBox="0 0 17 16" fill="none" xmlns="http://www.w3.org/2000/svg">
<path d="M10.7 5.88564H15.5C15.8978 5.88564 16.2794 6.04367 16.5607 6.32498C16.842 6.60628 17 6.98781 17 7.38564V8.96364C17.0002 9.15966 16.962 9.35382 16.8875 9.53514L14.5662 15.1714C14.5096 15.3088 14.4134 15.4263 14.2899 15.509C14.1664 15.5916 14.0211 15.6357 13.8725 15.6356H1.25C1.05109 15.6356 0.860322 15.5566 0.71967 15.416C0.579018 15.2753 0.5 15.0846 0.5 14.8856V7.38564C0.5 7.18673 0.579018 6.99596 0.71967 6.85531C0.860322 6.71466 1.05109 6.63564 1.25 6.63564H3.8615C3.98157 6.63567 4.0999 6.60687 4.20653 6.55166C4.31315 6.49646 4.40497 6.41646 4.47425 6.31839L8.564 0.523139C8.6157 0.449874 8.69194 0.39756 8.7789 0.375682C8.86586 0.353804 8.95778 0.363812 9.038 0.403889L10.3985 1.08414C10.7814 1.27551 11.0872 1.59212 11.2653 1.98138C11.4433 2.37063 11.4829 2.80908 11.3773 3.22389L10.7 5.88564ZM5 7.82664V14.1356H13.37L15.5 8.96364V7.38564H10.7C10.4715 7.38561 10.2461 7.33339 10.0409 7.23298C9.83572 7.13257 9.65617 6.98662 9.51596 6.80625C9.37575 6.62589 9.27859 6.41588 9.23189 6.19226C9.18519 5.96863 9.19019 5.73729 9.2465 5.51589L9.92375 2.85489C9.94495 2.77189 9.93708 2.68413 9.90147 2.60621C9.86585 2.5283 9.80464 2.46493 9.728 2.42664L9.23225 2.17914L5.69975 7.18314C5.51225 7.44864 5.27225 7.66614 5 7.82664ZM3.5 8.13564H2V14.1356H3.5V8.13564Z" fill="#2E001D"/>
</svg>
