<svg width="97" height="28" viewBox="0 0 97 28" fill="none" xmlns="http://www.w3.org/2000/svg">
<path d="M78.2912 0.903841C77.4508 0.315548 76.4497 0 75.4239 0H0V28H75.4239C76.4498 28 77.4508 27.6845 78.2912 27.0962L91.1483 18.0962C93.9919 16.1057 93.9919 11.8943 91.1483 9.90384L78.2912 0.903841Z" fill="url(#paint0_linear_2213_5869)"/>
<path style="mix-blend-mode:overlay" d="M78.2912 0.903841C77.4508 0.315548 76.4497 0 75.4239 0H0V28H75.4239C76.4498 28 77.4508 27.6845 78.2912 27.0962L91.1483 18.0962C93.9919 16.1057 93.9919 11.8943 91.1483 9.90384L78.2912 0.903841Z" fill="url(#paint1_linear_2213_5869)"/>
<path d="M15.9638 18.156C17.6798 18.156 18.8678 17.124 18.8678 15.564C18.8678 14.376 18.2798 13.74 16.4918 13.056C15.2318 12.564 14.8238 12.252 14.8238 11.7C14.8238 11.184 15.2798 10.788 15.8798 10.788C16.4438 10.788 16.9358 11.124 17.2238 11.748L18.4718 10.98C17.9438 9.972 17.0558 9.456 15.9278 9.456C14.3678 9.456 13.3238 10.38 13.3238 11.736C13.3238 12.948 13.9478 13.584 15.6998 14.268C16.9358 14.76 17.3678 15.12 17.3678 15.696C17.3678 16.404 16.8278 16.824 15.9878 16.824C15.0158 16.824 14.3558 16.26 14.2478 15.264L12.7598 15.636C12.9998 17.16 14.2958 18.156 15.9638 18.156ZM21.8878 18H23.3998V11.016H26.0158V9.636H19.2718V11.016H21.8878V18ZM30.3546 18.18C32.7306 18.18 34.3506 16.44 34.3506 13.824C34.3506 11.196 32.7426 9.456 30.3546 9.456C27.9786 9.456 26.3586 11.196 26.3586 13.824C26.3586 16.44 27.9786 18.18 30.3546 18.18ZM30.3546 16.752C28.8306 16.752 27.8586 15.636 27.8586 13.824C27.8586 12 28.8306 10.884 30.3546 10.884C31.8786 10.884 32.8506 12.012 32.8506 13.824C32.8506 15.624 31.8786 16.752 30.3546 16.752ZM39.3563 18.18C41.1443 18.18 42.4883 17.304 43.0883 15.684L41.6843 15.156C41.3243 16.212 40.5083 16.752 39.3563 16.752C37.7483 16.752 36.8003 15.684 36.8003 13.8C36.8003 11.928 37.7363 10.872 39.3563 10.872C40.4963 10.872 41.3123 11.388 41.6843 12.432L43.0643 11.892C42.4523 10.296 41.1203 9.444 39.3563 9.444C36.8843 9.444 35.3003 11.136 35.3003 13.812C35.3003 16.488 36.8843 18.18 39.3563 18.18ZM51.7156 18L48.5236 12.804L51.6316 9.636H49.6636L45.9076 13.572V9.636H44.4076V18H45.9076V15.456L47.5036 13.836L49.9756 18H51.7156ZM58.7988 18.18C60.9108 18.18 62.0028 17.088 62.0028 14.916V9.636H60.5028V14.808C60.5028 16.212 60.0348 16.728 58.7988 16.728C57.5628 16.728 57.1068 16.224 57.1068 14.808V9.636H55.6068V14.976C55.6068 17.112 56.6988 18.18 58.7988 18.18ZM63.9427 18H65.4307V14.532H66.6787C68.5267 14.532 69.5227 13.668 69.5227 12.048C69.5227 10.452 68.5507 9.636 66.6787 9.636H63.9427V18ZM65.4307 13.152V11.016H66.5227C67.5907 11.016 68.0227 11.316 68.0227 12.072C68.0227 12.828 67.5787 13.152 66.5227 13.152H65.4307ZM71.0971 15.468H72.1891L72.3571 9.636H70.9291L71.0971 15.468ZM70.8571 18H72.4291V16.44H70.8571V18Z" fill="white"/>
<defs>
<linearGradient id="paint0_linear_2213_5869" x1="102.032" y1="0" x2="-5.54861" y2="0" gradientUnits="userSpaceOnUse">
<stop stop-color="#2E001D"/>
<stop offset="0.4" stop-color="#4B0030"/>
<stop offset="1" stop-color="#2E001D"/>
</linearGradient>
<linearGradient id="paint1_linear_2213_5869" x1="97.3865" y1="0" x2="-10.1755" y2="0" gradientUnits="userSpaceOnUse">
<stop stop-color="#535353"/>
<stop offset="0.3" stop-color="#B5B5B5"/>
<stop offset="0.8" stop-color="#909090"/>
<stop offset="1" stop-color="#323232"/>
</linearGradient>
</defs>
</svg>
