<svg width="97" height="28" viewBox="0 0 97 28" fill="none" xmlns="http://www.w3.org/2000/svg">
<path d="M78.2912 0.903841C77.4508 0.315548 76.4497 0 75.4239 0H0V28H75.4239C76.4498 28 77.4508 27.6845 78.2912 27.0962L91.1483 18.0962C93.9919 16.1057 93.9919 11.8943 91.1483 9.90384L78.2912 0.903841Z" fill="url(#paint0_linear_2213_5853)"/>
<path style="mix-blend-mode:overlay" d="M78.2912 0.903841C77.4508 0.315548 76.4497 0 75.4239 0H0V28H75.4239C76.4498 28 77.4508 27.6845 78.2912 27.0962L91.1483 18.0962C93.9919 16.1057 93.9919 11.8943 91.1483 9.90384L78.2912 0.903841Z" fill="url(#paint1_linear_2213_5853)"/>
<path d="M6.91317 19H8.42517V12.016H11.0412V10.636H4.29717V12.016H6.91317V19ZM15.38 19.18C17.756 19.18 19.376 17.44 19.376 14.824C19.376 12.196 17.768 10.456 15.38 10.456C13.004 10.456 11.384 12.196 11.384 14.824C11.384 17.44 13.004 19.18 15.38 19.18ZM15.38 17.752C13.856 17.752 12.884 16.636 12.884 14.824C12.884 13 13.856 11.884 15.38 11.884C16.904 11.884 17.876 13.012 17.876 14.824C17.876 16.624 16.904 17.752 15.38 17.752ZM20.9017 19H23.3137C26.1457 19 27.6817 17.548 27.6817 14.884C27.6817 12.172 26.0977 10.636 23.3257 10.636H20.9017V19ZM22.4017 17.62V12.016H23.3017C25.2817 12.016 26.1697 12.892 26.1697 14.824C26.1697 16.792 25.2817 17.62 23.1697 17.62H22.4017ZM33.9604 19H35.5924L32.2564 10.636H31.1284L27.7804 19H29.4124L30.0484 17.272H33.3244L33.9604 19ZM30.5644 15.892L31.6924 12.844L32.8204 15.892H30.5644ZM37.8139 19H39.3139V15.736L42.4699 10.636H40.6939L38.5339 14.296L36.3979 10.636H34.6339L37.8139 15.736V19ZM49.8214 19.18C52.1974 19.18 53.8174 17.44 53.8174 14.824C53.8174 12.196 52.2094 10.456 49.8214 10.456C47.4454 10.456 45.8254 12.196 45.8254 14.824C45.8254 17.44 47.4454 19.18 49.8214 19.18ZM49.8214 17.752C48.2974 17.752 47.3254 16.636 47.3254 14.824C47.3254 13 48.2974 11.884 49.8214 11.884C51.3454 11.884 52.3174 13.012 52.3174 14.824C52.3174 16.624 51.3454 17.752 49.8214 17.752ZM60.4071 10.636V16.396L56.8911 10.636H55.3431V19H56.8431V13.216L60.3471 19H61.9071V10.636H60.4071ZM64.015 19H69.091V17.62H65.515V10.636H64.015V19ZM71.4702 19H72.9702V15.736L76.1262 10.636H74.3502L72.1902 14.296L70.0542 10.636H68.2902L71.4702 15.736V19ZM77.4037 16.468H78.4957L78.6637 10.636H77.2357L77.4037 16.468ZM77.1637 19H78.7357V17.44H77.1637V19Z" fill="white"/>
<defs>
<linearGradient id="paint0_linear_2213_5853" x1="88.7677" y1="0" x2="-4.82729" y2="0" gradientUnits="userSpaceOnUse">
<stop stop-color="#d56a34"/>
<stop offset="0.4" stop-color="#FF2997"/>
<stop offset="1" stop-color="#FF0D89"/>
</linearGradient>
<linearGradient id="paint1_linear_2213_5853" x1="97.3865" y1="0" x2="-10.1755" y2="0" gradientUnits="userSpaceOnUse">
<stop stop-color="#535353"/>
<stop offset="0.3" stop-color="#B5B5B5"/>
<stop offset="0.8" stop-color="#909090"/>
<stop offset="1" stop-color="#323232"/>
</linearGradient>
</defs>
</svg>
