<svg width="14" height="14" viewBox="0 0 14 14" fill="none" xmlns="http://www.w3.org/2000/svg">
<g clip-path="url(#clip0_2222_5959)">
<path d="M12.359 5.83743C12.1695 5.72729 11.9993 5.587 11.855 5.42209C11.8696 5.1925 11.9242 4.96724 12.0165 4.75651C12.1863 4.27759 12.3782 3.73509 12.0702 3.31334C11.7622 2.89159 11.1806 2.90501 10.6702 2.91668C10.4447 2.93988 10.2168 2.9245 9.99646 2.87118C9.87905 2.68014 9.7952 2.47042 9.74855 2.25109C9.60388 1.75818 9.4388 1.20109 8.93188 1.03426C8.44305 0.87676 7.99038 1.22326 7.59021 1.52776C7.41754 1.68545 7.21747 1.8102 6.99988 1.89584C6.78002 1.81089 6.57772 1.68611 6.40313 1.52776C6.00413 1.22501 5.55321 0.87501 5.06205 1.03484C4.5563 1.19934 4.39121 1.75818 4.24538 2.25109C4.19879 2.46971 4.11577 2.67893 3.99979 2.87001C3.77901 2.92319 3.55088 2.93896 3.32488 2.91668C2.81271 2.90268 2.2358 2.88751 1.92488 3.31334C1.61396 3.73918 1.80821 4.27759 1.97854 4.75593C2.07214 4.96634 2.12764 5.1917 2.14246 5.42151C1.99842 5.58664 1.82838 5.72713 1.63904 5.83743C1.21204 6.12909 0.727295 6.46101 0.727295 7.00001C0.727295 7.53901 1.21204 7.86976 1.63904 8.16259C1.82834 8.27272 1.99838 8.41301 2.14246 8.57793C2.12919 8.80765 2.07528 9.0332 1.98321 9.24409C1.81405 9.72243 1.62271 10.2649 1.93013 10.6867C2.23755 11.1084 2.81738 11.095 3.33013 11.0833C3.55586 11.0601 3.7839 11.0755 4.00446 11.1288C4.12135 11.3201 4.20498 11.5297 4.2518 11.7489C4.39646 12.2418 4.56155 12.7989 5.06846 12.9658C5.14973 12.9918 5.23453 13.0052 5.31988 13.0054C5.73008 12.9466 6.11134 12.76 6.40955 12.4723C6.58222 12.3146 6.78229 12.1898 6.99988 12.1042C7.21974 12.1891 7.42204 12.3139 7.59663 12.4723C7.99621 12.7773 8.44888 13.1256 8.9383 12.9652C9.44405 12.8007 9.60913 12.2418 9.75496 11.7495C9.80171 11.5305 9.88535 11.321 10.0023 11.13C10.2222 11.0765 10.4497 11.0607 10.6749 11.0833C11.187 11.0956 11.764 11.1125 12.0749 10.6867C12.3858 10.2608 12.1915 9.72243 12.0212 9.24351C11.9283 9.03329 11.8728 8.80843 11.8573 8.57909C12.0014 8.41382 12.1717 8.27331 12.3613 8.16318C12.7883 7.87151 13.273 7.53901 13.273 7.00001C13.273 6.46101 12.7865 6.12968 12.359 5.83743Z" fill="#AEAEAE"/>
<path d="M6.4165 8.60419C6.35904 8.6043 6.30213 8.59301 6.24906 8.57098C6.19599 8.54896 6.14782 8.51662 6.10733 8.47586L4.94066 7.30919C4.86338 7.22625 4.82131 7.11656 4.82331 7.00322C4.82531 6.88988 4.87123 6.78173 4.95138 6.70158C5.03154 6.62142 5.13968 6.5755 5.25302 6.5735C5.36637 6.5715 5.47606 6.61358 5.559 6.69086L6.45733 7.58919L8.48733 6.06669C8.58016 5.99707 8.69683 5.96718 8.8117 5.98359C8.92657 6 9.03021 6.06136 9.09983 6.15419C9.16945 6.24701 9.19934 6.36369 9.18293 6.47856C9.16652 6.59343 9.10515 6.69707 9.01233 6.76669L6.679 8.51669C6.60325 8.57345 6.51115 8.60415 6.4165 8.60419Z" fill="white"/>
</g>
<defs>
<clipPath id="clip0_2222_5959">
<rect width="14" height="14" fill="white"/>
</clipPath>
</defs>
</svg>
