<svg width="654" height="187" viewBox="0 0 654 187" fill="none" xmlns="http://www.w3.org/2000/svg">
<path d="M95.0087 33.3715C95.0087 44.1873 92.0657 52.4634 86.1798 58.2C80.3237 63.9067 71.8832 66.76 60.8583 66.76H42.7075V1.23783H62.7854C72.9737 1.23783 80.8914 4.06129 86.5383 9.70821C92.1852 15.3551 95.0087 23.2429 95.0087 33.3715ZM86.9417 33.6404C86.9417 25.0953 84.7904 18.6566 80.488 14.3243C76.2155 9.99205 69.8515 7.8259 61.3961 7.8259H50.3263V60.1719H59.6034C68.6863 60.1719 75.5134 57.946 80.0847 53.4942C84.656 49.0126 86.9417 42.3946 86.9417 33.6404ZM182.903 66.76H146.378V1.23783H182.903V8.00517H153.997V29.1139H181.156V35.8364H153.997V59.9479H182.903V66.76ZM275.369 66.76L267.213 45.9202H240.95L232.883 66.76H225.175L251.079 0.968932H257.488L283.257 66.76H275.369ZM264.837 39.0632L257.219 18.7612C256.233 16.1917 255.217 13.0396 254.171 9.30486C253.514 12.1731 252.573 15.3253 251.348 18.7612L243.639 39.0632H264.837ZM328.979 66.76V1.23783H336.598V59.8582H365.505V66.76H328.979ZM450.352 49.3263C450.352 55.0927 448.261 59.5893 444.078 62.8161C439.895 66.0429 434.218 67.6563 427.047 67.6563C419.279 67.6563 413.304 66.6554 409.121 64.6536V57.3037C411.81 58.439 414.738 59.3354 417.905 59.9927C421.072 60.65 424.209 60.9786 427.316 60.9786C432.396 60.9786 436.22 60.0225 438.789 58.1104C441.359 56.1683 442.644 53.4793 442.644 50.0433C442.644 47.7726 442.181 45.9202 441.254 44.4861C440.358 43.022 438.834 41.6775 436.683 40.4525C434.562 39.2275 431.32 37.8382 426.958 36.2846C420.863 34.1035 416.501 31.5191 413.871 28.5313C411.272 25.5435 409.972 21.6444 409.972 16.8341C409.972 11.7847 411.869 7.76615 415.664 4.77836C419.458 1.79057 424.478 0.29668 430.722 0.29668C437.236 0.29668 443.226 1.49179 448.694 3.88202L446.319 10.5149C440.911 8.24419 435.652 7.10883 430.543 7.10883C426.51 7.10883 423.358 7.97529 421.087 9.70821C418.816 11.4411 417.681 13.8463 417.681 16.9237C417.681 19.1944 418.099 21.0618 418.936 22.5258C419.772 23.96 421.176 25.2895 423.148 26.5145C425.15 27.7096 428.198 29.0392 432.291 30.5032C439.163 32.9532 443.884 35.5824 446.453 38.391C449.053 41.1995 450.352 44.8446 450.352 49.3263ZM570.569 14.2795C570.569 16.3411 571.107 18.313 572.182 20.1953C573.258 22.0478 575.095 24.2886 577.695 26.9179C581.549 24.677 584.223 22.6155 585.717 20.7331C587.241 18.821 588.003 16.6249 588.003 14.1451C588.003 11.8445 587.226 9.97711 585.672 8.54297C584.148 7.07896 582.102 6.34695 579.532 6.34695C576.873 6.34695 574.707 7.06402 573.034 8.49816C571.39 9.93229 570.569 11.8594 570.569 14.2795ZM577.515 60.9786C584.716 60.9786 590.692 58.678 595.442 54.0769L575.857 35.0745C572.541 37.1062 570.195 38.7943 568.821 40.1388C567.447 41.4535 566.431 42.8726 565.773 44.3964C565.116 45.9202 564.787 47.6531 564.787 49.5952C564.787 53.0909 565.938 55.8695 568.238 57.9311C570.569 59.9628 573.661 60.9786 577.515 60.9786ZM557.079 49.7744C557.079 45.8903 558.11 42.4544 560.171 39.4666C562.263 36.4788 565.997 33.4611 571.376 30.4136C568.836 27.5752 567.103 25.424 566.177 23.96C565.28 22.4959 564.563 20.9722 564.026 19.3886C563.488 17.8051 563.219 16.1618 563.219 14.4588C563.219 9.97711 564.683 6.4814 567.611 3.97166C570.539 1.46192 574.617 0.207046 579.846 0.207046C584.686 0.207046 588.496 1.46192 591.274 3.97166C594.053 6.45152 595.442 9.91735 595.442 14.3692C595.442 17.5661 594.426 20.524 592.395 23.2429C590.363 25.9319 587.002 28.6657 582.311 31.4444L600.551 48.9677C602.224 47.1153 603.554 44.9492 604.54 42.4693C605.556 39.9596 606.407 37.2257 607.095 34.2678H614.624C612.592 42.8129 609.53 49.2964 605.436 53.7183L618.837 66.76H608.573L600.282 58.7826C596.757 61.9497 593.171 64.2204 589.526 65.5948C585.881 66.9692 581.818 67.6563 577.336 67.6563C570.912 67.6563 565.923 66.0728 562.367 62.9058C558.842 59.7387 557.079 55.3616 557.079 49.7744ZM31.9514 126.109C24.7508 126.109 19.0591 128.514 14.8762 133.324C10.7232 138.105 8.64667 144.663 8.64667 152.999C8.64667 161.574 10.6485 168.207 14.6521 172.898C18.6856 177.559 24.4222 179.889 31.8618 179.889C36.4331 179.889 41.6468 179.067 47.5028 177.424V184.102C42.9614 185.805 37.3593 186.656 30.6965 186.656C21.046 186.656 13.5915 183.728 8.33295 177.872C3.10432 172.016 0.49001 163.695 0.49001 152.909C0.49001 146.157 1.74488 140.241 4.25462 135.162C6.79424 130.083 10.4393 126.169 15.1899 123.42C19.9704 120.671 25.5874 119.297 32.041 119.297C38.913 119.297 44.9184 120.552 50.0574 123.061L46.8306 129.605C41.8709 127.274 36.9111 126.109 31.9514 126.109ZM155.386 152.909C155.386 163.396 152.727 171.643 147.408 177.648C142.12 183.654 134.755 186.656 125.314 186.656C115.663 186.656 108.209 183.713 102.95 177.827C97.7216 171.912 95.1073 163.576 95.1073 152.82C95.1073 142.153 97.7365 133.892 102.995 128.036C108.254 122.15 115.723 119.207 125.403 119.207C134.815 119.207 142.165 122.195 147.453 128.17C152.742 134.146 155.386 142.392 155.386 152.909ZM103.174 152.909C103.174 161.783 105.057 168.52 108.821 173.122C112.616 177.693 118.113 179.979 125.314 179.979C132.574 179.979 138.057 177.693 141.762 173.122C145.466 168.55 147.319 161.813 147.319 152.909C147.319 144.095 145.466 137.418 141.762 132.876C138.087 128.305 132.634 126.019 125.403 126.019C118.143 126.019 112.616 128.32 108.821 132.921C105.057 137.492 103.174 144.155 103.174 152.909ZM256.233 120.238V162.635C256.233 170.104 253.977 175.975 249.465 180.248C244.954 184.52 238.754 186.656 230.866 186.656C222.979 186.656 216.869 184.505 212.536 180.203C208.234 175.9 206.083 169.984 206.083 162.455V120.238H213.702V162.993C213.702 168.461 215.195 172.659 218.183 175.587C221.171 178.515 225.563 179.979 231.359 179.979C236.887 179.979 241.144 178.515 244.132 175.587C247.12 172.629 248.614 168.401 248.614 162.903V120.238H256.233ZM351.881 139.33C351.881 145.963 349.61 151.072 345.069 154.657C340.557 158.213 334.088 159.99 325.663 159.99H317.954V185.76H310.336V120.238H327.321C343.694 120.238 351.881 126.602 351.881 139.33ZM317.954 153.447H324.811C331.564 153.447 336.449 152.357 339.466 150.175C342.484 147.994 343.993 144.499 343.993 139.688C343.993 135.356 342.574 132.129 339.735 130.008C336.897 127.887 332.475 126.826 326.47 126.826H317.954V153.447ZM459.226 152.909C459.226 163.396 456.567 171.643 451.249 177.648C445.96 183.654 438.595 186.656 429.154 186.656C419.503 186.656 412.049 183.713 406.79 177.827C401.562 171.912 398.947 163.576 398.947 152.82C398.947 142.153 401.577 133.892 406.835 128.036C412.094 122.15 419.563 119.207 429.243 119.207C438.655 119.207 446.005 122.195 451.293 128.17C456.582 134.146 459.226 142.392 459.226 152.909ZM407.014 152.909C407.014 161.783 408.897 168.52 412.661 173.122C416.456 177.693 421.953 179.979 429.154 179.979C436.414 179.979 441.897 177.693 445.602 173.122C449.306 168.55 451.159 161.813 451.159 152.909C451.159 144.095 449.306 137.418 445.602 132.876C441.927 128.305 436.474 126.019 429.243 126.019C421.983 126.019 416.456 128.32 412.661 132.921C408.897 137.492 407.014 144.155 407.014 152.909ZM561.776 185.76H553.081L517.273 130.77H516.914C517.392 137.223 517.631 143.139 517.631 148.517V185.76H510.595V120.238H519.2L554.919 175.004H555.277C555.218 174.197 555.083 171.613 554.874 167.251C554.665 162.859 554.59 159.721 554.65 157.839V120.238H561.776V185.76ZM653.48 168.326C653.48 174.093 651.388 178.589 647.205 181.816C643.023 185.043 637.346 186.656 630.175 186.656C622.407 186.656 616.431 185.655 612.248 183.654V176.304C614.937 177.439 617.865 178.335 621.032 178.993C624.2 179.65 627.337 179.979 630.444 179.979C635.523 179.979 639.348 179.023 641.917 177.11C644.487 175.168 645.771 172.479 645.771 169.043C645.771 166.773 645.308 164.92 644.382 163.486C643.486 162.022 641.962 160.678 639.811 159.453C637.689 158.228 634.448 156.838 630.085 155.285C623.99 153.103 619.628 150.519 616.999 147.531C614.4 144.543 613.1 140.644 613.1 135.834C613.1 130.785 614.997 126.766 618.792 123.778C622.586 120.791 627.606 119.297 633.85 119.297C640.363 119.297 646.354 120.492 651.822 122.882L649.446 129.515C644.038 127.244 638.78 126.109 633.671 126.109C629.637 126.109 626.485 126.975 624.214 128.708C621.944 130.441 620.808 132.846 620.808 135.924C620.808 138.194 621.227 140.062 622.063 141.526C622.9 142.96 624.304 144.29 626.276 145.515C628.278 146.71 631.325 148.039 635.419 149.503C642.291 151.953 647.011 154.582 649.581 157.391C652.18 160.199 653.48 163.845 653.48 168.326Z" fill="black"/>
</svg>
