<svg version="1.2" baseProfile="tiny-ps" xmlns="http://www.w3.org/2000/svg" viewBox="0 0 17 17" width="17" height="17">
	<title>linkdin-svg</title>
	<style>
		tspan { white-space:pre }
		.shp0 { fill: #4942E4 } 
	</style>
	<path id="Layer" class="shp0" d="M3.65 16.27L0.27 16.27L0.27 5.4L3.65 5.4L3.65 16.27ZM1.96 3.92C0.88 3.92 0 3.04 0 1.96C0 0.88 0.88 0 1.96 0C3.04 0 3.92 0.88 3.92 1.96C3.92 3.04 3.04 3.92 1.96 3.92ZM16.3 16.27L12.92 16.27L12.92 10.98C12.92 9.72 12.9 8.1 11.17 8.1C9.41 8.1 9.14 9.47 9.14 10.89L9.14 16.27L5.76 16.27L5.76 5.4L9 5.4L9 6.89L9.05 6.89C9.5 6.03 10.6 5.13 12.25 5.13C15.66 5.13 16.3 7.38 16.3 10.31L16.3 16.27Z" />
</svg>