<svg width="36" height="42" viewBox="0 0 36 42" fill="none" xmlns="http://www.w3.org/2000/svg">
<path d="M17.9375 20.625C23.543 20.625 28.1875 16.0605 28.1875 10.375C28.1875 4.76953 23.543 0.125 17.9375 0.125C12.252 0.125 7.6875 4.76953 7.6875 10.375C7.6875 16.0605 12.252 20.625 17.9375 20.625ZM8.32812 34.0781C8.32812 35.1992 9.12891 36 10.25 36C11.291 36 12.1719 35.1992 12.1719 34.0781C12.1719 33.0371 11.291 32.1562 10.25 32.1562C9.12891 32.1562 8.32812 33.0371 8.32812 34.0781ZM25.625 23.2676V27.1914C28.5078 27.752 30.75 30.3945 30.75 33.4375V36.8008C30.75 37.4414 30.2695 37.9219 29.709 38.082L27.0664 38.5625C26.7461 38.6426 26.4258 38.4023 26.3457 38.082L26.1055 36.8008C26.0254 36.4805 26.2656 36.1602 26.5859 36.0801L28.1875 35.7598V33.4375C28.1875 28.4727 20.5 28.2324 20.5 33.5977V35.7598L22.0215 36.0801C22.3418 36.1602 22.582 36.4805 22.502 36.8008L22.2617 38.082C22.1816 38.4023 21.8613 38.6426 21.541 38.5625L18.9785 38.2422C18.418 38.1621 17.9375 37.6016 17.9375 36.9609V33.4375C17.9375 30.3945 20.0996 27.832 23.0625 27.1914V23.5879C22.8223 23.668 22.6621 23.668 22.502 23.748C21.0605 24.2285 19.5391 24.5488 17.9375 24.5488C16.3359 24.5488 14.7344 24.2285 13.293 23.748C12.7324 23.5078 12.0918 23.4277 11.5312 23.3477V29.834C13.373 30.3945 14.7344 32.0762 14.7344 34.1582C14.7344 36.5605 12.7324 38.6426 10.25 38.6426C7.76758 38.6426 5.76562 36.5605 5.76562 34.1582C5.76562 32.0762 7.12695 30.3945 8.96875 29.834V23.4277C3.84375 24.2285 0 28.6328 0 33.998V37.6016C0 39.5234 1.60156 41.125 3.52344 41.125H32.2715C34.1934 41.125 35.875 39.5234 35.875 37.6016V33.998C35.875 28.2324 31.3105 23.5879 25.625 23.2676Z" fill="white"/>
</svg>
