<svg width="40" height="55" viewBox="0 0 40 55" fill="none" xmlns="http://www.w3.org/2000/svg">
<path d="M13 14H27V55L20 47.1154L13 55V14Z" fill="#B66610"/>
<path d="M15.3333 14.3943H24.6666V52.376L20 47.5097L15.3333 52.3821V14.3943Z" fill="#FEC559"/>
<path d="M34.1421 34.1421C41.9526 26.3316 41.9526 13.6684 34.1421 5.85786C26.3317 -1.95262 13.6683 -1.95262 5.85786 5.85786C-1.95262 13.6684 -1.95262 26.3317 5.85786 34.1421C13.6683 41.9526 26.3316 41.9526 34.1421 34.1421Z" fill="#FFD468"/>
<path d="M34.1421 34.1421C41.9526 26.3316 41.9526 13.6684 34.1421 5.85786C26.3317 -1.95262 13.6683 -1.95262 5.85786 5.85786C-1.95262 13.6684 -1.95262 26.3317 5.85786 34.1421C13.6683 41.9526 26.3316 41.9526 34.1421 34.1421Z" fill="url(#paint0_linear_1157_6444)"/>
<path d="M35.3245 23.7159C37.305 15.4812 32.2179 7.20435 23.9621 5.22891C15.7063 3.25347 7.40819 8.32754 5.42768 16.5622C3.44717 24.7968 8.53427 33.0737 16.79 35.0491C25.0458 37.0246 33.344 31.9505 35.3245 23.7159Z" fill="#3E2306"/>
<path d="M20.3307 34.8058C17.4294 34.8058 14.5934 33.9476 12.1812 32.3398C9.76897 30.732 7.88895 28.4468 6.77891 25.7733C5.66886 23.0997 5.37864 20.1578 5.94495 17.3197C6.51126 14.4815 7.90867 11.8747 9.96044 9.82877C12.0122 7.78285 14.6262 6.38979 17.4718 5.82576C20.3173 5.26174 23.2667 5.55208 25.9468 6.66008C28.6269 7.76807 30.9174 9.64395 32.5286 12.0505C34.1399 14.457 34.9994 17.286 34.9985 20.1798C34.9894 24.0568 33.441 27.7723 30.6921 30.5134C27.9431 33.2544 24.2176 34.7978 20.3307 34.8058ZM20.3307 5.98068C17.5151 5.98068 14.7628 6.81344 12.4218 8.37366C10.0808 9.93388 8.25617 12.1515 7.17871 14.746C6.10125 17.3406 5.81934 20.1955 6.36862 22.9499C6.91791 25.7043 8.27371 28.2343 10.2646 30.2201C12.2555 32.2059 14.792 33.5582 17.5534 34.1061C20.3149 34.6539 23.1772 34.3728 25.7784 33.2981C28.3796 32.2234 30.6029 30.4034 32.1671 28.0684C33.7313 25.7334 34.5662 22.9881 34.5662 20.1798C34.5582 16.4164 33.0558 12.8094 30.3879 10.1483C27.7199 7.48718 24.1037 5.98865 20.3307 5.98068Z" fill="#FFFBF9"/>
<path d="M20.3307 33.9348C17.6039 33.9356 14.9381 33.1299 12.6704 31.6195C10.4028 30.109 8.63511 27.9618 7.59102 25.4492C6.54693 22.9367 6.2733 20.1718 6.80475 17.5041C7.33619 14.8365 8.64884 12.3859 10.5767 10.4624C12.5045 8.53892 14.9609 7.22887 17.6353 6.69795C20.3096 6.16703 23.0817 6.43908 25.601 7.47971C28.1203 8.52034 30.2737 10.2828 31.7887 12.5442C33.3037 14.8056 34.1123 17.4643 34.1123 20.1841C34.1089 23.8292 32.6559 27.3241 30.0723 29.902C27.4886 32.4799 23.9851 33.9302 20.3307 33.9348ZM20.3307 6.64901C17.6466 6.64816 15.0226 7.44125 12.7905 8.92799C10.5584 10.4147 8.81844 12.5283 7.79071 15.0015C6.76298 17.4746 6.49364 20.1962 7.01674 22.822C7.53985 25.4478 8.83191 27.86 10.7295 29.7533C12.6271 31.6467 15.045 32.9362 17.6774 33.4588C20.3098 33.9814 23.0385 33.7136 25.5183 32.6893C27.9981 31.665 30.1177 29.9301 31.609 27.7042C33.1002 25.4783 33.8962 22.8613 33.8962 20.1841C33.8928 16.5962 32.4626 13.1561 29.9194 10.6186C27.3763 8.08119 23.9278 6.65358 20.3307 6.64901Z" fill="#FFFBF9"/>
<path d="M2.8789 20.1754L3.07343 20.5678C3.08912 20.6004 3.11279 20.6286 3.14225 20.6497C3.17172 20.6708 3.20603 20.6842 3.24203 20.6886L3.67433 20.7532C3.72061 20.7568 3.7647 20.7744 3.80077 20.8035C3.83684 20.8327 3.86318 20.8721 3.8763 20.9165C3.88942 20.9609 3.88871 21.0082 3.87426 21.0522C3.85981 21.0962 3.8323 21.1348 3.79537 21.1629L3.48412 21.4647C3.45794 21.4909 3.43841 21.523 3.42713 21.5582C3.41586 21.5935 3.41316 21.6309 3.41927 21.6674L3.49276 22.0985C3.50017 22.1407 3.49558 22.184 3.47951 22.2237C3.46344 22.2633 3.43653 22.2977 3.40185 22.3229C3.36717 22.348 3.32611 22.363 3.28333 22.366C3.24056 22.369 3.19779 22.36 3.15989 22.34L2.77515 22.1374C2.74245 22.1204 2.70611 22.1115 2.66923 22.1115C2.63236 22.1115 2.59602 22.1204 2.56332 22.1374L2.17858 22.34C2.14068 22.36 2.09791 22.369 2.05513 22.366C2.01236 22.363 1.9713 22.348 1.93662 22.3229C1.90194 22.2977 1.87503 22.2633 1.85896 22.2237C1.84289 22.184 1.8383 22.1407 1.84571 22.0985L1.9192 21.6674C1.92531 21.6309 1.92261 21.5935 1.91134 21.5582C1.90006 21.523 1.88053 21.4909 1.85435 21.4647L1.54742 21.1629C1.51734 21.1331 1.4961 21.0957 1.48607 21.0547C1.47604 21.0136 1.4776 20.9706 1.49059 20.9304C1.50357 20.8902 1.52748 20.8544 1.55964 20.8269C1.5918 20.7995 1.63097 20.7814 1.67279 20.7748L2.10509 20.7101C2.1415 20.7053 2.17622 20.6918 2.20631 20.6708C2.23641 20.6498 2.261 20.6219 2.27801 20.5894L2.46822 20.197C2.48506 20.1577 2.51259 20.124 2.54769 20.0995C2.5828 20.0751 2.62407 20.0609 2.66683 20.0587C2.70958 20.0564 2.75212 20.0662 2.7896 20.0868C2.82708 20.1075 2.85802 20.1382 2.8789 20.1754Z" fill="#FFFBF9"/>
<path d="M37.9469 19.0068L38.1371 19.3949C38.1533 19.4284 38.1775 19.4574 38.2077 19.4792C38.2379 19.501 38.2731 19.515 38.31 19.5199L38.7423 19.5846C38.7841 19.5912 38.8233 19.6093 38.8555 19.6367C38.8876 19.6642 38.9115 19.7 38.9245 19.7402C38.9375 19.7804 38.9391 19.8234 38.929 19.8645C38.919 19.9055 38.8978 19.9429 38.8677 19.9727L38.5564 20.2745C38.5296 20.3003 38.5097 20.3323 38.4984 20.3677C38.4871 20.403 38.4847 20.4407 38.4916 20.4772L38.5651 20.9084C38.5725 20.9505 38.5679 20.9938 38.5518 21.0335C38.5357 21.0731 38.5088 21.1075 38.4742 21.1327C38.4395 21.1578 38.3984 21.1728 38.3556 21.1758C38.3129 21.1788 38.2701 21.1698 38.2322 21.1498L37.8475 20.9472C37.8148 20.9302 37.7784 20.9213 37.7415 20.9213C37.7047 20.9213 37.6683 20.9302 37.6356 20.9472L37.2466 21.1498C37.209 21.1704 37.1662 21.1799 37.1234 21.1771C37.0806 21.1743 37.0394 21.1593 37.0049 21.1339C36.9703 21.1085 36.9438 21.0737 36.9284 21.0338C36.913 20.9938 36.9094 20.9503 36.918 20.9084L36.9915 20.4772C36.9976 20.4407 36.9949 20.4033 36.9836 20.368C36.9724 20.3328 36.9528 20.3007 36.9267 20.2745L36.6111 19.9727C36.5809 19.9427 36.5598 19.9049 36.5499 19.8635C36.5401 19.8222 36.5421 19.7789 36.5555 19.7386C36.569 19.6983 36.5935 19.6625 36.6262 19.6353C36.6589 19.6081 36.6986 19.5906 36.7408 19.5846L37.1731 19.5199C37.2102 19.5154 37.2455 19.5015 37.2757 19.4797C37.306 19.4578 37.3302 19.4286 37.346 19.3949L37.5146 19.0068C37.5303 18.9622 37.5596 18.9235 37.5983 18.8961C37.637 18.8688 37.6833 18.8541 37.7307 18.8541C37.7782 18.8541 37.8245 18.8688 37.8632 18.8961C37.9019 18.9235 37.9311 18.9622 37.9469 19.0068Z" fill="#FFFBF9"/>
<path d="M1.82413 19.5673C1.82413 19.5673 0.492655 18.83 0.907661 18.3686C1.32267 17.9072 1.88898 19.2138 1.82413 19.5673Z" fill="#3E2306"/>
<path d="M1.90621 19.5674C1.90621 19.5674 3.26795 18.8818 2.87023 18.4032C2.47252 17.9246 1.85866 19.2138 1.90621 19.5674Z" fill="#3E2306"/>
<path d="M1.97541 18.0841C1.97541 18.0841 0.717427 17.2217 1.17134 16.7905C1.62525 16.3593 2.0662 17.7348 1.97541 18.0841Z" fill="#3E2306"/>
<path d="M2.06615 18.0927C2.06615 18.0927 3.48409 17.5321 3.1296 17.019C2.77512 16.5059 2.04021 17.7132 2.06615 18.0927Z" fill="#3E2306"/>
<path d="M2.2304 16.6267C2.2304 16.6267 1.07617 15.6349 1.57763 15.2641C2.0791 14.8933 2.36874 16.2904 2.2304 16.6267Z" fill="#3E2306"/>
<path d="M2.31263 16.6439C2.31263 16.6439 3.79541 16.2472 3.4928 15.6996C3.19019 15.152 2.33424 16.2817 2.31263 16.6439Z" fill="#3E2306"/>
<path d="M2.74912 15.096C2.74912 15.096 1.59056 14.1042 2.09202 13.7334C2.59349 13.3626 2.88313 14.7597 2.74912 15.096Z" fill="#3E2306"/>
<path d="M2.82701 15.1261C2.82701 15.1261 4.29682 14.7295 4.00718 14.1818C3.71754 13.6342 2.85295 14.751 2.82701 15.1261Z" fill="#3E2306"/>
<path d="M3.32849 13.5609C3.32849 13.5609 2.27801 12.4614 2.80974 12.1423C3.34146 11.8232 3.49709 13.2419 3.32849 13.5609Z" fill="#3E2306"/>
<path d="M3.40638 13.5868C3.40638 13.5868 4.91078 13.3367 4.66004 12.7632C4.40931 12.1897 3.4669 13.2332 3.40638 13.5868Z" fill="#3E2306"/>
<path d="M4.05037 12.0819C4.05037 12.0819 3.25495 10.7883 3.84719 10.5857C4.43944 10.383 4.28381 11.8059 4.05037 12.0819Z" fill="#3E2306"/>
<path d="M4.12396 12.1078C4.12396 12.1078 5.64565 12.1767 5.53325 11.5645C5.42086 10.9522 4.25365 11.7887 4.12396 12.1078Z" fill="#3E2306"/>
<path d="M4.92795 10.8143C4.92795 10.8143 4.13252 9.52071 4.72045 9.31805C5.30837 9.11539 5.15707 10.5211 4.92795 10.8143Z" fill="#3E2306"/>
<path d="M4.99724 10.8401C4.99724 10.8401 6.51893 10.9134 6.41085 10.3011C6.30278 9.68885 5.13125 10.5081 4.99724 10.8401Z" fill="#3E2306"/>
<path d="M5.88332 9.43013C5.88332 9.43013 5.21326 8.06757 5.81848 7.92528C6.42369 7.78298 6.13838 9.17573 5.88332 9.43013Z" fill="#3E2306"/>
<path d="M5.95689 9.47758C5.95689 9.47758 7.46561 9.69317 7.41374 9.07226C7.36186 8.45134 6.11252 9.1585 5.95689 9.47758Z" fill="#3E2306"/>
<path d="M7.0505 8.05028C7.0505 8.05028 6.52742 6.62735 7.14128 6.54543C7.75514 6.4635 7.33149 7.82175 7.0505 8.05028Z" fill="#3E2306"/>
<path d="M7.11544 8.10637C7.11544 8.10637 8.5939 8.47288 8.60254 7.85197C8.61119 7.23105 7.30997 7.79591 7.11544 8.10637Z" fill="#3E2306"/>
<path d="M8.13987 7.02838C8.13987 7.02838 7.74648 5.55802 8.36899 5.53646C8.9915 5.5149 8.43815 6.82572 8.13987 7.02838Z" fill="#3E2306"/>
<path d="M8.19604 7.08874C8.19604 7.08874 9.63127 7.58893 9.70044 6.96801C9.76961 6.34709 8.41652 6.80416 8.19604 7.08874Z" fill="#3E2306"/>
<path d="M9.28556 6.07116C9.28556 6.07116 9.06077 4.57061 9.68328 4.61804C10.3058 4.66548 9.60979 5.92455 9.28556 6.07116Z" fill="#3E2306"/>
<path d="M9.33749 6.15733C9.33749 6.15733 10.7079 6.81274 10.8462 6.20907C10.9845 5.60541 9.58823 5.89862 9.33749 6.15733Z" fill="#3E2306"/>
<path d="M10.6818 5.26482C10.6818 5.26482 10.457 3.76428 11.0752 3.81171C11.6934 3.85914 11.0017 5.10097 10.6818 5.26482Z" fill="#3E2306"/>
<path d="M10.7122 5.33372C10.7122 5.33372 12.0869 5.98913 12.2252 5.38547C12.3636 4.7818 10.9845 5.07501 10.7122 5.33372Z" fill="#3E2306"/>
<path d="M12.1258 4.48439C12.1258 4.48439 12.0479 2.96659 12.6618 3.07439C13.2757 3.18219 12.4413 4.3464 12.1258 4.48439Z" fill="#3E2306"/>
<path d="M12.169 4.5577C12.169 4.5577 13.4659 5.34677 13.6647 4.75604C13.8636 4.16531 12.4413 4.34641 12.169 4.5577Z" fill="#3E2306"/>
<path d="M13.6432 3.83765C13.6432 3.83765 13.8896 2.33711 14.4646 2.56995C15.0395 2.8028 13.9977 3.77729 13.6432 3.83765Z" fill="#3E2306"/>
<path d="M13.6691 3.9151C13.6691 3.9151 14.7758 4.95858 15.0914 4.4239C15.407 3.88923 13.989 3.74693 13.6691 3.9151Z" fill="#3E2306"/>
<path d="M15.1432 3.43659C15.1432 3.43659 15.3896 1.93605 15.9688 2.16889C16.5481 2.40173 15.502 3.37623 15.1432 3.43659Z" fill="#3E2306"/>
<path d="M15.1691 3.51416C15.1691 3.51416 16.2758 4.55764 16.5913 4.02296C16.9069 3.48829 15.489 3.34599 15.1691 3.51416Z" fill="#3E2306"/>
<path d="M16.7643 3.02266C16.7643 3.02266 17.149 1.5523 17.7023 1.8412C18.2557 2.13009 17.1231 2.99679 16.7643 3.02266Z" fill="#3E2306"/>
<path d="M16.7643 3.10454C16.7643 3.10454 17.7672 4.2472 18.1346 3.7427C18.5021 3.23821 17.1187 2.96656 16.7643 3.10454Z" fill="#3E2306"/>
<path d="M18.5799 2.74232C18.5799 2.74232 19.0987 1.31508 19.6217 1.65141C20.1448 1.98773 18.9257 2.75094 18.5799 2.74232Z" fill="#3E2306"/>
<path d="M18.5929 2.82429C18.5929 2.82429 19.4877 4.05319 19.8898 3.5875C20.2918 3.12181 18.9257 2.72081 18.5929 2.82429Z" fill="#3E2306"/>
<path d="M20.0757 2.65614C20.0757 2.65614 20.7242 1.28495 21.2127 1.6644C21.7012 2.04385 20.4345 2.69926 20.0757 2.65614Z" fill="#3E2306"/>
<path d="M20.0757 2.74234C20.0757 2.74234 20.8539 4.03592 21.3078 3.60473C21.7617 3.17354 20.4302 2.66473 20.0757 2.74234Z" fill="#3E2306"/>
<path d="M21.5584 2.68195C21.5584 2.68195 22.3582 1.38837 22.7991 1.81957C23.2401 2.25076 21.9086 2.75956 21.5584 2.68195Z" fill="#3E2306"/>
<path d="M21.5541 2.76398C21.5541 2.76398 22.1766 4.1481 22.6738 3.77297C23.1709 3.39783 21.9129 2.72948 21.5541 2.76398Z" fill="#3E2306"/>
<path d="M23.1536 2.94507C23.1536 2.94507 23.9533 1.6515 24.3986 2.08269C24.8439 2.51388 23.5081 3.027 23.1536 2.94507Z" fill="#3E2306"/>
<path d="M23.1493 3.02693C23.1493 3.02693 23.7718 4.41536 24.2733 4.04023C24.7747 3.66509 23.5081 2.99674 23.1493 3.02693Z" fill="#3E2306"/>
<path d="M24.7617 3.27709C24.7617 3.27709 25.6869 2.06976 26.0846 2.54407C26.4823 3.01838 25.1076 3.3892 24.7617 3.27709Z" fill="#3E2306"/>
<path d="M24.7488 3.35895C24.7488 3.35895 25.2373 4.79913 25.769 4.47573C26.3007 4.15234 25.1119 3.35895 24.7488 3.35895Z" fill="#3E2306"/>
<path d="M26.344 3.75566C26.344 3.75566 27.4982 2.76823 27.7878 3.32447C28.0775 3.8807 26.6552 3.94107 26.344 3.75566Z" fill="#3E2306"/>
<path d="M26.3137 3.83331C26.3137 3.83331 26.4823 5.34248 27.0702 5.12689C27.6582 4.91129 26.6639 3.91524 26.3137 3.83331Z" fill="#3E2306"/>
<path d="M27.7491 4.41539C27.7491 4.41539 28.9076 3.42796 29.1973 3.9842C29.4869 4.54043 28.0603 4.6008 27.7491 4.41539Z" fill="#3E2306"/>
<path d="M27.7187 4.49298C27.7187 4.49298 27.8916 6.00215 28.4795 5.78655C29.0674 5.57096 28.0731 4.5706 27.7187 4.49298Z" fill="#3E2306"/>
<path d="M29.2577 5.13981C29.2577 5.13981 30.5027 4.27743 30.7361 4.84229C30.9696 5.40715 29.5473 5.35541 29.2577 5.13981Z" fill="#3E2306"/>
<path d="M29.2188 5.2088C29.2188 5.2088 29.2447 6.73091 29.85 6.57999C30.4552 6.42907 29.5646 5.32522 29.2188 5.2088Z" fill="#3E2306"/>
<path d="M30.8053 6.07118C30.8053 6.07118 32.1368 5.32954 32.3097 5.92458C32.4827 6.51962 31.0777 6.31696 30.8053 6.07118Z" fill="#3E2306"/>
<path d="M30.762 6.14447C30.762 6.14447 30.6323 7.65795 31.2505 7.57171C31.8687 7.48547 31.0906 6.29108 30.762 6.14447Z" fill="#3E2306"/>
<path d="M31.9941 6.98529C31.9941 6.98529 33.3818 6.36869 33.5028 6.98529C33.6239 7.60189 32.2362 7.24832 31.9941 6.98529Z" fill="#3E2306"/>
<path d="M31.9422 7.04999C31.9422 7.04999 31.6742 8.54622 32.2967 8.51603C32.9192 8.48585 32.2578 7.22246 31.9422 7.04999Z" fill="#3E2306"/>
<path d="M33.1008 7.9683C33.1008 7.9683 34.5534 7.51124 34.6052 8.13215C34.6571 8.75307 33.317 8.26151 33.1008 7.9683Z" fill="#3E2306"/>
<path d="M33.0404 8.02881C33.0404 8.02881 32.6081 9.48192 33.2306 9.52504C33.8531 9.56816 33.3387 8.22716 33.0404 8.02881Z" fill="#3E2306"/>
<path d="M34.1339 9.21018C34.1339 9.21018 35.5864 8.75312 35.6383 9.37403C35.6902 9.99495 34.3501 9.52064 34.1339 9.21018Z" fill="#3E2306"/>
<path d="M34.0779 9.27063C34.0779 9.27063 33.6456 10.7281 34.2638 10.7669C34.882 10.8057 34.3719 9.4776 34.0779 9.27063Z" fill="#3E2306"/>
<path d="M35.137 10.5124C35.137 10.5124 36.6284 10.1976 36.6154 10.8185C36.6025 11.4395 35.3229 10.8142 35.137 10.5124Z" fill="#3E2306"/>
<path d="M35.072 10.5642C35.072 10.5642 34.4971 11.9699 35.1109 12.0734C35.7248 12.1769 35.353 10.8143 35.072 10.5642Z" fill="#3E2306"/>
<path d="M36.0189 11.9009C36.0189 11.9009 37.5406 11.9009 37.4022 12.5132C37.2639 13.1255 36.1356 12.2458 36.0189 11.9009Z" fill="#3E2306"/>
<path d="M35.9454 11.9396C35.9454 11.9396 35.0808 13.1944 35.6644 13.4229C36.248 13.6515 36.1615 12.2285 35.9454 11.9396Z" fill="#3E2306"/>
<path d="M36.6501 13.3195C36.6501 13.3195 38.1761 13.3195 38.0334 13.9318C37.8908 14.5441 36.7668 13.6602 36.6501 13.3195Z" fill="#3E2306"/>
<path d="M36.5765 13.3583C36.5765 13.3583 35.712 14.613 36.2956 14.8416C36.8792 15.0701 36.7927 13.6472 36.5765 13.3583Z" fill="#3E2306"/>
<path d="M37.3158 14.8502C37.3158 14.8502 38.8332 15.0011 38.6127 15.5875C38.3922 16.1739 37.398 15.1994 37.3158 14.8502Z" fill="#3E2306"/>
<path d="M37.2379 14.8804C37.2379 14.8804 36.2652 16.049 36.8056 16.3292C37.346 16.6095 37.4281 15.1909 37.2379 14.8804Z" fill="#3E2306"/>
<path d="M38.0549 22.5254C38.0549 22.5254 39.3518 23.3533 38.8806 23.7845C38.4094 24.2157 37.9468 22.8876 38.0549 22.5254Z" fill="#3E2306"/>
<path d="M37.9727 22.5167C37.9727 22.5167 36.5678 23.1031 36.9309 23.6076C37.294 24.1121 37.9943 22.8875 37.9727 22.5167Z" fill="#3E2306"/>
<path d="M37.7955 23.9915C37.7955 23.9915 38.9887 24.9358 38.5045 25.3238C38.0203 25.7119 37.6745 24.3321 37.7955 23.9915Z" fill="#3E2306"/>
<path d="M37.7134 23.9785C37.7134 23.9785 36.2609 24.4097 36.5764 24.9703C36.892 25.5308 37.7047 24.3364 37.7134 23.9785Z" fill="#3E2306"/>
<path d="M37.4325 25.4273C37.4325 25.4273 38.5132 26.501 37.9858 26.833C37.4584 27.165 37.2769 25.7507 37.4325 25.4273Z" fill="#3E2306"/>
<path d="M37.3546 25.4057C37.3546 25.4057 35.8588 25.6946 36.1139 26.2681C36.3689 26.8416 37.307 25.7593 37.3546 25.4057Z" fill="#3E2306"/>
<path d="M36.8098 26.9192C36.8098 26.9192 37.8906 27.9885 37.3632 28.3206C36.8358 28.6526 36.6499 27.2426 36.8098 26.9192Z" fill="#3E2306"/>
<path d="M36.7322 26.8934C36.7322 26.8934 35.2364 27.1823 35.4872 27.7558C35.7379 28.3292 36.6803 27.2513 36.7322 26.8934Z" fill="#3E2306"/>
<path d="M36.1182 28.4068C36.1182 28.4068 37.0865 29.5753 36.5505 29.8556C36.0144 30.1359 35.928 28.7129 36.1182 28.4068Z" fill="#3E2306"/>
<path d="M36.0447 28.3723C36.0447 28.3723 34.5273 28.5145 34.7219 29.1053C34.9164 29.696 35.9582 28.7258 36.0447 28.3723Z" fill="#3E2306"/>
<path d="M35.2926 29.8298C35.2926 29.8298 35.9886 31.1794 35.3877 31.3346C34.7868 31.4899 35.0419 30.0885 35.2926 29.8298Z" fill="#3E2306"/>
<path d="M35.2234 29.7866C35.2234 29.7866 33.7103 29.6055 33.7752 30.2178C33.84 30.8301 35.0677 30.1057 35.2234 29.7866Z" fill="#3E2306"/>
<path d="M34.3242 31.0457C34.3242 31.0457 35.0246 32.3953 34.4237 32.5506C33.8228 32.7058 34.0562 31.3044 34.3242 31.0457Z" fill="#3E2306"/>
<path d="M34.2551 30.9982C34.2551 30.9982 32.7464 30.8171 32.8112 31.4294C32.8761 32.0417 34.0995 31.3216 34.2551 30.9982Z" fill="#3E2306"/>
<path d="M33.2738 32.3393C33.2738 32.3393 33.8401 33.7493 33.2262 33.8485C32.6124 33.9476 32.9971 32.5764 33.2738 32.3393Z" fill="#3E2306"/>
<path d="M33.1916 32.2875C33.1916 32.2875 31.7045 31.9685 31.7089 32.5894C31.7132 33.2103 33.023 32.598 33.1916 32.2875Z" fill="#3E2306"/>
<path d="M32.0072 33.6329C32.0072 33.6329 32.4395 35.0903 31.804 35.1291C31.1686 35.1679 31.7089 33.8398 32.0072 33.6329Z" fill="#3E2306"/>
<path d="M31.9466 33.5725C31.9466 33.5725 30.4984 33.1025 30.4422 33.7191C30.386 34.3357 31.7304 33.8614 31.9466 33.5725Z" fill="#3E2306"/>
<path d="M30.8486 34.5772C30.8486 34.5772 31.1339 36.0691 30.5114 36.0476C29.8889 36.026 30.533 34.754 30.8486 34.5772Z" fill="#3E2306"/>
<path d="M30.7967 34.5297C30.7967 34.5297 29.3961 33.926 29.2837 34.5297C29.1713 35.1334 30.5546 34.7798 30.7967 34.5297Z" fill="#3E2306"/>
<path d="M29.6337 35.4266C29.6337 35.4266 29.7504 36.9401 29.1322 36.8496C28.5141 36.759 29.3008 35.5689 29.6337 35.4266Z" fill="#3E2306"/>
<path d="M29.5907 35.3576C29.5907 35.3576 28.2678 34.603 28.0863 35.198C27.9047 35.7931 29.301 35.5947 29.5907 35.3576Z" fill="#3E2306"/>
<path d="M28.1856 36.1467C28.1856 36.1467 28.298 37.6645 27.6841 37.5697C27.0703 37.4748 27.8527 36.289 28.1856 36.1467Z" fill="#3E2306"/>
<path d="M28.1423 36.0777C28.1423 36.0777 26.8195 35.3231 26.6379 35.9181C26.4564 36.5132 27.87 36.3148 28.1423 36.0777Z" fill="#3E2306"/>
<path d="M26.7072 36.8237C26.7072 36.8237 26.6769 38.3415 26.0717 38.1905C25.4665 38.0396 26.344 36.9315 26.7072 36.8237Z" fill="#3E2306"/>
<path d="M26.6509 36.7504C26.6509 36.7504 25.4103 35.8664 25.1682 36.4399C24.9261 37.0134 26.357 36.9616 26.6509 36.7504Z" fill="#3E2306"/>
<path d="M25.1292 37.3627C25.1292 37.3627 24.7747 38.8373 24.2127 38.5657C23.6507 38.294 24.7661 37.3972 25.1292 37.3627Z" fill="#3E2306"/>
<path d="M25.1077 37.2807C25.1077 37.2807 24.0788 36.1596 23.7243 36.6684C23.3698 37.1772 24.7748 37.4273 25.1077 37.2807Z" fill="#3E2306"/>
<path d="M23.599 37.6516C23.599 37.6516 23.2488 39.1306 22.6868 38.8417C22.1249 38.5528 23.2488 37.6861 23.599 37.6516Z" fill="#3E2306"/>
<path d="M23.5816 37.574C23.5816 37.574 22.5527 36.4486 22.1982 36.9617C21.8438 37.4748 23.2487 37.7163 23.5816 37.574Z" fill="#3E2306"/>
<path d="M21.9519 37.949C21.9519 37.949 21.4591 39.3849 20.9274 39.0572C20.3957 38.7295 21.5931 37.949 21.9519 37.949Z" fill="#3E2306"/>
<path d="M21.9519 37.8671C21.9519 37.8671 21.0354 36.6512 20.655 37.1255C20.2746 37.5998 21.5974 37.9792 21.9519 37.8671Z" fill="#3E2306"/>
<path d="M20.1233 38.0957C20.1233 38.0957 19.5008 39.4798 19.0036 39.109C18.5065 38.7382 19.7602 38.0612 20.1233 38.0957Z" fill="#3E2306"/>
<path d="M20.1146 38.0138C20.1146 38.0138 19.3148 36.7202 18.8696 37.1514C18.4243 37.5826 19.7644 38.0914 20.1146 38.0138Z" fill="#3E2306"/>
<path d="M18.6274 38.0741C18.6274 38.0741 17.8796 39.3978 17.417 38.9796C16.9545 38.5613 18.273 38.0051 18.6274 38.0741Z" fill="#3E2306"/>
<path d="M18.6274 37.9793C18.6274 37.9793 17.9487 36.621 17.4689 37.0134C16.989 37.4058 18.2686 38.0397 18.6274 37.9793Z" fill="#3E2306"/>
<path d="M17.149 37.9405C17.149 37.9405 16.2585 39.1737 15.8522 38.708C15.4458 38.2423 16.8032 37.837 17.149 37.9405Z" fill="#3E2306"/>
<path d="M17.1621 37.8585C17.1621 37.8585 16.639 36.4356 16.1159 36.7719C15.5928 37.1082 16.799 37.8671 17.1621 37.8585Z" fill="#3E2306"/>
<path d="M15.5755 37.5481C15.5755 37.5481 14.6849 38.7813 14.2786 38.3156C13.8722 37.8499 15.2296 37.4575 15.5755 37.5481Z" fill="#3E2306"/>
<path d="M15.5885 37.479C15.5885 37.479 15.0654 36.0518 14.5423 36.3924C14.0193 36.7331 15.2254 37.4877 15.5885 37.479Z" fill="#3E2306"/>
<path d="M13.9933 37.1169C13.9933 37.1169 12.9861 38.2552 12.623 37.7507C12.2598 37.2462 13.6605 36.9789 13.9933 37.1169Z" fill="#3E2306"/>
<path d="M14.0149 37.035C14.0149 37.035 13.6345 35.5646 13.0812 35.8492C12.5278 36.1338 13.6518 37.0091 14.0149 37.035Z" fill="#3E2306"/>
<path d="M12.4413 36.5261C12.4413 36.5261 11.2136 37.4273 10.9672 36.8581C10.7208 36.289 12.156 36.3191 12.4413 36.5261Z" fill="#3E2306"/>
<path d="M12.4889 36.4485C12.4889 36.4485 12.4283 34.9307 11.8274 35.0946C11.2265 35.2584 12.143 36.3494 12.4889 36.4485Z" fill="#3E2306"/>
<path d="M11.0969 35.7629C11.0969 35.7629 9.87353 36.6684 9.6228 36.0993C9.37207 35.5301 10.803 35.5603 11.0969 35.7629Z" fill="#3E2306"/>
<path d="M11.1444 35.6897C11.1444 35.6897 11.0839 34.1719 10.4787 34.3357C9.87347 34.4996 10.7856 35.5862 11.1444 35.6897Z" fill="#3E2306"/>
<path d="M9.64861 34.9308C9.64861 34.9308 8.35172 35.7156 8.14854 35.1248C7.94536 34.5341 9.37194 34.7023 9.64861 34.9308Z" fill="#3E2306"/>
<path d="M9.69193 34.8618C9.69193 34.8618 9.77406 33.344 9.1602 33.4518C8.54634 33.5596 9.35474 34.7281 9.69193 34.8618Z" fill="#3E2306"/>
<path d="M8.17028 33.8872C8.17028 33.8872 6.79125 34.534 6.65723 33.926C6.52322 33.318 7.91954 33.6285 8.17028 33.8872Z" fill="#3E2306"/>
<path d="M8.22208 33.8226C8.22208 33.8226 8.45985 32.3221 7.83734 32.3652C7.21483 32.4083 7.90218 33.6674 8.22208 33.8226Z" fill="#3E2306"/>
<path d="M7.05497 32.8955C7.05497 32.8955 5.61974 33.413 5.54625 32.7963C5.47276 32.1797 6.82153 32.6152 7.05497 32.8955Z" fill="#3E2306"/>
<path d="M7.11119 32.8352C7.11119 32.8352 7.48729 31.3648 6.86046 31.3476C6.23363 31.3303 6.82155 32.6368 7.11119 32.8352Z" fill="#3E2306"/>
<path d="M6.02164 31.8348C6.02164 31.8348 4.53886 32.1884 4.53022 31.5675C4.52157 30.9465 5.82711 31.5114 6.02164 31.8348Z" fill="#3E2306"/>
<path d="M6.08229 31.7787C6.08229 31.7787 6.62266 30.3601 6.00448 30.2738C5.38629 30.1876 5.8013 31.5501 6.08229 31.7787Z" fill="#3E2306"/>
<path d="M5.09222 30.5197C5.09222 30.5197 3.60944 30.8733 3.6008 30.2523C3.59215 29.6314 4.88472 30.2178 5.09222 30.5197Z" fill="#3E2306"/>
<path d="M5.13991 30.468C5.13991 30.468 5.68028 29.045 5.06209 28.9588C4.44391 28.8726 4.85891 30.2179 5.13991 30.468Z" fill="#3E2306"/>
<path d="M4.17139 29.1527C4.17139 29.1527 2.66267 29.3597 2.71887 28.7215C2.77507 28.0833 4.01144 28.8293 4.17139 29.1527Z" fill="#3E2306"/>
<path d="M4.22767 29.1053C4.22767 29.1053 4.90205 27.7427 4.29683 27.6004C3.69162 27.4582 3.98558 28.8509 4.22767 29.1053Z" fill="#3E2306"/>
<path d="M3.39336 27.6997C3.39336 27.6997 1.87599 27.5875 2.0662 26.9925C2.25641 26.3975 3.30257 27.3504 3.39336 27.6997Z" fill="#3E2306"/>
<path d="M3.47108 27.6695C3.47108 27.6695 4.41781 26.4795 3.85582 26.2121C3.29383 25.9448 3.27654 27.3634 3.47108 27.6695Z" fill="#3E2306"/>
<path d="M2.86592 26.2422C2.86592 26.2422 1.34856 26.1258 1.53012 25.5351C1.71169 24.9444 2.77514 25.9059 2.86592 26.2422Z" fill="#3E2306"/>
<path d="M2.9307 26.2121C2.9307 26.2121 3.87744 25.022 3.31545 24.7504C2.75346 24.4787 2.74482 25.906 2.9307 26.2121Z" fill="#3E2306"/>
<path d="M2.31268 24.6684C2.31268 24.6684 0.812611 24.4097 1.0547 23.8362C1.29678 23.2627 2.25649 24.3105 2.31268 24.6684Z" fill="#3E2306"/>
<path d="M2.39466 24.6425C2.39466 24.6425 3.44947 23.5473 2.93071 23.2282C2.41195 22.9091 2.22607 24.3234 2.39466 24.6425Z" fill="#3E2306"/>
<path d="M15.0213 27L16.549 21.3835L12 17.7296L17.8381 17.4412L19.9167 12L21.9952 17.4412L27.8333 17.7296L23.2787 21.3778L24.8064 26.9943L19.911 23.81L15.0213 27Z" fill="#FFD468"/>
<defs>
<linearGradient id="paint0_linear_1157_6444" x1="41.6314" y1="0.131492" x2="22.3461" y2="17.8478" gradientUnits="userSpaceOnUse">
<stop stop-color="#B87729"/>
<stop offset="0.81" stop-color="#B87729" stop-opacity="0"/>
</linearGradient>
</defs>
</svg>
