<svg width="80" height="80" viewBox="0 0 80 80" fill="none" xmlns="http://www.w3.org/2000/svg">
<g clip-path="url(#clip0_913_225)">
<mask id="mask0_913_225" style="mask-type:luminance" maskUnits="userSpaceOnUse" x="0" y="0" width="80" height="80">
<path d="M80 0H0V80H80V0Z" fill="white"/>
</mask>
<g mask="url(#mask0_913_225)">
<path d="M33.7375 78.8281H3.67188C3.00883 78.8281 2.37295 78.5647 1.90411 78.0959C1.43527 77.6271 1.17188 76.9912 1.17188 76.3281V6.18125C1.17229 4.85254 1.70041 3.57839 2.6401 2.63899C3.57979 1.6996 4.8541 1.17187 6.18281 1.17188H31.2328C32.5614 1.17188 33.8355 1.69965 34.775 2.63909C35.7144 3.57853 36.2422 4.85268 36.2422 6.18125V76.3281C36.2422 76.6568 36.1774 76.9823 36.0514 77.2859C35.9255 77.5895 35.7409 77.8653 35.5083 78.0976C35.2757 78.3298 34.9995 78.5138 34.6957 78.6392C34.3918 78.7645 34.0662 78.8287 33.7375 78.8281Z" stroke="#D56A34" stroke-width="2" stroke-linecap="round" stroke-linejoin="round"/>
<path d="M33.7373 46.2625H36.2373" stroke="#D56A34" stroke-width="2" stroke-linecap="round" stroke-linejoin="round"/>
<path d="M1.17188 46.2625H28.7266" stroke="#D56A34" stroke-width="2" stroke-linecap="round" stroke-linejoin="round"/>
<path d="M76.3283 78.8281H46.2627C45.5997 78.8281 44.9638 78.5647 44.4949 78.0958C44.0261 77.627 43.7627 76.9911 43.7627 76.3281V38.7468C43.7627 38.0838 44.0261 37.4479 44.4949 36.9791C44.9638 36.5102 45.5997 36.2468 46.2627 36.2468H76.3283C76.9914 36.2468 77.6273 36.5102 78.0961 36.9791C78.5649 37.4479 78.8283 38.0838 78.8283 38.7468V76.3281C78.8283 76.9911 78.5649 77.627 78.0961 78.0958C77.6273 78.5647 76.9914 78.8281 76.3283 78.8281Z" stroke="#D56A34" stroke-width="2" stroke-linecap="round" stroke-linejoin="round"/>
<path d="M73.8171 21.2125H48.7671C48.104 21.2125 47.4682 20.9491 46.9993 20.4803C46.5305 20.0114 46.2671 19.3755 46.2671 18.7125V3.67187C46.2671 3.00883 46.5305 2.37295 46.9993 1.90411C47.4682 1.43527 48.104 1.17188 48.7671 1.17188H73.8171C74.4801 1.17188 75.116 1.43527 75.5849 1.90411C76.0537 2.37295 76.3171 3.00883 76.3171 3.67187V18.7016C76.3185 19.0308 76.2549 19.357 76.1299 19.6616C76.005 19.9662 75.821 20.2431 75.5887 20.4764C75.3565 20.7097 75.0804 20.8948 74.7763 21.0212C74.4723 21.1475 74.1463 21.2125 73.8171 21.2125Z" stroke="#D56A34" stroke-width="2" stroke-linecap="round" stroke-linejoin="round"/>
<path d="M1.17188 41.2532H4.92969C5.26121 41.2532 5.57915 41.1215 5.81357 40.8871C6.04799 40.6527 6.17969 40.3347 6.17969 40.0032V31.2329C6.17969 30.9014 6.04799 30.5834 5.81357 30.349C5.57915 30.1146 5.26121 29.9829 4.92969 29.9829H1.17188" stroke="#D56A34" stroke-width="2" stroke-linecap="round" stroke-linejoin="round"/>
<path d="M1.17188 62.5452H4.92969C5.26121 62.5452 5.57915 62.4135 5.81357 62.1791C6.04799 61.9447 6.17969 61.6267 6.17969 61.2952V52.5249C6.17969 52.1934 6.04799 51.8754 5.81357 51.641C5.57915 51.4066 5.26121 51.2749 4.92969 51.2749H1.17188" stroke="#D56A34" stroke-width="2" stroke-linecap="round" stroke-linejoin="round"/>
<path d="M21.2126 16.2017H16.2017C15.8701 16.2017 15.5522 16.07 15.3178 15.8355C15.0834 15.6011 14.9517 15.2832 14.9517 14.9517V12.4517C14.9517 12.1201 15.0834 11.8022 15.3178 11.5678C15.5522 11.3334 15.8701 11.2017 16.2017 11.2017H21.2126C21.5441 11.2017 21.8621 11.3334 22.0965 11.5678C22.3309 11.8022 22.4626 12.1201 22.4626 12.4517V14.9517C22.4626 15.2832 22.3309 15.6011 22.0965 15.8355C21.8621 16.07 21.5441 16.2017 21.2126 16.2017Z" stroke="#D56A34" stroke-width="2" stroke-linecap="round" stroke-linejoin="round"/>
<path d="M43.7578 46.2625H78.8281" stroke="#D56A34" stroke-width="2" stroke-linecap="round" stroke-linejoin="round"/>
<path d="M48.7671 46.2625V41.2532H56.2827V46.2625" stroke="#D56A34" stroke-width="2" stroke-linecap="round" stroke-linejoin="round"/>
<path d="M66.3032 43.7578C66.3032 44.2523 66.1566 44.7356 65.8819 45.1467C65.6072 45.5579 65.2167 45.8783 64.7599 46.0675C64.3031 46.2567 63.8004 46.3062 63.3155 46.2098C62.8305 46.1133 62.3851 45.8752 62.0355 45.5256C61.6858 45.176 61.4477 44.7305 61.3513 44.2455C61.2548 43.7606 61.3043 43.2579 61.4935 42.8011C61.6827 42.3443 62.0032 41.9538 62.4143 41.6791C62.8254 41.4044 63.3088 41.2578 63.8032 41.2578C64.4663 41.2578 65.1021 41.5212 65.571 41.99C66.0398 42.4589 66.3032 43.0948 66.3032 43.7578Z" stroke="#D56A34" stroke-width="2" stroke-linecap="round" stroke-linejoin="round"/>
<path d="M73.8174 41.2532H70.0674" stroke="#D56A34" stroke-width="2" stroke-linecap="round" stroke-linejoin="round"/>
<path d="M71.3126 62.5452C71.3126 64.527 70.7249 66.4644 69.6239 68.1122C68.5228 69.76 66.9579 71.0444 65.1269 71.8028C63.2959 72.5612 61.2812 72.7596 59.3374 72.373C57.3937 71.9864 55.6082 71.032 54.2069 69.6306C52.8055 68.2293 51.8512 66.4438 51.4645 64.5001C51.0779 62.5563 51.2763 60.5416 52.0347 58.7106C52.7931 56.8796 54.0775 55.3147 55.7253 54.2136C57.3731 53.1126 59.3105 52.5249 61.2923 52.5249C63.9498 52.5249 66.4985 53.5806 68.3777 55.4598C70.2569 57.339 71.3126 59.8877 71.3126 62.5452Z" stroke="#D56A34" stroke-width="2" stroke-linecap="round" stroke-linejoin="round"/>
<path d="M66.1455 61.2906C66.2493 61.6991 66.3018 62.119 66.3018 62.5406C66.3 63.5826 65.9727 64.5981 65.3657 65.4451C64.7586 66.2921 63.902 66.9282 62.9158 67.2646C61.9295 67.6009 60.8627 67.6208 59.8646 67.3212C58.8665 67.0217 57.9869 66.4178 57.3488 65.594C56.7107 64.7701 56.346 63.7675 56.3055 62.7262C56.2651 61.6849 56.551 60.657 57.1233 59.7862C57.6956 58.9154 58.5257 58.2451 59.4976 57.8691C60.4695 57.4931 61.5345 57.4301 62.5439 57.689" stroke="#D56A34" stroke-width="2" stroke-linecap="round" stroke-linejoin="round"/>
<path d="M68.8076 1.17188V21.2125" stroke="#D56A34" stroke-width="2" stroke-linecap="round" stroke-linejoin="round"/>
<path d="M68.8076 8.6875H76.3279" stroke="#D56A34" stroke-width="2" stroke-linecap="round" stroke-linejoin="round"/>
<path d="M61.2938 6.18286H63.7938V16.2016H51.2734V6.18286H56.2828" stroke="#D56A34" stroke-width="2" stroke-linecap="round" stroke-linejoin="round"/>
<path d="M61.292 36.2421V21.2124" stroke="#D56A34" stroke-width="2" stroke-linecap="round" stroke-linejoin="round"/>
<path d="M36.2422 57.5359H43.7578" stroke="#D56A34" stroke-width="2" stroke-linecap="round" stroke-linejoin="round"/>
<path d="M46.2625 11.1921H36.2422" stroke="#D56A34" stroke-width="2" stroke-linecap="round" stroke-linejoin="round"/>
</g>
</g>
<defs>
<clipPath id="clip0_913_225">
<rect width="80" height="80" fill="white"/>
</clipPath>
</defs>
</svg>
