<svg width="88" height="45" viewBox="0 0 88 45" fill="none" xmlns="http://www.w3.org/2000/svg">
<mask id="mask0_1157_8209" style="mask-type:alpha" maskUnits="userSpaceOnUse" x="0" y="0" width="88" height="45">
<path d="M0 0H88V45H0V0Z" fill="#C4C4C4"/>
</mask>
<g mask="url(#mask0_1157_8209)">
<rect width="98.3957" height="16.9596" transform="matrix(0.994676 -0.103056 0.0990943 0.995078 -5.8667 16.3767)" fill="#FF13A7"/>
<path d="M44.3744 8.75295C44.1696 9.37972 42.77 14.359 42.2238 17.1098C43.0772 14.8117 44.3949 11.5316 42.8383 16.7964C40.8924 23.3775 40.6876 26.5113 40.9948 32.0477C41.1212 34.3255 44.7877 31.7306 45.501 31.0031C46.2179 30.2719 46.3203 28.705 46.6275 27.9737C46.9347 27.2425 46.8572 26.8647 47.4468 25.2577C49.683 19.1634 54.4108 12.9314 56.1518 9.37972C56.8175 8.02173 57.1207 9.07006 57.0735 9.37972C56.3566 14.0804 53.9505 26.3831 56.1518 27.7648C58.8145 29.4362 61.682 25.3622 62.3989 24.4221C62.9724 23.6699 62.7744 22.507 62.6037 22.0195C61.9893 22.9596 60.5555 25.6234 60.2483 23.5864C59.6338 19.5124 61.682 12.7225 62.6037 10.5288C63.5215 8.34455 63.4239 7.29951 63.2208 5.12508L63.2182 5.09682C63.0543 3.34188 60.0776 4.22632 58.6097 4.8879C56.3609 5.51347 52.1058 12.8337 49.8154 16.7738L49.8023 16.7964C48.983 17.6321 49.8023 13.2448 50.0071 11.3645C50.4736 7.08158 44.8865 8.64849 44.3744 8.75295Z" fill="white" stroke="white" stroke-width="0.641781"/>
<path d="M39.2539 26.8244C38.7623 26.2394 37.1033 25.8843 36.6936 26.1977C35.7719 26.72 35.7719 28.6002 36.0792 29.5404C36.3864 30.4805 37.9226 30.6895 38.3322 30.2716C38.7419 29.8538 39.8684 27.5556 39.2539 26.8244Z" fill="white" stroke="white" stroke-width="0.641781"/>
<path d="M69.9563 23.5983C69.4647 23.0134 67.8057 22.6582 67.396 22.9716C66.4743 23.4939 66.4743 25.3742 66.7816 26.3143C67.0888 27.2545 68.625 27.4634 69.0346 27.0455C69.4443 26.6277 70.5708 24.3296 69.9563 23.5983Z" fill="white" stroke="white" stroke-width="0.641781"/>
<path d="M19.2837 18.1542L18.6692 18.8854C21.0246 11.5732 24.5066 6.25266 25.2235 5.61892C28.2959 2.90292 32.0529 5.49903 33.2117 11.1554C34.6454 18.1542 29.9345 17.5275 29.1152 17.6319C28.4597 17.7155 28.2959 11.6776 28.2959 8.64828C27.1694 3.73864 22.4489 15.6472 22.8681 22.5416C23.6874 36.017 26.9645 26.0932 26.6573 24.2129C25.6332 22.5415 27.1694 22.2282 29.32 21.4969C31.0405 20.912 31.061 22.646 30.8562 23.5862C30.6923 25.0904 28.6031 32.5698 26.9645 33.1966C24.609 33.9278 16.5185 35.3902 17.7475 25.2575C17.8294 23.7533 18.8057 19.8952 19.2837 18.1542Z" fill="white" stroke="white" stroke-width="0.641781"/>
<path d="M7.97868 40.7429H9.07814C10.4003 40.7429 11.1243 40.0395 11.1243 38.7497C11.1243 37.4419 10.3835 36.6917 9.08397 36.6917H7.97868V40.7429ZM8.48567 40.2661V37.1685H9.07296C10.1038 37.1685 10.6114 37.6857 10.6114 38.7259C10.6114 39.772 10.1038 40.2661 9.03281 40.2661H8.48567ZM13.5459 40.7429H16.167V40.2661H14.0529V38.9121H15.9728V38.4353H14.0529V37.1685H16.167V36.6917H13.5459V40.7429ZM21.033 40.7429H21.5912L20.0702 36.6917H19.6713L18.1497 40.7429H18.7078L19.0614 39.7377H20.6795L21.033 40.7429ZM19.2265 39.278L19.8707 37.4419L20.5144 39.278H19.2265ZM23.8309 40.7429H26.1153V40.2661H24.3379V36.6917H23.8309V40.7429ZM29.4202 40.807C30.2412 40.807 30.7365 40.348 30.7365 39.6446C30.7365 39.0746 30.4743 38.7549 29.6027 38.4181C28.9876 38.1737 28.7364 37.9941 28.7364 37.6566C28.7364 37.3429 29.0103 37.0873 29.3807 37.0873C29.6999 37.0873 29.9673 37.2676 30.1272 37.5754L30.5546 37.3079C30.3092 36.8607 29.9103 36.6223 29.3975 36.6223C28.7027 36.6223 28.2294 37.0463 28.2294 37.6744C28.2294 38.2206 28.5143 38.5172 29.3295 38.8368C29.99 39.0984 30.2237 39.3071 30.2237 39.6908C30.2237 40.0686 29.9446 40.342 29.426 40.342C28.919 40.342 28.5544 40.0336 28.4858 39.5224L27.9846 39.6505C28.0928 40.348 28.6684 40.807 29.4202 40.807ZM38.9417 40.6326L38.3609 39.9524C38.5655 39.6386 38.6911 39.249 38.7196 38.8131L38.2411 38.7668C38.2295 39.0634 38.1615 39.3421 38.0475 39.5805L37.2724 38.6737C37.7108 38.4122 38.1097 38.1103 38.1097 37.5813C38.1097 37.0582 37.6596 36.6514 37.1073 36.6514C36.5602 36.6514 36.0532 37.0113 36.0532 37.5872C36.0532 38.0113 36.4003 38.395 36.566 38.5753C36.0759 38.854 35.6025 39.1856 35.6025 39.8071C35.6025 40.4351 36.1387 40.7951 36.8509 40.7951C37.3294 40.7951 37.7451 40.6148 38.0643 40.313L38.594 40.9404L38.9417 40.6326ZM36.5259 37.5925C36.5259 37.2557 36.7823 37.0463 37.1073 37.0463C37.4492 37.0463 37.6538 37.2966 37.6538 37.5872C37.6538 37.936 37.3404 38.1506 36.9532 38.3659C36.8166 38.2028 36.5259 37.8719 36.5259 37.5925ZM36.8393 40.3711C36.3776 40.3711 36.0817 40.1677 36.0817 39.813C36.0817 39.3943 36.4521 39.1446 36.8736 38.9002L37.7794 39.9755C37.5399 40.2198 37.2265 40.3711 36.8393 40.3711ZM45.6881 40.8129C46.4974 40.8129 47.1016 40.4114 47.3923 39.6558L46.9131 39.4762C46.7085 40.0336 46.2812 40.3189 45.6881 40.3189C44.8392 40.3189 44.349 39.7318 44.349 38.7087C44.349 37.6916 44.8392 37.1163 45.7055 37.1163C46.3038 37.1163 46.7137 37.3838 46.9131 37.9413L47.3806 37.7557C47.1016 37.006 46.5143 36.6223 45.7055 36.6223C44.5485 36.6223 43.842 37.4129 43.842 38.7087C43.842 40.0164 44.5433 40.8129 45.6881 40.8129ZM51.2954 40.8129C52.4007 40.8129 53.1415 39.9755 53.1415 38.7206C53.1415 37.4591 52.4007 36.6223 51.2954 36.6223C50.1953 36.6223 49.4546 37.4591 49.4546 38.7206C49.4546 39.9755 50.1953 40.8129 51.2954 40.8129ZM51.2954 40.3189C50.4802 40.3189 49.9616 39.6968 49.9616 38.7206C49.9616 37.7378 50.4802 37.1163 51.2954 37.1163C52.11 37.1163 52.6345 37.7378 52.6345 38.7206C52.6345 39.6968 52.11 40.3189 51.2954 40.3189ZM56.9417 40.8129C57.8935 40.8129 58.4005 40.278 58.4005 39.249V36.6917H57.8935V39.2146C57.8935 39.9702 57.6028 40.307 56.9417 40.307C56.2864 40.307 55.9963 39.9755 55.9963 39.2258V36.6917H55.4887V39.278C55.4887 40.2839 55.9963 40.8129 56.9417 40.8129ZM61.0158 40.7429H61.5234V39.0053H62.2072C63.0561 39.0053 63.5288 38.5925 63.5288 37.8369C63.5288 37.0932 63.0671 36.6917 62.2072 36.6917H61.0158V40.7429ZM61.5234 38.5284V37.1685H62.1554C62.7369 37.1685 63.0218 37.3891 63.0218 37.8428C63.0218 38.3019 62.7369 38.5284 62.1554 38.5284H61.5234ZM67.4319 40.8129C68.5372 40.8129 69.278 39.9755 69.278 38.7206C69.278 37.4591 68.5372 36.6223 67.4319 36.6223C66.3325 36.6223 65.5917 37.4591 65.5917 38.7206C65.5917 39.9755 66.3325 40.8129 67.4319 40.8129ZM67.4319 40.3189C66.6174 40.3189 66.0987 39.6968 66.0987 38.7206C66.0987 37.7378 66.6174 37.1163 67.4319 37.1163C68.2471 37.1163 68.771 37.7378 68.771 38.7206C68.771 39.6968 68.2471 40.3189 67.4319 40.3189ZM74.1103 36.6917V39.848L72.2468 36.6917H71.7055V40.7429H72.2124V37.5754L74.0701 40.7429H74.6173V36.6917H74.1103ZM78.378 40.807C79.1984 40.807 79.6944 40.348 79.6944 39.6446C79.6944 39.0746 79.4321 38.7549 78.5606 38.4181C77.9448 38.1737 77.6942 37.9941 77.6942 37.6566C77.6942 37.3429 77.9675 37.0873 78.3378 37.0873C78.6571 37.0873 78.9251 37.2676 79.0844 37.5754L79.5118 37.3079C79.267 36.8607 78.8681 36.6223 78.3553 36.6223C77.6599 36.6223 77.1872 37.0463 77.1872 37.6744C77.1872 38.2206 77.4721 38.5172 78.2867 38.8368C78.9478 39.0984 79.1815 39.3071 79.1815 39.6908C79.1815 40.0686 78.9025 40.342 78.3838 40.342C77.8768 40.342 77.5116 40.0336 77.4436 39.5224L76.9418 39.6505C77.0506 40.348 77.6256 40.807 78.378 40.807Z" fill="white"/>
</g>
</svg>
