<svg width="80" height="80" viewBox="0 0 80 80" fill="none" xmlns="http://www.w3.org/2000/svg">
<g clip-path="url(#clip0_913_234)">
<path d="M49.1303 44.3474V38.4068C49.1303 32.8819 44.6356 28.388 39.1114 28.388H24.4355C24.2783 28.3862 24.1223 28.4156 23.9766 28.4745C23.8309 28.5334 23.6983 28.6206 23.5865 28.7311C23.4748 28.8416 23.386 28.9732 23.3255 29.1182C23.2649 29.2633 23.2337 29.4189 23.2337 29.5761C23.2337 29.7332 23.2649 29.8888 23.3255 30.0339C23.386 30.1789 23.4748 30.3105 23.5865 30.421C23.6983 30.5315 23.8309 30.6187 23.9766 30.6776C24.1223 30.7365 24.2783 30.7659 24.4355 30.7641H39.1114C43.3258 30.7641 46.7542 34.1924 46.7542 38.4069V44.4744C44.32 45.0182 42.4945 47.1947 42.4945 49.7905V57.2168C38.8648 55.3869 31.867 54.823 27.182 54.823C22.497 54.823 15.4992 55.3869 11.8702 57.2168V49.7905C11.8702 47.1941 10.0439 45.0175 7.60984 44.4738V38.4069C7.60984 34.1924 11.0383 30.7641 15.2527 30.7641H19.6827C19.8398 30.7659 19.9958 30.7365 20.1415 30.6776C20.2872 30.6187 20.4198 30.5315 20.5316 30.421C20.6434 30.3105 20.7321 30.1789 20.7927 30.0339C20.8532 29.8888 20.8844 29.7332 20.8844 29.5761C20.8844 29.4189 20.8532 29.2633 20.7927 29.1182C20.7321 28.9732 20.6434 28.8416 20.5316 28.7311C20.4198 28.6206 20.2872 28.5334 20.1415 28.4745C19.9958 28.4156 19.8398 28.3862 19.6827 28.388H15.2527C9.72766 28.388 5.23313 32.8819 5.23313 38.4068V44.3474C2.32844 44.461 0 46.8583 0 49.7905V74.7069C0 75.3632 0.532188 75.8947 1.18828 75.8947H5.00188V76.8718C5.00188 78.5197 6.34281 79.8608 7.99078 79.8608H15.8619C17.5098 79.8608 18.8502 78.5197 18.8502 76.8718V75.8947H35.5133V76.8718C35.5133 78.5197 36.8542 79.8608 38.5023 79.8608H46.3733C48.0213 79.8608 49.3622 78.5197 49.3622 76.8718V75.8947H53.1756C53.3317 75.8948 53.4862 75.8642 53.6304 75.8045C53.7746 75.7449 53.9056 75.6574 54.016 75.5471C54.1264 75.4368 54.2139 75.3058 54.2736 75.1616C54.3334 75.0175 54.3641 74.863 54.3641 74.7069V49.7905C54.3641 46.8585 52.0355 44.4608 49.1303 44.3474ZM11.8694 73.5186V61.2736H42.4939V73.5186H11.8694ZM27.1819 57.199C31.2538 57.199 35.1319 57.5719 38.1023 58.2482C39.0362 58.4611 39.7852 58.6827 40.3827 58.8975H13.9819C14.5788 58.6827 15.3278 58.4611 16.2616 58.2482C19.2322 57.5719 23.1103 57.199 27.1819 57.199ZM2.37625 49.7905C2.37625 48.0968 3.755 46.718 5.44875 46.718H6.41062C6.41437 46.718 6.41797 46.7186 6.42156 46.7186H6.42719C8.11844 46.7218 9.49359 48.098 9.49359 49.7905V73.5186H2.37609L2.37625 49.7905ZM16.4742 76.8718C16.474 77.0341 16.4094 77.1897 16.2947 77.3044C16.1799 77.4192 16.0243 77.4837 15.862 77.484H7.99062C7.82826 77.4838 7.67258 77.4193 7.5577 77.3045C7.44283 77.1897 7.37814 77.0341 7.37781 76.8718V75.8947H16.4739L16.4742 76.8718ZM46.9863 76.8718C46.986 77.0342 46.9213 77.1898 46.8064 77.3046C46.6916 77.4194 46.5358 77.4839 46.3734 77.484H38.5023C38.34 77.4837 38.1845 77.4192 38.0697 77.3044C37.9549 77.1897 37.8904 77.0341 37.8902 76.8718V75.8947H46.9863V76.8718ZM51.9881 73.5186H44.8708V49.7905C44.8708 48.0986 46.2458 46.7218 47.9372 46.7186H48.9155C50.6098 46.7186 51.9881 48.0968 51.9881 49.7905V73.5186Z" fill="#D56A34"/>
<path d="M79.7959 26.3281L74.0336 0.925312C73.9741 0.662552 73.827 0.427834 73.6165 0.259691C73.406 0.0915482 73.1446 -2.68536e-05 72.8751 5.90685e-09H56.049C55.7796 -2.68536e-05 55.5182 0.0915482 55.3077 0.259691C55.0972 0.427834 54.9501 0.662552 54.8906 0.925312L49.128 26.3281C49.0885 26.502 49.0888 26.6826 49.1286 26.8564C49.1685 27.0302 49.247 27.1929 49.3583 27.3322C49.4696 27.4716 49.6108 27.5841 49.7715 27.6614C49.9322 27.7387 50.1082 27.7789 50.2865 27.7789H56.724V38.1519C56.724 38.8081 57.2561 39.3395 57.9123 39.3395C58.5686 39.3395 59.1006 38.808 59.1006 38.1519V27.7789H61.0134V72.9109H59.8075C57.5009 72.9109 55.624 74.7878 55.624 77.0942V78.8119C55.624 79.468 56.1562 80.0002 56.8125 80.0002H72.1115C72.7676 80.0002 73.2992 79.468 73.2992 78.8119V77.0942C73.2992 74.7872 71.423 72.9109 69.1164 72.9109H67.9098V64.5766C67.9116 64.4194 67.8822 64.2634 67.8233 64.1177C67.7644 63.972 67.6772 63.8394 67.5667 63.7276C67.4562 63.6159 67.3246 63.5271 67.1796 63.4666C67.0346 63.406 66.879 63.3748 66.7218 63.3748C66.5646 63.3748 66.409 63.406 66.264 63.4666C66.1189 63.5271 65.9873 63.6159 65.8768 63.7276C65.7663 63.8394 65.6791 63.972 65.6202 64.1177C65.5613 64.2634 65.5319 64.4194 65.5337 64.5766V72.9109H63.3901V27.7789H65.5337V59.8236C65.5337 59.9796 65.5644 60.1341 65.6241 60.2782C65.6837 60.4223 65.7712 60.5533 65.8815 60.6636C65.9918 60.7739 66.1228 60.8614 66.2669 60.9211C66.4111 60.9808 66.5655 61.0114 66.7215 61.0114C66.8776 61.0115 67.0321 60.9808 67.1763 60.9212C67.3204 60.8615 67.4515 60.774 67.5618 60.6637C67.6722 60.5534 67.7597 60.4224 67.8194 60.2783C67.8791 60.1341 67.9098 59.9796 67.9098 59.8236V27.7789H78.6367C78.9981 27.7789 79.3398 27.6148 79.5651 27.332C79.6766 27.1928 79.7552 27.0302 79.7951 26.8564C79.835 26.6826 79.8352 26.502 79.7958 26.3281H79.7959ZM69.1167 75.2869C70.1128 75.2869 70.9233 76.0973 70.9233 77.0941V77.6239H58.0003V77.0942C58.0003 76.0973 58.8115 75.2869 59.8076 75.2869H69.1167ZM56.9981 2.37609H59.4798L57.2014 25.4028H51.7748L56.9981 2.37609ZM59.589 25.4028L61.8681 2.37609H67.0561L69.3345 25.4028H59.589ZM71.7228 25.4028L69.4437 2.37609H71.9261L77.1495 25.4028H71.7228ZM5.14873 23.2037H32.3522C33.0083 23.2037 33.5398 22.6716 33.5398 22.0153V1.98C33.5399 1.82402 33.5092 1.66955 33.4495 1.52543C33.3898 1.38131 33.3024 1.25036 33.1921 1.14005C33.0818 1.02975 32.9508 0.942253 32.8067 0.882566C32.6626 0.822878 32.5082 0.792167 32.3522 0.792188H5.14873C4.83365 0.792146 4.53145 0.917262 4.30861 1.14002C4.08577 1.36277 3.96053 1.66492 3.96045 1.98V22.0153C3.96045 22.6716 4.49264 23.2037 5.14873 23.2037ZM10.3929 18.4509H27.1073L29.4834 20.8275H8.01701L10.3929 18.4509ZM11.0894 16.0748V7.92031H26.4109V16.0747L11.0894 16.0748ZM28.7878 16.7712V7.22469L31.1637 4.84859V19.1473L28.7878 16.7712ZM27.1073 5.54438H10.3929L8.01686 3.16828H29.4834L27.1073 5.54438ZM8.71326 7.22469V16.7712L6.33654 19.1473V4.84859L8.71326 7.22469Z" fill="#D56A34"/>
</g>
<defs>
<clipPath id="clip0_913_234">
<rect width="80" height="80" fill="white"/>
</clipPath>
</defs>
</svg>
