<svg width="120" height="42" viewBox="0 0 120 42" fill="none" xmlns="http://www.w3.org/2000/svg">
<mask id="mask0_1185_5747" style="mask-type:alpha" maskUnits="userSpaceOnUse" x="0" y="0" width="120" height="42">
<path d="M0 0H120V42H0V0Z" fill="#C4C4C4"/>
</mask>
<g mask="url(#mask0_1185_5747)">
<rect width="133.583" height="18.89" transform="matrix(0.996437 -0.0843453 0.120996 0.992653 -7.97876 14.1962)" fill="#FF13A7"/>
<path d="M60.3497 5.72523C60.0711 6.42164 58.1676 11.9542 57.4248 15.0106C58.5854 12.4571 60.3775 8.81262 58.2604 14.6624C55.6141 21.9747 55.3356 25.4567 55.7534 31.6083C55.9253 34.1392 60.9118 31.2559 61.8818 30.4476C62.8567 29.6351 62.996 27.8941 63.4138 27.0816C63.8317 26.2692 63.7262 25.8494 64.5281 24.0639C67.5694 17.2924 73.9992 10.3679 76.367 6.42163C77.2723 4.91275 77.6848 6.07757 77.6205 6.42163C76.6456 11.6447 73.3732 25.3142 76.367 26.8495C79.9883 28.7066 83.8882 24.18 84.8631 23.1354C85.6431 22.2997 85.3738 21.0075 85.1417 20.4658C84.306 21.5104 82.3561 24.4701 81.9382 22.2068C81.1025 17.6802 83.8882 10.1358 85.1417 7.69837C86.3898 5.27144 86.2571 4.11029 85.981 1.69424L85.9774 1.66286C85.7545 -0.287071 81.7061 0.695634 79.7097 1.43073C76.6514 2.1258 70.8643 10.2594 67.7494 14.6374L67.7316 14.6624C66.6173 15.591 67.7316 10.7161 68.0101 8.62691C68.6446 3.86815 61.0461 5.60916 60.3497 5.72523Z" fill="black" stroke="black" stroke-width="0.872828"/>
<path d="M53.3857 25.8049C52.7171 25.1549 50.4608 24.7603 49.9036 25.1085C48.6501 25.6888 48.6501 27.778 49.0679 28.8227C49.4858 29.8673 51.575 30.0994 52.1321 29.6351C52.6893 29.1709 54.2213 26.6174 53.3857 25.8049Z" fill="black" stroke="black" stroke-width="0.872828"/>
<path d="M95.1413 22.2203C94.4727 21.5704 92.2164 21.1757 91.6593 21.5239C90.4057 22.1043 90.4057 24.1935 90.8236 25.2381C91.2414 26.2827 93.3306 26.5148 93.8878 26.0506C94.4449 25.5863 95.977 23.0328 95.1413 22.2203Z" fill="black" stroke="black" stroke-width="0.872828"/>
<path d="M26.2258 16.1713L25.3902 16.9838C28.5936 8.85905 33.3292 2.94735 34.3041 2.2432C38.4825 -0.774574 43.5922 2.10999 45.168 8.39479C47.118 16.1713 40.7111 15.4749 39.5968 15.591C38.7054 15.6838 38.4826 8.97512 38.4826 5.60916C36.9505 0.153996 30.5306 13.3857 31.1007 21.0461C32.2149 36.0188 36.6719 24.9924 36.2541 22.9032C34.8613 21.0461 36.9505 20.6979 39.8754 19.8854C42.2153 19.2355 42.2432 21.1622 41.9646 22.2068C41.7417 23.8782 38.9004 32.1886 36.6719 32.885C33.4684 33.6975 22.4653 35.3224 24.1366 24.0639C24.248 22.3925 25.5759 18.1057 26.2258 16.1713Z" fill="black" stroke="black" stroke-width="0.872828"/>
<path d="M10.8511 41.2699H12.3464C14.1446 41.2699 15.1291 40.4884 15.1291 39.0552C15.1291 37.6022 14.1217 36.7685 12.3543 36.7685H10.8511V41.2699ZM11.5406 40.7401V37.2984H12.3393C13.7412 37.2984 14.4316 37.873 14.4316 39.0288C14.4316 40.1912 13.7412 40.7401 12.2847 40.7401H11.5406ZM18.4226 41.2699H21.9873V40.7401H19.1121V39.2357H21.7231V38.7059H19.1121V37.2984H21.9873V36.7685H18.4226V41.2699ZM28.6051 41.2699H29.3642L27.2956 36.7685H26.7532L24.6837 41.2699H25.4428L25.9236 40.153H28.1243L28.6051 41.2699ZM26.1482 39.6423L27.0244 37.6022L27.8997 39.6423H26.1482ZM32.4102 41.2699H35.517V40.7401H33.0998V36.7685H32.4102V41.2699ZM40.0117 41.3411C41.1283 41.3411 41.802 40.8311 41.802 40.0495C41.802 39.4162 41.4453 39.061 40.26 38.6868C39.4234 38.4153 39.0818 38.2157 39.0818 37.8407C39.0818 37.4921 39.4543 37.2081 39.958 37.2081C40.3921 37.2081 40.7558 37.4084 40.9733 37.7504L41.5545 37.4532C41.2208 36.9564 40.6783 36.6915 39.9809 36.6915C39.036 36.6915 38.3922 37.1626 38.3922 37.8605C38.3922 38.4674 38.7797 38.7969 39.8884 39.152C40.7866 39.4427 41.1045 39.6745 41.1045 40.1009C41.1045 40.5207 40.725 40.8245 40.0196 40.8245C39.3301 40.8245 38.8343 40.4818 38.741 39.9138L38.0594 40.0561C38.2064 40.8311 38.9893 41.3411 40.0117 41.3411ZM52.9611 41.1474L52.1712 40.3915C52.4495 40.0429 52.6203 39.61 52.6591 39.1256L52.0083 39.0743C51.9924 39.4038 51.9 39.7134 51.745 39.9784L50.6909 38.9708C51.2871 38.6802 51.8295 38.3448 51.8295 37.757C51.8295 37.1758 51.2175 36.7238 50.4663 36.7238C49.7222 36.7238 49.0327 37.1237 49.0327 37.7636C49.0327 38.2347 49.5047 38.6611 49.7301 38.8614C49.0635 39.1711 48.4198 39.5395 48.4198 40.2301C48.4198 40.928 49.1489 41.3279 50.1176 41.3279C50.7684 41.3279 51.3337 41.1276 51.7679 40.7922L52.4882 41.4893L52.9611 41.1474ZM49.6755 37.7695C49.6755 37.3952 50.0243 37.1626 50.4663 37.1626C50.9313 37.1626 51.2096 37.4407 51.2096 37.7636C51.2096 38.1511 50.7833 38.3896 50.2567 38.6288C50.0709 38.4476 49.6755 38.0799 49.6755 37.7695ZM50.1018 40.8568C49.4739 40.8568 49.0714 40.6307 49.0714 40.2367C49.0714 39.7714 49.5751 39.494 50.1484 39.2225L51.3804 40.4172C51.0546 40.6887 50.6284 40.8568 50.1018 40.8568ZM62.1362 41.3477C63.237 41.3477 64.0586 40.9015 64.454 40.062L63.8023 39.8624C63.5241 40.4818 62.9428 40.7988 62.1362 40.7988C60.9817 40.7988 60.3151 40.1464 60.3151 39.0097C60.3151 37.8796 60.9817 37.2404 62.16 37.2404C62.9737 37.2404 63.5311 37.5376 63.8023 38.157L64.4381 37.9507C64.0586 37.1178 63.2599 36.6915 62.16 36.6915C60.5863 36.6915 59.6256 37.5699 59.6256 39.0097C59.6256 40.4627 60.5793 41.3477 62.1362 41.3477ZM69.7623 41.3477C71.2655 41.3477 72.2729 40.4172 72.2729 39.0229C72.2729 37.6212 71.2655 36.6915 69.7623 36.6915C68.2662 36.6915 67.2587 37.6212 67.2587 39.0229C67.2587 40.4172 68.2662 41.3477 69.7623 41.3477ZM69.7623 40.7988C68.6536 40.7988 67.9483 40.1075 67.9483 39.0229C67.9483 37.9309 68.6536 37.2404 69.7623 37.2404C70.8701 37.2404 71.5834 37.9309 71.5834 39.0229C71.5834 40.1075 70.8701 40.7988 69.7623 40.7988ZM77.4413 41.3477C78.7358 41.3477 79.4253 40.7533 79.4253 39.61V36.7685H78.7358V39.5718C78.7358 40.4113 78.3404 40.7856 77.4413 40.7856C76.5501 40.7856 76.1556 40.4172 76.1556 39.5843V36.7685H75.4652V39.6423C75.4652 40.7599 76.1556 41.3477 77.4413 41.3477ZM82.9821 41.2699H83.6725V39.3392H84.6024C85.7569 39.3392 86.3997 38.8805 86.3997 38.041C86.3997 37.2147 85.7719 36.7685 84.6024 36.7685H82.9821V41.2699ZM83.6725 38.8093V37.2984H84.532C85.3227 37.2984 85.7102 37.5435 85.7102 38.0476C85.7102 38.5576 85.3227 38.8093 84.532 38.8093H83.6725ZM91.7081 41.3477C93.2113 41.3477 94.2187 40.4172 94.2187 39.0229C94.2187 37.6212 93.2113 36.6915 91.7081 36.6915C90.2128 36.6915 89.2054 37.6212 89.2054 39.0229C89.2054 40.4172 90.2128 41.3477 91.7081 41.3477ZM91.7081 40.7988C90.6003 40.7988 89.8949 40.1075 89.8949 39.0229C89.8949 37.9309 90.6003 37.2404 91.7081 37.2404C92.8168 37.2404 93.5292 37.9309 93.5292 39.0229C93.5292 40.1075 92.8168 40.7988 91.7081 40.7988ZM100.791 36.7685V40.2756L98.2563 36.7685H97.5201V41.2699H98.2096V37.7504L100.736 41.2699H101.48V36.7685H100.791ZM106.595 41.3411C107.711 41.3411 108.385 40.8311 108.385 40.0495C108.385 39.4162 108.028 39.061 106.843 38.6868C106.006 38.4153 105.665 38.2157 105.665 37.8407C105.665 37.4921 106.037 37.2081 106.54 37.2081C106.974 37.2081 107.339 37.4084 107.556 37.7504L108.137 37.4532C107.804 36.9564 107.261 36.6915 106.564 36.6915C105.618 36.6915 104.975 37.1626 104.975 37.8605C104.975 38.4674 105.363 38.7969 106.471 39.152C107.37 39.4427 107.688 39.6745 107.688 40.1009C107.688 40.5207 107.308 40.8245 106.603 40.8245C105.913 40.8245 105.417 40.4818 105.324 39.9138L104.642 40.0561C104.79 40.8311 105.572 41.3411 106.595 41.3411Z" fill="black"/>
</g>
</svg>
