<svg width="255" height="42" viewBox="0 0 255 42" fill="none" xmlns="http://www.w3.org/2000/svg">
<path d="M55.5535 7.02551C56.334 5.64822 57.3987 4.5709 58.7475 3.79353C60.0964 3.01617 61.5937 2.62749 63.2395 2.62749C65.1737 2.62749 66.8619 3.09221 68.3041 4.02167C69.7463 4.95113 70.7982 6.26927 71.46 7.97609H68.6859C68.1938 6.91144 67.4855 6.09183 66.5608 5.51725C65.6361 4.94268 64.529 4.65539 63.2395 4.65539C62.0009 4.65539 60.8896 4.94268 59.9055 5.51725C58.9214 6.09183 58.1495 6.90722 57.5895 7.96342C57.0296 9.01962 56.7497 10.2575 56.7497 11.677C56.7497 13.0797 57.0296 14.3091 57.5895 15.3653C58.1495 16.4215 58.9214 17.2369 59.9055 17.8114C60.8896 18.386 62.0009 18.6733 63.2395 18.6733C64.529 18.6733 65.6361 18.3902 66.5608 17.8241C67.4855 17.258 68.1938 16.4426 68.6859 15.378H71.46C70.7982 17.0679 69.7463 18.3733 68.3041 19.2944C66.8619 20.2154 65.1737 20.6759 63.2395 20.6759C61.5937 20.6759 60.0964 20.2914 58.7475 19.5225C57.3987 18.7536 56.334 17.6847 55.5535 16.3159C54.7731 14.947 54.3828 13.4007 54.3828 11.677C54.3828 9.9533 54.7731 8.4028 55.5535 7.02551ZM80.9649 7.03818C81.72 6.5988 82.6404 6.37911 83.7263 6.37911V8.76191H83.1155C80.5196 8.76191 79.2216 10.1645 79.2216 12.9698V20.5238H76.9056V6.6326H79.2216V8.88865C79.6288 8.09439 80.2099 7.47756 80.9649 7.03818ZM88.4088 9.78853C88.9857 8.71543 89.7789 7.88315 90.7884 7.29167C91.7979 6.7002 92.922 6.40446 94.1606 6.40446C95.3822 6.40446 96.4426 6.6664 97.3418 7.19028C98.2411 7.71415 98.9113 8.37322 99.3524 9.16749V6.6326H101.694V20.5238H99.3524V17.9382C98.8943 18.7494 98.2114 19.4211 97.3037 19.9534C96.3959 20.4857 95.3398 20.7519 94.1351 20.7519C92.8965 20.7519 91.7767 20.4477 90.7757 19.8393C89.7746 19.231 88.9857 18.3776 88.4088 17.2791C87.8319 16.1807 87.5435 14.9301 87.5435 13.5275C87.5435 12.108 87.8319 10.8616 88.4088 9.78853ZM98.7162 10.8152C98.292 10.0378 97.7194 9.4421 96.9983 9.02807C96.2772 8.61404 95.484 8.40702 94.6187 8.40702C93.7534 8.40702 92.9644 8.60981 92.2518 9.01539C91.5392 9.42098 90.9708 10.0124 90.5466 10.7898C90.1224 11.5672 89.9104 12.4797 89.9104 13.5275C89.9104 14.5921 90.1224 15.5174 90.5466 16.3032C90.9708 17.089 91.5392 17.6889 92.2518 18.103C92.9644 18.517 93.7534 18.724 94.6187 18.724C95.484 18.724 96.2772 18.517 96.9983 18.103C97.7194 17.6889 98.292 17.089 98.7162 16.3032C99.1403 15.5174 99.3524 14.6006 99.3524 13.5528C99.3524 12.5051 99.1403 11.5925 98.7162 10.8152ZM109.355 18.6226H116.201V20.5238H106.708V18.6226L113.478 8.50842H106.759V6.6326H116.15V8.50842L109.355 18.6226ZM133.228 6.6326L124.829 27.0638H122.437L125.186 20.3717L119.561 6.6326H122.132L126.509 17.8875L130.836 6.6326H133.228ZM156.91 3.93295C158.326 4.65117 159.412 5.6778 160.167 7.01284C160.922 8.34787 161.3 9.9195 161.3 11.7277C161.3 13.5359 160.922 15.1033 160.167 16.4299C159.412 17.7565 158.326 18.7705 156.91 19.4718C155.493 20.1731 153.818 20.5238 151.883 20.5238H146.361V2.85563H151.883C153.818 2.85563 155.493 3.21473 156.91 3.93295ZM157.126 16.8102C158.331 15.6019 158.933 13.9077 158.933 11.7277C158.933 9.53082 158.326 7.81555 157.113 6.58191C155.9 5.34826 154.157 4.73144 151.883 4.73144H148.677V18.6226H151.883C154.174 18.6226 155.921 18.0185 157.126 16.8102ZM179.013 14.44H167.865C167.95 15.8089 168.421 16.8778 169.278 17.6467C170.135 18.4156 171.174 18.8 172.396 18.8C173.397 18.8 174.232 18.5677 174.902 18.103C175.573 17.6382 176.043 17.0172 176.315 16.2398H178.809C178.436 17.5749 177.689 18.6606 176.569 19.4971C175.45 20.3337 174.058 20.7519 172.396 20.7519C171.072 20.7519 169.889 20.4562 168.845 19.8647C167.802 19.2732 166.983 18.4325 166.389 17.3425C165.795 16.2525 165.498 14.9893 165.498 13.5528C165.498 12.1164 165.787 10.8574 166.364 9.77586C166.941 8.69431 167.751 7.86202 168.794 7.279C169.838 6.69597 171.038 6.40446 172.396 6.40446C173.719 6.40446 174.89 6.69175 175.908 7.26632C176.926 7.8409 177.71 8.63094 178.262 9.63644C178.813 10.6419 179.089 11.7784 179.089 13.0459C179.089 13.4852 179.063 13.95 179.013 14.44ZM176.111 10.2955C175.721 9.66179 175.191 9.18016 174.521 8.85063C173.85 8.52109 173.108 8.35632 172.294 8.35632C171.123 8.35632 170.126 8.72811 169.303 9.47167C168.48 10.2152 168.01 11.2461 167.891 12.5642H176.697C176.697 11.6855 176.501 10.9292 176.111 10.2955ZM184.153 9.78853C184.73 8.71543 185.523 7.88315 186.533 7.29167C187.543 6.7002 188.667 6.40446 189.905 6.40446C191.127 6.40446 192.187 6.6664 193.086 7.19028C193.986 7.71415 194.656 8.37322 195.097 9.16749V6.6326H197.438V20.5238H195.097V17.9382C194.639 18.7494 193.956 19.4211 193.048 19.9534C192.141 20.4857 191.084 20.7519 189.88 20.7519C188.641 20.7519 187.521 20.4477 186.52 19.8393C185.519 19.231 184.73 18.3776 184.153 17.2791C183.577 16.1807 183.288 14.9301 183.288 13.5275C183.288 12.108 183.577 10.8616 184.153 9.78853ZM194.461 10.8152C194.037 10.0378 193.464 9.4421 192.743 9.02807C192.022 8.61404 191.229 8.40702 190.363 8.40702C189.498 8.40702 188.709 8.60981 187.996 9.01539C187.284 9.42098 186.715 10.0124 186.291 10.7898C185.867 11.5672 185.655 12.4797 185.655 13.5275C185.655 14.5921 185.867 15.5174 186.291 16.3032C186.715 17.089 187.284 17.6889 187.996 18.103C188.709 18.517 189.498 18.724 190.363 18.724C191.229 18.724 192.022 18.517 192.743 18.103C193.464 17.6889 194.037 17.089 194.461 16.3032C194.885 15.5174 195.097 14.6006 195.097 13.5528C195.097 12.5051 194.885 11.5925 194.461 10.8152ZM205.685 1.76562V20.5238H203.369V1.76562H205.685ZM213.701 20.2069C212.853 19.8436 212.183 19.3366 211.691 18.686C211.199 18.0354 210.927 17.2876 210.876 16.4426H213.268C213.336 17.1355 213.663 17.7016 214.248 18.141C214.834 18.5804 215.601 18.8 216.552 18.8C217.434 18.8 218.129 18.6057 218.638 18.217C219.147 17.8283 219.402 17.3383 219.402 16.7468C219.402 16.1384 219.131 15.6864 218.588 15.3906C218.045 15.0949 217.205 14.8034 216.068 14.5161C215.033 14.2457 214.189 13.9711 213.536 13.6923C212.882 13.4134 212.323 12.9994 211.856 12.4502C211.389 11.9009 211.156 11.1785 211.156 10.2828C211.156 9.57307 211.368 8.92245 211.792 8.33098C212.217 7.7395 212.819 7.27055 213.599 6.92411C214.38 6.57768 215.271 6.40446 216.272 6.40446C217.816 6.40446 219.063 6.79315 220.013 7.57051C220.963 8.34787 221.472 9.41253 221.54 10.7645H219.224C219.173 10.0378 218.88 9.45477 218.346 9.01539C217.811 8.57601 217.095 8.35632 216.195 8.35632C215.364 8.35632 214.702 8.53377 214.21 8.88865C213.718 9.24353 213.472 9.70826 213.472 10.2828C213.472 10.7391 213.621 11.1151 213.917 11.4109C214.214 11.7066 214.588 11.9432 215.037 12.1206C215.487 12.2981 216.11 12.4966 216.908 12.7163C217.909 12.9867 218.723 13.2529 219.351 13.5148C219.979 13.7768 220.518 14.1697 220.967 14.6935C221.417 15.2174 221.65 15.9018 221.667 16.7468C221.667 17.5073 221.455 18.1917 221.031 18.8C220.607 19.4084 220.009 19.8858 219.237 20.2323C218.465 20.5787 217.578 20.7519 216.577 20.7519C215.508 20.7519 214.549 20.5702 213.701 20.2069ZM249.357 20.5238L247.041 18.1917C246.176 19.0873 245.251 19.7506 244.267 20.1816C243.283 20.6125 242.172 20.828 240.933 20.828C239.711 20.828 238.63 20.6083 237.688 20.1689C236.746 19.7295 236.017 19.1042 235.499 18.2931C234.982 17.4819 234.723 16.5356 234.723 15.454C234.723 14.2204 235.075 13.1346 235.779 12.1967C236.483 11.2588 237.523 10.5194 238.897 9.97865C238.354 9.33648 237.964 8.74501 237.726 8.20423C237.489 7.66346 237.37 7.07198 237.37 6.42981C237.37 5.68625 237.561 5.0145 237.943 4.41458C238.324 3.81466 238.872 3.3457 239.584 3.00772C240.297 2.66973 241.12 2.50074 242.053 2.50074C242.969 2.50074 243.766 2.67818 244.445 3.03307C245.124 3.38795 245.633 3.88225 245.972 4.51597C246.311 5.1497 246.464 5.85524 246.43 6.6326H244.114C244.131 5.93973 243.936 5.39473 243.529 4.9976C243.122 4.60047 242.596 4.4019 241.951 4.4019C241.272 4.4019 240.725 4.59202 240.309 4.97225C239.894 5.35249 239.686 5.83834 239.686 6.42981C239.686 6.93679 239.826 7.42687 240.106 7.90005C240.386 8.37322 240.857 8.95625 241.518 9.64912L246.812 14.947L247.27 14.2373L249.001 11.3475H251.495L249.408 14.947C249.119 15.454 248.78 15.9863 248.39 16.544L252.386 20.5238H249.357ZM243.414 18.3184C244.152 17.9635 244.852 17.4143 245.514 16.6707L240.297 11.4489C238.125 12.2769 237.039 13.5866 237.039 15.378C237.039 16.375 237.4 17.2031 238.121 17.8621C238.842 18.5212 239.779 18.8507 240.933 18.8507C241.849 18.8507 242.676 18.6733 243.414 18.3184Z" fill="#3F170E"/>
<path d="M56.7805 39.7077C56.1489 39.7077 55.6254 39.5914 55.21 39.3589C54.7946 39.1264 54.4805 38.8016 54.2677 38.3845C54.0548 37.9673 53.9381 37.4818 53.9175 36.9279C53.9107 36.6475 53.9072 36.3466 53.9072 36.0252C53.9072 35.7038 53.9107 35.3961 53.9175 35.102C53.9381 34.5481 54.0548 34.0626 54.2677 33.6455C54.4805 33.2283 54.7946 32.9035 55.21 32.671C55.6254 32.4385 56.1489 32.3223 56.7805 32.3223C57.2543 32.3223 57.6696 32.3872 58.0266 32.5172C58.3837 32.6471 58.6806 32.8215 58.9175 33.0403C59.1543 33.2591 59.3346 33.5036 59.4581 33.7737C59.5817 34.0438 59.6504 34.3225 59.6641 34.6097C59.671 34.6712 59.6521 34.7225 59.6075 34.7636C59.5628 34.8046 59.5096 34.8251 59.4478 34.8251H58.8814C58.8196 34.8251 58.7664 34.808 58.7218 34.7738C58.6772 34.7396 58.6446 34.6781 58.624 34.5892C58.5072 34.0558 58.2893 33.6899 57.97 33.4916C57.6508 33.2933 57.2543 33.1942 56.7805 33.1942C56.2244 33.1942 55.785 33.3497 55.4623 33.6609C55.1396 33.972 54.968 34.4695 54.9474 35.1533C54.9268 35.7141 54.9268 36.2885 54.9474 36.8766C54.968 37.5604 55.1396 38.0579 55.4623 38.3691C55.785 38.6802 56.2244 38.8358 56.7805 38.8358C57.2543 38.8358 57.6508 38.7366 57.97 38.5383C58.2893 38.34 58.5072 37.9741 58.624 37.4408C58.6446 37.3519 58.6772 37.2903 58.7218 37.2561C58.7664 37.2219 58.8196 37.2048 58.8814 37.2048H59.4478C59.5096 37.2048 59.5628 37.2236 59.6075 37.2613C59.6521 37.2989 59.671 37.3484 59.6641 37.41C59.6504 37.6972 59.5817 37.9776 59.4581 38.2511C59.3346 38.5246 59.1543 38.7708 58.9175 38.9896C58.6806 39.2085 58.3837 39.3828 58.0266 39.5128C57.6696 39.6427 57.2543 39.7077 56.7805 39.7077ZM63.207 39.7077C62.6852 39.7077 62.2492 39.6085 61.8991 39.4102C61.5489 39.2119 61.2812 38.9366 61.0958 38.5845C60.9104 38.2323 60.8074 37.8305 60.7868 37.3792C60.78 37.263 60.7765 37.1142 60.7765 36.933C60.7765 36.7518 60.78 36.6065 60.7868 36.4971C60.8074 36.0389 60.9121 35.6354 61.1009 35.2867C61.2897 34.9379 61.5592 34.6644 61.9094 34.4661C62.2595 34.2678 62.6921 34.1686 63.207 34.1686C63.7219 34.1686 64.1544 34.2678 64.5046 34.4661C64.8547 34.6644 65.1242 34.9379 65.313 35.2867C65.5018 35.6354 65.6065 36.0389 65.6271 36.4971C65.634 36.6065 65.6374 36.7518 65.6374 36.933C65.6374 37.1142 65.634 37.263 65.6271 37.3792C65.6065 37.8305 65.5036 38.2323 65.3182 38.5845C65.1328 38.9366 64.865 39.2119 64.5149 39.4102C64.1647 39.6085 63.7288 39.7077 63.207 39.7077ZM63.207 38.9178C63.6327 38.9178 63.9725 38.7828 64.2265 38.5127C64.4806 38.2426 64.6179 37.8476 64.6385 37.3279C64.6453 37.2254 64.6488 37.0954 64.6488 36.9381C64.6488 36.7809 64.6453 36.6509 64.6385 36.5484C64.6179 36.0286 64.4806 35.6337 64.2265 35.3636C63.9725 35.0935 63.6327 34.9584 63.207 34.9584C62.7813 34.9584 62.4397 35.0935 62.1823 35.3636C61.9248 35.6337 61.7892 36.0286 61.7755 36.5484C61.7686 36.6509 61.7652 36.7809 61.7652 36.9381C61.7652 37.0954 61.7686 37.2254 61.7755 37.3279C61.7892 37.8476 61.9248 38.2426 62.1823 38.5127C62.4397 38.7828 62.7813 38.9178 63.207 38.9178ZM69.0254 39.7077C68.586 39.7077 68.2135 39.6102 67.908 39.4153C67.6025 39.2204 67.3708 38.9486 67.2129 38.5999C67.0549 38.2511 66.976 37.8511 66.976 37.3997V34.5071C66.976 34.4387 66.9983 34.3823 67.0429 34.3379C67.0876 34.2934 67.1442 34.2712 67.2129 34.2712H67.7278C67.7964 34.2712 67.8531 34.2934 67.8977 34.3379C67.9423 34.3823 67.9647 34.4387 67.9647 34.5071V37.3484C67.9647 38.3674 68.4109 38.8768 69.3035 38.8768C69.7291 38.8768 70.0707 38.7418 70.3282 38.4716C70.5856 38.2015 70.7144 37.8271 70.7144 37.3484V34.5071C70.7144 34.4387 70.7367 34.3823 70.7813 34.3379C70.8259 34.2934 70.8826 34.2712 70.9512 34.2712H71.4662C71.5348 34.2712 71.5897 34.2934 71.6309 34.3379C71.6721 34.3823 71.6927 34.4387 71.6927 34.5071V39.3692C71.6927 39.4376 71.6721 39.494 71.6309 39.5384C71.5897 39.5829 71.5348 39.6051 71.4662 39.6051H70.9821C70.9135 39.6051 70.8568 39.5829 70.8122 39.5384C70.7676 39.494 70.7453 39.4376 70.7453 39.3692V38.9178C70.5599 39.1572 70.335 39.3487 70.0707 39.4923C69.8064 39.6359 69.4579 39.7077 69.0254 39.7077ZM73.5773 41.554C73.5086 41.554 73.452 41.5318 73.4073 41.4873C73.3627 41.4429 73.3404 41.3865 73.3404 41.3181V34.5071C73.3404 34.4387 73.3627 34.3823 73.4073 34.3379C73.452 34.2934 73.5086 34.2712 73.5773 34.2712H74.051C74.1196 34.2712 74.1763 34.2934 74.2209 34.3379C74.2655 34.3823 74.2879 34.4387 74.2879 34.5071V34.9584C74.4526 34.7328 74.6723 34.5447 74.947 34.3943C75.2216 34.2438 75.5649 34.1686 75.9768 34.1686C76.3613 34.1686 76.6891 34.2336 76.9603 34.3635C77.2315 34.4934 77.4547 34.6712 77.6297 34.8969C77.8048 35.1226 77.937 35.379 78.0262 35.6662C78.1155 35.9534 78.167 36.2611 78.1807 36.5894C78.1876 36.6988 78.191 36.8151 78.191 36.9381C78.191 37.0612 78.1876 37.1775 78.1807 37.2869C78.167 37.6083 78.1155 37.9143 78.0262 38.2049C77.937 38.4956 77.8048 38.752 77.6297 38.9743C77.4547 39.1965 77.2315 39.3743 76.9603 39.5076C76.6891 39.641 76.3613 39.7077 75.9768 39.7077C75.5786 39.7077 75.2439 39.6342 74.9727 39.4871C74.7015 39.3401 74.4801 39.1572 74.3085 38.9384V41.3181C74.3085 41.3865 74.2879 41.4429 74.2467 41.4873C74.2055 41.5318 74.1505 41.554 74.0819 41.554H73.5773ZM75.7606 38.8768C76.1176 38.8768 76.3973 38.7999 76.5999 38.646C76.8024 38.4922 76.9483 38.2904 77.0376 38.0408C77.1268 37.7912 77.1783 37.5228 77.1921 37.2356C77.1989 37.0373 77.1989 36.839 77.1921 36.6407C77.1783 36.3535 77.1268 36.0851 77.0376 35.8355C76.9483 35.5859 76.8024 35.3841 76.5999 35.2303C76.3973 35.0764 76.1176 34.9995 75.7606 34.9995C75.4241 34.9995 75.1512 35.0781 74.9418 35.2354C74.7324 35.3927 74.5779 35.5927 74.4784 35.8355C74.3788 36.0782 74.3222 36.3261 74.3085 36.5791C74.3016 36.6885 74.2982 36.8185 74.2982 36.9689C74.2982 37.1194 74.3016 37.2527 74.3085 37.369C74.3153 37.6083 74.372 37.8442 74.4784 38.0767C74.5848 38.3092 74.7444 38.5007 74.9573 38.6511C75.1701 38.8016 75.4379 38.8768 75.7606 38.8768ZM81.7647 39.7077C81.2429 39.7077 80.8069 39.6085 80.4568 39.4102C80.1066 39.2119 79.8389 38.9366 79.6535 38.5845C79.4681 38.2323 79.3651 37.8305 79.3445 37.3792C79.3377 37.263 79.3342 37.1142 79.3342 36.933C79.3342 36.7518 79.3377 36.6065 79.3445 36.4971C79.3651 36.0389 79.4698 35.6354 79.6586 35.2867C79.8474 34.9379 80.1169 34.6644 80.4671 34.4661C80.8172 34.2678 81.2498 34.1686 81.7647 34.1686C82.2796 34.1686 82.7122 34.2678 83.0623 34.4661C83.4125 34.6644 83.6819 34.9379 83.8708 35.2867C84.0596 35.6354 84.1643 36.0389 84.1849 36.4971C84.1917 36.6065 84.1952 36.7518 84.1952 36.933C84.1952 37.1142 84.1917 37.263 84.1849 37.3792C84.1643 37.8305 84.0613 38.2323 83.8759 38.5845C83.6905 38.9366 83.4228 39.2119 83.0726 39.4102C82.7225 39.6085 82.2865 39.7077 81.7647 39.7077ZM81.7647 38.9178C82.1904 38.9178 82.5302 38.7828 82.7843 38.5127C83.0383 38.2426 83.1756 37.8476 83.1962 37.3279C83.2031 37.2254 83.2065 37.0954 83.2065 36.9381C83.2065 36.7809 83.2031 36.6509 83.1962 36.5484C83.1756 36.0286 83.0383 35.6337 82.7843 35.3636C82.5302 35.0935 82.1904 34.9584 81.7647 34.9584C81.339 34.9584 80.9975 35.0935 80.74 35.3636C80.4825 35.6337 80.3469 36.0286 80.3332 36.5484C80.3263 36.6509 80.3229 36.7809 80.3229 36.9381C80.3229 37.0954 80.3263 37.2254 80.3332 37.3279C80.3469 37.8476 80.4825 38.2426 80.74 38.5127C80.9975 38.7828 81.339 38.9178 81.7647 38.9178ZM85.8221 39.6051C85.7534 39.6051 85.6968 39.5829 85.6521 39.5384C85.6075 39.494 85.5852 39.4376 85.5852 39.3692V34.5071C85.5852 34.4387 85.6075 34.3823 85.6521 34.3379C85.6968 34.2934 85.7534 34.2712 85.8221 34.2712H86.3061C86.3748 34.2712 86.4314 34.2934 86.476 34.3379C86.5206 34.3823 86.543 34.4387 86.543 34.5071V34.9584C86.7215 34.7259 86.9463 34.5362 87.2175 34.3892C87.4887 34.2421 87.8371 34.1686 88.2628 34.1686C88.7091 34.1686 89.0884 34.2661 89.4008 34.461C89.7132 34.6558 89.9501 34.926 90.1114 35.2713C90.2728 35.6166 90.3534 36.0184 90.3534 36.4766V39.3692C90.3534 39.4376 90.3311 39.494 90.2865 39.5384C90.2419 39.5829 90.1852 39.6051 90.1166 39.6051H89.6016C89.533 39.6051 89.4763 39.5829 89.4317 39.5384C89.3871 39.494 89.3648 39.4376 89.3648 39.3692V36.5278C89.3648 36.0492 89.248 35.6748 89.0146 35.4046C88.7812 35.1345 88.4379 34.9995 87.9848 34.9995C87.5591 34.9995 87.2175 35.1345 86.9601 35.4046C86.7026 35.6748 86.5739 36.0492 86.5739 36.5278V39.3692C86.5739 39.4376 86.5515 39.494 86.5069 39.5384C86.4623 39.5829 86.4056 39.6051 86.337 39.6051H85.8221ZM93.783 39.7077C93.3986 39.7077 93.069 39.6598 92.7944 39.5641C92.5197 39.4683 92.2966 39.3521 92.125 39.2153C91.9533 39.0785 91.8246 38.9418 91.7388 38.805C91.6529 38.6682 91.6066 38.5588 91.5997 38.4768C91.5929 38.4015 91.6169 38.3434 91.6718 38.3024C91.7268 38.2614 91.7817 38.2408 91.8366 38.2408H92.3C92.3344 38.2408 92.3876 38.2562 92.3876 38.2562C92.3876 38.2562 92.4442 38.2956 92.4854 38.3434C92.5747 38.4392 92.6742 38.5349 92.7841 38.6306C92.8939 38.7264 93.0295 38.805 93.1909 38.8666C93.3522 38.9281 93.553 38.9589 93.7933 38.9589C94.1435 38.9589 94.4318 38.8922 94.6584 38.7589C94.885 38.6255 94.9983 38.4289 94.9983 38.169C94.9983 37.9981 94.9519 37.8613 94.8592 37.7587C94.7665 37.6562 94.6018 37.5639 94.3649 37.4818C94.128 37.3997 93.8036 37.3142 93.3917 37.2254C92.9797 37.1296 92.6536 37.0117 92.4133 36.8715C92.173 36.7313 92.0014 36.5637 91.8984 36.3689C91.7954 36.174 91.7439 35.9534 91.7439 35.7072C91.7439 35.4542 91.8194 35.2098 91.9705 34.9738C92.1215 34.7379 92.3429 34.5447 92.6347 34.3943C92.9265 34.2438 93.2921 34.1686 93.7315 34.1686C94.0886 34.1686 94.3941 34.2131 94.6481 34.302C94.9021 34.3909 95.1115 34.502 95.2763 34.6353C95.4411 34.7687 95.5647 34.9003 95.6471 35.0302C95.7295 35.1602 95.7741 35.2696 95.781 35.3585C95.7878 35.4269 95.7672 35.4833 95.7192 35.5277C95.6711 35.5722 95.6162 35.5944 95.5544 35.5944H95.1218C95.0738 35.5944 95.0343 35.5842 95.0034 35.5636C94.9725 35.5431 94.9433 35.5192 94.9159 35.4918C94.8472 35.4029 94.7665 35.314 94.6739 35.2251C94.5812 35.1362 94.461 35.0627 94.3134 35.0046C94.1658 34.9465 93.9718 34.9174 93.7315 34.9174C93.3882 34.9174 93.1308 34.9892 92.9591 35.1328C92.7875 35.2764 92.7017 35.4576 92.7017 35.6765C92.7017 35.8064 92.7394 35.9227 92.815 36.0252C92.8905 36.1278 93.0347 36.2201 93.2475 36.3022C93.4603 36.3842 93.7762 36.4731 94.195 36.5689C94.6481 36.6578 95.0051 36.7774 95.266 36.9279C95.5269 37.0783 95.7123 37.2527 95.8221 37.451C95.932 37.6493 95.9869 37.8784 95.9869 38.1383C95.9869 38.4255 95.9045 38.6888 95.7398 38.9281C95.575 39.1674 95.3278 39.3572 94.9983 39.4974C94.6687 39.6376 94.2636 39.7077 93.783 39.7077Z" fill="#D56A34"/>
<mask id="mask0_911_2" style="mask-type:luminance" maskUnits="userSpaceOnUse" x="1" y="0" width="46" height="41">
<path d="M1.5625 0.445801H46.5018V40.925H1.5625V0.445801Z" fill="white"/>
</mask>
<g mask="url(#mask0_911_2)">
<mask id="mask1_911_2" style="mask-type:luminance" maskUnits="userSpaceOnUse" x="1" y="0" width="46" height="41">
<path d="M1.5625 40.9249H46.5017V0.445801H1.5625V40.9249Z" fill="white"/>
</mask>
<g mask="url(#mask1_911_2)">
<path d="M24.518 3.06691C23.3728 1.28787 21.5567 0.312185 19.6822 0.460589C17.6333 0.623023 15.8765 2.04518 14.8585 4.36369C14.0111 6.3147 13.7409 9.33368 13.66 11.4898L10.3454 11.8855L10.0971 15.3639H3.98059C3.54191 15.3643 3.18642 15.7184 3.18612 16.1554C3.18701 16.592 3.54219 16.9458 3.98059 16.9467H9.98202L9.73658 20.2947H5.3091C4.87457 20.2947 4.52059 20.6474 4.52059 21.0862C4.52059 21.5224 4.87457 21.8776 5.3091 21.8776H9.6219L9.38892 25.0652H2.35408C1.91666 25.0652 1.5625 25.4208 1.5625 25.8566C1.5625 26.2988 1.91666 26.6481 2.35408 26.6481H9.28074L9.17491 28.0983H4.3064C3.86898 28.0983 3.50886 28.4506 3.50886 28.8864C3.50886 29.3223 3.86898 29.6813 4.3064 29.6813H9.06023L8.81786 33.0262H6.12254C5.68458 33.0262 5.33096 33.3819 5.33096 33.8177C5.33004 34.0274 5.41306 34.2287 5.56162 34.3773C5.71019 34.5258 5.91205 34.6092 6.12254 34.609H8.70661L8.41457 38.554L17.4037 40.6191L16.9627 11.0974L15.2621 11.3012C15.3456 9.29194 15.6033 6.63903 16.3205 4.99616C17.0933 3.22899 18.3662 2.15185 19.8065 2.04176C21.0728 1.93689 22.3546 2.63879 23.1772 3.92154C25.5641 7.62551 25.4617 14.8458 25.4617 14.9156L27.0479 14.9464C27.0573 14.6309 27.1597 7.17724 24.518 3.06691Z" fill="#CA2128"/>
</g>
<mask id="mask2_911_2" style="mask-type:luminance" maskUnits="userSpaceOnUse" x="1" y="0" width="46" height="41">
<path d="M1.5625 40.9249H46.5017V0.445801H1.5625V40.9249Z" fill="white"/>
</mask>
<g mask="url(#mask2_911_2)">
<path d="M36.2513 38.554L34.004 11.8855L31.3533 11.7635C31.1265 9.15721 30.5339 5.52034 28.9538 3.06691C27.8115 1.28787 25.9927 0.312185 24.1144 0.460589C22.0693 0.623023 20.3152 2.04536 19.3004 4.36369C18.4935 6.20983 18.2109 9.02302 18.1115 11.15L16.9629 11.0974L17.4039 40.6193L36.2513 38.554ZM19.7817 11.2271L19.7039 11.2241C19.7908 9.22377 20.0485 6.61744 20.7563 4.99616C21.526 3.22899 22.8018 2.15185 24.2421 2.04176C25.5144 1.93689 26.7904 2.63879 27.6157 3.92154C28.9724 6.02725 29.5218 9.27018 29.7483 11.6894L19.7817 11.2271Z" fill="#ED1C24"/>
</g>
<mask id="mask3_911_2" style="mask-type:luminance" maskUnits="userSpaceOnUse" x="1" y="0" width="46" height="41">
<path d="M1.5625 40.9249H46.5017V0.445801H1.5625V40.9249Z" fill="white"/>
</mask>
<g mask="url(#mask3_911_2)">
<path d="M38.6368 15.7517C37.8691 14.5591 36.6516 13.9051 35.3952 14.0045C34.0215 14.1135 32.844 15.0669 32.1615 16.6211C31.5935 17.9289 31.4123 19.9527 31.3581 21.3979L29.1362 21.6632L27.8418 39.5405L33.8678 40.9249L33.5721 21.1349L32.4322 21.2716C32.4882 19.9247 32.6608 18.1463 33.1416 17.0449C33.6596 15.8604 34.5129 15.1383 35.4784 15.0646C36.3272 14.9943 37.1866 15.4647 37.7379 16.3247C39.3379 18.8076 39.2693 23.6477 39.2693 23.6947L40.3327 23.7152C40.339 23.5036 40.4076 18.5072 38.6368 15.7517Z" fill="#BA945E"/>
</g>
<mask id="mask4_911_2" style="mask-type:luminance" maskUnits="userSpaceOnUse" x="1" y="0" width="46" height="41">
<path d="M1.5625 40.9249H46.5017V0.445801H1.5625V40.9249Z" fill="white"/>
</mask>
<g mask="url(#mask4_911_2)">
<path d="M46.5012 39.5405L44.9948 21.6632L43.2178 21.5816C43.0658 19.8344 42.6686 17.3962 41.6092 15.7517C40.8436 14.5591 39.6244 13.9051 38.3652 14.0045C36.9943 14.1135 35.8183 15.0669 35.1382 16.6211C34.5973 17.8585 34.4078 19.7444 34.3412 21.1702L33.5713 21.1351L33.8668 40.9249L46.5012 39.5405ZM35.4608 21.222L35.4086 21.22C35.4669 19.879 35.6396 18.1318 36.114 17.0449C36.6302 15.8604 37.4853 15.1383 38.4508 15.0646C39.3038 14.9943 40.1591 15.4648 40.7123 16.3247C41.6218 17.7362 41.9901 19.9101 42.142 21.5317L35.4608 21.222Z" fill="#CAAF76"/>
</g>
</g>
</svg>
