<svg width="80" height="80" viewBox="0 0 80 80" fill="none" xmlns="http://www.w3.org/2000/svg">
<path d="M75.2258 8.37766C75.0054 8.15861 74.707 8.03606 74.3963 8.03697C74.0855 8.03788 73.7879 8.16217 73.5687 8.3825C73.3498 8.60314 73.2273 8.90169 73.2284 9.21254C73.2294 9.5234 73.3538 9.82113 73.5742 10.0403C76.1683 12.6184 77.6562 16.1945 77.6562 19.8523V57.7661H72.1509V25.3692C72.1509 23.9088 71.3397 22.5958 70.0342 21.9427C69.4684 21.6584 68.8409 21.5191 68.208 21.5374C67.5751 21.5556 66.9566 21.7308 66.4081 22.0472C65.8617 22.3604 65.4012 22.8038 65.0674 23.3379C64.7336 23.8719 64.5368 24.4802 64.4947 25.1086C64.4494 25.5945 63.7884 32.6569 63.7269 35.1294C63.5937 40.4345 64.162 59.0234 64.3395 64.5941C64.3408 64.6417 64.325 64.6827 64.2927 64.7167C64.2767 64.7331 64.2576 64.7462 64.2365 64.755C64.2154 64.7638 64.1927 64.7683 64.1698 64.7681H47.8633V38.1616L60.3883 24.9952C60.5462 24.8294 60.6521 24.6209 60.6927 24.3956C60.7334 24.1702 60.7072 23.9379 60.6172 23.7273L58.1459 17.9339L60.7778 16.275C60.9751 16.1504 61.1308 15.9698 61.225 15.7563C61.3191 15.5427 61.3474 15.306 61.3062 15.0763L59.6211 5.69703C59.6034 5.6 59.5839 5.50331 59.5625 5.40703H62.7406C65.1288 5.40823 67.4761 6.02684 69.5547 7.20281L70.0222 7.46641C70.1561 7.54225 70.3037 7.59094 70.4565 7.60968C70.6092 7.62842 70.7642 7.61685 70.9125 7.57564C71.0608 7.53442 71.1995 7.46436 71.3207 7.36948C71.4419 7.27459 71.5432 7.15673 71.6187 7.02266C71.7716 6.75199 71.8107 6.4317 71.7275 6.1322C71.6443 5.83269 71.4456 5.57849 71.175 5.42547L70.7088 5.16235C68.278 3.78761 65.5332 3.06454 62.7406 3.06328H58.5578C57.9251 2.1197 57.0696 1.34658 56.0669 0.812295C55.0643 0.278008 53.9455 -0.000980799 52.8094 2.59072e-06H40.5731C38.2031 2.59072e-06 36.0778 1.19625 34.8255 3.06328H30.6409C27.8492 3.06425 25.1052 3.78713 22.6753 5.16172L21.59 5.77453C16.5277 8.63953 13.3825 14.0339 13.3825 19.8523V25.3992H7.45906C6.46062 25.3992 5.64812 26.2116 5.64812 27.2102V38.3063C2.20031 41.1645 0 45.4784 0 50.2972C0 55.1153 2.20031 59.4294 5.64812 62.2877V73.3838C5.64812 74.3822 6.46062 75.1947 7.45906 75.1947H13.2252C13.536 75.1947 13.834 75.0712 14.0538 74.8515C14.2736 74.6317 14.397 74.3336 14.397 74.0228C14.397 73.712 14.2736 73.4139 14.0538 73.1942C13.834 72.9744 13.536 72.8509 13.2252 72.8509H7.99187V63.8953C10.2362 65.1508 12.8211 65.8667 15.5695 65.8667C18.3184 65.8667 20.9033 65.1502 23.147 63.8953V72.8509H17.9127C17.6019 72.8509 17.3038 72.9744 17.084 73.1942C16.8642 73.4139 16.7408 73.712 16.7408 74.0228C16.7408 74.3336 16.8642 74.6317 17.084 74.8515C17.3038 75.0712 17.6019 75.1947 17.9127 75.1947H23.678C24.6777 75.1947 25.4908 74.3822 25.4908 73.3838V62.2877C27.9919 60.2136 29.8364 57.3742 30.6611 54.132H32.3517C33.7517 54.132 34.8908 52.9931 34.8908 51.593V49.0008C34.8908 47.6008 33.7517 46.4617 32.3517 46.4617H30.6611C29.8364 43.2195 27.9919 40.3797 25.4908 38.3063V27.2102C25.4908 26.2116 24.6777 25.3992 23.678 25.3992H23.5748V25.3692C23.574 25.093 23.6504 24.822 23.7955 24.5869C23.9406 24.3518 24.1485 24.1619 24.3958 24.0388C24.6112 23.9313 24.8352 23.8775 25.0622 23.8775C25.7502 23.8775 26.4941 24.4006 26.5491 25.2759C26.5503 25.2881 26.5509 25.3003 26.5522 25.3119C26.5589 25.3864 27.2522 32.7613 27.3131 35.1861C27.3284 35.8306 27.3345 36.673 27.3316 37.6892C27.331 37.8431 27.3608 37.9956 27.4192 38.138C27.4777 38.2804 27.5636 38.4098 27.6721 38.519C27.7805 38.6282 27.9095 38.7149 28.0515 38.7742C28.1935 38.8335 28.3458 38.8643 28.4997 38.8647H28.5034C28.8135 38.8645 29.1109 38.7415 29.3306 38.5226C29.5502 38.3037 29.6742 38.0067 29.6753 37.6966C29.6784 36.6591 29.6716 35.7959 29.6558 35.1288C29.5941 32.6569 28.9331 25.5981 28.8873 25.1086C28.7506 23.1023 27.0745 21.5333 25.0628 21.5333C24.4695 21.5333 23.8941 21.6705 23.3491 21.9416C22.0428 22.5958 21.2317 23.9094 21.2317 25.3692V25.3992H15.727V19.8523C15.727 14.8767 18.4155 10.2638 22.7436 7.81438L23.8294 7.20156C25.9071 6.02578 28.2536 5.40742 30.6409 5.40657H33.8202C33.7988 5.503 33.7792 5.59984 33.7616 5.69703L32.077 15.0763C32.0358 15.3059 32.064 15.5426 32.1582 15.7561C32.2524 15.9696 32.4082 16.15 32.6056 16.2744L35.2375 17.9333L32.7656 23.7269C32.6758 23.9374 32.6496 24.1697 32.6903 24.3949C32.7309 24.6202 32.8366 24.8287 32.9944 24.9945L45.5194 38.1617V64.768C28.3381 64.7383 29.0344 64.8797 29.043 64.593L29.0747 63.5931C29.0795 63.4393 29.0539 63.286 28.9994 63.1421C28.945 62.9982 28.8627 62.8664 28.7572 62.7542C28.6518 62.6421 28.5253 62.5519 28.3849 62.4887C28.2446 62.4255 28.0932 62.3906 27.9394 62.3859C27.2948 62.3584 26.7523 62.8734 26.7322 63.5205C26.7809 64.0986 26.3928 65.2997 27.4072 66.347C27.6408 66.5899 27.9213 66.7829 28.2316 66.9144C28.5419 67.0459 28.8756 67.113 29.2127 67.1119H64.1698C64.8572 67.1119 65.498 66.8402 65.9761 66.347C66.2112 66.106 66.395 65.8198 66.5163 65.5057C66.6377 65.1916 66.6941 64.8562 66.6822 64.5197C66.5056 58.9642 65.9387 40.4309 66.07 35.188C66.1309 32.7613 66.8231 25.3858 66.8305 25.3119C66.8311 25.2997 66.8323 25.2875 66.8328 25.2753C66.8652 24.7681 67.1363 24.3316 67.5763 24.0784C68.0169 23.825 68.5303 23.8105 68.985 24.0381C69.2326 24.161 69.4409 24.3507 69.5862 24.5859C69.7316 24.821 69.8081 25.0922 69.8072 25.3686V58.9375C69.8072 59.2483 69.9307 59.5464 70.1504 59.7661C70.3702 59.9859 70.6683 60.1094 70.9791 60.1094H78.8281C79.1389 60.1094 79.437 59.9859 79.6568 59.7661C79.8765 59.5464 80 59.2483 80 58.9375V19.8523C80 15.575 78.2598 11.3922 75.2258 8.37766ZM32.3517 48.8055C32.4591 48.8055 32.547 48.893 32.547 49.0008V51.593C32.547 51.7005 32.4591 51.7883 32.3517 51.7883H31.0681C31.115 51.2977 31.1389 50.8002 31.1389 50.2972C31.1389 49.7942 31.1152 49.2963 31.0681 48.8055H32.3517ZM28.7952 50.2972C28.7952 57.5897 22.8619 63.523 15.5695 63.523C8.27641 63.523 2.34375 57.5897 2.34375 50.2972C2.34375 43.0042 8.27703 37.0709 15.5695 37.0709C22.8625 37.0709 28.7952 43.0042 28.7952 50.2972ZM15.5695 34.7278C12.8211 34.7278 10.2362 35.4438 7.99187 36.6986V27.743H23.147V36.6986C20.9027 35.4438 18.3184 34.7278 15.5695 34.7278ZM46.6914 31.5119C44.9352 26.5564 41.5417 16.6253 40.0384 9.80891C39.9209 9.28036 39.9241 8.73212 40.0476 8.20495C40.1712 7.67778 40.4119 7.18523 40.752 6.76391C41.0914 6.33946 41.5221 5.99703 42.0121 5.7621C42.5021 5.52717 43.0388 5.40581 43.5822 5.40703H49.8005C50.9064 5.40703 51.938 5.90157 52.6306 6.76391C52.9707 7.18524 53.2114 7.6778 53.3349 8.20497C53.4585 8.73214 53.4616 9.28037 53.3441 9.80891C51.8409 16.6253 48.4472 26.5564 46.6913 31.5119H46.6914ZM37.7844 17.9344C37.8937 17.6782 37.9082 17.3915 37.8252 17.1256C37.7422 16.8597 37.5672 16.6321 37.3316 16.4836L34.5227 14.7136L36.068 6.11125C36.1501 5.65418 36.301 5.21219 36.5155 4.80032C36.5228 4.7875 36.5295 4.77469 36.5363 4.76188C36.9267 4.03074 37.5086 3.41952 38.2197 2.99358C38.9308 2.56765 39.7442 2.34303 40.5731 2.34375H52.8094C53.6402 2.34314 54.4556 2.5689 55.1678 2.99678C55.88 3.42466 56.4622 4.03849 56.8519 4.77235C56.853 4.77485 56.855 4.77719 56.8561 4.77969C57.0768 5.19719 57.2312 5.64646 57.3139 6.11141L58.8592 14.7131L56.0511 16.4831C55.8153 16.6317 55.6401 16.8594 55.557 17.1254C55.4738 17.3914 55.4882 17.6783 55.5975 17.9347L58.1584 23.938L48.1091 34.5025C49.3433 31.1009 53.822 18.5253 55.633 10.3138C56.0236 8.54063 55.5952 6.71141 54.4573 5.29547C53.3178 3.87688 51.6198 3.06328 49.8005 3.06328H43.5822C41.7627 3.06328 40.0647 3.87688 38.9252 5.29547C37.7875 6.71141 37.3591 8.54078 37.7497 10.3138C39.5606 18.5253 44.0394 31.1005 45.2734 34.5025L35.2241 23.938L37.7844 17.9344Z" fill="#D56A34"/>
<path d="M52.249 42.6683H51.8114C51.5006 42.6683 51.2025 42.7918 50.9827 43.0116C50.763 43.2314 50.6395 43.5294 50.6395 43.8402C50.6395 44.151 50.763 44.4491 50.9827 44.6689C51.2025 44.8886 51.5006 45.0121 51.8114 45.0121H52.2489C52.8965 45.0121 53.4207 44.4879 53.4207 43.8402C53.4207 43.1926 52.8967 42.6683 52.249 42.6683ZM52.249 49.889H51.8114C51.5006 49.889 51.2025 50.0124 50.9827 50.2322C50.763 50.452 50.6395 50.75 50.6395 51.0609C50.6395 51.3717 50.763 51.6697 50.9827 51.8895C51.2025 52.1093 51.5006 52.2327 51.8114 52.2327H52.2489C52.8965 52.2327 53.4207 51.7084 53.4207 51.0609C53.4207 50.75 53.2973 50.452 53.0775 50.2322C52.8577 50.0124 52.5598 49.889 52.249 49.889ZM19.2595 49.1246H16.7412V41.8474C16.7412 41.5366 16.6177 41.2385 16.398 41.0188C16.1782 40.799 15.8801 40.6755 15.5693 40.6755C15.2585 40.6755 14.9605 40.799 14.7407 41.0188C14.5209 41.2385 14.3975 41.5366 14.3975 41.8474V50.2965C14.3975 50.6073 14.5209 50.9053 14.7407 51.1251C14.9605 51.3449 15.2585 51.4684 15.5693 51.4684H19.2595C19.5703 51.4684 19.8684 51.3449 20.0881 51.1251C20.3079 50.9053 20.4314 50.6073 20.4314 50.2965C20.4314 49.9857 20.3079 49.6876 20.0881 49.4678C19.8684 49.2481 19.5703 49.1246 19.2595 49.1246Z" fill="#D56A34"/>
</svg>
