<svg width="244" height="313" viewBox="0 0 244 313" fill="none" xmlns="http://www.w3.org/2000/svg">
<rect width="4" height="4" rx="2" fill="#FFBAE6"/>
<rect y="228" width="4" height="4" rx="2" fill="#FFBAE6"/>
<rect y="276" width="4" height="4" rx="2" fill="#FFBAE6"/>
<rect y="211" width="4" height="4" rx="2" fill="#FFBAE6"/>
<rect y="178" width="4" height="4" rx="2" fill="#FFBAE6"/>
<rect y="129" width="4" height="4" rx="2" fill="#FFBAE6"/>
<rect y="16" width="4" height="4" rx="2" fill="#FFBAE6"/>
<rect y="244" width="4" height="4" rx="2" fill="#FFBAE6"/>
<rect y="292" width="4" height="4" rx="2" fill="#FFBAE6"/>
<rect y="194" width="4" height="4" rx="2" fill="#FFBAE6"/>
<rect y="145" width="4" height="4" rx="2" fill="#FFBAE6"/>
<rect y="32" width="4" height="4" rx="2" fill="#FFBAE6"/>
<rect y="260" width="4" height="4" rx="2" fill="#FFBAE6"/>
<rect y="308" width="4" height="4" rx="2" fill="#FFBAE6"/>
<rect y="161" width="4" height="4" rx="2" fill="#FFBAE6"/>
<rect y="48" width="4" height="4" rx="2" fill="#FFBAE6"/>
<rect y="64" width="4" height="4" rx="2" fill="#FFBAE6"/>
<rect y="80" width="4" height="4" rx="2" fill="#FFBAE6"/>
<rect y="96" width="4" height="4" rx="2" fill="#FFBAE6"/>
<rect y="112" width="4" height="4" rx="2" fill="#FFBAE6"/>
<rect x="16" width="4" height="4" rx="2" fill="#FFBAE6"/>
<rect x="16" y="228" width="4" height="4" rx="2" fill="#FFBAE6"/>
<rect x="16" y="276" width="4" height="4" rx="2" fill="#FFBAE6"/>
<rect x="16" y="211" width="4" height="4" rx="2" fill="#FFBAE6"/>
<rect x="16" y="178" width="4" height="4" rx="2" fill="#FFBAE6"/>
<rect x="16" y="129" width="4" height="4" rx="2" fill="#FFBAE6"/>
<rect x="16" y="16" width="4" height="4" rx="2" fill="#FFBAE6"/>
<rect x="16" y="244" width="4" height="4" rx="2" fill="#FFBAE6"/>
<rect x="16" y="292" width="4" height="4" rx="2" fill="#FFBAE6"/>
<rect x="16" y="194" width="4" height="4" rx="2" fill="#FFBAE6"/>
<rect x="16" y="145" width="4" height="4" rx="2" fill="#FFBAE6"/>
<rect x="16" y="32" width="4" height="4" rx="2" fill="#FFBAE6"/>
<rect x="16" y="260" width="4" height="4" rx="2" fill="#FFBAE6"/>
<rect x="16" y="308" width="4" height="4" rx="2" fill="#FFBAE6"/>
<rect x="16" y="161" width="4" height="4" rx="2" fill="#FFBAE6"/>
<rect x="16" y="48" width="4" height="4" rx="2" fill="#FFBAE6"/>
<rect x="16" y="64" width="4" height="4" rx="2" fill="#FFBAE6"/>
<rect x="16" y="80" width="4" height="4" rx="2" fill="#FFBAE6"/>
<rect x="16" y="96" width="4" height="4" rx="2" fill="#FFBAE6"/>
<rect x="16" y="112" width="4" height="4" rx="2" fill="#FFBAE6"/>
<rect x="32" width="4" height="4" rx="2" fill="#FFBAE6"/>
<rect x="32" y="228" width="4" height="4" rx="2" fill="#FFBAE6"/>
<rect x="32" y="276" width="4" height="4" rx="2" fill="#FFBAE6"/>
<rect x="32" y="211" width="4" height="4" rx="2" fill="#FFBAE6"/>
<rect x="32" y="178" width="4" height="4" rx="2" fill="#FFBAE6"/>
<rect x="32" y="129" width="4" height="4" rx="2" fill="#FFBAE6"/>
<rect x="32" y="16" width="4" height="4" rx="2" fill="#FFBAE6"/>
<rect x="32" y="244" width="4" height="4" rx="2" fill="#FFBAE6"/>
<rect x="32" y="292" width="4" height="4" rx="2" fill="#FFBAE6"/>
<rect x="32" y="194" width="4" height="4" rx="2" fill="#FFBAE6"/>
<rect x="32" y="145" width="4" height="4" rx="2" fill="#FFBAE6"/>
<rect x="32" y="32" width="4" height="4" rx="2" fill="#FFBAE6"/>
<rect x="32" y="260" width="4" height="4" rx="2" fill="#FFBAE6"/>
<rect x="32" y="308" width="4" height="4" rx="2" fill="#FFBAE6"/>
<rect x="32" y="161" width="4" height="4" rx="2" fill="#FFBAE6"/>
<rect x="32" y="48" width="4" height="4" rx="2" fill="#FFBAE6"/>
<rect x="32" y="64" width="4" height="4" rx="2" fill="#FFBAE6"/>
<rect x="32" y="80" width="4" height="4" rx="2" fill="#FFBAE6"/>
<rect x="32" y="96" width="4" height="4" rx="2" fill="#FFBAE6"/>
<rect x="32" y="112" width="4" height="4" rx="2" fill="#FFBAE6"/>
<rect x="48" width="4" height="4" rx="2" fill="#FFBAE6"/>
<rect x="48" y="228" width="4" height="4" rx="2" fill="#FFBAE6"/>
<rect x="48" y="276" width="4" height="4" rx="2" fill="#FFBAE6"/>
<rect x="48" y="211" width="4" height="4" rx="2" fill="#FFBAE6"/>
<rect x="48" y="178" width="4" height="4" rx="2" fill="#FFBAE6"/>
<rect x="48" y="129" width="4" height="4" rx="2" fill="#FFBAE6"/>
<rect x="48" y="16" width="4" height="4" rx="2" fill="#FFBAE6"/>
<rect x="48" y="244" width="4" height="4" rx="2" fill="#FFBAE6"/>
<rect x="48" y="292" width="4" height="4" rx="2" fill="#FFBAE6"/>
<rect x="48" y="194" width="4" height="4" rx="2" fill="#FFBAE6"/>
<rect x="48" y="145" width="4" height="4" rx="2" fill="#FFBAE6"/>
<rect x="48" y="32" width="4" height="4" rx="2" fill="#FFBAE6"/>
<rect x="48" y="260" width="4" height="4" rx="2" fill="#FFBAE6"/>
<rect x="48" y="308" width="4" height="4" rx="2" fill="#FFBAE6"/>
<rect x="48" y="161" width="4" height="4" rx="2" fill="#FFBAE6"/>
<rect x="48" y="48" width="4" height="4" rx="2" fill="#FFBAE6"/>
<rect x="48" y="64" width="4" height="4" rx="2" fill="#FFBAE6"/>
<rect x="48" y="80" width="4" height="4" rx="2" fill="#FFBAE6"/>
<rect x="48" y="96" width="4" height="4" rx="2" fill="#FFBAE6"/>
<rect x="48" y="112" width="4" height="4" rx="2" fill="#FFBAE6"/>
<rect x="64" width="4" height="4" rx="2" fill="#FFBAE6"/>
<rect x="64" y="228" width="4" height="4" rx="2" fill="#FFBAE6"/>
<rect x="64" y="276" width="4" height="4" rx="2" fill="#FFBAE6"/>
<rect x="64" y="211" width="4" height="4" rx="2" fill="#FFBAE6"/>
<rect x="64" y="178" width="4" height="4" rx="2" fill="#FFBAE6"/>
<rect x="64" y="129" width="4" height="4" rx="2" fill="#FFBAE6"/>
<rect x="64" y="16" width="4" height="4" rx="2" fill="#FFBAE6"/>
<rect x="64" y="244" width="4" height="4" rx="2" fill="#FFBAE6"/>
<rect x="64" y="292" width="4" height="4" rx="2" fill="#FFBAE6"/>
<rect x="64" y="194" width="4" height="4" rx="2" fill="#FFBAE6"/>
<rect x="64" y="145" width="4" height="4" rx="2" fill="#FFBAE6"/>
<rect x="64" y="32" width="4" height="4" rx="2" fill="#FFBAE6"/>
<rect x="64" y="260" width="4" height="4" rx="2" fill="#FFBAE6"/>
<rect x="64" y="308" width="4" height="4" rx="2" fill="#FFBAE6"/>
<rect x="64" y="161" width="4" height="4" rx="2" fill="#FFBAE6"/>
<rect x="64" y="48" width="4" height="4" rx="2" fill="#FFBAE6"/>
<rect x="64" y="64" width="4" height="4" rx="2" fill="#FFBAE6"/>
<rect x="64" y="80" width="4" height="4" rx="2" fill="#FFBAE6"/>
<rect x="64" y="96" width="4" height="4" rx="2" fill="#FFBAE6"/>
<rect x="64" y="112" width="4" height="4" rx="2" fill="#FFBAE6"/>
<rect x="80" width="4" height="4" rx="2" fill="#FFBAE6"/>
<rect x="80" y="228" width="4" height="4" rx="2" fill="#FFBAE6"/>
<rect x="80" y="276" width="4" height="4" rx="2" fill="#FFBAE6"/>
<rect x="80" y="211" width="4" height="4" rx="2" fill="#FFBAE6"/>
<rect x="80" y="178" width="4" height="4" rx="2" fill="#FFBAE6"/>
<rect x="80" y="129" width="4" height="4" rx="2" fill="#FFBAE6"/>
<rect x="96" width="4" height="4" rx="2" fill="#FFBAE6"/>
<rect x="96" y="228" width="4" height="4" rx="2" fill="#FFBAE6"/>
<rect x="96" y="276" width="4" height="4" rx="2" fill="#FFBAE6"/>
<rect x="96" y="211" width="4" height="4" rx="2" fill="#FFBAE6"/>
<rect x="96" y="178" width="4" height="4" rx="2" fill="#FFBAE6"/>
<rect x="96" y="129" width="4" height="4" rx="2" fill="#FFBAE6"/>
<rect x="112" width="4" height="4" rx="2" fill="#FFBAE6"/>
<rect x="112" y="228" width="4" height="4" rx="2" fill="#FFBAE6"/>
<rect x="112" y="276" width="4" height="4" rx="2" fill="#FFBAE6"/>
<rect x="112" y="211" width="4" height="4" rx="2" fill="#FFBAE6"/>
<rect x="112" y="178" width="4" height="4" rx="2" fill="#FFBAE6"/>
<rect x="112" y="129" width="4" height="4" rx="2" fill="#FFBAE6"/>
<rect x="80" y="16" width="4" height="4" rx="2" fill="#FFBAE6"/>
<rect x="80" y="244" width="4" height="4" rx="2" fill="#FFBAE6"/>
<rect x="80" y="292" width="4" height="4" rx="2" fill="#FFBAE6"/>
<rect x="80" y="194" width="4" height="4" rx="2" fill="#FFBAE6"/>
<rect x="80" y="145" width="4" height="4" rx="2" fill="#FFBAE6"/>
<rect x="96" y="16" width="4" height="4" rx="2" fill="#FFBAE6"/>
<rect x="96" y="244" width="4" height="4" rx="2" fill="#FFBAE6"/>
<rect x="96" y="292" width="4" height="4" rx="2" fill="#FFBAE6"/>
<rect x="96" y="194" width="4" height="4" rx="2" fill="#FFBAE6"/>
<rect x="96" y="145" width="4" height="4" rx="2" fill="#FFBAE6"/>
<rect x="112" y="16" width="4" height="4" rx="2" fill="#FFBAE6"/>
<rect x="112" y="244" width="4" height="4" rx="2" fill="#FFBAE6"/>
<rect x="112" y="292" width="4" height="4" rx="2" fill="#FFBAE6"/>
<rect x="112" y="194" width="4" height="4" rx="2" fill="#FFBAE6"/>
<rect x="112" y="145" width="4" height="4" rx="2" fill="#FFBAE6"/>
<rect x="80" y="32" width="4" height="4" rx="2" fill="#FFBAE6"/>
<rect x="80" y="260" width="4" height="4" rx="2" fill="#FFBAE6"/>
<rect x="80" y="308" width="4" height="4" rx="2" fill="#FFBAE6"/>
<rect x="80" y="161" width="4" height="4" rx="2" fill="#FFBAE6"/>
<rect x="96" y="32" width="4" height="4" rx="2" fill="#FFBAE6"/>
<rect x="96" y="260" width="4" height="4" rx="2" fill="#FFBAE6"/>
<rect x="96" y="308" width="4" height="4" rx="2" fill="#FFBAE6"/>
<rect x="96" y="161" width="4" height="4" rx="2" fill="#FFBAE6"/>
<rect x="112" y="32" width="4" height="4" rx="2" fill="#FFBAE6"/>
<rect x="112" y="260" width="4" height="4" rx="2" fill="#FFBAE6"/>
<rect x="112" y="308" width="4" height="4" rx="2" fill="#FFBAE6"/>
<rect x="112" y="161" width="4" height="4" rx="2" fill="#FFBAE6"/>
<rect x="80" y="48" width="4" height="4" rx="2" fill="#FFBAE6"/>
<rect x="96" y="48" width="4" height="4" rx="2" fill="#FFBAE6"/>
<rect x="112" y="48" width="4" height="4" rx="2" fill="#FFBAE6"/>
<rect x="80" y="64" width="4" height="4" rx="2" fill="#FFBAE6"/>
<rect x="96" y="64" width="4" height="4" rx="2" fill="#FFBAE6"/>
<rect x="112" y="64" width="4" height="4" rx="2" fill="#FFBAE6"/>
<rect x="80" y="80" width="4" height="4" rx="2" fill="#FFBAE6"/>
<rect x="80" y="96" width="4" height="4" rx="2" fill="#FFBAE6"/>
<rect x="80" y="112" width="4" height="4" rx="2" fill="#FFBAE6"/>
<rect x="96" y="80" width="4" height="4" rx="2" fill="#FFBAE6"/>
<rect x="112" y="80" width="4" height="4" rx="2" fill="#FFBAE6"/>
<rect x="96" y="96" width="4" height="4" rx="2" fill="#FFBAE6"/>
<rect x="96" y="112" width="4" height="4" rx="2" fill="#FFBAE6"/>
<rect x="112" y="96" width="4" height="4" rx="2" fill="#FFBAE6"/>
<rect x="112" y="112" width="4" height="4" rx="2" fill="#FFBAE6"/>
<rect x="128" y="1" width="4" height="4" rx="2" fill="#FFBAE6"/>
<rect x="128" y="229" width="4" height="4" rx="2" fill="#FFBAE6"/>
<rect x="128" y="277" width="4" height="4" rx="2" fill="#FFBAE6"/>
<rect x="128" y="261" width="4" height="4" rx="2" fill="#FFBAE6"/>
<rect x="128" y="309" width="4" height="4" rx="2" fill="#FFBAE6"/>
<rect x="128" y="212" width="4" height="4" rx="2" fill="#FFBAE6"/>
<rect x="128" y="179" width="4" height="4" rx="2" fill="#FFBAE6"/>
<rect x="128" y="130" width="4" height="4" rx="2" fill="#FFBAE6"/>
<rect x="128" y="17" width="4" height="4" rx="2" fill="#FFBAE6"/>
<rect x="128" y="245" width="4" height="4" rx="2" fill="#FFBAE6"/>
<rect x="128" y="293" width="4" height="4" rx="2" fill="#FFBAE6"/>
<rect x="128" y="195" width="4" height="4" rx="2" fill="#FFBAE6"/>
<rect x="128" y="146" width="4" height="4" rx="2" fill="#FFBAE6"/>
<rect x="128" y="33" width="4" height="4" rx="2" fill="#FFBAE6"/>
<rect x="128" y="162" width="4" height="4" rx="2" fill="#FFBAE6"/>
<rect x="128" y="49" width="4" height="4" rx="2" fill="#FFBAE6"/>
<rect x="128" y="65" width="4" height="4" rx="2" fill="#FFBAE6"/>
<rect x="128" y="81" width="4" height="4" rx="2" fill="#FFBAE6"/>
<rect x="128" y="97" width="4" height="4" rx="2" fill="#FFBAE6"/>
<rect x="128" y="113" width="4" height="4" rx="2" fill="#FFBAE6"/>
<rect x="144" y="1" width="4" height="4" rx="2" fill="#FFBAE6"/>
<rect x="144" y="229" width="4" height="4" rx="2" fill="#FFBAE6"/>
<rect x="144" y="277" width="4" height="4" rx="2" fill="#FFBAE6"/>
<rect x="144" y="261" width="4" height="4" rx="2" fill="#FFBAE6"/>
<rect x="144" y="309" width="4" height="4" rx="2" fill="#FFBAE6"/>
<rect x="144" y="212" width="4" height="4" rx="2" fill="#FFBAE6"/>
<rect x="144" y="179" width="4" height="4" rx="2" fill="#FFBAE6"/>
<rect x="144" y="130" width="4" height="4" rx="2" fill="#FFBAE6"/>
<rect x="144" y="17" width="4" height="4" rx="2" fill="#FFBAE6"/>
<rect x="144" y="245" width="4" height="4" rx="2" fill="#FFBAE6"/>
<rect x="144" y="293" width="4" height="4" rx="2" fill="#FFBAE6"/>
<rect x="144" y="195" width="4" height="4" rx="2" fill="#FFBAE6"/>
<rect x="144" y="146" width="4" height="4" rx="2" fill="#FFBAE6"/>
<rect x="144" y="33" width="4" height="4" rx="2" fill="#FFBAE6"/>
<rect x="144" y="162" width="4" height="4" rx="2" fill="#FFBAE6"/>
<rect x="144" y="49" width="4" height="4" rx="2" fill="#FFBAE6"/>
<rect x="144" y="65" width="4" height="4" rx="2" fill="#FFBAE6"/>
<rect x="144" y="81" width="4" height="4" rx="2" fill="#FFBAE6"/>
<rect x="144" y="97" width="4" height="4" rx="2" fill="#FFBAE6"/>
<rect x="144" y="113" width="4" height="4" rx="2" fill="#FFBAE6"/>
<rect x="160" y="1" width="4" height="4" rx="2" fill="#FFBAE6"/>
<rect x="160" y="229" width="4" height="4" rx="2" fill="#FFBAE6"/>
<rect x="160" y="277" width="4" height="4" rx="2" fill="#FFBAE6"/>
<rect x="160" y="261" width="4" height="4" rx="2" fill="#FFBAE6"/>
<rect x="160" y="309" width="4" height="4" rx="2" fill="#FFBAE6"/>
<rect x="160" y="212" width="4" height="4" rx="2" fill="#FFBAE6"/>
<rect x="160" y="179" width="4" height="4" rx="2" fill="#FFBAE6"/>
<rect x="160" y="130" width="4" height="4" rx="2" fill="#FFBAE6"/>
<rect x="160" y="17" width="4" height="4" rx="2" fill="#FFBAE6"/>
<rect x="160" y="245" width="4" height="4" rx="2" fill="#FFBAE6"/>
<rect x="160" y="293" width="4" height="4" rx="2" fill="#FFBAE6"/>
<rect x="160" y="195" width="4" height="4" rx="2" fill="#FFBAE6"/>
<rect x="160" y="146" width="4" height="4" rx="2" fill="#FFBAE6"/>
<rect x="160" y="33" width="4" height="4" rx="2" fill="#FFBAE6"/>
<rect x="160" y="162" width="4" height="4" rx="2" fill="#FFBAE6"/>
<rect x="160" y="49" width="4" height="4" rx="2" fill="#FFBAE6"/>
<rect x="160" y="65" width="4" height="4" rx="2" fill="#FFBAE6"/>
<rect x="160" y="81" width="4" height="4" rx="2" fill="#FFBAE6"/>
<rect x="160" y="97" width="4" height="4" rx="2" fill="#FFBAE6"/>
<rect x="160" y="113" width="4" height="4" rx="2" fill="#FFBAE6"/>
<rect x="176" y="1" width="4" height="4" rx="2" fill="#FFBAE6"/>
<rect x="176" y="229" width="4" height="4" rx="2" fill="#FFBAE6"/>
<rect x="176" y="277" width="4" height="4" rx="2" fill="#FFBAE6"/>
<rect x="176" y="261" width="4" height="4" rx="2" fill="#FFBAE6"/>
<rect x="176" y="309" width="4" height="4" rx="2" fill="#FFBAE6"/>
<rect x="176" y="212" width="4" height="4" rx="2" fill="#FFBAE6"/>
<rect x="176" y="179" width="4" height="4" rx="2" fill="#FFBAE6"/>
<rect x="176" y="130" width="4" height="4" rx="2" fill="#FFBAE6"/>
<rect x="176" y="17" width="4" height="4" rx="2" fill="#FFBAE6"/>
<rect x="176" y="245" width="4" height="4" rx="2" fill="#FFBAE6"/>
<rect x="176" y="293" width="4" height="4" rx="2" fill="#FFBAE6"/>
<rect x="176" y="195" width="4" height="4" rx="2" fill="#FFBAE6"/>
<rect x="176" y="146" width="4" height="4" rx="2" fill="#FFBAE6"/>
<rect x="176" y="33" width="4" height="4" rx="2" fill="#FFBAE6"/>
<rect x="176" y="162" width="4" height="4" rx="2" fill="#FFBAE6"/>
<rect x="176" y="49" width="4" height="4" rx="2" fill="#FFBAE6"/>
<rect x="176" y="65" width="4" height="4" rx="2" fill="#FFBAE6"/>
<rect x="176" y="81" width="4" height="4" rx="2" fill="#FFBAE6"/>
<rect x="176" y="97" width="4" height="4" rx="2" fill="#FFBAE6"/>
<rect x="176" y="113" width="4" height="4" rx="2" fill="#FFBAE6"/>
<rect x="192" y="1" width="4" height="4" rx="2" fill="#FFBAE6"/>
<rect x="192" y="229" width="4" height="4" rx="2" fill="#FFBAE6"/>
<rect x="192" y="277" width="4" height="4" rx="2" fill="#FFBAE6"/>
<rect x="192" y="261" width="4" height="4" rx="2" fill="#FFBAE6"/>
<rect x="192" y="309" width="4" height="4" rx="2" fill="#FFBAE6"/>
<rect x="192" y="212" width="4" height="4" rx="2" fill="#FFBAE6"/>
<rect x="192" y="179" width="4" height="4" rx="2" fill="#FFBAE6"/>
<rect x="192" y="130" width="4" height="4" rx="2" fill="#FFBAE6"/>
<rect x="192" y="17" width="4" height="4" rx="2" fill="#FFBAE6"/>
<rect x="192" y="245" width="4" height="4" rx="2" fill="#FFBAE6"/>
<rect x="192" y="293" width="4" height="4" rx="2" fill="#FFBAE6"/>
<rect x="192" y="195" width="4" height="4" rx="2" fill="#FFBAE6"/>
<rect x="192" y="146" width="4" height="4" rx="2" fill="#FFBAE6"/>
<rect x="192" y="33" width="4" height="4" rx="2" fill="#FFBAE6"/>
<rect x="192" y="162" width="4" height="4" rx="2" fill="#FFBAE6"/>
<rect x="192" y="49" width="4" height="4" rx="2" fill="#FFBAE6"/>
<rect x="192" y="65" width="4" height="4" rx="2" fill="#FFBAE6"/>
<rect x="192" y="81" width="4" height="4" rx="2" fill="#FFBAE6"/>
<rect x="192" y="97" width="4" height="4" rx="2" fill="#FFBAE6"/>
<rect x="192" y="113" width="4" height="4" rx="2" fill="#FFBAE6"/>
<rect x="208" y="1" width="4" height="4" rx="2" fill="#FFBAE6"/>
<rect x="208" y="229" width="4" height="4" rx="2" fill="#FFBAE6"/>
<rect x="208" y="277" width="4" height="4" rx="2" fill="#FFBAE6"/>
<rect x="208" y="261" width="4" height="4" rx="2" fill="#FFBAE6"/>
<rect x="208" y="309" width="4" height="4" rx="2" fill="#FFBAE6"/>
<rect x="208" y="212" width="4" height="4" rx="2" fill="#FFBAE6"/>
<rect x="208" y="179" width="4" height="4" rx="2" fill="#FFBAE6"/>
<rect x="208" y="130" width="4" height="4" rx="2" fill="#FFBAE6"/>
<rect x="224" y="1" width="4" height="4" rx="2" fill="#FFBAE6"/>
<rect x="224" y="229" width="4" height="4" rx="2" fill="#FFBAE6"/>
<rect x="224" y="277" width="4" height="4" rx="2" fill="#FFBAE6"/>
<rect x="224" y="261" width="4" height="4" rx="2" fill="#FFBAE6"/>
<rect x="224" y="309" width="4" height="4" rx="2" fill="#FFBAE6"/>
<rect x="224" y="212" width="4" height="4" rx="2" fill="#FFBAE6"/>
<rect x="224" y="179" width="4" height="4" rx="2" fill="#FFBAE6"/>
<rect x="224" y="130" width="4" height="4" rx="2" fill="#FFBAE6"/>
<rect x="240" y="1" width="4" height="4" rx="2" fill="#FFBAE6"/>
<rect x="240" y="229" width="4" height="4" rx="2" fill="#FFBAE6"/>
<rect x="240" y="277" width="4" height="4" rx="2" fill="#FFBAE6"/>
<rect x="240" y="261" width="4" height="4" rx="2" fill="#FFBAE6"/>
<rect x="240" y="309" width="4" height="4" rx="2" fill="#FFBAE6"/>
<rect x="240" y="212" width="4" height="4" rx="2" fill="#FFBAE6"/>
<rect x="240" y="179" width="4" height="4" rx="2" fill="#FFBAE6"/>
<rect x="240" y="130" width="4" height="4" rx="2" fill="#FFBAE6"/>
<rect x="208" y="17" width="4" height="4" rx="2" fill="#FFBAE6"/>
<rect x="208" y="245" width="4" height="4" rx="2" fill="#FFBAE6"/>
<rect x="208" y="293" width="4" height="4" rx="2" fill="#FFBAE6"/>
<rect x="208" y="195" width="4" height="4" rx="2" fill="#FFBAE6"/>
<rect x="208" y="146" width="4" height="4" rx="2" fill="#FFBAE6"/>
<rect x="224" y="17" width="4" height="4" rx="2" fill="#FFBAE6"/>
<rect x="224" y="245" width="4" height="4" rx="2" fill="#FFBAE6"/>
<rect x="224" y="293" width="4" height="4" rx="2" fill="#FFBAE6"/>
<rect x="224" y="195" width="4" height="4" rx="2" fill="#FFBAE6"/>
<rect x="224" y="146" width="4" height="4" rx="2" fill="#FFBAE6"/>
<rect x="240" y="17" width="4" height="4" rx="2" fill="#FFBAE6"/>
<rect x="240" y="245" width="4" height="4" rx="2" fill="#FFBAE6"/>
<rect x="240" y="293" width="4" height="4" rx="2" fill="#FFBAE6"/>
<rect x="240" y="195" width="4" height="4" rx="2" fill="#FFBAE6"/>
<rect x="240" y="146" width="4" height="4" rx="2" fill="#FFBAE6"/>
<rect x="208" y="33" width="4" height="4" rx="2" fill="#FFBAE6"/>
<rect x="208" y="162" width="4" height="4" rx="2" fill="#FFBAE6"/>
<rect x="224" y="33" width="4" height="4" rx="2" fill="#FFBAE6"/>
<rect x="224" y="162" width="4" height="4" rx="2" fill="#FFBAE6"/>
<rect x="240" y="33" width="4" height="4" rx="2" fill="#FFBAE6"/>
<rect x="240" y="162" width="4" height="4" rx="2" fill="#FFBAE6"/>
<rect x="208" y="49" width="4" height="4" rx="2" fill="#FFBAE6"/>
<rect x="224" y="49" width="4" height="4" rx="2" fill="#FFBAE6"/>
<rect x="240" y="49" width="4" height="4" rx="2" fill="#FFBAE6"/>
<rect x="208" y="65" width="4" height="4" rx="2" fill="#FFBAE6"/>
<rect x="224" y="65" width="4" height="4" rx="2" fill="#FFBAE6"/>
<rect x="240" y="65" width="4" height="4" rx="2" fill="#FFBAE6"/>
<rect x="208" y="81" width="4" height="4" rx="2" fill="#FFBAE6"/>
<rect x="208" y="97" width="4" height="4" rx="2" fill="#FFBAE6"/>
<rect x="208" y="113" width="4" height="4" rx="2" fill="#FFBAE6"/>
<rect x="224" y="81" width="4" height="4" rx="2" fill="#FFBAE6"/>
<rect x="240" y="81" width="4" height="4" rx="2" fill="#FFBAE6"/>
<rect x="224" y="97" width="4" height="4" rx="2" fill="#FFBAE6"/>
<rect x="224" y="113" width="4" height="4" rx="2" fill="#FFBAE6"/>
<rect x="240" y="97" width="4" height="4" rx="2" fill="#FFBAE6"/>
<rect x="240" y="113" width="4" height="4" rx="2" fill="#FFBAE6"/>
</svg>
