<svg width="244" height="313" viewBox="0 0 244 313" fill="none" xmlns="http://www.w3.org/2000/svg">
<g clip-path="url(#clip0_4_2)">
<path d="M4 2C4 0.89543 3.10457 0 2 0C0.89543 0 0 0.89543 0 2C0 3.10457 0.89543 4 2 4C3.10457 4 4 3.10457 4 2Z" fill="#E94560" fill-opacity="0.6"/>
<path d="M4 230C4 228.895 3.10457 228 2 228C0.89543 228 0 228.895 0 230C0 231.105 0.89543 232 2 232C3.10457 232 4 231.105 4 230Z" fill="#E94560" fill-opacity="0.6"/>
<path d="M4 278C4 276.895 3.10457 276 2 276C0.89543 276 0 276.895 0 278C0 279.105 0.89543 280 2 280C3.10457 280 4 279.105 4 278Z" fill="#E94560" fill-opacity="0.6"/>
<path d="M4 213C4 211.895 3.10457 211 2 211C0.89543 211 0 211.895 0 213C0 214.105 0.89543 215 2 215C3.10457 215 4 214.105 4 213Z" fill="#E94560" fill-opacity="0.6"/>
<path d="M4 180C4 178.895 3.10457 178 2 178C0.89543 178 0 178.895 0 180C0 181.105 0.89543 182 2 182C3.10457 182 4 181.105 4 180Z" fill="#E94560" fill-opacity="0.6"/>
<path d="M4 131C4 129.895 3.10457 129 2 129C0.89543 129 0 129.895 0 131C0 132.105 0.89543 133 2 133C3.10457 133 4 132.105 4 131Z" fill="#E94560" fill-opacity="0.6"/>
<path d="M4 18C4 16.8954 3.10457 16 2 16C0.89543 16 0 16.8954 0 18C0 19.1046 0.89543 20 2 20C3.10457 20 4 19.1046 4 18Z" fill="#E94560" fill-opacity="0.6"/>
<path d="M4 246C4 244.895 3.10457 244 2 244C0.89543 244 0 244.895 0 246C0 247.105 0.89543 248 2 248C3.10457 248 4 247.105 4 246Z" fill="#E94560" fill-opacity="0.6"/>
<path d="M4 294C4 292.895 3.10457 292 2 292C0.89543 292 0 292.895 0 294C0 295.105 0.89543 296 2 296C3.10457 296 4 295.105 4 294Z" fill="#E94560" fill-opacity="0.6"/>
<path d="M4 196C4 194.895 3.10457 194 2 194C0.89543 194 0 194.895 0 196C0 197.105 0.89543 198 2 198C3.10457 198 4 197.105 4 196Z" fill="#E94560" fill-opacity="0.6"/>
<path d="M4 147C4 145.895 3.10457 145 2 145C0.89543 145 0 145.895 0 147C0 148.105 0.89543 149 2 149C3.10457 149 4 148.105 4 147Z" fill="#E94560" fill-opacity="0.6"/>
<path d="M4 34C4 32.8954 3.10457 32 2 32C0.89543 32 0 32.8954 0 34C0 35.1046 0.89543 36 2 36C3.10457 36 4 35.1046 4 34Z" fill="#E94560" fill-opacity="0.6"/>
<path d="M4 262C4 260.895 3.10457 260 2 260C0.89543 260 0 260.895 0 262C0 263.105 0.89543 264 2 264C3.10457 264 4 263.105 4 262Z" fill="#E94560" fill-opacity="0.6"/>
<path d="M4 310C4 308.895 3.10457 308 2 308C0.89543 308 0 308.895 0 310C0 311.105 0.89543 312 2 312C3.10457 312 4 311.105 4 310Z" fill="#E94560" fill-opacity="0.6"/>
<path d="M4 163C4 161.895 3.10457 161 2 161C0.89543 161 0 161.895 0 163C0 164.105 0.89543 165 2 165C3.10457 165 4 164.105 4 163Z" fill="#E94560" fill-opacity="0.6"/>
<path d="M4 50C4 48.8954 3.10457 48 2 48C0.89543 48 0 48.8954 0 50C0 51.1046 0.89543 52 2 52C3.10457 52 4 51.1046 4 50Z" fill="#E94560" fill-opacity="0.6"/>
<path d="M4 66C4 64.8954 3.10457 64 2 64C0.89543 64 0 64.8954 0 66C0 67.1046 0.89543 68 2 68C3.10457 68 4 67.1046 4 66Z" fill="#E94560" fill-opacity="0.6"/>
<path d="M4 82C4 80.8954 3.10457 80 2 80C0.89543 80 0 80.8954 0 82C0 83.1046 0.89543 84 2 84C3.10457 84 4 83.1046 4 82Z" fill="#E94560" fill-opacity="0.6"/>
<path d="M4 98C4 96.8954 3.10457 96 2 96C0.89543 96 0 96.8954 0 98C0 99.1046 0.89543 100 2 100C3.10457 100 4 99.1046 4 98Z" fill="#E94560" fill-opacity="0.6"/>
<path d="M4 114C4 112.895 3.10457 112 2 112C0.89543 112 0 112.895 0 114C0 115.105 0.89543 116 2 116C3.10457 116 4 115.105 4 114Z" fill="#E94560" fill-opacity="0.6"/>
<path d="M20 2C20 0.89543 19.1046 0 18 0C16.8954 0 16 0.89543 16 2C16 3.10457 16.8954 4 18 4C19.1046 4 20 3.10457 20 2Z" fill="#E94560" fill-opacity="0.6"/>
<path d="M20 230C20 228.895 19.1046 228 18 228C16.8954 228 16 228.895 16 230C16 231.105 16.8954 232 18 232C19.1046 232 20 231.105 20 230Z" fill="#E94560" fill-opacity="0.6"/>
<path d="M20 278C20 276.895 19.1046 276 18 276C16.8954 276 16 276.895 16 278C16 279.105 16.8954 280 18 280C19.1046 280 20 279.105 20 278Z" fill="#E94560" fill-opacity="0.6"/>
<path d="M20 213C20 211.895 19.1046 211 18 211C16.8954 211 16 211.895 16 213C16 214.105 16.8954 215 18 215C19.1046 215 20 214.105 20 213Z" fill="#E94560" fill-opacity="0.6"/>
<path d="M20 180C20 178.895 19.1046 178 18 178C16.8954 178 16 178.895 16 180C16 181.105 16.8954 182 18 182C19.1046 182 20 181.105 20 180Z" fill="#E94560" fill-opacity="0.6"/>
<path d="M20 131C20 129.895 19.1046 129 18 129C16.8954 129 16 129.895 16 131C16 132.105 16.8954 133 18 133C19.1046 133 20 132.105 20 131Z" fill="#E94560" fill-opacity="0.6"/>
<path d="M20 18C20 16.8954 19.1046 16 18 16C16.8954 16 16 16.8954 16 18C16 19.1046 16.8954 20 18 20C19.1046 20 20 19.1046 20 18Z" fill="#E94560" fill-opacity="0.6"/>
<path d="M20 246C20 244.895 19.1046 244 18 244C16.8954 244 16 244.895 16 246C16 247.105 16.8954 248 18 248C19.1046 248 20 247.105 20 246Z" fill="#E94560" fill-opacity="0.6"/>
<path d="M20 294C20 292.895 19.1046 292 18 292C16.8954 292 16 292.895 16 294C16 295.105 16.8954 296 18 296C19.1046 296 20 295.105 20 294Z" fill="#E94560" fill-opacity="0.6"/>
<path d="M20 196C20 194.895 19.1046 194 18 194C16.8954 194 16 194.895 16 196C16 197.105 16.8954 198 18 198C19.1046 198 20 197.105 20 196Z" fill="#E94560" fill-opacity="0.6"/>
<path d="M20 147C20 145.895 19.1046 145 18 145C16.8954 145 16 145.895 16 147C16 148.105 16.8954 149 18 149C19.1046 149 20 148.105 20 147Z" fill="#E94560" fill-opacity="0.6"/>
<path d="M20 34C20 32.8954 19.1046 32 18 32C16.8954 32 16 32.8954 16 34C16 35.1046 16.8954 36 18 36C19.1046 36 20 35.1046 20 34Z" fill="#E94560" fill-opacity="0.6"/>
<path d="M20 262C20 260.895 19.1046 260 18 260C16.8954 260 16 260.895 16 262C16 263.105 16.8954 264 18 264C19.1046 264 20 263.105 20 262Z" fill="#E94560" fill-opacity="0.6"/>
<path d="M20 310C20 308.895 19.1046 308 18 308C16.8954 308 16 308.895 16 310C16 311.105 16.8954 312 18 312C19.1046 312 20 311.105 20 310Z" fill="#E94560" fill-opacity="0.6"/>
<path d="M20 163C20 161.895 19.1046 161 18 161C16.8954 161 16 161.895 16 163C16 164.105 16.8954 165 18 165C19.1046 165 20 164.105 20 163Z" fill="#E94560" fill-opacity="0.6"/>
<path d="M20 50C20 48.8954 19.1046 48 18 48C16.8954 48 16 48.8954 16 50C16 51.1046 16.8954 52 18 52C19.1046 52 20 51.1046 20 50Z" fill="#E94560" fill-opacity="0.6"/>
<path d="M20 66C20 64.8954 19.1046 64 18 64C16.8954 64 16 64.8954 16 66C16 67.1046 16.8954 68 18 68C19.1046 68 20 67.1046 20 66Z" fill="#E94560" fill-opacity="0.6"/>
<path d="M20 82C20 80.8954 19.1046 80 18 80C16.8954 80 16 80.8954 16 82C16 83.1046 16.8954 84 18 84C19.1046 84 20 83.1046 20 82Z" fill="#E94560" fill-opacity="0.6"/>
<path d="M20 98C20 96.8954 19.1046 96 18 96C16.8954 96 16 96.8954 16 98C16 99.1046 16.8954 100 18 100C19.1046 100 20 99.1046 20 98Z" fill="#E94560" fill-opacity="0.6"/>
<path d="M20 114C20 112.895 19.1046 112 18 112C16.8954 112 16 112.895 16 114C16 115.105 16.8954 116 18 116C19.1046 116 20 115.105 20 114Z" fill="#E94560" fill-opacity="0.6"/>
<path d="M36 2C36 0.89543 35.1046 0 34 0C32.8954 0 32 0.89543 32 2C32 3.10457 32.8954 4 34 4C35.1046 4 36 3.10457 36 2Z" fill="#E94560" fill-opacity="0.6"/>
<path d="M36 230C36 228.895 35.1046 228 34 228C32.8954 228 32 228.895 32 230C32 231.105 32.8954 232 34 232C35.1046 232 36 231.105 36 230Z" fill="#E94560" fill-opacity="0.6"/>
<path d="M36 278C36 276.895 35.1046 276 34 276C32.8954 276 32 276.895 32 278C32 279.105 32.8954 280 34 280C35.1046 280 36 279.105 36 278Z" fill="#E94560" fill-opacity="0.6"/>
<path d="M36 213C36 211.895 35.1046 211 34 211C32.8954 211 32 211.895 32 213C32 214.105 32.8954 215 34 215C35.1046 215 36 214.105 36 213Z" fill="#E94560" fill-opacity="0.6"/>
<path d="M36 180C36 178.895 35.1046 178 34 178C32.8954 178 32 178.895 32 180C32 181.105 32.8954 182 34 182C35.1046 182 36 181.105 36 180Z" fill="#E94560" fill-opacity="0.6"/>
<path d="M36 131C36 129.895 35.1046 129 34 129C32.8954 129 32 129.895 32 131C32 132.105 32.8954 133 34 133C35.1046 133 36 132.105 36 131Z" fill="#E94560" fill-opacity="0.6"/>
<path d="M36 18C36 16.8954 35.1046 16 34 16C32.8954 16 32 16.8954 32 18C32 19.1046 32.8954 20 34 20C35.1046 20 36 19.1046 36 18Z" fill="#E94560" fill-opacity="0.6"/>
<path d="M36 246C36 244.895 35.1046 244 34 244C32.8954 244 32 244.895 32 246C32 247.105 32.8954 248 34 248C35.1046 248 36 247.105 36 246Z" fill="#E94560" fill-opacity="0.6"/>
<path d="M36 294C36 292.895 35.1046 292 34 292C32.8954 292 32 292.895 32 294C32 295.105 32.8954 296 34 296C35.1046 296 36 295.105 36 294Z" fill="#E94560" fill-opacity="0.6"/>
<path d="M36 196C36 194.895 35.1046 194 34 194C32.8954 194 32 194.895 32 196C32 197.105 32.8954 198 34 198C35.1046 198 36 197.105 36 196Z" fill="#E94560" fill-opacity="0.6"/>
<path d="M36 147C36 145.895 35.1046 145 34 145C32.8954 145 32 145.895 32 147C32 148.105 32.8954 149 34 149C35.1046 149 36 148.105 36 147Z" fill="#E94560" fill-opacity="0.6"/>
<path d="M36 34C36 32.8954 35.1046 32 34 32C32.8954 32 32 32.8954 32 34C32 35.1046 32.8954 36 34 36C35.1046 36 36 35.1046 36 34Z" fill="#E94560" fill-opacity="0.6"/>
<path d="M36 262C36 260.895 35.1046 260 34 260C32.8954 260 32 260.895 32 262C32 263.105 32.8954 264 34 264C35.1046 264 36 263.105 36 262Z" fill="#E94560" fill-opacity="0.6"/>
<path d="M36 310C36 308.895 35.1046 308 34 308C32.8954 308 32 308.895 32 310C32 311.105 32.8954 312 34 312C35.1046 312 36 311.105 36 310Z" fill="#E94560" fill-opacity="0.6"/>
<path d="M36 163C36 161.895 35.1046 161 34 161C32.8954 161 32 161.895 32 163C32 164.105 32.8954 165 34 165C35.1046 165 36 164.105 36 163Z" fill="#E94560" fill-opacity="0.6"/>
<path d="M36 50C36 48.8954 35.1046 48 34 48C32.8954 48 32 48.8954 32 50C32 51.1046 32.8954 52 34 52C35.1046 52 36 51.1046 36 50Z" fill="#E94560" fill-opacity="0.6"/>
<path d="M36 66C36 64.8954 35.1046 64 34 64C32.8954 64 32 64.8954 32 66C32 67.1046 32.8954 68 34 68C35.1046 68 36 67.1046 36 66Z" fill="#E94560" fill-opacity="0.6"/>
<path d="M36 82C36 80.8954 35.1046 80 34 80C32.8954 80 32 80.8954 32 82C32 83.1046 32.8954 84 34 84C35.1046 84 36 83.1046 36 82Z" fill="#E94560" fill-opacity="0.6"/>
<path d="M36 98C36 96.8954 35.1046 96 34 96C32.8954 96 32 96.8954 32 98C32 99.1046 32.8954 100 34 100C35.1046 100 36 99.1046 36 98Z" fill="#E94560" fill-opacity="0.6"/>
<path d="M36 114C36 112.895 35.1046 112 34 112C32.8954 112 32 112.895 32 114C32 115.105 32.8954 116 34 116C35.1046 116 36 115.105 36 114Z" fill="#E94560" fill-opacity="0.6"/>
<path d="M52 2C52 0.89543 51.1046 0 50 0C48.8954 0 48 0.89543 48 2C48 3.10457 48.8954 4 50 4C51.1046 4 52 3.10457 52 2Z" fill="#E94560" fill-opacity="0.6"/>
<path d="M52 230C52 228.895 51.1046 228 50 228C48.8954 228 48 228.895 48 230C48 231.105 48.8954 232 50 232C51.1046 232 52 231.105 52 230Z" fill="#E94560" fill-opacity="0.6"/>
<path d="M52 278C52 276.895 51.1046 276 50 276C48.8954 276 48 276.895 48 278C48 279.105 48.8954 280 50 280C51.1046 280 52 279.105 52 278Z" fill="#E94560" fill-opacity="0.6"/>
<path d="M52 213C52 211.895 51.1046 211 50 211C48.8954 211 48 211.895 48 213C48 214.105 48.8954 215 50 215C51.1046 215 52 214.105 52 213Z" fill="#E94560" fill-opacity="0.6"/>
<path d="M52 180C52 178.895 51.1046 178 50 178C48.8954 178 48 178.895 48 180C48 181.105 48.8954 182 50 182C51.1046 182 52 181.105 52 180Z" fill="#E94560" fill-opacity="0.6"/>
<path d="M52 131C52 129.895 51.1046 129 50 129C48.8954 129 48 129.895 48 131C48 132.105 48.8954 133 50 133C51.1046 133 52 132.105 52 131Z" fill="#E94560" fill-opacity="0.6"/>
<path d="M52 18C52 16.8954 51.1046 16 50 16C48.8954 16 48 16.8954 48 18C48 19.1046 48.8954 20 50 20C51.1046 20 52 19.1046 52 18Z" fill="#E94560" fill-opacity="0.6"/>
<path d="M52 246C52 244.895 51.1046 244 50 244C48.8954 244 48 244.895 48 246C48 247.105 48.8954 248 50 248C51.1046 248 52 247.105 52 246Z" fill="#E94560" fill-opacity="0.6"/>
<path d="M52 294C52 292.895 51.1046 292 50 292C48.8954 292 48 292.895 48 294C48 295.105 48.8954 296 50 296C51.1046 296 52 295.105 52 294Z" fill="#E94560" fill-opacity="0.6"/>
<path d="M52 196C52 194.895 51.1046 194 50 194C48.8954 194 48 194.895 48 196C48 197.105 48.8954 198 50 198C51.1046 198 52 197.105 52 196Z" fill="#E94560" fill-opacity="0.6"/>
<path d="M52 147C52 145.895 51.1046 145 50 145C48.8954 145 48 145.895 48 147C48 148.105 48.8954 149 50 149C51.1046 149 52 148.105 52 147Z" fill="#E94560" fill-opacity="0.6"/>
<path d="M52 34C52 32.8954 51.1046 32 50 32C48.8954 32 48 32.8954 48 34C48 35.1046 48.8954 36 50 36C51.1046 36 52 35.1046 52 34Z" fill="#E94560" fill-opacity="0.6"/>
<path d="M52 262C52 260.895 51.1046 260 50 260C48.8954 260 48 260.895 48 262C48 263.105 48.8954 264 50 264C51.1046 264 52 263.105 52 262Z" fill="#E94560" fill-opacity="0.6"/>
<path d="M52 310C52 308.895 51.1046 308 50 308C48.8954 308 48 308.895 48 310C48 311.105 48.8954 312 50 312C51.1046 312 52 311.105 52 310Z" fill="#E94560" fill-opacity="0.6"/>
<path d="M52 163C52 161.895 51.1046 161 50 161C48.8954 161 48 161.895 48 163C48 164.105 48.8954 165 50 165C51.1046 165 52 164.105 52 163Z" fill="#E94560" fill-opacity="0.6"/>
<path d="M52 50C52 48.8954 51.1046 48 50 48C48.8954 48 48 48.8954 48 50C48 51.1046 48.8954 52 50 52C51.1046 52 52 51.1046 52 50Z" fill="#E94560" fill-opacity="0.6"/>
<path d="M52 66C52 64.8954 51.1046 64 50 64C48.8954 64 48 64.8954 48 66C48 67.1046 48.8954 68 50 68C51.1046 68 52 67.1046 52 66Z" fill="#E94560" fill-opacity="0.6"/>
<path d="M52 82C52 80.8954 51.1046 80 50 80C48.8954 80 48 80.8954 48 82C48 83.1046 48.8954 84 50 84C51.1046 84 52 83.1046 52 82Z" fill="#E94560" fill-opacity="0.6"/>
<path d="M52 98C52 96.8954 51.1046 96 50 96C48.8954 96 48 96.8954 48 98C48 99.1046 48.8954 100 50 100C51.1046 100 52 99.1046 52 98Z" fill="#E94560" fill-opacity="0.6"/>
<path d="M52 114C52 112.895 51.1046 112 50 112C48.8954 112 48 112.895 48 114C48 115.105 48.8954 116 50 116C51.1046 116 52 115.105 52 114Z" fill="#E94560" fill-opacity="0.6"/>
<path d="M68 2C68 0.89543 67.1046 0 66 0C64.8954 0 64 0.89543 64 2C64 3.10457 64.8954 4 66 4C67.1046 4 68 3.10457 68 2Z" fill="#E94560" fill-opacity="0.6"/>
<path d="M68 230C68 228.895 67.1046 228 66 228C64.8954 228 64 228.895 64 230C64 231.105 64.8954 232 66 232C67.1046 232 68 231.105 68 230Z" fill="#E94560" fill-opacity="0.6"/>
<path d="M68 278C68 276.895 67.1046 276 66 276C64.8954 276 64 276.895 64 278C64 279.105 64.8954 280 66 280C67.1046 280 68 279.105 68 278Z" fill="#E94560" fill-opacity="0.6"/>
<path d="M68 213C68 211.895 67.1046 211 66 211C64.8954 211 64 211.895 64 213C64 214.105 64.8954 215 66 215C67.1046 215 68 214.105 68 213Z" fill="#E94560" fill-opacity="0.6"/>
<path d="M68 180C68 178.895 67.1046 178 66 178C64.8954 178 64 178.895 64 180C64 181.105 64.8954 182 66 182C67.1046 182 68 181.105 68 180Z" fill="#E94560" fill-opacity="0.6"/>
<path d="M68 131C68 129.895 67.1046 129 66 129C64.8954 129 64 129.895 64 131C64 132.105 64.8954 133 66 133C67.1046 133 68 132.105 68 131Z" fill="#E94560" fill-opacity="0.6"/>
<path d="M68 18C68 16.8954 67.1046 16 66 16C64.8954 16 64 16.8954 64 18C64 19.1046 64.8954 20 66 20C67.1046 20 68 19.1046 68 18Z" fill="#E94560" fill-opacity="0.6"/>
<path d="M68 246C68 244.895 67.1046 244 66 244C64.8954 244 64 244.895 64 246C64 247.105 64.8954 248 66 248C67.1046 248 68 247.105 68 246Z" fill="#E94560" fill-opacity="0.6"/>
<path d="M68 294C68 292.895 67.1046 292 66 292C64.8954 292 64 292.895 64 294C64 295.105 64.8954 296 66 296C67.1046 296 68 295.105 68 294Z" fill="#E94560" fill-opacity="0.6"/>
<path d="M68 196C68 194.895 67.1046 194 66 194C64.8954 194 64 194.895 64 196C64 197.105 64.8954 198 66 198C67.1046 198 68 197.105 68 196Z" fill="#E94560" fill-opacity="0.6"/>
<path d="M68 147C68 145.895 67.1046 145 66 145C64.8954 145 64 145.895 64 147C64 148.105 64.8954 149 66 149C67.1046 149 68 148.105 68 147Z" fill="#E94560" fill-opacity="0.6"/>
<path d="M68 34C68 32.8954 67.1046 32 66 32C64.8954 32 64 32.8954 64 34C64 35.1046 64.8954 36 66 36C67.1046 36 68 35.1046 68 34Z" fill="#E94560" fill-opacity="0.6"/>
<path d="M68 262C68 260.895 67.1046 260 66 260C64.8954 260 64 260.895 64 262C64 263.105 64.8954 264 66 264C67.1046 264 68 263.105 68 262Z" fill="#E94560" fill-opacity="0.6"/>
<path d="M68 310C68 308.895 67.1046 308 66 308C64.8954 308 64 308.895 64 310C64 311.105 64.8954 312 66 312C67.1046 312 68 311.105 68 310Z" fill="#E94560" fill-opacity="0.6"/>
<path d="M68 163C68 161.895 67.1046 161 66 161C64.8954 161 64 161.895 64 163C64 164.105 64.8954 165 66 165C67.1046 165 68 164.105 68 163Z" fill="#E94560" fill-opacity="0.6"/>
<path d="M68 50C68 48.8954 67.1046 48 66 48C64.8954 48 64 48.8954 64 50C64 51.1046 64.8954 52 66 52C67.1046 52 68 51.1046 68 50Z" fill="#E94560" fill-opacity="0.6"/>
<path d="M68 66C68 64.8954 67.1046 64 66 64C64.8954 64 64 64.8954 64 66C64 67.1046 64.8954 68 66 68C67.1046 68 68 67.1046 68 66Z" fill="#E94560" fill-opacity="0.6"/>
<path d="M68 82C68 80.8954 67.1046 80 66 80C64.8954 80 64 80.8954 64 82C64 83.1046 64.8954 84 66 84C67.1046 84 68 83.1046 68 82Z" fill="#E94560" fill-opacity="0.6"/>
<path d="M68 98C68 96.8954 67.1046 96 66 96C64.8954 96 64 96.8954 64 98C64 99.1046 64.8954 100 66 100C67.1046 100 68 99.1046 68 98Z" fill="#E94560" fill-opacity="0.6"/>
<path d="M68 114C68 112.895 67.1046 112 66 112C64.8954 112 64 112.895 64 114C64 115.105 64.8954 116 66 116C67.1046 116 68 115.105 68 114Z" fill="#E94560" fill-opacity="0.6"/>
<path d="M84 2C84 0.89543 83.1046 0 82 0C80.8954 0 80 0.89543 80 2C80 3.10457 80.8954 4 82 4C83.1046 4 84 3.10457 84 2Z" fill="#E94560" fill-opacity="0.6"/>
<path d="M84 230C84 228.895 83.1046 228 82 228C80.8954 228 80 228.895 80 230C80 231.105 80.8954 232 82 232C83.1046 232 84 231.105 84 230Z" fill="#E94560" fill-opacity="0.6"/>
<path d="M84 278C84 276.895 83.1046 276 82 276C80.8954 276 80 276.895 80 278C80 279.105 80.8954 280 82 280C83.1046 280 84 279.105 84 278Z" fill="#E94560" fill-opacity="0.6"/>
<path d="M84 213C84 211.895 83.1046 211 82 211C80.8954 211 80 211.895 80 213C80 214.105 80.8954 215 82 215C83.1046 215 84 214.105 84 213Z" fill="#E94560" fill-opacity="0.6"/>
<path d="M84 180C84 178.895 83.1046 178 82 178C80.8954 178 80 178.895 80 180C80 181.105 80.8954 182 82 182C83.1046 182 84 181.105 84 180Z" fill="#E94560" fill-opacity="0.6"/>
<path d="M84 131C84 129.895 83.1046 129 82 129C80.8954 129 80 129.895 80 131C80 132.105 80.8954 133 82 133C83.1046 133 84 132.105 84 131Z" fill="#E94560" fill-opacity="0.6"/>
<path d="M100 2C100 0.89543 99.1046 0 98 0C96.8954 0 96 0.89543 96 2C96 3.10457 96.8954 4 98 4C99.1046 4 100 3.10457 100 2Z" fill="#E94560" fill-opacity="0.6"/>
<path d="M100 230C100 228.895 99.1046 228 98 228C96.8954 228 96 228.895 96 230C96 231.105 96.8954 232 98 232C99.1046 232 100 231.105 100 230Z" fill="#E94560" fill-opacity="0.6"/>
<path d="M100 278C100 276.895 99.1046 276 98 276C96.8954 276 96 276.895 96 278C96 279.105 96.8954 280 98 280C99.1046 280 100 279.105 100 278Z" fill="#E94560" fill-opacity="0.6"/>
<path d="M100 213C100 211.895 99.1046 211 98 211C96.8954 211 96 211.895 96 213C96 214.105 96.8954 215 98 215C99.1046 215 100 214.105 100 213Z" fill="#E94560" fill-opacity="0.6"/>
<path d="M100 180C100 178.895 99.1046 178 98 178C96.8954 178 96 178.895 96 180C96 181.105 96.8954 182 98 182C99.1046 182 100 181.105 100 180Z" fill="#E94560" fill-opacity="0.6"/>
<path d="M100 131C100 129.895 99.1046 129 98 129C96.8954 129 96 129.895 96 131C96 132.105 96.8954 133 98 133C99.1046 133 100 132.105 100 131Z" fill="#E94560" fill-opacity="0.6"/>
<path d="M116 2C116 0.89543 115.105 0 114 0C112.895 0 112 0.89543 112 2C112 3.10457 112.895 4 114 4C115.105 4 116 3.10457 116 2Z" fill="#E94560" fill-opacity="0.6"/>
<path d="M116 230C116 228.895 115.105 228 114 228C112.895 228 112 228.895 112 230C112 231.105 112.895 232 114 232C115.105 232 116 231.105 116 230Z" fill="#E94560" fill-opacity="0.6"/>
<path d="M116 278C116 276.895 115.105 276 114 276C112.895 276 112 276.895 112 278C112 279.105 112.895 280 114 280C115.105 280 116 279.105 116 278Z" fill="#E94560" fill-opacity="0.6"/>
<path d="M116 213C116 211.895 115.105 211 114 211C112.895 211 112 211.895 112 213C112 214.105 112.895 215 114 215C115.105 215 116 214.105 116 213Z" fill="#E94560" fill-opacity="0.6"/>
<path d="M116 180C116 178.895 115.105 178 114 178C112.895 178 112 178.895 112 180C112 181.105 112.895 182 114 182C115.105 182 116 181.105 116 180Z" fill="#E94560" fill-opacity="0.6"/>
<path d="M116 131C116 129.895 115.105 129 114 129C112.895 129 112 129.895 112 131C112 132.105 112.895 133 114 133C115.105 133 116 132.105 116 131Z" fill="#E94560" fill-opacity="0.6"/>
<path d="M84 18C84 16.8954 83.1046 16 82 16C80.8954 16 80 16.8954 80 18C80 19.1046 80.8954 20 82 20C83.1046 20 84 19.1046 84 18Z" fill="#E94560" fill-opacity="0.6"/>
<path d="M84 246C84 244.895 83.1046 244 82 244C80.8954 244 80 244.895 80 246C80 247.105 80.8954 248 82 248C83.1046 248 84 247.105 84 246Z" fill="#E94560" fill-opacity="0.6"/>
<path d="M84 294C84 292.895 83.1046 292 82 292C80.8954 292 80 292.895 80 294C80 295.105 80.8954 296 82 296C83.1046 296 84 295.105 84 294Z" fill="#E94560" fill-opacity="0.6"/>
<path d="M84 196C84 194.895 83.1046 194 82 194C80.8954 194 80 194.895 80 196C80 197.105 80.8954 198 82 198C83.1046 198 84 197.105 84 196Z" fill="#E94560" fill-opacity="0.6"/>
<path d="M84 147C84 145.895 83.1046 145 82 145C80.8954 145 80 145.895 80 147C80 148.105 80.8954 149 82 149C83.1046 149 84 148.105 84 147Z" fill="#E94560" fill-opacity="0.6"/>
<path d="M100 18C100 16.8954 99.1046 16 98 16C96.8954 16 96 16.8954 96 18C96 19.1046 96.8954 20 98 20C99.1046 20 100 19.1046 100 18Z" fill="#E94560" fill-opacity="0.6"/>
<path d="M100 246C100 244.895 99.1046 244 98 244C96.8954 244 96 244.895 96 246C96 247.105 96.8954 248 98 248C99.1046 248 100 247.105 100 246Z" fill="#E94560" fill-opacity="0.6"/>
<path d="M100 294C100 292.895 99.1046 292 98 292C96.8954 292 96 292.895 96 294C96 295.105 96.8954 296 98 296C99.1046 296 100 295.105 100 294Z" fill="#E94560" fill-opacity="0.6"/>
<path d="M100 196C100 194.895 99.1046 194 98 194C96.8954 194 96 194.895 96 196C96 197.105 96.8954 198 98 198C99.1046 198 100 197.105 100 196Z" fill="#E94560" fill-opacity="0.6"/>
<path d="M100 147C100 145.895 99.1046 145 98 145C96.8954 145 96 145.895 96 147C96 148.105 96.8954 149 98 149C99.1046 149 100 148.105 100 147Z" fill="#E94560" fill-opacity="0.6"/>
<path d="M116 18C116 16.8954 115.105 16 114 16C112.895 16 112 16.8954 112 18C112 19.1046 112.895 20 114 20C115.105 20 116 19.1046 116 18Z" fill="#E94560" fill-opacity="0.6"/>
<path d="M116 246C116 244.895 115.105 244 114 244C112.895 244 112 244.895 112 246C112 247.105 112.895 248 114 248C115.105 248 116 247.105 116 246Z" fill="#E94560" fill-opacity="0.6"/>
<path d="M116 294C116 292.895 115.105 292 114 292C112.895 292 112 292.895 112 294C112 295.105 112.895 296 114 296C115.105 296 116 295.105 116 294Z" fill="#E94560" fill-opacity="0.6"/>
<path d="M116 196C116 194.895 115.105 194 114 194C112.895 194 112 194.895 112 196C112 197.105 112.895 198 114 198C115.105 198 116 197.105 116 196Z" fill="#E94560" fill-opacity="0.6"/>
<path d="M116 147C116 145.895 115.105 145 114 145C112.895 145 112 145.895 112 147C112 148.105 112.895 149 114 149C115.105 149 116 148.105 116 147Z" fill="#E94560" fill-opacity="0.6"/>
<path d="M84 34C84 32.8954 83.1046 32 82 32C80.8954 32 80 32.8954 80 34C80 35.1046 80.8954 36 82 36C83.1046 36 84 35.1046 84 34Z" fill="#E94560" fill-opacity="0.6"/>
<path d="M84 262C84 260.895 83.1046 260 82 260C80.8954 260 80 260.895 80 262C80 263.105 80.8954 264 82 264C83.1046 264 84 263.105 84 262Z" fill="#E94560" fill-opacity="0.6"/>
<path d="M84 310C84 308.895 83.1046 308 82 308C80.8954 308 80 308.895 80 310C80 311.105 80.8954 312 82 312C83.1046 312 84 311.105 84 310Z" fill="#E94560" fill-opacity="0.6"/>
<path d="M84 163C84 161.895 83.1046 161 82 161C80.8954 161 80 161.895 80 163C80 164.105 80.8954 165 82 165C83.1046 165 84 164.105 84 163Z" fill="#E94560" fill-opacity="0.6"/>
<path d="M100 34C100 32.8954 99.1046 32 98 32C96.8954 32 96 32.8954 96 34C96 35.1046 96.8954 36 98 36C99.1046 36 100 35.1046 100 34Z" fill="#E94560" fill-opacity="0.6"/>
<path d="M100 262C100 260.895 99.1046 260 98 260C96.8954 260 96 260.895 96 262C96 263.105 96.8954 264 98 264C99.1046 264 100 263.105 100 262Z" fill="#E94560" fill-opacity="0.6"/>
<path d="M100 310C100 308.895 99.1046 308 98 308C96.8954 308 96 308.895 96 310C96 311.105 96.8954 312 98 312C99.1046 312 100 311.105 100 310Z" fill="#E94560" fill-opacity="0.6"/>
<path d="M100 163C100 161.895 99.1046 161 98 161C96.8954 161 96 161.895 96 163C96 164.105 96.8954 165 98 165C99.1046 165 100 164.105 100 163Z" fill="#E94560" fill-opacity="0.6"/>
<path d="M116 34C116 32.8954 115.105 32 114 32C112.895 32 112 32.8954 112 34C112 35.1046 112.895 36 114 36C115.105 36 116 35.1046 116 34Z" fill="#E94560" fill-opacity="0.6"/>
<path d="M116 262C116 260.895 115.105 260 114 260C112.895 260 112 260.895 112 262C112 263.105 112.895 264 114 264C115.105 264 116 263.105 116 262Z" fill="#E94560" fill-opacity="0.6"/>
<path d="M116 310C116 308.895 115.105 308 114 308C112.895 308 112 308.895 112 310C112 311.105 112.895 312 114 312C115.105 312 116 311.105 116 310Z" fill="#E94560" fill-opacity="0.6"/>
<path d="M116 163C116 161.895 115.105 161 114 161C112.895 161 112 161.895 112 163C112 164.105 112.895 165 114 165C115.105 165 116 164.105 116 163Z" fill="#E94560" fill-opacity="0.6"/>
<path d="M84 50C84 48.8954 83.1046 48 82 48C80.8954 48 80 48.8954 80 50C80 51.1046 80.8954 52 82 52C83.1046 52 84 51.1046 84 50Z" fill="#E94560" fill-opacity="0.6"/>
<path d="M100 50C100 48.8954 99.1046 48 98 48C96.8954 48 96 48.8954 96 50C96 51.1046 96.8954 52 98 52C99.1046 52 100 51.1046 100 50Z" fill="#E94560" fill-opacity="0.6"/>
<path d="M116 50C116 48.8954 115.105 48 114 48C112.895 48 112 48.8954 112 50C112 51.1046 112.895 52 114 52C115.105 52 116 51.1046 116 50Z" fill="#E94560" fill-opacity="0.6"/>
<path d="M84 66C84 64.8954 83.1046 64 82 64C80.8954 64 80 64.8954 80 66C80 67.1046 80.8954 68 82 68C83.1046 68 84 67.1046 84 66Z" fill="#E94560" fill-opacity="0.6"/>
<path d="M100 66C100 64.8954 99.1046 64 98 64C96.8954 64 96 64.8954 96 66C96 67.1046 96.8954 68 98 68C99.1046 68 100 67.1046 100 66Z" fill="#E94560" fill-opacity="0.6"/>
<path d="M116 66C116 64.8954 115.105 64 114 64C112.895 64 112 64.8954 112 66C112 67.1046 112.895 68 114 68C115.105 68 116 67.1046 116 66Z" fill="#E94560" fill-opacity="0.6"/>
<path d="M84 82C84 80.8954 83.1046 80 82 80C80.8954 80 80 80.8954 80 82C80 83.1046 80.8954 84 82 84C83.1046 84 84 83.1046 84 82Z" fill="#E94560" fill-opacity="0.6"/>
<path d="M84 98C84 96.8954 83.1046 96 82 96C80.8954 96 80 96.8954 80 98C80 99.1046 80.8954 100 82 100C83.1046 100 84 99.1046 84 98Z" fill="#E94560" fill-opacity="0.6"/>
<path d="M84 114C84 112.895 83.1046 112 82 112C80.8954 112 80 112.895 80 114C80 115.105 80.8954 116 82 116C83.1046 116 84 115.105 84 114Z" fill="#E94560" fill-opacity="0.6"/>
<path d="M100 82C100 80.8954 99.1046 80 98 80C96.8954 80 96 80.8954 96 82C96 83.1046 96.8954 84 98 84C99.1046 84 100 83.1046 100 82Z" fill="#E94560" fill-opacity="0.6"/>
<path d="M116 82C116 80.8954 115.105 80 114 80C112.895 80 112 80.8954 112 82C112 83.1046 112.895 84 114 84C115.105 84 116 83.1046 116 82Z" fill="#E94560" fill-opacity="0.6"/>
<path d="M100 98C100 96.8954 99.1046 96 98 96C96.8954 96 96 96.8954 96 98C96 99.1046 96.8954 100 98 100C99.1046 100 100 99.1046 100 98Z" fill="#E94560" fill-opacity="0.6"/>
<path d="M100 114C100 112.895 99.1046 112 98 112C96.8954 112 96 112.895 96 114C96 115.105 96.8954 116 98 116C99.1046 116 100 115.105 100 114Z" fill="#E94560" fill-opacity="0.6"/>
<path d="M116 98C116 96.8954 115.105 96 114 96C112.895 96 112 96.8954 112 98C112 99.1046 112.895 100 114 100C115.105 100 116 99.1046 116 98Z" fill="#E94560" fill-opacity="0.6"/>
<path d="M116 114C116 112.895 115.105 112 114 112C112.895 112 112 112.895 112 114C112 115.105 112.895 116 114 116C115.105 116 116 115.105 116 114Z" fill="#E94560" fill-opacity="0.6"/>
<path d="M132 3C132 1.89543 131.105 1 130 1C128.895 1 128 1.89543 128 3C128 4.10457 128.895 5 130 5C131.105 5 132 4.10457 132 3Z" fill="#E94560" fill-opacity="0.6"/>
<path d="M132 231C132 229.895 131.105 229 130 229C128.895 229 128 229.895 128 231C128 232.105 128.895 233 130 233C131.105 233 132 232.105 132 231Z" fill="#E94560" fill-opacity="0.6"/>
<path d="M132 279C132 277.895 131.105 277 130 277C128.895 277 128 277.895 128 279C128 280.105 128.895 281 130 281C131.105 281 132 280.105 132 279Z" fill="#E94560" fill-opacity="0.6"/>
<path d="M132 263C132 261.895 131.105 261 130 261C128.895 261 128 261.895 128 263C128 264.105 128.895 265 130 265C131.105 265 132 264.105 132 263Z" fill="#E94560" fill-opacity="0.6"/>
<path d="M132 311C132 309.895 131.105 309 130 309C128.895 309 128 309.895 128 311C128 312.105 128.895 313 130 313C131.105 313 132 312.105 132 311Z" fill="#E94560" fill-opacity="0.6"/>
<path d="M132 214C132 212.895 131.105 212 130 212C128.895 212 128 212.895 128 214C128 215.105 128.895 216 130 216C131.105 216 132 215.105 132 214Z" fill="#E94560" fill-opacity="0.6"/>
<path d="M132 181C132 179.895 131.105 179 130 179C128.895 179 128 179.895 128 181C128 182.105 128.895 183 130 183C131.105 183 132 182.105 132 181Z" fill="#E94560" fill-opacity="0.6"/>
<path d="M132 132C132 130.895 131.105 130 130 130C128.895 130 128 130.895 128 132C128 133.105 128.895 134 130 134C131.105 134 132 133.105 132 132Z" fill="#E94560" fill-opacity="0.6"/>
<path d="M132 19C132 17.8954 131.105 17 130 17C128.895 17 128 17.8954 128 19C128 20.1046 128.895 21 130 21C131.105 21 132 20.1046 132 19Z" fill="#E94560" fill-opacity="0.6"/>
<path d="M132 247C132 245.895 131.105 245 130 245C128.895 245 128 245.895 128 247C128 248.105 128.895 249 130 249C131.105 249 132 248.105 132 247Z" fill="#E94560" fill-opacity="0.6"/>
<path d="M132 295C132 293.895 131.105 293 130 293C128.895 293 128 293.895 128 295C128 296.105 128.895 297 130 297C131.105 297 132 296.105 132 295Z" fill="#E94560" fill-opacity="0.6"/>
<path d="M132 197C132 195.895 131.105 195 130 195C128.895 195 128 195.895 128 197C128 198.105 128.895 199 130 199C131.105 199 132 198.105 132 197Z" fill="#E94560" fill-opacity="0.6"/>
<path d="M132 148C132 146.895 131.105 146 130 146C128.895 146 128 146.895 128 148C128 149.105 128.895 150 130 150C131.105 150 132 149.105 132 148Z" fill="#E94560" fill-opacity="0.6"/>
<path d="M132 35C132 33.8954 131.105 33 130 33C128.895 33 128 33.8954 128 35C128 36.1046 128.895 37 130 37C131.105 37 132 36.1046 132 35Z" fill="#E94560" fill-opacity="0.6"/>
<path d="M132 164C132 162.895 131.105 162 130 162C128.895 162 128 162.895 128 164C128 165.105 128.895 166 130 166C131.105 166 132 165.105 132 164Z" fill="#E94560" fill-opacity="0.6"/>
<path d="M132 51C132 49.8954 131.105 49 130 49C128.895 49 128 49.8954 128 51C128 52.1046 128.895 53 130 53C131.105 53 132 52.1046 132 51Z" fill="#E94560" fill-opacity="0.6"/>
<path d="M132 67C132 65.8954 131.105 65 130 65C128.895 65 128 65.8954 128 67C128 68.1046 128.895 69 130 69C131.105 69 132 68.1046 132 67Z" fill="#E94560" fill-opacity="0.6"/>
<path d="M132 83C132 81.8954 131.105 81 130 81C128.895 81 128 81.8954 128 83C128 84.1046 128.895 85 130 85C131.105 85 132 84.1046 132 83Z" fill="#E94560" fill-opacity="0.6"/>
<path d="M132 99C132 97.8954 131.105 97 130 97C128.895 97 128 97.8954 128 99C128 100.105 128.895 101 130 101C131.105 101 132 100.105 132 99Z" fill="#E94560" fill-opacity="0.6"/>
<path d="M132 115C132 113.895 131.105 113 130 113C128.895 113 128 113.895 128 115C128 116.105 128.895 117 130 117C131.105 117 132 116.105 132 115Z" fill="#E94560" fill-opacity="0.6"/>
<path d="M148 3C148 1.89543 147.105 1 146 1C144.895 1 144 1.89543 144 3C144 4.10457 144.895 5 146 5C147.105 5 148 4.10457 148 3Z" fill="#E94560" fill-opacity="0.6"/>
<path d="M148 231C148 229.895 147.105 229 146 229C144.895 229 144 229.895 144 231C144 232.105 144.895 233 146 233C147.105 233 148 232.105 148 231Z" fill="#E94560" fill-opacity="0.6"/>
<path d="M148 279C148 277.895 147.105 277 146 277C144.895 277 144 277.895 144 279C144 280.105 144.895 281 146 281C147.105 281 148 280.105 148 279Z" fill="#E94560" fill-opacity="0.6"/>
<path d="M148 263C148 261.895 147.105 261 146 261C144.895 261 144 261.895 144 263C144 264.105 144.895 265 146 265C147.105 265 148 264.105 148 263Z" fill="#E94560" fill-opacity="0.6"/>
<path d="M148 311C148 309.895 147.105 309 146 309C144.895 309 144 309.895 144 311C144 312.105 144.895 313 146 313C147.105 313 148 312.105 148 311Z" fill="#E94560" fill-opacity="0.6"/>
<path d="M148 214C148 212.895 147.105 212 146 212C144.895 212 144 212.895 144 214C144 215.105 144.895 216 146 216C147.105 216 148 215.105 148 214Z" fill="#E94560" fill-opacity="0.6"/>
<path d="M148 181C148 179.895 147.105 179 146 179C144.895 179 144 179.895 144 181C144 182.105 144.895 183 146 183C147.105 183 148 182.105 148 181Z" fill="#E94560" fill-opacity="0.6"/>
<path d="M148 132C148 130.895 147.105 130 146 130C144.895 130 144 130.895 144 132C144 133.105 144.895 134 146 134C147.105 134 148 133.105 148 132Z" fill="#E94560" fill-opacity="0.6"/>
<path d="M148 19C148 17.8954 147.105 17 146 17C144.895 17 144 17.8954 144 19C144 20.1046 144.895 21 146 21C147.105 21 148 20.1046 148 19Z" fill="#E94560" fill-opacity="0.6"/>
<path d="M148 247C148 245.895 147.105 245 146 245C144.895 245 144 245.895 144 247C144 248.105 144.895 249 146 249C147.105 249 148 248.105 148 247Z" fill="#E94560" fill-opacity="0.6"/>
<path d="M148 295C148 293.895 147.105 293 146 293C144.895 293 144 293.895 144 295C144 296.105 144.895 297 146 297C147.105 297 148 296.105 148 295Z" fill="#E94560" fill-opacity="0.6"/>
<path d="M148 197C148 195.895 147.105 195 146 195C144.895 195 144 195.895 144 197C144 198.105 144.895 199 146 199C147.105 199 148 198.105 148 197Z" fill="#E94560" fill-opacity="0.6"/>
<path d="M148 148C148 146.895 147.105 146 146 146C144.895 146 144 146.895 144 148C144 149.105 144.895 150 146 150C147.105 150 148 149.105 148 148Z" fill="#E94560" fill-opacity="0.6"/>
<path d="M148 35C148 33.8954 147.105 33 146 33C144.895 33 144 33.8954 144 35C144 36.1046 144.895 37 146 37C147.105 37 148 36.1046 148 35Z" fill="#E94560" fill-opacity="0.6"/>
<path d="M148 164C148 162.895 147.105 162 146 162C144.895 162 144 162.895 144 164C144 165.105 144.895 166 146 166C147.105 166 148 165.105 148 164Z" fill="#E94560" fill-opacity="0.6"/>
<path d="M148 51C148 49.8954 147.105 49 146 49C144.895 49 144 49.8954 144 51C144 52.1046 144.895 53 146 53C147.105 53 148 52.1046 148 51Z" fill="#E94560" fill-opacity="0.6"/>
<path d="M148 67C148 65.8954 147.105 65 146 65C144.895 65 144 65.8954 144 67C144 68.1046 144.895 69 146 69C147.105 69 148 68.1046 148 67Z" fill="#E94560" fill-opacity="0.6"/>
<path d="M148 83C148 81.8954 147.105 81 146 81C144.895 81 144 81.8954 144 83C144 84.1046 144.895 85 146 85C147.105 85 148 84.1046 148 83Z" fill="#E94560" fill-opacity="0.6"/>
<path d="M148 99C148 97.8954 147.105 97 146 97C144.895 97 144 97.8954 144 99C144 100.105 144.895 101 146 101C147.105 101 148 100.105 148 99Z" fill="#E94560" fill-opacity="0.6"/>
<path d="M148 115C148 113.895 147.105 113 146 113C144.895 113 144 113.895 144 115C144 116.105 144.895 117 146 117C147.105 117 148 116.105 148 115Z" fill="#E94560" fill-opacity="0.6"/>
<path d="M164 3C164 1.89543 163.105 1 162 1C160.895 1 160 1.89543 160 3C160 4.10457 160.895 5 162 5C163.105 5 164 4.10457 164 3Z" fill="#E94560" fill-opacity="0.6"/>
<path d="M164 231C164 229.895 163.105 229 162 229C160.895 229 160 229.895 160 231C160 232.105 160.895 233 162 233C163.105 233 164 232.105 164 231Z" fill="#E94560" fill-opacity="0.6"/>
<path d="M164 279C164 277.895 163.105 277 162 277C160.895 277 160 277.895 160 279C160 280.105 160.895 281 162 281C163.105 281 164 280.105 164 279Z" fill="#E94560" fill-opacity="0.6"/>
<path d="M164 263C164 261.895 163.105 261 162 261C160.895 261 160 261.895 160 263C160 264.105 160.895 265 162 265C163.105 265 164 264.105 164 263Z" fill="#E94560" fill-opacity="0.6"/>
<path d="M164 311C164 309.895 163.105 309 162 309C160.895 309 160 309.895 160 311C160 312.105 160.895 313 162 313C163.105 313 164 312.105 164 311Z" fill="#E94560" fill-opacity="0.6"/>
<path d="M164 214C164 212.895 163.105 212 162 212C160.895 212 160 212.895 160 214C160 215.105 160.895 216 162 216C163.105 216 164 215.105 164 214Z" fill="#E94560" fill-opacity="0.6"/>
<path d="M164 181C164 179.895 163.105 179 162 179C160.895 179 160 179.895 160 181C160 182.105 160.895 183 162 183C163.105 183 164 182.105 164 181Z" fill="#E94560" fill-opacity="0.6"/>
<path d="M164 132C164 130.895 163.105 130 162 130C160.895 130 160 130.895 160 132C160 133.105 160.895 134 162 134C163.105 134 164 133.105 164 132Z" fill="#E94560" fill-opacity="0.6"/>
<path d="M164 19C164 17.8954 163.105 17 162 17C160.895 17 160 17.8954 160 19C160 20.1046 160.895 21 162 21C163.105 21 164 20.1046 164 19Z" fill="#E94560" fill-opacity="0.6"/>
<path d="M164 247C164 245.895 163.105 245 162 245C160.895 245 160 245.895 160 247C160 248.105 160.895 249 162 249C163.105 249 164 248.105 164 247Z" fill="#E94560" fill-opacity="0.6"/>
<path d="M164 295C164 293.895 163.105 293 162 293C160.895 293 160 293.895 160 295C160 296.105 160.895 297 162 297C163.105 297 164 296.105 164 295Z" fill="#E94560" fill-opacity="0.6"/>
<path d="M164 197C164 195.895 163.105 195 162 195C160.895 195 160 195.895 160 197C160 198.105 160.895 199 162 199C163.105 199 164 198.105 164 197Z" fill="#E94560" fill-opacity="0.6"/>
<path d="M164 148C164 146.895 163.105 146 162 146C160.895 146 160 146.895 160 148C160 149.105 160.895 150 162 150C163.105 150 164 149.105 164 148Z" fill="#E94560" fill-opacity="0.6"/>
<path d="M164 35C164 33.8954 163.105 33 162 33C160.895 33 160 33.8954 160 35C160 36.1046 160.895 37 162 37C163.105 37 164 36.1046 164 35Z" fill="#E94560" fill-opacity="0.6"/>
<path d="M164 164C164 162.895 163.105 162 162 162C160.895 162 160 162.895 160 164C160 165.105 160.895 166 162 166C163.105 166 164 165.105 164 164Z" fill="#E94560" fill-opacity="0.6"/>
<path d="M164 51C164 49.8954 163.105 49 162 49C160.895 49 160 49.8954 160 51C160 52.1046 160.895 53 162 53C163.105 53 164 52.1046 164 51Z" fill="#E94560" fill-opacity="0.6"/>
<path d="M164 67C164 65.8954 163.105 65 162 65C160.895 65 160 65.8954 160 67C160 68.1046 160.895 69 162 69C163.105 69 164 68.1046 164 67Z" fill="#E94560" fill-opacity="0.6"/>
<path d="M164 83C164 81.8954 163.105 81 162 81C160.895 81 160 81.8954 160 83C160 84.1046 160.895 85 162 85C163.105 85 164 84.1046 164 83Z" fill="#E94560" fill-opacity="0.6"/>
<path d="M164 99C164 97.8954 163.105 97 162 97C160.895 97 160 97.8954 160 99C160 100.105 160.895 101 162 101C163.105 101 164 100.105 164 99Z" fill="#E94560" fill-opacity="0.6"/>
<path d="M164 115C164 113.895 163.105 113 162 113C160.895 113 160 113.895 160 115C160 116.105 160.895 117 162 117C163.105 117 164 116.105 164 115Z" fill="#E94560" fill-opacity="0.6"/>
<path d="M180 3C180 1.89543 179.105 1 178 1C176.895 1 176 1.89543 176 3C176 4.10457 176.895 5 178 5C179.105 5 180 4.10457 180 3Z" fill="#E94560" fill-opacity="0.6"/>
<path d="M180 231C180 229.895 179.105 229 178 229C176.895 229 176 229.895 176 231C176 232.105 176.895 233 178 233C179.105 233 180 232.105 180 231Z" fill="#E94560" fill-opacity="0.6"/>
<path d="M180 279C180 277.895 179.105 277 178 277C176.895 277 176 277.895 176 279C176 280.105 176.895 281 178 281C179.105 281 180 280.105 180 279Z" fill="#E94560" fill-opacity="0.6"/>
<path d="M180 263C180 261.895 179.105 261 178 261C176.895 261 176 261.895 176 263C176 264.105 176.895 265 178 265C179.105 265 180 264.105 180 263Z" fill="#E94560" fill-opacity="0.6"/>
<path d="M180 311C180 309.895 179.105 309 178 309C176.895 309 176 309.895 176 311C176 312.105 176.895 313 178 313C179.105 313 180 312.105 180 311Z" fill="#E94560" fill-opacity="0.6"/>
<path d="M180 214C180 212.895 179.105 212 178 212C176.895 212 176 212.895 176 214C176 215.105 176.895 216 178 216C179.105 216 180 215.105 180 214Z" fill="#E94560" fill-opacity="0.6"/>
<path d="M180 181C180 179.895 179.105 179 178 179C176.895 179 176 179.895 176 181C176 182.105 176.895 183 178 183C179.105 183 180 182.105 180 181Z" fill="#E94560" fill-opacity="0.6"/>
<path d="M180 132C180 130.895 179.105 130 178 130C176.895 130 176 130.895 176 132C176 133.105 176.895 134 178 134C179.105 134 180 133.105 180 132Z" fill="#E94560" fill-opacity="0.6"/>
<path d="M180 19C180 17.8954 179.105 17 178 17C176.895 17 176 17.8954 176 19C176 20.1046 176.895 21 178 21C179.105 21 180 20.1046 180 19Z" fill="#E94560" fill-opacity="0.6"/>
<path d="M180 247C180 245.895 179.105 245 178 245C176.895 245 176 245.895 176 247C176 248.105 176.895 249 178 249C179.105 249 180 248.105 180 247Z" fill="#E94560" fill-opacity="0.6"/>
<path d="M180 295C180 293.895 179.105 293 178 293C176.895 293 176 293.895 176 295C176 296.105 176.895 297 178 297C179.105 297 180 296.105 180 295Z" fill="#E94560" fill-opacity="0.6"/>
<path d="M180 197C180 195.895 179.105 195 178 195C176.895 195 176 195.895 176 197C176 198.105 176.895 199 178 199C179.105 199 180 198.105 180 197Z" fill="#E94560" fill-opacity="0.6"/>
<path d="M180 148C180 146.895 179.105 146 178 146C176.895 146 176 146.895 176 148C176 149.105 176.895 150 178 150C179.105 150 180 149.105 180 148Z" fill="#E94560" fill-opacity="0.6"/>
<path d="M180 35C180 33.8954 179.105 33 178 33C176.895 33 176 33.8954 176 35C176 36.1046 176.895 37 178 37C179.105 37 180 36.1046 180 35Z" fill="#E94560" fill-opacity="0.6"/>
<path d="M180 164C180 162.895 179.105 162 178 162C176.895 162 176 162.895 176 164C176 165.105 176.895 166 178 166C179.105 166 180 165.105 180 164Z" fill="#E94560" fill-opacity="0.6"/>
<path d="M180 51C180 49.8954 179.105 49 178 49C176.895 49 176 49.8954 176 51C176 52.1046 176.895 53 178 53C179.105 53 180 52.1046 180 51Z" fill="#E94560" fill-opacity="0.6"/>
<path d="M180 67C180 65.8954 179.105 65 178 65C176.895 65 176 65.8954 176 67C176 68.1046 176.895 69 178 69C179.105 69 180 68.1046 180 67Z" fill="#E94560" fill-opacity="0.6"/>
<path d="M180 83C180 81.8954 179.105 81 178 81C176.895 81 176 81.8954 176 83C176 84.1046 176.895 85 178 85C179.105 85 180 84.1046 180 83Z" fill="#E94560" fill-opacity="0.6"/>
<path d="M180 99C180 97.8954 179.105 97 178 97C176.895 97 176 97.8954 176 99C176 100.105 176.895 101 178 101C179.105 101 180 100.105 180 99Z" fill="#E94560" fill-opacity="0.6"/>
<path d="M180 115C180 113.895 179.105 113 178 113C176.895 113 176 113.895 176 115C176 116.105 176.895 117 178 117C179.105 117 180 116.105 180 115Z" fill="#E94560" fill-opacity="0.6"/>
<path d="M196 3C196 1.89543 195.105 1 194 1C192.895 1 192 1.89543 192 3C192 4.10457 192.895 5 194 5C195.105 5 196 4.10457 196 3Z" fill="#E94560" fill-opacity="0.6"/>
<path d="M196 231C196 229.895 195.105 229 194 229C192.895 229 192 229.895 192 231C192 232.105 192.895 233 194 233C195.105 233 196 232.105 196 231Z" fill="#E94560" fill-opacity="0.6"/>
<path d="M196 279C196 277.895 195.105 277 194 277C192.895 277 192 277.895 192 279C192 280.105 192.895 281 194 281C195.105 281 196 280.105 196 279Z" fill="#E94560" fill-opacity="0.6"/>
<path d="M196 263C196 261.895 195.105 261 194 261C192.895 261 192 261.895 192 263C192 264.105 192.895 265 194 265C195.105 265 196 264.105 196 263Z" fill="#E94560" fill-opacity="0.6"/>
<path d="M196 311C196 309.895 195.105 309 194 309C192.895 309 192 309.895 192 311C192 312.105 192.895 313 194 313C195.105 313 196 312.105 196 311Z" fill="#E94560" fill-opacity="0.6"/>
<path d="M196 214C196 212.895 195.105 212 194 212C192.895 212 192 212.895 192 214C192 215.105 192.895 216 194 216C195.105 216 196 215.105 196 214Z" fill="#E94560" fill-opacity="0.6"/>
<path d="M196 181C196 179.895 195.105 179 194 179C192.895 179 192 179.895 192 181C192 182.105 192.895 183 194 183C195.105 183 196 182.105 196 181Z" fill="#E94560" fill-opacity="0.6"/>
<path d="M196 132C196 130.895 195.105 130 194 130C192.895 130 192 130.895 192 132C192 133.105 192.895 134 194 134C195.105 134 196 133.105 196 132Z" fill="#E94560" fill-opacity="0.6"/>
<path d="M196 19C196 17.8954 195.105 17 194 17C192.895 17 192 17.8954 192 19C192 20.1046 192.895 21 194 21C195.105 21 196 20.1046 196 19Z" fill="#E94560" fill-opacity="0.6"/>
<path d="M196 247C196 245.895 195.105 245 194 245C192.895 245 192 245.895 192 247C192 248.105 192.895 249 194 249C195.105 249 196 248.105 196 247Z" fill="#E94560" fill-opacity="0.6"/>
<path d="M196 295C196 293.895 195.105 293 194 293C192.895 293 192 293.895 192 295C192 296.105 192.895 297 194 297C195.105 297 196 296.105 196 295Z" fill="#E94560" fill-opacity="0.6"/>
<path d="M196 197C196 195.895 195.105 195 194 195C192.895 195 192 195.895 192 197C192 198.105 192.895 199 194 199C195.105 199 196 198.105 196 197Z" fill="#E94560" fill-opacity="0.6"/>
<path d="M196 148C196 146.895 195.105 146 194 146C192.895 146 192 146.895 192 148C192 149.105 192.895 150 194 150C195.105 150 196 149.105 196 148Z" fill="#E94560" fill-opacity="0.6"/>
<path d="M196 35C196 33.8954 195.105 33 194 33C192.895 33 192 33.8954 192 35C192 36.1046 192.895 37 194 37C195.105 37 196 36.1046 196 35Z" fill="#E94560" fill-opacity="0.6"/>
<path d="M196 164C196 162.895 195.105 162 194 162C192.895 162 192 162.895 192 164C192 165.105 192.895 166 194 166C195.105 166 196 165.105 196 164Z" fill="#E94560" fill-opacity="0.6"/>
<path d="M196 51C196 49.8954 195.105 49 194 49C192.895 49 192 49.8954 192 51C192 52.1046 192.895 53 194 53C195.105 53 196 52.1046 196 51Z" fill="#E94560" fill-opacity="0.6"/>
<path d="M196 67C196 65.8954 195.105 65 194 65C192.895 65 192 65.8954 192 67C192 68.1046 192.895 69 194 69C195.105 69 196 68.1046 196 67Z" fill="#E94560" fill-opacity="0.6"/>
<path d="M196 83C196 81.8954 195.105 81 194 81C192.895 81 192 81.8954 192 83C192 84.1046 192.895 85 194 85C195.105 85 196 84.1046 196 83Z" fill="#E94560" fill-opacity="0.6"/>
<path d="M196 99C196 97.8954 195.105 97 194 97C192.895 97 192 97.8954 192 99C192 100.105 192.895 101 194 101C195.105 101 196 100.105 196 99Z" fill="#E94560" fill-opacity="0.6"/>
<path d="M196 115C196 113.895 195.105 113 194 113C192.895 113 192 113.895 192 115C192 116.105 192.895 117 194 117C195.105 117 196 116.105 196 115Z" fill="#E94560" fill-opacity="0.6"/>
<path d="M212 3C212 1.89543 211.105 1 210 1C208.895 1 208 1.89543 208 3C208 4.10457 208.895 5 210 5C211.105 5 212 4.10457 212 3Z" fill="#E94560" fill-opacity="0.6"/>
<path d="M212 231C212 229.895 211.105 229 210 229C208.895 229 208 229.895 208 231C208 232.105 208.895 233 210 233C211.105 233 212 232.105 212 231Z" fill="#E94560" fill-opacity="0.6"/>
<path d="M212 279C212 277.895 211.105 277 210 277C208.895 277 208 277.895 208 279C208 280.105 208.895 281 210 281C211.105 281 212 280.105 212 279Z" fill="#E94560" fill-opacity="0.6"/>
<path d="M212 263C212 261.895 211.105 261 210 261C208.895 261 208 261.895 208 263C208 264.105 208.895 265 210 265C211.105 265 212 264.105 212 263Z" fill="#E94560" fill-opacity="0.6"/>
<path d="M212 311C212 309.895 211.105 309 210 309C208.895 309 208 309.895 208 311C208 312.105 208.895 313 210 313C211.105 313 212 312.105 212 311Z" fill="#E94560" fill-opacity="0.6"/>
<path d="M212 214C212 212.895 211.105 212 210 212C208.895 212 208 212.895 208 214C208 215.105 208.895 216 210 216C211.105 216 212 215.105 212 214Z" fill="#E94560" fill-opacity="0.6"/>
<path d="M212 181C212 179.895 211.105 179 210 179C208.895 179 208 179.895 208 181C208 182.105 208.895 183 210 183C211.105 183 212 182.105 212 181Z" fill="#E94560" fill-opacity="0.6"/>
<path d="M212 132C212 130.895 211.105 130 210 130C208.895 130 208 130.895 208 132C208 133.105 208.895 134 210 134C211.105 134 212 133.105 212 132Z" fill="#E94560" fill-opacity="0.6"/>
<path d="M228 3C228 1.89543 227.105 1 226 1C224.895 1 224 1.89543 224 3C224 4.10457 224.895 5 226 5C227.105 5 228 4.10457 228 3Z" fill="#E94560" fill-opacity="0.6"/>
<path d="M228 231C228 229.895 227.105 229 226 229C224.895 229 224 229.895 224 231C224 232.105 224.895 233 226 233C227.105 233 228 232.105 228 231Z" fill="#E94560" fill-opacity="0.6"/>
<path d="M228 279C228 277.895 227.105 277 226 277C224.895 277 224 277.895 224 279C224 280.105 224.895 281 226 281C227.105 281 228 280.105 228 279Z" fill="#E94560" fill-opacity="0.6"/>
<path d="M228 263C228 261.895 227.105 261 226 261C224.895 261 224 261.895 224 263C224 264.105 224.895 265 226 265C227.105 265 228 264.105 228 263Z" fill="#E94560" fill-opacity="0.6"/>
<path d="M228 311C228 309.895 227.105 309 226 309C224.895 309 224 309.895 224 311C224 312.105 224.895 313 226 313C227.105 313 228 312.105 228 311Z" fill="#E94560" fill-opacity="0.6"/>
<path d="M228 214C228 212.895 227.105 212 226 212C224.895 212 224 212.895 224 214C224 215.105 224.895 216 226 216C227.105 216 228 215.105 228 214Z" fill="#E94560" fill-opacity="0.6"/>
<path d="M228 181C228 179.895 227.105 179 226 179C224.895 179 224 179.895 224 181C224 182.105 224.895 183 226 183C227.105 183 228 182.105 228 181Z" fill="#E94560" fill-opacity="0.6"/>
<path d="M228 132C228 130.895 227.105 130 226 130C224.895 130 224 130.895 224 132C224 133.105 224.895 134 226 134C227.105 134 228 133.105 228 132Z" fill="#E94560" fill-opacity="0.6"/>
<path d="M244 3C244 1.89543 243.105 1 242 1C240.895 1 240 1.89543 240 3C240 4.10457 240.895 5 242 5C243.105 5 244 4.10457 244 3Z" fill="#E94560" fill-opacity="0.6"/>
<path d="M244 231C244 229.895 243.105 229 242 229C240.895 229 240 229.895 240 231C240 232.105 240.895 233 242 233C243.105 233 244 232.105 244 231Z" fill="#E94560" fill-opacity="0.6"/>
<path d="M244 279C244 277.895 243.105 277 242 277C240.895 277 240 277.895 240 279C240 280.105 240.895 281 242 281C243.105 281 244 280.105 244 279Z" fill="#E94560" fill-opacity="0.6"/>
<path d="M244 263C244 261.895 243.105 261 242 261C240.895 261 240 261.895 240 263C240 264.105 240.895 265 242 265C243.105 265 244 264.105 244 263Z" fill="#E94560" fill-opacity="0.6"/>
<path d="M244 311C244 309.895 243.105 309 242 309C240.895 309 240 309.895 240 311C240 312.105 240.895 313 242 313C243.105 313 244 312.105 244 311Z" fill="#E94560" fill-opacity="0.6"/>
<path d="M244 214C244 212.895 243.105 212 242 212C240.895 212 240 212.895 240 214C240 215.105 240.895 216 242 216C243.105 216 244 215.105 244 214Z" fill="#E94560" fill-opacity="0.6"/>
<path d="M244 181C244 179.895 243.105 179 242 179C240.895 179 240 179.895 240 181C240 182.105 240.895 183 242 183C243.105 183 244 182.105 244 181Z" fill="#E94560" fill-opacity="0.6"/>
<path d="M244 132C244 130.895 243.105 130 242 130C240.895 130 240 130.895 240 132C240 133.105 240.895 134 242 134C243.105 134 244 133.105 244 132Z" fill="#E94560" fill-opacity="0.6"/>
<path d="M212 19C212 17.8954 211.105 17 210 17C208.895 17 208 17.8954 208 19C208 20.1046 208.895 21 210 21C211.105 21 212 20.1046 212 19Z" fill="#E94560" fill-opacity="0.6"/>
<path d="M212 247C212 245.895 211.105 245 210 245C208.895 245 208 245.895 208 247C208 248.105 208.895 249 210 249C211.105 249 212 248.105 212 247Z" fill="#E94560" fill-opacity="0.6"/>
<path d="M212 295C212 293.895 211.105 293 210 293C208.895 293 208 293.895 208 295C208 296.105 208.895 297 210 297C211.105 297 212 296.105 212 295Z" fill="#E94560" fill-opacity="0.6"/>
<path d="M212 197C212 195.895 211.105 195 210 195C208.895 195 208 195.895 208 197C208 198.105 208.895 199 210 199C211.105 199 212 198.105 212 197Z" fill="#E94560" fill-opacity="0.6"/>
<path d="M212 148C212 146.895 211.105 146 210 146C208.895 146 208 146.895 208 148C208 149.105 208.895 150 210 150C211.105 150 212 149.105 212 148Z" fill="#E94560" fill-opacity="0.6"/>
<path d="M228 19C228 17.8954 227.105 17 226 17C224.895 17 224 17.8954 224 19C224 20.1046 224.895 21 226 21C227.105 21 228 20.1046 228 19Z" fill="#E94560" fill-opacity="0.6"/>
<path d="M228 247C228 245.895 227.105 245 226 245C224.895 245 224 245.895 224 247C224 248.105 224.895 249 226 249C227.105 249 228 248.105 228 247Z" fill="#E94560" fill-opacity="0.6"/>
<path d="M228 295C228 293.895 227.105 293 226 293C224.895 293 224 293.895 224 295C224 296.105 224.895 297 226 297C227.105 297 228 296.105 228 295Z" fill="#E94560" fill-opacity="0.6"/>
<path d="M228 197C228 195.895 227.105 195 226 195C224.895 195 224 195.895 224 197C224 198.105 224.895 199 226 199C227.105 199 228 198.105 228 197Z" fill="#E94560" fill-opacity="0.6"/>
<path d="M228 148C228 146.895 227.105 146 226 146C224.895 146 224 146.895 224 148C224 149.105 224.895 150 226 150C227.105 150 228 149.105 228 148Z" fill="#E94560" fill-opacity="0.6"/>
<path d="M244 19C244 17.8954 243.105 17 242 17C240.895 17 240 17.8954 240 19C240 20.1046 240.895 21 242 21C243.105 21 244 20.1046 244 19Z" fill="#E94560" fill-opacity="0.6"/>
<path d="M244 247C244 245.895 243.105 245 242 245C240.895 245 240 245.895 240 247C240 248.105 240.895 249 242 249C243.105 249 244 248.105 244 247Z" fill="#E94560" fill-opacity="0.6"/>
<path d="M244 295C244 293.895 243.105 293 242 293C240.895 293 240 293.895 240 295C240 296.105 240.895 297 242 297C243.105 297 244 296.105 244 295Z" fill="#E94560" fill-opacity="0.6"/>
<path d="M244 197C244 195.895 243.105 195 242 195C240.895 195 240 195.895 240 197C240 198.105 240.895 199 242 199C243.105 199 244 198.105 244 197Z" fill="#E94560" fill-opacity="0.6"/>
<path d="M244 148C244 146.895 243.105 146 242 146C240.895 146 240 146.895 240 148C240 149.105 240.895 150 242 150C243.105 150 244 149.105 244 148Z" fill="#E94560" fill-opacity="0.6"/>
<path d="M212 35C212 33.8954 211.105 33 210 33C208.895 33 208 33.8954 208 35C208 36.1046 208.895 37 210 37C211.105 37 212 36.1046 212 35Z" fill="#E94560" fill-opacity="0.6"/>
<path d="M212 164C212 162.895 211.105 162 210 162C208.895 162 208 162.895 208 164C208 165.105 208.895 166 210 166C211.105 166 212 165.105 212 164Z" fill="#E94560" fill-opacity="0.6"/>
<path d="M228 35C228 33.8954 227.105 33 226 33C224.895 33 224 33.8954 224 35C224 36.1046 224.895 37 226 37C227.105 37 228 36.1046 228 35Z" fill="#E94560" fill-opacity="0.6"/>
<path d="M228 164C228 162.895 227.105 162 226 162C224.895 162 224 162.895 224 164C224 165.105 224.895 166 226 166C227.105 166 228 165.105 228 164Z" fill="#E94560" fill-opacity="0.6"/>
<path d="M244 35C244 33.8954 243.105 33 242 33C240.895 33 240 33.8954 240 35C240 36.1046 240.895 37 242 37C243.105 37 244 36.1046 244 35Z" fill="#E94560" fill-opacity="0.6"/>
<path d="M244 164C244 162.895 243.105 162 242 162C240.895 162 240 162.895 240 164C240 165.105 240.895 166 242 166C243.105 166 244 165.105 244 164Z" fill="#E94560" fill-opacity="0.6"/>
<path d="M212 51C212 49.8954 211.105 49 210 49C208.895 49 208 49.8954 208 51C208 52.1046 208.895 53 210 53C211.105 53 212 52.1046 212 51Z" fill="#E94560" fill-opacity="0.6"/>
<path d="M228 51C228 49.8954 227.105 49 226 49C224.895 49 224 49.8954 224 51C224 52.1046 224.895 53 226 53C227.105 53 228 52.1046 228 51Z" fill="#E94560" fill-opacity="0.6"/>
<path d="M244 51C244 49.8954 243.105 49 242 49C240.895 49 240 49.8954 240 51C240 52.1046 240.895 53 242 53C243.105 53 244 52.1046 244 51Z" fill="#E94560" fill-opacity="0.6"/>
<path d="M212 67C212 65.8954 211.105 65 210 65C208.895 65 208 65.8954 208 67C208 68.1046 208.895 69 210 69C211.105 69 212 68.1046 212 67Z" fill="#E94560" fill-opacity="0.6"/>
<path d="M228 67C228 65.8954 227.105 65 226 65C224.895 65 224 65.8954 224 67C224 68.1046 224.895 69 226 69C227.105 69 228 68.1046 228 67Z" fill="#E94560" fill-opacity="0.6"/>
<path d="M244 67C244 65.8954 243.105 65 242 65C240.895 65 240 65.8954 240 67C240 68.1046 240.895 69 242 69C243.105 69 244 68.1046 244 67Z" fill="#E94560" fill-opacity="0.6"/>
<path d="M212 83C212 81.8954 211.105 81 210 81C208.895 81 208 81.8954 208 83C208 84.1046 208.895 85 210 85C211.105 85 212 84.1046 212 83Z" fill="#E94560" fill-opacity="0.6"/>
<path d="M212 99C212 97.8954 211.105 97 210 97C208.895 97 208 97.8954 208 99C208 100.105 208.895 101 210 101C211.105 101 212 100.105 212 99Z" fill="#E94560" fill-opacity="0.6"/>
<path d="M212 115C212 113.895 211.105 113 210 113C208.895 113 208 113.895 208 115C208 116.105 208.895 117 210 117C211.105 117 212 116.105 212 115Z" fill="#E94560" fill-opacity="0.6"/>
<path d="M228 83C228 81.8954 227.105 81 226 81C224.895 81 224 81.8954 224 83C224 84.1046 224.895 85 226 85C227.105 85 228 84.1046 228 83Z" fill="#E94560" fill-opacity="0.6"/>
<path d="M244 83C244 81.8954 243.105 81 242 81C240.895 81 240 81.8954 240 83C240 84.1046 240.895 85 242 85C243.105 85 244 84.1046 244 83Z" fill="#E94560" fill-opacity="0.6"/>
<path d="M228 99C228 97.8954 227.105 97 226 97C224.895 97 224 97.8954 224 99C224 100.105 224.895 101 226 101C227.105 101 228 100.105 228 99Z" fill="#E94560" fill-opacity="0.6"/>
<path d="M228 115C228 113.895 227.105 113 226 113C224.895 113 224 113.895 224 115C224 116.105 224.895 117 226 117C227.105 117 228 116.105 228 115Z" fill="#E94560" fill-opacity="0.6"/>
<path d="M244 99C244 97.8954 243.105 97 242 97C240.895 97 240 97.8954 240 99C240 100.105 240.895 101 242 101C243.105 101 244 100.105 244 99Z" fill="#E94560" fill-opacity="0.6"/>
<path d="M244 115C244 113.895 243.105 113 242 113C240.895 113 240 113.895 240 115C240 116.105 240.895 117 242 117C243.105 117 244 116.105 244 115Z" fill="#E94560" fill-opacity="0.6"/>
</g>
<defs>
<clipPath id="clip0_4_2">
<rect width="244" height="313" fill="white"/>
</clipPath>
</defs>
</svg>
