<svg width="80" height="80" viewBox="0 0 80 80" fill="none" xmlns="http://www.w3.org/2000/svg">
<g clip-path="url(#clip0_913_224)">
<path d="M1.17188 39.0884L7.9588 61.1081M7.9588 61.1081L5.69644 78.8281M7.9588 61.1081H26.6838L30.4612 78.8281" stroke="#D56A34" stroke-width="2" stroke-miterlimit="10" stroke-linecap="round" stroke-linejoin="round"/>
<path d="M4.94238 51.3224H16.6395C19.0086 51.3224 20.9291 53.2429 20.9291 55.6119V61.1081M28.9793 49.6872H51.1768M7.44209 71.4393H28.2333M78.828 39.0884L72.041 61.1081M72.041 61.1081L74.3034 78.8281M72.041 61.1081H53.316L49.5387 78.8281" stroke="#D56A34" stroke-width="2" stroke-miterlimit="10" stroke-linecap="round" stroke-linejoin="round"/>
<path d="M75.0576 51.3225H63.3604C60.9914 51.3225 59.0709 53.243 59.0709 55.6121V61.1082M72.5579 71.4394H51.7666" stroke="#D56A34" stroke-width="2" stroke-miterlimit="10" stroke-linecap="round" stroke-linejoin="round"/>
<path d="M47.3488 49.8435C47.3488 49.8435 42.1144 52.3436 42.1144 61.953V73.4375L45.7082 78.8281M32.5566 49.8435C32.5566 49.8435 37.7911 52.3436 37.7911 61.953V73.4375L34.1973 78.8281M53.7259 61.1082V60.2428C53.7259 57.9867 55.5548 56.1578 57.8109 56.1578H67.6444C67.8594 56.1578 68.0687 56.089 68.2417 55.9613C68.4147 55.8336 68.5422 55.6539 68.6055 55.4484L72.6027 42.4797C73.2673 40.3238 75.5537 39.1147 77.7098 39.7792L78.5368 40.0341L72.041 61.1082H53.7259Z" stroke="#D56A34" stroke-width="2" stroke-miterlimit="10" stroke-linecap="round" stroke-linejoin="round"/>
<path d="M40.0001 3.12502V1.17188M40.0001 26.4064V24.4533M32.4594 6.24848L31.0783 4.86737M48.9219 22.711L47.5408 21.3298M29.3359 13.7892H27.3828M52.6174 13.7892H50.6642M32.4594 21.3298L31.0783 22.711M48.9219 4.86737L47.5408 6.24848M7.70452 43.4761L7.39749 42.4797C6.73295 40.3237 4.44653 39.1147 2.29042 39.7792L1.46338 40.0341L7.9589 61.1081H26.274V60.2428C26.274 57.9867 24.4451 56.1578 22.189 56.1578H12.3557C12.1407 56.1578 11.9313 56.0889 11.7584 55.9613C11.5854 55.8336 11.4579 55.6538 11.3946 55.4484L9.31547 48.7027M45.6739 10.8635C44.6126 8.8099 42.4712 7.40505 40.0001 7.40505C36.4741 7.40505 33.6158 10.2634 33.6158 13.7893C33.6158 17.3153 36.4741 20.1736 40.0001 20.1736C42.6218 20.1736 44.8734 18.5926 45.8564 16.3325M37.7915 61.953H42.1148V73.4374H37.7915V61.953Z" stroke="#D56A34" stroke-width="2" stroke-miterlimit="10" stroke-linecap="round" stroke-linejoin="round"/>
</g>
<defs>
<clipPath id="clip0_913_224">
<rect width="80" height="80" fill="white"/>
</clipPath>
</defs>
</svg>
