<svg width="621" height="421" viewBox="0 0 621 421" fill="none" xmlns="http://www.w3.org/2000/svg">
<g clip-path="url(#clip0_912_33)">
<g style="mix-blend-mode:multiply" opacity="0.47">
<path d="M331.76 416.72C331.76 414.776 355.563 414.135 355.439 412.584C354.922 406.38 1.79929 417.629 6.83376e-05 406.959C-0.992605 400.569 122.885 384.212 226.33 384.543C245.19 384.543 255.489 385.164 270.111 385.081C282.519 385.081 289.943 385.577 290.171 384.626C290.729 382.103 238.841 376.355 239.234 371.371C239.627 366.387 290.419 364.34 327.458 364.195C369.75 364.009 380.401 366.491 437.19 368.972C506.408 372.033 553.415 369.303 554.47 377.099C554.967 380.842 544.337 383.882 545.143 387.728C546.818 395.565 592.709 390.354 593.226 393.932C593.495 395.689 582.885 400.921 543.096 407.952C435.411 426.956 331.801 420.752 331.76 416.72Z" fill="#F9A806"/>
</g>
<path opacity="0.27" d="M566.279 29.2811C578.977 49.1741 483.556 122.108 496.357 142.229C508.207 160.84 600.526 115.574 612.542 135.777C615.044 139.913 614.61 148.06 599.637 168.057C569.36 208.339 531.639 228.17 491.58 247.298C410.925 285.864 362.967 308.362 352.73 294.983C346.857 287.353 359.782 276.372 355.418 267.025C337.406 228.232 81.4819 338.802 46.6349 282.08C33.5647 260.801 46.0559 210.014 72.4651 182.035C87.6447 165.947 105.223 159.682 104.727 146.53C104.024 127.733 65.5784 125.231 63.8619 108.874C61.3803 85.3621 136.658 57.1768 184.348 44.3353C220.436 34.5956 216.134 40.1995 273.647 27.1305C327.417 14.868 371.156 0.847744 374.776 8.82977C377.485 14.7853 355.253 27.2132 358.645 35.7122C362.036 44.2112 385.695 41.8125 393.078 41.0887C496.502 30.8734 557.303 15.2195 566.279 29.2811Z" fill="white"/>
<path d="M234.416 402.017L193.613 402.141C193.052 400.099 193.131 397.933 193.84 395.937C194.087 395.273 194.413 394.641 194.812 394.056C196.505 391.055 197.535 387.727 197.832 384.295L205.236 383.447C214.583 396.02 219.877 398.543 223 398.357C225.213 398.233 227.343 399.453 229.556 399.473C230.962 399.473 232.72 399.349 233.692 400.466C234.072 400.906 234.323 401.443 234.416 402.017Z" fill="#F24040"/>
<path d="M207.2 389.734L196.86 389.92C193.549 379.939 190.788 369.784 188.587 359.501C182.942 333.508 185.196 326.084 186.519 322.858C188.093 319.394 189.474 315.846 190.656 312.229C192.357 306.526 193.418 300.652 193.82 294.714L211.46 311.692C210.137 317.42 208.979 323.499 208.048 329.91C205.122 349.726 204.837 369.842 207.2 389.734Z" fill="#F24040"/>
<path d="M78.4213 400.156L66.4679 400.301C60.6359 390.83 54.8108 381.359 48.9927 371.888C50.018 370.01 51.5904 368.488 53.5011 367.525C54.1624 367.225 54.8564 367.003 55.5691 366.863C58.877 365.879 61.9369 364.202 64.5446 361.941L70.4386 366.47C69.1977 378.505 69.5079 387.562 70.9142 389.568C71.1417 389.878 71.7828 390.582 72.7134 391.967C73.6441 393.353 74.037 394.324 74.9883 394.697C75.9396 395.069 75.9603 394.697 76.7875 394.883C77.4967 395.184 78.0978 395.693 78.5113 396.343C78.9249 396.992 79.1315 397.752 79.1038 398.522C79.0387 399.121 78.8016 399.689 78.4213 400.156Z" fill="#F24040"/>
<path d="M219.153 107.034C218.057 109.991 216.961 112.948 215.844 115.926L210.55 130.132L189.477 122.625L203.953 94.1714C206.59 97.1661 209.475 99.933 212.577 102.443C214.674 104.106 216.87 105.639 219.153 107.034Z" fill="#F24040"/>
<path d="M219.153 107.033C218.057 109.991 216.961 112.948 215.845 115.925C211.915 114.395 210.447 108.419 212.556 102.484V102.339L219.153 107.033Z" fill="#210B04"/>
<path d="M187.305 240.288L164.329 202.322C167.087 188.26 169.844 174.191 172.601 160.116C172.601 158.048 172.457 140.843 179.674 128.953C182.037 125.11 184.941 121.628 188.298 118.614C190.328 116.887 192.532 115.376 194.874 114.106L209.889 122.625C211.254 124.176 226.433 141.877 220.229 158.855C219.208 161.6 217.718 164.147 215.824 166.382C212.529 175.026 209.213 183.683 205.877 192.354C199.714 208.387 193.523 224.365 187.305 240.288Z" fill="#F24040"/>
<path d="M180.274 236.421C174.649 248.518 161.992 254.536 152.024 249.883C142.056 245.23 138.499 231.686 144.124 219.588C149.749 207.491 162.406 201.494 172.394 206.147C182.383 210.8 185.899 224.345 180.274 236.421Z" fill="#F24040"/>
<path d="M138.726 298.871C131.86 309.789 123.981 316.903 120.01 315.414C116.039 313.925 114.964 301.538 119.721 285.781L148.032 225.006L184.885 237.413C181.852 245.402 178.086 253.093 173.635 260.388C164.498 275.278 152.659 288.33 138.726 298.871Z" fill="#F24040"/>
<path d="M180.823 247.082C190.849 242.53 194.509 229.003 188.998 216.867C183.488 204.732 170.893 198.584 160.868 203.135C150.843 207.687 147.182 221.214 152.693 233.35C158.204 245.485 170.798 251.633 180.823 247.082Z" fill="#F24040"/>
<path d="M209.289 289.131C213.115 301.538 213.425 312.064 209.599 314.049C205.773 316.034 195.784 308.859 186.85 294.963C177.613 274.615 168.376 254.274 159.138 233.939L192.579 214.046C196.718 221.543 200.152 229.407 202.837 237.538C208.19 254.182 210.378 271.681 209.289 289.131Z" fill="#F24040"/>
<path d="M67.3777 372.405L59.8086 365.291C64.3237 355.782 69.3638 346.532 74.9055 337.582C88.927 314.959 95.6896 311.196 98.8331 309.748C102.367 308.329 105.819 306.713 109.173 304.909C114.373 302.018 119.229 298.55 123.65 294.57C124.684 300.705 125.711 306.86 126.731 313.036C120.982 318.55 115.219 324.12 109.442 329.744C94.8279 344.054 80.8064 358.274 67.3777 372.405Z" fill="#F24040"/>
<path d="M219.712 108.274C212.795 106.101 206.766 101.748 202.526 95.8671C200.749 93.5133 199.561 90.7685 199.061 87.8618C198.561 84.9551 198.763 81.971 199.652 79.1586C200.56 76.686 202.015 74.4509 203.91 72.6209C205.805 70.7909 208.089 69.4134 210.592 68.5917C219.547 65.5933 229.453 70.6596 231.479 75.7466C231.775 76.4906 231.977 77.2686 232.079 78.0626C232.679 83.8527 232.948 86.4582 232.989 86.5823C233.028 86.7315 233.028 86.8881 232.989 87.0372C232.971 87.1613 232.929 87.2807 232.865 87.3888C232.596 88.1126 232.307 88.8363 232.017 89.4567C231.769 92.0062 231.651 94.5669 231.665 97.1285C231.673 97.1972 231.673 97.2666 231.665 97.3353C231.823 98.0209 231.787 98.7367 231.562 99.4032C231.562 99.5273 231.438 99.6307 231.562 99.7547C231.686 99.8788 231.976 99.9615 232.079 100.168C232.183 100.375 231.686 100.995 231.583 101.099C231.479 101.202 230.714 101.967 229.99 101.74C229.807 101.693 229.646 101.583 229.535 101.43C229.535 101.43 230.797 102.05 230.735 102.588C230.683 102.774 230.565 102.936 230.404 103.043C230.262 103.15 230.101 103.227 229.928 103.27C229.349 103.56 230.218 106.827 229.639 108.068C228.77 109.784 223.952 109.515 219.712 108.274Z" fill="#F24040"/>
<path d="M234.974 95.8464C234.974 96.6528 234.002 97.1491 233.671 97.3352C233.039 97.6777 232.319 97.8219 231.603 97.7488C231.259 97.4717 231.036 97.071 230.983 96.6322C230.983 96.1772 231.252 95.9704 231.376 95.4535C231.511 94.939 231.475 94.3944 231.272 93.9025C231.541 92.2482 231.81 90.5733 232.058 88.9189C232.513 89.9736 232.844 90.8214 233.072 91.4211C233.351 92.2741 233.696 93.1039 234.106 93.9025C234.623 95.0399 235.057 95.2673 234.974 95.8464Z" fill="#F24040"/>
<path d="M223.393 88.7742C223.34 88.7931 223.281 88.7931 223.228 88.7742C223.18 88.7241 223.153 88.6574 223.153 88.5881C223.153 88.5187 223.18 88.452 223.228 88.4019C223.948 87.6614 224.88 87.1628 225.895 86.9751C226.585 86.8687 227.29 86.8998 227.968 87.0666C228.645 87.2334 229.284 87.5326 229.846 87.947L230.507 86.9131C230.53 86.8899 230.558 86.8716 230.588 86.8591C230.618 86.8465 230.65 86.8401 230.683 86.8401C230.716 86.8401 230.748 86.8465 230.778 86.8591C230.808 86.8716 230.836 86.8899 230.859 86.9131C230.882 86.9361 230.9 86.9635 230.913 86.9937C230.925 87.0239 230.932 87.0562 230.932 87.0888C230.932 87.1215 230.925 87.1538 230.913 87.184C230.9 87.2142 230.882 87.2416 230.859 87.2646L230.032 88.5467C229.991 88.6047 229.933 88.6482 229.866 88.6708C229.799 88.6915 229.727 88.6915 229.659 88.6708C229.139 88.2443 228.536 87.9319 227.887 87.7538C227.239 87.5757 226.56 87.5358 225.895 87.6368C224.983 87.8083 224.146 88.2559 223.497 88.9189C223.447 88.8838 223.41 88.8328 223.393 88.7742Z" fill="#210B04"/>
<path d="M229.868 88.8408C229.975 87.9218 229.381 87.0981 228.541 87.0008C227.702 86.9035 226.935 87.5695 226.828 88.4885C226.722 89.4074 227.316 90.2312 228.155 90.3285C228.995 90.4258 229.762 89.7597 229.868 88.8408Z" fill="#210B04"/>
<path d="M222.173 84.2247C222.689 84.1729 223.208 84.1729 223.724 84.2247C226.105 84.563 228.433 85.2023 230.652 86.1272C231.09 85.6676 231.373 85.0814 231.459 84.4522C231.543 83.9076 231.479 83.3503 231.272 82.8392C229.615 82.7162 227.97 82.4673 226.35 82.0948C225.303 81.8336 224.216 81.7705 223.145 81.9087C222.711 81.9492 222.289 82.0758 221.904 82.2809C221.486 82.5494 221.127 82.9007 220.849 83.3133C220.572 83.7258 220.382 84.1908 220.291 84.6796C220.906 84.481 221.535 84.3289 222.173 84.2247Z" fill="#210B04"/>
<path d="M229.949 101.926L226.102 101.037C226.034 101.022 225.975 100.981 225.936 100.923C225.898 100.865 225.883 100.795 225.895 100.727C225.903 100.693 225.916 100.662 225.936 100.635C225.956 100.607 225.981 100.584 226.01 100.566C226.039 100.549 226.072 100.538 226.105 100.533C226.139 100.529 226.173 100.531 226.206 100.54L230.011 101.409C230.079 101.424 230.138 101.465 230.177 101.522C230.215 101.58 230.23 101.651 230.218 101.719C230.2 101.777 230.165 101.829 230.117 101.866C230.068 101.903 230.01 101.924 229.949 101.926Z" fill="#210B04"/>
<path d="M228.17 101.202C228.12 101.201 228.072 101.184 228.031 101.155C227.99 101.125 227.96 101.084 227.943 101.037C227.926 101.006 227.916 100.972 227.915 100.937C227.913 100.902 227.92 100.867 227.934 100.836C227.948 100.804 227.969 100.775 227.996 100.753C228.022 100.73 228.054 100.714 228.088 100.706L231.438 99.4444C231.469 99.4311 231.503 99.4244 231.536 99.4246C231.57 99.4247 231.604 99.4318 231.635 99.4454C231.666 99.4589 231.694 99.4787 231.717 99.5034C231.74 99.5281 231.757 99.5573 231.769 99.5891C231.786 99.6525 231.781 99.7198 231.754 99.7799C231.728 99.84 231.682 99.8894 231.624 99.92L228.274 101.181L228.17 101.202Z" fill="#210B04"/>
<path d="M141.497 305.323L77.6973 368.765L63.0347 358.881C70.9415 330.677 89.7135 306.76 115.233 292.378C122.388 275.421 129.551 258.478 136.72 241.549C137.283 228.89 142.402 216.861 151.134 207.677C155.227 203.547 160.034 200.191 165.321 197.772L185.754 218.203C184.868 228.917 182.637 239.477 179.115 249.635C171.518 271.095 158.571 290.263 141.497 305.323Z" fill="#4DB6D6"/>
<path d="M211.419 292.688C211.998 296.41 212.494 300.194 212.949 304.082C215.848 329.896 215.215 355.984 211.067 381.627L189.249 385.763C186.947 372.522 185.456 359.152 184.782 345.729C184.018 330.619 184.28 315.475 185.568 300.401C177.489 282.934 169.389 265.454 161.268 247.96C162.647 231.251 163.963 214.536 165.218 197.813C167.1 201.019 174.814 213.261 188.732 215.742C191.388 216.206 194.096 216.296 196.777 216.011C207.767 240.031 212.79 266.35 211.419 292.729V292.688Z" fill="#4DB6D6"/>
<path d="M170.988 268.101C170.958 268.087 170.931 268.068 170.908 268.044C170.886 268.02 170.868 267.992 170.857 267.961C170.845 267.931 170.84 267.898 170.841 267.865C170.842 267.832 170.85 267.8 170.864 267.77L178.536 251.785C178.573 251.739 178.624 251.707 178.681 251.693C178.739 251.679 178.799 251.684 178.853 251.707C178.907 251.731 178.952 251.771 178.981 251.823C179.009 251.874 179.02 251.934 179.012 251.992L171.319 267.977C171.305 268.007 171.286 268.034 171.262 268.056C171.238 268.079 171.21 268.096 171.179 268.108C171.148 268.12 171.116 268.125 171.083 268.124C171.05 268.122 171.018 268.115 170.988 268.101Z" fill="#210B04"/>
<path d="M183.645 249.49C183.575 249.48 183.512 249.445 183.466 249.392C183.421 249.338 183.396 249.27 183.396 249.2L185.465 218.906C185.481 218.84 185.518 218.78 185.57 218.736C185.622 218.692 185.686 218.664 185.754 218.658C185.788 218.657 185.821 218.664 185.852 218.678C185.883 218.692 185.91 218.713 185.932 218.738C185.953 218.764 185.969 218.794 185.978 218.827C185.986 218.859 185.988 218.893 185.982 218.927L183.914 249.242C183.908 249.309 183.878 249.373 183.828 249.419C183.778 249.465 183.713 249.49 183.645 249.49Z" fill="#210B04"/>
<path d="M179.364 251.248C179.316 251.251 179.267 251.239 179.226 251.213C179.185 251.187 179.154 251.148 179.136 251.103C179.108 251.04 179.105 250.968 179.128 250.902C179.151 250.837 179.198 250.783 179.261 250.751L182.652 249.221C182.716 249.197 182.786 249.196 182.851 249.219C182.915 249.242 182.969 249.286 183.004 249.345C183.031 249.411 183.031 249.485 183.004 249.551C182.977 249.617 182.925 249.669 182.859 249.697L179.467 251.227L179.364 251.248Z" fill="#210B04"/>
<path d="M178.412 246.657C178.339 246.652 178.271 246.619 178.221 246.565C178.171 246.511 178.143 246.441 178.144 246.367L180.811 218.989C180.817 218.927 180.845 218.869 180.891 218.826C180.937 218.784 180.997 218.761 181.06 218.761C181.133 218.766 181.201 218.799 181.251 218.853C181.301 218.907 181.329 218.977 181.328 219.051L178.661 246.409C178.661 246.475 178.634 246.538 178.588 246.584C178.541 246.631 178.478 246.657 178.412 246.657Z" fill="#210B04"/>
<path d="M202.03 228.811C194.745 229.859 187.32 229.302 180.274 227.177C168.887 223.577 159.069 216.202 152.438 206.271C155.075 187.553 159.486 169.128 165.611 151.245C171.05 135.467 176.737 123.246 188.836 116.711C190.34 115.907 191.902 115.216 193.509 114.643C199.132 120.253 204.246 126.349 208.792 132.861C209.413 133.792 210.86 135.963 211.729 135.674C213.053 135.26 212.598 129.946 211.957 125.334C218.414 132.718 221.848 142.267 221.573 152.072C221.259 158.424 219.322 164.589 215.948 169.98C211.343 189.583 206.704 209.194 202.03 228.811Z" fill="#210B04"/>
<path d="M268.146 164.976H83.9429V264.234H268.146V164.976Z" fill="white"/>
<path d="M141.766 164.976H129.42V264.234H141.766V164.976Z" fill="#6456EF"/>
<path d="M268.146 195.146H83.9429V207.409H268.146V195.146Z" fill="#6456EF"/>
<path d="M157.98 194.443L134.838 198.579L133.99 197.379L148.591 183.607C150.957 184.476 153.083 185.893 154.795 187.743C156.502 189.608 157.611 191.942 157.98 194.443Z" fill="#6456EF"/>
<path d="M110.249 219.609L134.59 200.998L136.265 201.949C133.232 210.317 130.206 218.699 127.187 227.095C123.902 227.452 120.58 226.976 117.529 225.709C114.562 224.424 112.033 222.304 110.249 219.609Z" fill="#6456EF"/>
<path d="M178.019 221.305L168.279 225.44C164.308 219.733 160.751 215.287 158.187 212.247C147.329 199.282 143.172 195.498 140.794 187.702C139.198 182.223 138.971 176.436 140.132 170.848L153.719 171.779C156.123 175.04 158.247 178.499 160.068 182.118C166.728 195.373 165.838 203.707 173.47 215.204C174.849 217.337 176.369 219.374 178.019 221.305Z" fill="#F24040"/>
<path d="M152.272 180.195L140.215 170.91C146.523 161.543 152.189 153.933 156.512 148.35C175.29 124.093 182.859 119.978 189.063 120.681C190.032 120.781 190.984 121.003 191.896 121.343L180.088 152.899L152.272 180.195Z" fill="#F24040"/>
<path d="M164.494 175.336L142.387 154.926C146.523 150.087 150.79 145.2 155.188 140.264C161.337 133.454 167.438 127.023 173.49 120.971C175.698 118.687 178.61 117.213 181.757 116.785C184.905 116.357 188.105 117.002 190.842 118.614H190.986C195.449 121.466 199.064 125.466 201.451 130.194L164.494 175.336Z" fill="#210B04"/>
<path d="M186.292 225.626C186.292 226.123 185.527 226.309 185.175 226.412C184.092 226.486 183.016 226.179 182.135 225.544C181.091 224.962 180.114 224.268 179.219 223.476C178.206 223.042 177.668 223.248 177.399 223.476C177.13 223.703 176.283 225.068 179.716 234.746C179.716 234.746 180.791 237.827 181.784 240.805C181.99 241.177 184.369 245.582 183.19 246.574C183.102 246.65 183 246.707 182.89 246.742C182.78 246.778 182.664 246.791 182.549 246.781C181.463 245.887 180.664 244.693 180.253 243.348C179.674 241.88 179.095 240.102 178.061 237.972C177.352 236.539 176.543 235.157 175.641 233.836C175.36 233.874 175.103 234.014 174.918 234.229C174.028 235.366 175.455 238.158 176.613 243.121C177.13 245.189 178.185 249.779 177.151 250.296C176.8 250.482 176.303 250.11 176.096 249.986C174.028 248.725 174.028 245.685 173.511 242.749C173.072 239.823 172.345 236.949 171.34 234.167C171.443 236.69 171.567 239.295 171.753 241.963C171.905 244.155 172.071 246.305 172.25 248.415C171.909 248.62 171.504 248.693 171.112 248.621C170.14 248.373 169.417 246.884 169.623 244.899L168.258 233.36C167.659 233.257 167.08 233.112 166.501 232.988C166.229 235.328 166.118 237.684 166.17 240.04C166.17 241.797 166.314 243.617 165.653 243.824C164.991 244.031 164.577 243.162 164.536 243.079C163.742 241.855 163.406 240.391 163.585 238.944C163.977 234.808 164.184 231.892 164.184 231.251C164.184 230.61 164.184 230.072 164.184 230.072C164.184 230.072 164.184 229.762 164.184 229.535C164.184 229.307 164.184 228.956 164.019 228.418C163.853 227.88 163.812 227.57 163.667 226.971C163.667 226.971 163.522 226.371 163.398 225.399C162.488 217.727 170.471 212.64 170.699 214.129C172.953 215.742 180.419 219.816 180.419 219.816C185.072 222.607 186.416 225.047 186.292 225.626Z" fill="#F24040"/>
<path d="M234.767 69.977C235.202 70.8869 234.043 72.2517 233.237 73.2236C232.042 74.6287 230.561 75.7636 228.894 76.5529C227.34 77.1985 225.744 77.7375 224.117 78.1658C221.822 78.9027 219.708 80.1146 217.912 81.7226C214.852 84.7417 215.327 87.9262 213.218 88.3191C211.109 88.712 209.992 86.2513 208.73 86.9957C207.469 87.7401 208.937 91.4416 206.662 94.3574C206.538 94.5228 204.884 96.57 203.022 96.2805C202.236 96.1564 201.327 95.5981 200.251 93.5922C197.873 89.0843 197.707 82.7359 197.79 79.3652C199.933 73.1725 204.376 68.0414 210.199 65.0348C217.002 61.8709 225.461 62.4706 225.875 64.1042C226.143 65.1382 223.165 66.6271 223.496 67.2474C223.972 68.178 231.045 65.1795 231.769 66.5443C232.037 66.9786 231.396 67.4749 231.769 68.1987C232.12 69.398 234.292 68.9431 234.767 69.977Z" fill="#210B04"/>
<path d="M237.249 402.141H190.945C191.051 399.969 191.584 397.839 192.513 395.874C193.443 393.908 194.751 392.145 196.363 390.685C198.245 394.117 200.83 396.537 202.96 396.165C204.346 395.917 205.545 394.304 207.965 391.098C208.792 390.002 209.433 389.03 209.868 388.348C210.558 388.148 211.299 388.222 211.936 388.555C212.908 389.175 212.846 390.437 213.073 391.264C214.004 394.366 220.601 394.345 227.446 396.496C230.319 397.394 233.131 398.479 235.863 399.742L237.249 402.141Z" fill="#210B04"/>
<path d="M69.9425 376.83C70.0901 379.892 70.4983 382.936 71.1626 385.929C72.7344 392.96 74.4922 393.869 75.0506 394.2C76.4982 394.8 77.4289 394.076 78.5043 394.841C80.0346 395.917 80.014 398.626 79.6624 401.045L65.0825 400.528L48.207 371.578C49.8978 369.287 52.198 367.517 54.8455 366.47C56.4296 365.85 58.1086 365.507 59.8089 365.457C60.0143 369.326 61.0288 373.109 62.7869 376.561C63.6555 378.278 65.8063 382.434 67.6469 382.062C69.4875 381.69 69.8597 377.554 69.9425 376.83Z" fill="#210B04"/>
<path d="M68.4119 360.225C68.3498 360.194 68.3021 360.14 68.279 360.074C68.2559 360.009 68.259 359.937 68.2878 359.873C78.7782 336.338 95.7946 316.302 117.322 302.138C117.345 302.115 117.372 302.097 117.402 302.084C117.433 302.072 117.465 302.065 117.498 302.065C117.53 302.065 117.563 302.072 117.593 302.084C117.623 302.097 117.65 302.115 117.673 302.138C117.717 302.19 117.741 302.256 117.741 302.324C117.741 302.392 117.717 302.458 117.673 302.51C96.236 316.632 79.2808 336.584 68.8048 360.018C68.8058 360.064 68.7939 360.11 68.7705 360.149C68.7471 360.189 68.7131 360.222 68.6723 360.243C68.6315 360.265 68.5855 360.274 68.5395 360.271C68.4935 360.268 68.4493 360.252 68.4119 360.225Z" fill="#210B04"/>
<path d="M121.541 300.194H121.417C121.394 300.171 121.375 300.144 121.363 300.114C121.35 300.084 121.344 300.051 121.344 300.019C121.344 299.986 121.35 299.954 121.363 299.924C121.375 299.893 121.394 299.866 121.417 299.843L139.823 266.571C139.864 266.524 139.92 266.492 139.982 266.482C140.044 266.472 140.108 266.484 140.162 266.516C140.216 266.548 140.257 266.598 140.278 266.657C140.299 266.716 140.299 266.781 140.278 266.84L121.872 300.091C121.835 300.142 121.783 300.179 121.723 300.198C121.664 300.216 121.6 300.215 121.541 300.194Z" fill="#210B04"/>
<path d="M116.391 295.707C116.341 295.706 116.292 295.689 116.252 295.66C116.211 295.63 116.18 295.589 116.164 295.542L115.171 293.246C115.149 293.18 115.151 293.108 115.178 293.044C115.204 292.979 115.253 292.926 115.316 292.895C115.379 292.874 115.448 292.877 115.509 292.903C115.57 292.93 115.619 292.979 115.647 293.04L116.639 295.335C116.662 295.401 116.659 295.473 116.633 295.538C116.606 295.602 116.557 295.655 116.495 295.686L116.391 295.707Z" fill="#210B04"/>
<path d="M186.726 300.236C186.676 300.235 186.626 300.222 186.583 300.196C186.539 300.171 186.503 300.135 186.478 300.091C186.456 300.025 186.458 299.953 186.485 299.888C186.511 299.824 186.56 299.771 186.623 299.74L190.552 298.085C190.582 298.071 190.614 298.064 190.647 298.062C190.68 298.061 190.713 298.067 190.744 298.078C190.774 298.09 190.803 298.107 190.827 298.13C190.85 298.152 190.87 298.179 190.883 298.209C190.9 298.241 190.909 298.277 190.911 298.313C190.913 298.349 190.906 298.385 190.893 298.419C190.879 298.452 190.858 298.482 190.831 298.507C190.805 298.531 190.773 298.55 190.738 298.561L186.83 300.215L186.726 300.236Z" fill="#210B04"/>
<path d="M188.008 302.407C187.952 302.409 187.897 302.391 187.852 302.357C187.807 302.324 187.774 302.275 187.76 302.221C187.747 302.188 187.742 302.153 187.745 302.118C187.748 302.083 187.759 302.05 187.777 302.02C187.795 301.99 187.819 301.964 187.849 301.945C187.878 301.926 187.912 301.914 187.946 301.911L192.083 301.001C192.145 301.001 192.205 301.022 192.253 301.062C192.301 301.101 192.334 301.156 192.346 301.217C192.358 301.278 192.349 301.341 192.32 301.396C192.291 301.451 192.243 301.494 192.186 301.518L188.05 302.407H188.008Z" fill="#210B04"/>
<path d="M335.193 144.586C338.254 147.316 341.397 150.066 344.375 152.858C347.477 151.576 350.724 150.045 354.136 148.35C356.535 147.13 358.996 145.765 361.561 144.214C364.559 142.456 367.641 140.533 370.764 138.362C374.548 135.736 378.023 133.047 381.104 130.401C381.52 128.822 381.509 127.161 381.073 125.588C380.637 124.015 379.791 122.586 378.622 121.447C376.961 120.001 374.827 119.214 372.625 119.234L335.193 144.586Z" fill="#F24040"/>
<path d="M348.077 136.108C350.145 140.244 352.213 144.255 354.281 148.329C356.68 147.109 359.141 145.744 361.706 144.193C357.135 141.546 352.565 138.838 348.077 136.108Z" fill="#210B04"/>
<path d="M346.795 134.784C352.075 140.078 357.342 145.386 362.595 150.707L380.153 133.688C384.289 128.519 385.778 122.563 383.689 119.73C381.146 116.277 372.315 115.925 364.291 122.646L346.795 134.784Z" fill="#6456EF"/>
<path d="M370.515 187.019C369.398 188.115 368.282 189.211 367.144 190.286C352.047 178.396 340.776 168.925 335.317 164.066C333.952 162.846 330.602 160.592 329.919 156.683C328.988 151.431 333.269 146.592 335.337 144.545C336.894 145.064 338.36 145.824 339.68 146.799C341.783 148.361 343.473 150.412 344.602 152.775C344.871 153.106 345.388 153.768 346.029 154.616C355.873 167.643 357.362 174.384 365.552 182.594C367.11 184.174 368.768 185.652 370.515 187.019Z" fill="#F24040"/>
<path d="M403.439 155.546C394.319 173.33 391.403 184.993 390.534 192.561C389.872 198.372 388.57 204.162 387.577 209.952C387.093 214.479 385.827 218.887 383.834 222.98C382.421 225.767 380.587 228.32 378.395 230.548C369.626 220.209 360.878 209.869 352.151 199.53L362.884 190.948C364.608 183.785 365.25 176.403 364.787 169.049C364.482 165.11 363.93 161.194 363.132 157.324C363.794 153.664 364.663 149.797 365.676 145.868C368.509 135.093 372.323 124.599 377.071 114.519C378.994 111.604 380.856 108.729 382.696 105.896C384.661 106.992 386.626 107.964 388.611 109.122L392.458 111.19C390.593 113.502 389.386 116.274 388.962 119.213C388.847 119.897 388.792 120.588 388.797 121.281C388.781 125.048 390.075 128.703 392.458 131.621L403.439 155.546Z" fill="#F24040"/>
<path d="M385.592 159.516C385.164 161.469 385.325 163.505 386.055 165.367C386.784 167.228 388.049 168.832 389.69 169.975C391.33 171.118 393.273 171.748 395.272 171.788C397.271 171.827 399.237 171.273 400.921 170.196C402.605 169.118 403.932 167.566 404.734 165.734C405.536 163.903 405.778 161.875 405.427 159.907C405.077 157.938 404.151 156.118 402.767 154.676C401.382 153.233 399.601 152.234 397.649 151.803C396.35 151.517 395.008 151.489 393.699 151.722C392.391 151.955 391.14 152.444 390.021 153.16C388.901 153.876 387.933 154.807 387.173 155.897C386.413 156.988 385.876 158.218 385.592 159.516Z" fill="#F24040"/>
<path d="M336.392 220.643C332.401 235.263 337.964 249.593 348.801 252.488C359.637 255.383 371.673 245.995 375.686 231.375C379.698 216.755 374.114 202.425 363.277 199.53C352.44 196.635 340.363 206.064 336.392 220.643Z" fill="#F24040"/>
<path d="M370.805 234.725C370.495 236.483 370.143 238.344 369.75 240.226C368.965 244.217 367.931 248.497 366.628 252.861C365.175 258.168 363.456 263.4 361.478 268.535C360.03 272.361 358.376 276.29 356.473 280.281C352.656 288.436 348.246 296.302 343.279 303.813C337.075 302.056 330.871 300.236 324.667 298.457C324.667 296.265 324.853 293.184 325.018 289.566C325.142 286.877 325.246 284.479 325.328 282.328C325.576 277.593 325.721 273.932 325.887 271.017C326.027 267.401 326.379 263.797 326.941 260.222C327.065 259.685 327.19 259.044 327.376 258.154C329 250.627 331.851 243.417 335.813 236.814C347.457 236.09 359.162 235.428 370.805 234.725Z" fill="#F24040"/>
<path d="M376.231 247.468C385.906 241.731 388.612 228.417 382.274 217.731C375.937 207.045 362.956 203.033 353.28 208.77C343.605 214.507 340.899 227.821 347.237 238.507C353.575 249.193 366.556 253.205 376.231 247.468Z" fill="#F24040"/>
<path d="M372.149 263.489C370 260.13 368.152 256.587 366.628 252.902C366.007 251.289 365.345 249.552 364.746 247.711L369.75 240.267C375.113 232.326 380.442 224.386 385.737 216.445C400.507 236.697 410.934 259.781 416.365 284.251L399.593 293.929C398.062 292.357 395.932 290.144 393.388 287.477C381.414 274.925 377.051 270.189 374.569 266.963L372.149 263.489Z" fill="#F24040"/>
<path d="M343.713 303.255C336.112 312.877 329.002 322.878 322.412 333.218C321.75 334.273 321.068 335.286 320.447 336.32C312.516 348.978 305.348 362.098 298.981 375.61L291.122 371.578C291.867 369.51 292.963 366.346 294.1 362.458C298.877 346.308 297.926 339.298 300.097 331.192C300.743 328.756 301.637 326.393 302.765 324.14C305.972 317.938 310.061 312.234 314.905 307.204C318.309 303.396 322.016 299.869 325.99 296.658L343.713 303.255Z" fill="#F24040"/>
<path d="M316.353 403.154C316.346 403.59 316.25 404.019 316.071 404.416C315.892 404.813 315.634 405.17 315.313 405.464C314.991 405.758 314.613 405.984 314.202 406.127C313.791 406.27 313.354 406.328 312.92 406.297L301.235 404.415L281.423 388.348C280.764 387.668 280.375 386.771 280.327 385.825C280.327 383.902 282.561 382.475 283.429 381.896C286.918 379.193 289.571 375.559 291.081 371.412L298.94 375.444C300.123 378.449 301.124 381.522 301.939 384.647C303.8 391.388 303.8 394.324 306.302 397.054C308.269 398.986 310.823 400.208 313.561 400.528C314.25 400.6 314.896 400.896 315.4 401.37C315.904 401.845 316.239 402.471 316.353 403.154Z" fill="#F24040"/>
<path d="M417.337 292.171C413.201 298.788 406.996 308.714 399.324 320.935C397.442 323.996 396.222 325.96 395.064 327.883C387.66 340.291 381.332 352.078 375.934 363.265L368.013 359.253C368.799 357.185 369.895 354.063 371.053 350.154C374.983 336.817 374.983 329.682 376.12 323.024C376.733 319.143 377.932 315.378 379.677 311.857C382.888 305.663 386.969 299.96 391.796 294.921C395.208 291.1 398.921 287.559 402.902 284.334C403.687 283.693 412.704 280.074 416.365 284.334C418.64 286.836 417.626 291.075 417.337 292.171Z" fill="#F24040"/>
<path d="M393.244 390.995C393.245 391.431 393.156 391.863 392.982 392.263C392.807 392.663 392.551 393.023 392.23 393.318C391.909 393.614 391.53 393.839 391.117 393.981C390.704 394.122 390.266 394.175 389.832 394.138C385.923 393.538 382.035 392.918 378.126 392.277L358.376 376.189C357.712 375.531 357.327 374.642 357.301 373.707C357.301 371.743 359.555 370.357 360.382 369.758C363.862 367.042 366.506 363.401 368.013 359.253L375.934 363.223C376.761 365.436 377.857 368.579 378.912 372.446C380.732 379.208 380.732 382.124 383.255 384.853C385.244 386.754 387.801 387.952 390.535 388.265C391.226 388.353 391.868 388.669 392.359 389.164C392.85 389.658 393.162 390.303 393.244 390.995Z" fill="#F24040"/>
<path d="M387.908 117.518C388.21 118.113 388.563 118.68 388.963 119.213C389.407 116.301 390.62 113.559 392.479 111.273L388.632 109.205L388.322 109.37C386.192 110.487 385.985 114.209 387.908 117.518Z" fill="#210B04"/>
<path d="M381.642 107.551C384.115 109.471 386.713 111.226 389.418 112.803C391.574 114.06 393.944 114.909 396.408 115.305C396.894 115.441 397.403 115.472 397.902 115.398C398.401 115.323 398.879 115.143 399.303 114.871C399.671 114.568 399.965 114.185 400.162 113.752C400.359 113.318 400.455 112.845 400.441 112.369C400.485 112.273 400.548 112.187 400.626 112.116C400.704 112.044 400.796 111.99 400.896 111.955C401.289 111.955 401.64 112.265 402.157 112.079C402.674 111.893 403.109 111.417 403.046 110.88C403.014 110.624 402.889 110.388 402.695 110.218C403.007 110.198 403.311 110.108 403.583 109.954C403.855 109.8 404.089 109.586 404.267 109.329C404.336 109.173 404.372 109.004 404.372 108.833C404.372 108.662 404.336 108.493 404.267 108.336C404.072 107.89 403.92 107.426 403.812 106.951C403.085 104.259 403.379 101.394 404.639 98.9068C404.976 98.3991 405.286 97.8745 405.57 97.3352L405.983 96.4253C406.656 94.6661 406.952 92.785 406.852 90.9041C406.782 88.5191 406.219 86.1744 405.197 84.018C404.018 81.2633 402.126 78.8722 399.717 77.0906C394.154 73.0996 383.958 71.8796 378.374 77.773C372.791 83.6665 374.404 94.192 377.402 97.9349C379.755 100.628 381.202 103.991 381.539 107.551H381.642Z" fill="#F24040"/>
<path d="M403.067 106.268C403.41 106.07 403.79 105.943 404.183 105.896C404.68 105.896 404.866 106.02 405.321 105.896C405.66 105.802 405.963 105.608 406.189 105.338C406.444 105.046 406.584 104.671 406.582 104.283C406.555 104.01 406.473 103.745 406.341 103.503C406.21 103.262 406.032 103.049 405.817 102.877C404.974 101.783 404.439 100.484 404.266 99.1135C403.791 100.251 403.294 101.388 402.798 102.526L403.067 106.268Z" fill="#F24040"/>
<path d="M398.497 97.9349C398.436 97.9539 398.371 97.9539 398.31 97.9349C398.267 97.8827 398.243 97.8168 398.243 97.7488C398.243 97.6807 398.267 97.6148 398.31 97.5627C399.102 96.7492 400.143 96.2249 401.268 96.0738C402.304 95.9304 403.358 96.134 404.266 96.6528C404.325 96.6875 404.368 96.743 404.387 96.8082C404.407 96.8734 404.4 96.9435 404.37 97.0043C404.347 97.0275 404.319 97.0458 404.289 97.0583C404.259 97.0709 404.227 97.0773 404.194 97.0773C404.161 97.0773 404.129 97.0709 404.099 97.0583C404.069 97.0458 404.041 97.0275 404.018 97.0043C403.209 96.565 402.287 96.3777 401.371 96.4667C400.364 96.6034 399.436 97.0859 398.745 97.8315C398.678 97.8957 398.589 97.9325 398.497 97.9349Z" fill="#210B04"/>
<path d="M401.247 97.542C401.04 98.5139 401.392 99.4031 402.054 99.6099C402.715 99.8166 403.398 99.0929 403.605 98.121C403.811 97.1491 403.46 96.2806 402.798 96.0531C402.136 95.8256 401.371 96.5907 401.247 97.542Z" fill="#210B04"/>
<path d="M401.723 110.135C401.238 110.1 400.76 110.009 400.296 109.866C399.075 109.473 397.982 108.759 397.131 107.799C397.1 107.775 397.073 107.744 397.055 107.709C397.036 107.674 397.026 107.635 397.024 107.595C397.022 107.555 397.03 107.516 397.045 107.479C397.06 107.442 397.084 107.41 397.113 107.383C397.143 107.357 397.178 107.337 397.216 107.326C397.255 107.314 397.295 107.312 397.334 107.318C397.373 107.324 397.411 107.339 397.444 107.361C397.477 107.383 397.504 107.413 397.524 107.447C398.313 108.312 399.32 108.948 400.44 109.287C400.866 109.412 401.302 109.495 401.743 109.536C401.777 109.535 401.81 109.542 401.841 109.556C401.872 109.57 401.899 109.59 401.921 109.616C401.942 109.642 401.958 109.672 401.967 109.705C401.976 109.737 401.977 109.771 401.971 109.804C401.984 109.843 401.988 109.884 401.982 109.925C401.976 109.965 401.96 110.004 401.935 110.036C401.911 110.069 401.879 110.095 401.841 110.113C401.804 110.13 401.763 110.138 401.723 110.135Z" fill="#210B04"/>
<path d="M402.136 109.06C401.415 109.281 400.644 109.281 399.923 109.06C400.258 109.473 400.685 109.803 401.17 110.022C401.654 110.241 402.184 110.343 402.715 110.322C402.86 110.322 404.122 110.073 404.411 109.164C404.411 108.833 404.535 108.295 404.266 108.109C403.997 107.923 403.274 108.709 402.136 109.06Z" fill="#D72E2E"/>
<path d="M403.894 91.9587C404.107 92.0455 404.298 92.1773 404.455 92.345C404.613 92.5128 404.731 92.7126 404.804 92.9306C404.915 93.3091 404.878 93.7158 404.701 94.068L403.894 91.9587Z" fill="#210B04"/>
<path d="M403.729 91.8968C403.813 92.2493 403.923 92.595 404.06 92.9307C404.308 93.6131 404.411 93.7165 404.349 93.8199C404.287 93.9233 402.405 93.1375 400.358 92.7859C399.169 92.5605 397.948 92.5605 396.759 92.7859C396.946 92.5409 397.161 92.3188 397.4 92.1242C399.551 90.3665 403.15 91.69 403.729 91.8968Z" fill="#210B04"/>
<path d="M400.771 112.079L399.572 111.604C399.537 111.593 399.506 111.574 399.479 111.55C399.452 111.525 399.431 111.495 399.418 111.462C399.404 111.428 399.398 111.392 399.399 111.356C399.401 111.32 399.41 111.284 399.427 111.252C399.441 111.222 399.46 111.195 399.484 111.172C399.508 111.15 399.536 111.132 399.567 111.121C399.597 111.109 399.63 111.104 399.663 111.105C399.696 111.106 399.728 111.114 399.758 111.128L400.854 111.583C400.888 111.591 400.92 111.607 400.946 111.63C400.973 111.652 400.994 111.681 401.008 111.713C401.022 111.745 401.029 111.779 401.027 111.814C401.025 111.849 401.016 111.883 400.999 111.914C400.98 111.96 400.949 111.999 400.909 112.029C400.868 112.058 400.821 112.075 400.771 112.079Z" fill="#210B04"/>
<path d="M320.448 336.217C312.517 348.875 305.348 361.994 298.981 375.507C300.164 378.511 301.165 381.584 301.98 384.709C303.841 391.45 303.841 394.386 306.343 397.116C308.31 399.048 310.864 400.27 313.602 400.59C314.296 400.675 314.941 400.986 315.439 401.476C315.936 401.966 316.258 402.607 316.353 403.299C316.346 403.734 316.25 404.164 316.071 404.561C315.892 404.958 315.634 405.315 315.313 405.609C314.991 405.903 314.613 406.129 314.202 406.272C313.791 406.415 313.354 406.473 312.92 406.442L301.235 404.56L281.423 388.348C280.764 387.668 280.375 386.771 280.327 385.825C280.327 383.902 282.561 382.475 283.429 381.896C286.918 379.193 289.571 375.559 291.081 371.412C291.826 369.344 292.922 366.18 294.059 362.293C298.836 346.143 297.885 339.132 300.057 331.026C306.861 332.784 313.685 334.521 320.448 336.217Z" fill="#110003"/>
<path d="M393.244 390.995C393.245 391.431 393.156 391.863 392.982 392.263C392.807 392.663 392.551 393.023 392.23 393.318C391.909 393.614 391.53 393.84 391.117 393.981C390.704 394.122 390.266 394.175 389.832 394.138C385.923 393.538 382.035 392.918 378.126 392.277L358.376 376.189C357.712 375.531 357.327 374.642 357.301 373.707C357.301 371.743 359.555 370.358 360.382 369.758C363.862 367.042 366.506 363.401 368.013 359.253C368.799 357.185 369.895 354.063 371.053 350.154C374.983 336.816 374.983 329.682 376.12 323.024C382.324 324.678 388.756 326.291 395.064 327.883C387.66 340.291 381.332 352.077 375.934 363.265C376.761 365.477 377.857 368.62 378.912 372.487C380.732 379.249 380.732 382.165 383.255 384.895C385.244 386.795 387.801 387.994 390.535 388.307C391.22 388.392 391.858 388.702 392.348 389.189C392.838 389.675 393.153 390.31 393.244 390.995Z" fill="#110003"/>
<path d="M361.478 268.535C356.609 273.541 350.67 277.379 344.106 279.764C338.094 281.92 331.698 282.793 325.328 282.328C325.576 277.592 325.721 273.932 325.886 271.017H338.295L361.478 268.535Z" fill="#210B04"/>
<path d="M408.589 258.403C396.416 258.899 384.488 261.979 373.597 267.439L370.019 265.227L379.181 257.72H391.031L408.589 258.403Z" fill="#210B04"/>
<path d="M408.568 258.382C398.411 258.023 388.258 259.208 378.457 261.897C357.776 267.605 351.427 276.827 337.096 278.606C327.934 279.785 314.347 278.047 296.23 263.883C307.646 241.384 320.137 227.922 329.775 219.651C336.43 214.53 342.364 208.534 347.415 201.825C353.749 193.062 358.321 183.153 360.878 172.648C361.395 167.891 362.098 162.722 363.215 157.221C363.877 153.561 364.746 149.694 365.759 145.765C368.592 134.989 372.406 124.496 377.154 114.416C381.083 116.691 385.02 118.979 388.963 121.281C393.094 128.751 396.842 136.425 400.192 144.276C406.397 159 407.079 164.355 404.804 168.574C403.476 170.819 401.531 172.635 399.2 173.806C402.288 201.998 405.411 230.19 408.568 258.382Z" fill="#6456EF"/>
<path d="M326.031 300.463C325.998 300.477 325.963 300.484 325.928 300.484C325.892 300.484 325.857 300.477 325.824 300.463L324.459 298.705C324.416 298.653 324.392 298.587 324.392 298.519C324.392 298.451 324.416 298.385 324.459 298.333C324.509 298.285 324.576 298.258 324.645 298.258C324.715 298.258 324.781 298.285 324.832 298.333L326.196 300.07C326.24 300.122 326.264 300.188 326.264 300.256C326.264 300.324 326.24 300.39 326.196 300.442L326.031 300.463Z" fill="#210B04"/>
<path d="M397.028 291.199C396.98 291.199 396.933 291.186 396.893 291.16C396.853 291.135 396.821 291.098 396.801 291.054C396.759 291.005 396.735 290.943 396.735 290.878C396.735 290.814 396.759 290.752 396.801 290.703L399.882 289.11C399.943 289.08 400.013 289.074 400.078 289.093C400.144 289.112 400.199 289.155 400.234 289.214C400.264 289.275 400.27 289.345 400.251 289.41C400.232 289.475 400.189 289.531 400.13 289.565L397.049 291.178L397.028 291.199Z" fill="#210B04"/>
<path d="M406.81 84.7212C406.521 90.2218 398.538 95.743 393.368 94.7298C392.16 94.2551 390.828 94.1969 389.583 94.5643C388.65 95.0328 387.897 95.7938 387.437 96.7312C386.978 97.6685 386.838 98.7305 387.04 99.7547C387.577 101.471 389.356 101.492 389.418 102.422C389.563 104.49 380.794 108.109 370.805 107.861C367.232 107.605 363.688 107.031 360.217 106.144C338.978 103.766 331.057 118.841 316.58 116.959C298.257 114.602 283.305 87.0166 288.765 77.5457C290.13 75.1883 292.901 73.7408 295.9 72.1898C303.055 68.4677 306.964 70.122 312.879 67.2683C319.352 64.0631 317.532 60.4443 322.433 58.1696C332.546 53.4548 340.735 68.0541 357.921 67.4958C362.911 67.027 367.943 67.619 372.687 69.2328C375.789 70.3701 375.913 71.0112 378.891 71.9417C385.675 74.0096 388.591 71.9417 393.906 72.9136C399.779 74.1543 407.1 79.3034 406.81 84.7212Z" fill="#210B04"/>
<path d="M318.214 116.525C317.377 116.519 316.542 116.464 315.712 116.36C304.027 114.85 294.638 103.725 290.13 94.647C286.428 87.1406 285.518 80.3786 287.731 76.553C289.116 74.1336 291.867 72.6447 294.948 71.0938C297.929 69.5601 301.169 68.5925 304.503 68.2401C307.082 67.9679 309.598 67.2691 311.948 66.1722C314.277 65.1295 316.191 63.3393 317.387 61.0853C318.263 59.3124 319.724 57.8956 321.523 57.0736C326.735 54.6335 331.47 57.239 336.971 60.2374C342.473 63.2359 348.18 66.4411 356.163 66.4411H357.114H358.086C362.792 66.0711 367.523 66.6765 371.984 68.2195C373.03 68.6062 374.046 69.0692 375.024 69.6049C376.005 70.1605 377.046 70.6045 378.126 70.9284C380.994 71.8508 384.031 72.1263 387.019 71.7349C389.043 71.4945 391.091 71.5503 393.099 71.9003C398.848 73.079 406.665 78.2487 406.355 83.9767C406.144 85.4446 405.628 86.8521 404.841 88.1091C404.054 89.3661 403.013 90.4449 401.785 91.2763C400.529 92.3572 399.07 93.1758 397.493 93.6836C395.916 94.1915 394.253 94.3784 392.603 94.2334L391.92 94.068C390.964 93.7255 389.919 93.7255 388.963 94.068C388.09 94.5126 387.386 95.2294 386.957 96.11C386.527 96.9905 386.397 97.9868 386.584 98.9482C386.703 99.2903 386.888 99.6054 387.13 99.8752C387.371 100.145 387.664 100.364 387.991 100.52C388.487 100.83 388.921 101.119 388.963 101.657C388.956 101.888 388.904 102.114 388.808 102.324C388.712 102.534 388.575 102.722 388.404 102.877C386.481 104.842 378.933 107.613 370.164 107.385C367.319 107.289 364.495 106.866 361.747 106.124C361.029 105.917 360.296 105.765 359.555 105.669C348.015 104.387 340.322 108.274 333.539 111.728C328.534 114.126 323.798 116.525 318.214 116.525ZM325.783 56.5566C324.354 56.5453 322.94 56.8563 321.647 57.4665C319.983 58.2858 318.643 59.6404 317.842 61.3127C316.591 63.656 314.598 65.518 312.175 66.6065C309.78 67.7193 307.214 68.4185 304.586 68.6744C301.298 69.0766 298.115 70.0863 295.196 71.6521C292.26 73.1824 289.489 74.6299 288.165 76.9252C286.097 80.5233 287.028 87.2646 290.605 94.5229C295.031 103.477 304.296 114.478 315.794 115.946C322.33 116.794 327.396 114.209 333.29 111.231C340.136 107.757 347.912 103.828 359.596 105.028C360.356 105.142 361.109 105.301 361.85 105.503C364.553 106.223 367.328 106.64 370.123 106.744C378.747 106.951 386.129 104.304 387.991 102.381C388.11 102.281 388.209 102.158 388.28 102.02C388.351 101.881 388.393 101.73 388.404 101.574C388.404 101.306 388.136 101.119 387.681 100.851C386.909 100.464 386.321 99.7873 386.047 98.9689C385.817 97.8859 385.955 96.7575 386.438 95.7615C386.921 94.7655 387.722 93.9587 388.715 93.4683C389.782 93.0741 390.956 93.0741 392.024 93.4683L392.665 93.613C394.233 93.739 395.81 93.5516 397.305 93.0616C398.8 92.5717 400.182 91.7891 401.371 90.7594C402.541 89.9768 403.533 88.9579 404.285 87.7683C405.036 86.5787 405.53 85.2448 405.735 83.8526C406.004 78.807 399.179 73.5132 392.892 72.3139C390.933 71.9634 388.932 71.9076 386.957 72.1484C383.9 72.5421 380.793 72.2597 377.857 71.3213C376.748 70.9879 375.679 70.53 374.672 69.9565C373.714 69.4355 372.719 68.9862 371.694 68.6123C367.309 67.0837 362.654 66.4851 358.024 66.8547H357.032C348.449 67.1442 342.142 63.6908 336.62 60.651C332.67 58.4797 329.237 56.6186 325.783 56.6186V56.5566Z" fill="#210B04"/>
<path d="M387.039 97.0458C386.481 99.6099 387.536 102.009 389.418 102.422C391.3 102.836 393.285 101.099 393.843 98.5553C394.212 97.5227 394.169 96.3875 393.722 95.386C393.275 94.3845 392.46 93.594 391.444 93.1788C389.563 92.7652 387.598 94.5023 387.039 97.0458Z" fill="#F24040"/>
<path d="M389.976 102.67C389.777 102.692 389.576 102.692 389.376 102.67C388.741 102.468 388.173 102.094 387.736 101.591C387.298 101.088 387.007 100.474 386.895 99.8166C386.886 99.7514 386.899 99.6852 386.933 99.6289C386.967 99.5725 387.019 99.5293 387.081 99.5064C387.149 99.4924 387.22 99.5035 387.281 99.5377C387.342 99.5719 387.388 99.6268 387.412 99.6925C387.498 100.268 387.749 100.807 388.134 101.244C388.519 101.68 389.022 101.996 389.583 102.153C390.074 102.267 390.587 102.224 391.052 102.029C391.084 102.012 391.119 102.003 391.155 102.001C391.191 102 391.228 102.006 391.261 102.02C391.295 102.033 391.325 102.054 391.349 102.081C391.374 102.108 391.392 102.139 391.403 102.174C391.424 102.237 391.421 102.306 391.395 102.367C391.368 102.428 391.319 102.478 391.258 102.505C390.845 102.641 390.41 102.697 389.976 102.67Z" fill="#210B04"/>
<path d="M386.894 99.3825C386.862 99.3853 386.829 99.3816 386.798 99.3717C386.767 99.3618 386.738 99.3458 386.713 99.3247C386.688 99.3035 386.667 99.2777 386.652 99.2485C386.637 99.2194 386.628 99.1876 386.626 99.155C386.542 98.5721 386.542 97.9802 386.626 97.3973C386.628 97.3627 386.638 97.329 386.654 97.2983C386.67 97.2676 386.693 97.2407 386.72 97.2193C386.747 97.1978 386.779 97.1824 386.812 97.1739C386.846 97.1653 386.881 97.164 386.915 97.1698C386.983 97.1801 387.044 97.2157 387.086 97.2695C387.128 97.3233 387.149 97.3912 387.143 97.4593C387.06 98.0008 387.06 98.5515 387.143 99.093C387.148 99.1272 387.147 99.1622 387.139 99.1958C387.13 99.2295 387.115 99.2609 387.093 99.2882C387.072 99.3155 387.045 99.338 387.014 99.3542C386.983 99.3704 386.95 99.3801 386.915 99.3825H386.894Z" fill="#210B04"/>
<path d="M387.163 96.8182C386.956 96.8182 386.874 96.6321 386.915 96.4873C387.106 95.4324 387.681 94.4854 388.529 93.8287C389.376 93.1721 390.437 92.8521 391.506 92.9306C391.939 93.0293 392.342 93.2276 392.685 93.5096C392.708 93.5326 392.726 93.56 392.739 93.5902C392.752 93.6204 392.758 93.6527 392.758 93.6854C392.758 93.718 392.752 93.7504 392.739 93.7805C392.726 93.8107 392.708 93.8381 392.685 93.8611C392.633 93.9049 392.567 93.9289 392.499 93.9289C392.431 93.9289 392.365 93.9049 392.313 93.8611C392.026 93.6282 391.684 93.4717 391.32 93.4062C389.707 93.0547 388.011 94.4195 387.349 96.5907C387.344 96.6426 387.323 96.6918 387.29 96.7322C387.257 96.7725 387.213 96.8024 387.163 96.8182Z" fill="#210B04"/>
<path d="M390.659 100.416C390.599 100.417 390.542 100.397 390.496 100.359C390.451 100.321 390.42 100.268 390.41 100.21L389.624 95.5982C389.618 95.533 389.635 95.4677 389.673 95.4144C389.711 95.361 389.767 95.3235 389.831 95.3087C389.9 95.2964 389.97 95.311 390.028 95.3496C390.086 95.3881 390.127 95.4476 390.141 95.5155L390.907 100.127C390.916 100.16 390.918 100.194 390.912 100.228C390.906 100.262 390.893 100.294 390.873 100.321C390.853 100.349 390.827 100.372 390.797 100.389C390.767 100.405 390.734 100.415 390.7 100.416H390.659Z" fill="#210B04"/>
<path d="M390.348 97.7488C390.287 97.7666 390.223 97.7666 390.162 97.7488C390.118 97.6967 390.094 97.6308 390.094 97.5627C390.094 97.4946 390.118 97.4287 390.162 97.3766L391.279 96.2186C391.3 96.1926 391.327 96.1717 391.357 96.1573C391.388 96.143 391.421 96.1355 391.455 96.1355C391.488 96.1355 391.521 96.143 391.552 96.1573C391.582 96.1717 391.609 96.1926 391.63 96.2186C391.678 96.2686 391.705 96.3353 391.705 96.4047C391.705 96.4741 391.678 96.5407 391.63 96.5908L390.514 97.7281C390.489 97.7429 390.462 97.7523 390.433 97.7559C390.405 97.7594 390.376 97.757 390.348 97.7488Z" fill="#210B04"/>
<path d="M356.556 237.186C351.076 236.752 323.715 234.043 305.082 210.883C297.512 201.379 292.526 190.082 290.605 178.086L364.146 142.767C367.393 153.486 373.052 163.319 380.691 171.51C383.121 174.121 385.756 176.535 388.57 178.727L356.556 237.186Z" fill="white"/>
<path d="M384.372 183.587L381.001 179.451C389.362 172.894 394.879 163.372 396.408 152.858C397.876 140.451 393.616 124.445 386.067 123.08C379.76 121.943 369.812 130.587 364.952 145.269L360.01 143.615C365.366 127.361 377.278 116.07 387.122 117.849C398.972 119.917 403.274 140.285 401.723 153.478C399.882 168.843 390.059 178.934 384.372 183.587Z" fill="white"/>
<path d="M405.507 170.579C401.371 170.972 397.235 171.365 393.202 171.8C391.479 168.918 389.749 165.782 388.012 162.391C386.791 159.992 385.613 157.428 384.434 154.719C383.048 151.534 381.704 148.143 380.484 144.566C378.995 140.182 377.775 135.991 376.823 131.993C377.435 130.463 378.443 129.124 379.744 128.113C381.046 127.103 382.593 126.457 384.227 126.244C386.443 126.057 388.651 126.69 390.431 128.022C395.312 142.187 400.358 156.435 405.507 170.579Z" fill="#F24040"/>
<path d="M400.068 156.166L387.908 162.37C386.688 159.971 385.509 157.407 384.33 154.698L400.068 156.166Z" fill="#210B04"/>
<path d="M401.888 155.856L379.739 159.33L375.603 135.301C375.293 128.664 377.671 122.894 381.021 121.943C385.157 120.682 392.416 125.624 394.919 135.798L401.888 155.856Z" fill="#F9A806"/>
<path d="M400.565 157.511L378.416 161.005C377.037 153.009 375.658 145 374.28 136.976C373.949 130.339 376.348 124.569 379.677 123.618C383.813 122.357 391.093 127.299 393.595 137.473L400.565 157.511Z" fill="#6456EF"/>
<path d="M439.072 140.781C440.023 142.022 440.995 143.263 441.967 144.483C428.484 158.214 417.874 168.408 412.435 173.309C411.091 174.509 408.485 177.61 404.535 177.879C399.365 178.231 395.146 173.744 393.306 171.552L396.036 168.636C398.096 166.585 400.301 164.685 402.633 162.949C414.503 154.078 422.982 154.243 434.129 145.248C435.867 143.862 437.518 142.37 439.072 140.781Z" fill="#F24040"/>
<path d="M433.467 153.065L431.689 147.13C432.247 143.739 432.826 140.368 433.385 136.977L438.596 132.469C440.01 132.274 441.449 132.378 442.821 132.773C444.192 133.168 445.465 133.846 446.558 134.764C447.963 136.075 448.965 137.76 449.445 139.621C449.925 141.482 449.863 143.442 449.268 145.269C443.473 146.656 438.061 149.32 433.426 153.065H433.467Z" fill="#F24040"/>
<path d="M553.126 166.775C553.066 166.767 553.01 166.742 552.966 166.701C552.921 166.66 552.891 166.606 552.878 166.547C551.844 161.304 552.756 155.865 555.443 151.245C556.642 149.301 558.296 146.613 560.861 145.993C565.928 144.71 573.104 151.803 578.274 163.259C578.288 163.289 578.296 163.321 578.297 163.354C578.298 163.387 578.293 163.42 578.281 163.451C578.27 163.482 578.252 163.51 578.23 163.534C578.207 163.558 578.18 163.577 578.15 163.59C578.087 163.619 578.015 163.622 577.949 163.599C577.884 163.576 577.83 163.528 577.798 163.466C572.835 152.424 565.721 145.31 560.985 146.489C558.627 147.068 557.035 149.653 555.898 151.534C553.256 156.034 552.365 161.35 553.395 166.465C553.401 166.497 553.4 166.531 553.393 166.563C553.386 166.595 553.372 166.626 553.353 166.653C553.334 166.68 553.309 166.703 553.281 166.72C553.253 166.738 553.221 166.749 553.188 166.754L553.126 166.775Z" fill="#210B04"/>
<path d="M565.08 148.598L566.817 152.92C556.132 161.748 543.883 168.489 530.708 172.792C526.965 173.992 523.346 174.86 519.913 175.667C518.248 174.247 517.009 172.393 516.335 170.311C515.675 168.24 515.618 166.024 516.17 163.921C518.703 162.506 521.329 161.263 524.028 160.199C537.822 154.822 545.95 157.242 559.186 151.576C561.203 150.691 563.171 149.697 565.08 148.598Z" fill="#F24040"/>
<path d="M552.154 169.67C552.095 169.671 552.038 169.65 551.992 169.612C551.947 169.574 551.916 169.521 551.906 169.463C550.842 164.228 551.732 158.784 554.409 154.161C555.608 152.093 557.263 149.529 559.806 148.887C564.914 147.605 572.07 154.719 577.24 166.154C577.269 166.218 577.272 166.29 577.249 166.355C577.226 166.421 577.178 166.475 577.116 166.506C577.053 166.535 576.981 166.538 576.915 166.515C576.85 166.491 576.796 166.444 576.764 166.382C571.78 155.339 564.728 148.205 559.93 149.384C557.593 149.983 556.001 152.548 554.864 154.429C552.215 158.926 551.316 164.242 552.341 169.36C552.348 169.427 552.332 169.496 552.294 169.552C552.256 169.609 552.199 169.651 552.134 169.67H552.154Z" fill="#210B04"/>
<path d="M608.509 255.487L525.228 273.643C524.111 238.034 522.987 202.411 521.857 166.775L578.419 161.564L587.952 159.206C598.982 185.482 610.012 211.758 621.042 238.034L614.424 240.784C612.438 245.692 610.467 250.593 608.509 255.487Z" fill="white"/>
<path d="M614.382 241.053C614.329 241.053 614.277 241.037 614.233 241.008C614.189 240.978 614.155 240.937 614.134 240.888L582.348 161.502C582.335 161.47 582.328 161.437 582.328 161.403C582.328 161.369 582.335 161.336 582.349 161.305C582.363 161.274 582.382 161.246 582.407 161.223C582.432 161.2 582.461 161.182 582.493 161.171C582.556 161.149 582.625 161.153 582.686 161.179C582.747 161.206 582.796 161.255 582.824 161.315L614.61 240.701C614.623 240.733 614.63 240.766 614.63 240.8C614.63 240.834 614.622 240.867 614.609 240.898C614.595 240.929 614.576 240.957 614.551 240.98C614.526 241.003 614.497 241.021 614.465 241.032L614.382 241.053Z" fill="#210B04"/>
<path d="M608.509 255.694C608.452 255.7 608.395 255.684 608.349 255.649C608.303 255.615 608.271 255.564 608.261 255.507L578.543 162.639C578.538 162.579 578.553 162.518 578.586 162.468C578.619 162.417 578.668 162.379 578.726 162.36C578.783 162.341 578.845 162.342 578.902 162.362C578.959 162.383 579.008 162.422 579.039 162.473L608.758 255.528C608.767 255.561 608.769 255.595 608.765 255.628C608.76 255.662 608.749 255.694 608.732 255.723C608.714 255.753 608.691 255.778 608.663 255.797C608.636 255.817 608.605 255.831 608.571 255.838L608.509 255.694Z" fill="#210B04"/>
<path d="M491.539 199.323L519.499 228.811C521.544 226.467 523.23 223.833 524.504 220.995C526.24 216.783 527.254 212.309 527.503 207.76C528.123 201.929 529.095 196.097 529.426 190.225C529.426 189.108 529.612 187.888 529.778 186.564C530.667 179.017 533.314 168.16 540.221 152.631L527.916 129.553C525.362 126.746 523.851 123.147 523.635 119.358C523.593 118.628 523.593 117.896 523.635 117.166C523.906 114.238 524.964 111.437 526.696 109.06L522.746 107.158L516.542 104.283L503.968 126.162C501.211 130.21 499.369 134.811 498.57 139.644C496.813 149.777 500.949 155.815 502.479 168.202C502.941 171.856 503.1 175.543 502.955 179.223C502.955 181.023 502.81 182.925 502.603 184.952C502.41 186.606 502.162 188.343 501.859 190.163C498.384 193.209 494.944 196.263 491.539 199.323Z" fill="#F24040"/>
<path d="M522.56 157.614C522.221 159.589 522.477 161.621 523.295 163.45C524.112 165.28 525.455 166.826 527.153 167.891C528.851 168.956 530.827 169.492 532.831 169.432C534.834 169.372 536.774 168.718 538.405 167.553C540.036 166.388 541.284 164.765 541.991 162.89C542.698 161.014 542.831 158.971 542.374 157.02C541.917 155.068 540.891 153.297 539.425 151.93C537.959 150.563 536.12 149.662 534.142 149.342C531.51 148.911 528.815 149.54 526.645 151.089C524.475 152.639 523.006 154.985 522.56 157.614Z" fill="#F24040"/>
<path d="M486.431 226.743C489.099 235.015 497.35 248.27 508.725 247.277C519.437 246.347 526.365 233.278 526.944 223.063C527.668 210.779 519.499 198.62 506.264 192.706C504.94 193.016 491.084 196.325 486.286 209.001C484.273 214.753 484.324 221.025 486.431 226.743Z" fill="#F24040"/>
<path d="M506.512 298.375L525.807 296.906C531.512 272.525 532.096 247.226 527.524 222.607C516.728 228.976 505.926 235.339 495.117 241.694C494.321 247.671 494.321 253.728 495.117 259.705C495.737 264.358 496.751 267.977 503.865 289.917L506.512 298.375Z" fill="#F24040"/>
<path d="M560.985 260.016L569.981 242.873C552.328 225.139 531.208 211.236 507.939 202.032C507.594 214.564 507.249 227.095 506.905 239.626C511.53 243.497 516.649 246.737 522.126 249.263C526.407 251.206 530.067 252.302 552.382 257.865L560.985 260.016Z" fill="#F24040"/>
<path d="M481.736 375.734L490.112 378.608C495.047 363.272 500.798 348.21 507.339 333.487C513.357 319.984 519.623 307.701 525.807 296.617L505.767 296.762C502.284 300.504 499.11 304.522 496.275 308.776C492.187 314.426 488.94 320.639 486.638 327.222C482.502 339.877 486.638 345.171 483.453 366.325C482.853 370.337 482.212 373.563 481.736 375.734Z" fill="#F24040"/>
<path d="M474.581 393.828L510.524 403.692C511.034 403.648 511.518 403.449 511.912 403.121C512.305 402.794 512.588 402.354 512.723 401.86C512.859 401.366 512.839 400.843 512.668 400.361C512.496 399.879 512.181 399.461 511.765 399.163C508.956 398.091 506.255 396.755 503.699 395.172C500.094 393.198 496.916 390.527 494.352 387.314C492.447 384.693 491.044 381.741 490.216 378.608L481.84 375.734C480.949 380.055 478.839 384.03 475.76 387.19C474.995 387.893 473.009 389.589 473.237 391.512C473.378 392.425 473.858 393.252 474.581 393.828Z" fill="#F24040"/>
<path d="M478.552 271.513C479.338 274.346 480.103 277.179 480.889 280.033C496.253 275.123 511.967 271.383 527.896 268.845C539.641 266.976 551.482 265.774 563.363 265.247C565.954 262.175 567.876 258.597 569.009 254.742C570.141 250.886 570.458 246.837 569.94 242.852L557.345 246.843C552.293 246.094 547.19 245.734 542.083 245.768C535.108 245.592 528.144 246.414 521.402 248.208C508.642 251.992 506.512 258.258 487.3 267.605C483.66 269.362 480.578 270.686 478.552 271.513Z" fill="#F24040"/>
<path d="M459.567 275.773L471.665 310.927C471.926 311.216 472.245 311.447 472.601 311.604C472.958 311.761 473.344 311.84 473.733 311.836C474.339 311.754 474.899 311.467 475.32 311.024C475.741 310.58 475.998 310.006 476.049 309.396C475.342 306.481 474.926 303.502 474.809 300.505C474.404 296.409 474.826 292.275 476.049 288.345C477.094 285.263 478.715 282.406 480.827 279.929C480.041 277.075 479.276 274.242 478.49 271.409C474.408 273.092 469.933 273.579 465.585 272.816C464.592 272.588 462.069 271.906 460.601 273.188C459.937 273.884 459.566 274.81 459.567 275.773Z" fill="#F24040"/>
<path d="M522.478 115.615C522.834 116.157 523.243 116.663 523.698 117.125C523.97 114.194 525.019 111.388 526.738 108.998L522.788 107.137L522.478 107.302C520.389 108.688 520.389 112.41 522.478 115.615Z" fill="#210B04"/>
<path d="M515.674 106.02C518.25 107.79 520.937 109.393 523.719 110.818C525.942 111.941 528.354 112.642 530.833 112.886C531.313 112.99 531.809 112.992 532.29 112.892C532.771 112.792 533.226 112.593 533.625 112.307C533.976 111.984 534.248 111.585 534.421 111.141C534.593 110.696 534.66 110.218 534.617 109.743C534.656 109.644 534.714 109.555 534.789 109.48C534.864 109.405 534.953 109.347 535.052 109.308C535.445 109.184 535.817 109.577 536.313 109.308C536.561 109.211 536.774 109.04 536.922 108.818C537.07 108.596 537.146 108.334 537.14 108.068C537.089 107.814 536.95 107.587 536.747 107.427C537.058 107.386 537.355 107.276 537.616 107.104C537.878 106.932 538.097 106.703 538.257 106.434C538.333 106.283 538.373 106.117 538.373 105.948C538.373 105.779 538.333 105.613 538.257 105.462C538.061 105.024 537.888 104.575 537.74 104.118C536.856 101.472 536.981 98.5921 538.092 96.0326C538.42 95.5132 538.704 94.9667 538.94 94.3989C539.064 94.1232 539.188 93.813 539.312 93.4684C539.902 91.7058 540.114 89.8384 539.932 87.9885C539.671 85.3202 538.828 82.7415 537.463 80.4337C536.098 78.1259 534.244 76.1449 532.032 74.63C526.262 70.9491 516.046 70.3288 510.793 76.5117C505.54 82.6947 507.753 93.0548 510.979 96.6736C512.346 98.0825 513.478 99.7024 514.33 101.471C514.979 102.921 515.431 104.451 515.674 106.02Z" fill="#F24040"/>
<path d="M536.954 103.539C537.285 103.32 537.658 103.172 538.05 103.105C538.546 103.105 538.732 103.105 539.187 103.105C539.517 102.992 539.805 102.783 540.014 102.505C540.259 102.202 540.384 101.819 540.366 101.43C540.255 100.888 539.955 100.404 539.518 100.065C538.605 99.0387 537.996 97.7783 537.76 96.4253L536.478 99.8993C536.643 101.057 536.788 102.298 536.954 103.539Z" fill="#F24040"/>
<path d="M531.908 95.4743C531.855 95.495 531.796 95.495 531.743 95.4743C531.699 95.4221 531.675 95.3562 531.675 95.2882C531.675 95.2201 531.699 95.1542 531.743 95.1021C532.483 94.2438 533.486 93.6548 534.597 93.4271C535.628 93.2419 536.692 93.3866 537.637 93.8406C537.695 93.8753 537.738 93.9308 537.757 93.9961C537.777 94.0613 537.77 94.1314 537.74 94.1922C537.727 94.2222 537.707 94.2493 537.683 94.2718C537.659 94.2943 537.631 94.3119 537.6 94.3234C537.57 94.335 537.537 94.3403 537.504 94.339C537.471 94.3378 537.439 94.3301 537.409 94.3163C536.569 93.9065 535.62 93.7761 534.7 93.944C533.701 94.1354 532.797 94.6604 532.136 95.4329C532.104 95.4578 532.066 95.4745 532.027 95.4817C531.987 95.4889 531.946 95.4864 531.908 95.4743Z" fill="#210B04"/>
<path d="M534.659 94.9365C534.493 95.9084 534.907 96.7769 535.569 96.8803C536.23 96.9837 536.871 96.2806 537.016 95.3087C537.161 94.3368 536.768 93.489 536.127 93.3856C535.486 93.2822 534.803 93.9646 534.659 94.9365Z" fill="#210B04"/>
<path d="M535.796 107.447C535.316 107.446 534.837 107.39 534.369 107.282C533.07 106.928 531.926 106.149 531.122 105.069C531.1 105.034 531.086 104.995 531.079 104.954C531.073 104.913 531.074 104.871 531.084 104.831C531.093 104.79 531.111 104.752 531.135 104.719C531.159 104.685 531.19 104.657 531.225 104.635C531.261 104.613 531.3 104.599 531.341 104.592C531.382 104.586 531.424 104.587 531.464 104.597C531.504 104.606 531.542 104.624 531.576 104.648C531.61 104.672 531.638 104.703 531.66 104.738C532.384 105.742 533.426 106.471 534.617 106.806C535.041 106.925 535.48 106.98 535.92 106.972C535.991 106.972 536.06 107 536.11 107.05C536.16 107.101 536.189 107.169 536.189 107.24C536.19 107.287 536.178 107.332 536.154 107.372C536.131 107.411 536.097 107.444 536.056 107.465C536.015 107.487 535.969 107.496 535.923 107.493C535.878 107.49 535.833 107.474 535.796 107.447Z" fill="#210B04"/>
<path d="M536.106 106.331C535.672 106.682 535.341 106.992 535.113 107.199C535.61 107.475 536.185 107.577 536.747 107.489C536.747 107.489 538.112 107.24 538.36 106.248C538.36 105.917 538.36 105.379 538.153 105.214C537.947 105.048 537.016 105.586 536.106 106.331Z" fill="#D72E2E"/>
<path d="M536.458 88.1953C536.684 88.1957 536.908 88.2438 537.115 88.3364C537.321 88.4291 537.506 88.5642 537.657 88.733C537.909 89.0323 538.035 89.4178 538.009 89.8083L536.458 88.1953Z" fill="#210B04"/>
<path d="M536.272 88.1953C536.484 88.4892 536.719 88.7657 536.975 89.0225C537.471 89.5601 537.616 89.6222 537.595 89.7255C537.574 89.8289 535.527 89.8496 533.459 90.3046C532.288 90.5864 531.18 91.0843 530.191 91.7727C530.263 91.4728 530.367 91.1816 530.502 90.9042C531.846 88.4641 535.651 88.1953 536.272 88.1953Z" fill="#210B04"/>
<path d="M534.969 109.453L533.769 109.04C533.705 109.016 533.651 108.969 533.621 108.907C533.59 108.846 533.584 108.775 533.604 108.709C533.631 108.647 533.679 108.596 533.739 108.566C533.8 108.536 533.869 108.528 533.935 108.543L535.072 108.957C535.103 108.966 535.132 108.981 535.157 109.003C535.181 109.024 535.201 109.05 535.215 109.079C535.229 109.108 535.236 109.14 535.236 109.173C535.237 109.205 535.23 109.237 535.217 109.267C535.203 109.322 535.171 109.37 535.126 109.404C535.08 109.437 535.025 109.455 534.969 109.453Z" fill="#210B04"/>
<path d="M503.782 297.051C496.98 302.757 491.563 309.934 487.941 318.04C484.342 326.312 483.598 333.963 482.254 349.058C481.447 358.116 481.24 365.602 481.178 370.73L493.773 373.77L527.524 298.065C529.199 284.375 530.44 269.424 530.874 253.357C531.418 234.036 530.776 214.699 528.951 195.456L502.066 187.495C497.686 189.963 493.867 193.315 490.852 197.338C487.836 201.36 485.69 205.966 484.549 210.862C482.72 219.94 484.476 229.374 489.451 237.186C490.919 246.492 492.821 256.397 495.282 266.798C497.971 277.717 500.825 287.828 503.782 297.051Z" fill="#4DB6D6"/>
<path d="M522.436 253.109C515.591 254.991 508.332 257.245 500.721 259.995C492.573 262.931 485.045 266.054 478.159 269.176L482.874 282.059L564.377 266.385C566.946 263.484 568.857 260.063 569.981 256.355C571.396 251.581 571.475 246.51 570.208 241.694C566.61 237.848 562.722 233.94 558.545 230.031C547.399 219.616 535.311 210.257 522.436 202.073V253.109Z" fill="#4DB6D6"/>
<path d="M506.119 83.0048C507.236 87.1406 516.128 88.34 520.906 88.2572C529.075 88.0711 539.518 84.1215 539.518 79.2206C539.518 74.3197 529.654 68.8812 520.906 70.2046C512.737 71.3627 504.961 78.5382 506.119 83.0048Z" fill="#210B04"/>
<path d="M508.684 95.6809C509.304 97.5213 512.013 106.268 516.067 106.289C516.743 106.204 517.394 105.975 517.975 105.619C518.556 105.262 519.055 104.786 519.437 104.221C523.539 99.2768 526.169 93.2795 527.027 86.9131C519.313 80.2338 511.351 78.29 508.249 81.061C504.775 84.2455 507.732 92.9306 508.684 95.6809Z" fill="#210B04"/>
<path d="M520.451 95.2466C520.284 95.7652 520.221 96.3118 520.265 96.8548C520.31 97.3978 520.462 97.9267 520.712 98.4109C520.962 98.8951 521.305 99.3252 521.721 99.6765C522.138 100.028 522.62 100.293 523.139 100.458C525.042 100.768 526.903 98.9274 527.275 96.3219C527.606 95.2771 527.509 94.1437 527.005 93.1705C526.501 92.1973 525.631 91.4639 524.587 91.1315C522.726 90.842 520.864 92.6824 520.451 95.2466Z" fill="#F24040"/>
<path d="M523.553 100.747H523.098C522.438 100.597 521.833 100.266 521.351 99.7914C520.868 99.3165 520.528 98.7166 520.368 98.059C520.355 98.0266 520.349 97.9918 520.351 97.9569C520.352 97.922 520.361 97.8878 520.377 97.8566C520.392 97.8254 520.414 97.7978 520.441 97.7757C520.468 97.7535 520.5 97.7374 520.533 97.7282C520.599 97.7082 520.67 97.7142 520.732 97.7449C520.793 97.7757 520.841 97.8289 520.864 97.8936C520.988 98.4632 521.271 98.9857 521.682 99.3996C522.092 99.8136 522.612 100.102 523.181 100.23C523.675 100.307 524.181 100.228 524.628 100.003C524.66 99.979 524.697 99.9625 524.736 99.9545C524.775 99.9466 524.815 99.9473 524.854 99.9568C524.892 99.9663 524.928 99.9842 524.959 100.009C524.99 100.034 525.015 100.066 525.032 100.102C525.049 100.138 525.058 100.177 525.058 100.217C525.059 100.257 525.05 100.296 525.033 100.332C525.016 100.368 524.992 100.4 524.961 100.425C524.93 100.45 524.894 100.469 524.856 100.478C524.444 100.655 524.001 100.747 523.553 100.747Z" fill="#210B04"/>
<path d="M520.451 97.5834C520.392 97.5842 520.334 97.5638 520.289 97.5259C520.243 97.4879 520.213 97.435 520.203 97.3766C520.12 96.7867 520.12 96.1881 520.203 95.5982C520.201 95.5623 520.209 95.5266 520.224 95.494C520.239 95.4614 520.261 95.4329 520.29 95.4107C520.318 95.3885 520.351 95.3733 520.386 95.3663C520.421 95.3594 520.458 95.3609 520.492 95.3707C520.558 95.3851 520.617 95.4218 520.658 95.4747C520.7 95.5275 520.721 95.5931 520.72 95.6602C520.637 96.1947 520.637 96.7387 520.72 97.2732C520.727 97.341 520.711 97.4092 520.673 97.466C520.635 97.5227 520.578 97.5643 520.513 97.5834H520.451Z" fill="#210B04"/>
<path d="M520.534 95.0192C520.496 95.0141 520.459 95.0015 520.425 94.982C520.392 94.9626 520.363 94.9367 520.34 94.9059C520.317 94.8751 520.3 94.84 520.291 94.8026C520.282 94.7653 520.28 94.7264 520.286 94.6883C520.422 93.6268 520.945 92.6526 521.753 91.9511C522.562 91.2495 523.6 90.8696 524.67 90.8834C525.106 90.9654 525.521 91.1342 525.89 91.3797C525.931 91.4241 525.955 91.4807 525.96 91.5406C525.964 91.6005 525.949 91.6602 525.915 91.7101C525.882 91.7601 525.833 91.7975 525.776 91.8163C525.719 91.8351 525.657 91.8343 525.601 91.814C525.299 91.5999 524.952 91.4583 524.587 91.4004C522.974 91.1316 521.34 92.5998 520.803 94.8124C520.785 94.8708 520.75 94.9222 520.702 94.9593C520.653 94.9964 520.595 95.0174 520.534 95.0192Z" fill="#210B04"/>
<path d="M524.235 98.4106C524.177 98.4077 524.121 98.386 524.077 98.3487C524.032 98.3114 524 98.2606 523.987 98.2039L522.953 93.6545C522.94 93.5889 522.952 93.5208 522.986 93.4635C523.02 93.4061 523.075 93.3636 523.139 93.3443C523.208 93.332 523.278 93.3467 523.336 93.3852C523.394 93.4238 523.434 93.4832 523.449 93.5511L524.483 98.0798C524.496 98.1123 524.502 98.1474 524.499 98.1823C524.496 98.2172 524.485 98.2509 524.467 98.2809C524.449 98.311 524.424 98.3364 524.395 98.3553C524.365 98.3742 524.332 98.3861 524.297 98.39L524.235 98.4106Z" fill="#210B04"/>
<path d="M523.781 95.7637C523.727 95.7845 523.668 95.7845 523.615 95.7637C523.571 95.7116 523.547 95.6457 523.547 95.5776C523.547 95.5095 523.571 95.4436 523.615 95.3915L524.67 94.1921C524.693 94.169 524.72 94.1506 524.75 94.1381C524.781 94.1256 524.813 94.1191 524.846 94.1191C524.878 94.1191 524.911 94.1256 524.941 94.1381C524.971 94.1506 524.998 94.169 525.021 94.1921C525.069 94.2422 525.096 94.3089 525.096 94.3782C525.096 94.4476 525.069 94.5143 525.021 94.5644L523.967 95.7844C523.904 95.7968 523.839 95.7896 523.781 95.7637Z" fill="#210B04"/>
<path d="M529.964 273.25C529.898 273.25 529.835 273.224 529.789 273.177C529.742 273.131 529.716 273.068 529.716 273.002V214.646C529.716 214.58 529.742 214.517 529.789 214.471C529.835 214.424 529.898 214.398 529.964 214.398C529.998 214.395 530.033 214.4 530.065 214.411C530.098 214.422 530.128 214.44 530.153 214.463C530.178 214.486 530.198 214.515 530.212 214.546C530.226 214.578 530.233 214.612 530.233 214.646V273.002C530.233 273.036 530.226 273.07 530.212 273.102C530.198 273.133 530.178 273.162 530.153 273.185C530.128 273.208 530.098 273.226 530.065 273.237C530.033 273.249 529.998 273.253 529.964 273.25Z" fill="#210B04"/>
<path d="M498.571 279.536C498.509 279.538 498.448 279.518 498.399 279.481C498.35 279.443 498.316 279.39 498.302 279.33L496.916 271.968C496.901 271.931 496.894 271.892 496.896 271.852C496.898 271.812 496.908 271.773 496.927 271.738C496.946 271.703 496.972 271.673 497.004 271.649C497.036 271.625 497.073 271.609 497.112 271.601C497.151 271.593 497.191 271.594 497.229 271.604C497.268 271.613 497.304 271.631 497.335 271.657C497.366 271.682 497.39 271.714 497.407 271.75C497.424 271.785 497.433 271.825 497.433 271.865L498.819 279.226C498.831 279.295 498.816 279.365 498.778 279.423C498.739 279.481 498.68 279.521 498.612 279.536H498.571Z" fill="#210B04"/>
<path d="M496.275 269.611C496.219 269.612 496.163 269.595 496.118 269.561C496.073 269.527 496.041 269.479 496.027 269.424L494.517 263.593C494.508 263.56 494.506 263.526 494.51 263.493C494.514 263.459 494.526 263.427 494.543 263.398C494.561 263.369 494.584 263.343 494.611 263.324C494.639 263.304 494.67 263.29 494.703 263.283C494.736 263.274 494.77 263.271 494.804 263.276C494.837 263.28 494.87 263.291 494.899 263.309C494.928 263.326 494.953 263.349 494.973 263.377C494.992 263.405 495.006 263.436 495.014 263.469L496.523 269.3C496.533 269.333 496.535 269.367 496.531 269.401C496.526 269.434 496.515 269.467 496.497 269.496C496.48 269.525 496.457 269.55 496.429 269.57C496.402 269.589 496.37 269.603 496.337 269.611H496.275Z" fill="#210B04"/>
<path d="M527.999 198.496L501.114 189.997C501.074 189.993 501.035 189.981 501 189.96C500.965 189.939 500.935 189.911 500.913 189.877C500.891 189.843 500.877 189.804 500.871 189.764C500.866 189.724 500.87 189.683 500.883 189.644C500.896 189.606 500.917 189.571 500.946 189.542C500.974 189.513 501.008 189.49 501.047 189.476C501.085 189.463 501.125 189.458 501.166 189.462C501.206 189.466 501.245 189.479 501.28 189.501L528.02 197.979C528.084 198.003 528.138 198.05 528.168 198.112C528.199 198.173 528.205 198.244 528.185 198.31C528.171 198.353 528.147 198.393 528.115 198.425C528.082 198.458 528.043 198.482 527.999 198.496Z" fill="#210B04"/>
<path d="M502.542 184.952C511.442 187.169 520.675 187.73 529.778 186.606L524.628 181.684L502.893 179.182C502.872 181.023 502.707 182.925 502.542 184.952Z" fill="#210B04"/>
<path d="M456.713 168.987C460.985 173.205 466.424 176.043 472.327 177.135C477.745 178.024 480.289 176.597 487.486 177.383C492.293 177.984 496.996 179.236 501.466 181.105C511.116 184.439 521.208 186.321 531.412 186.688C532.797 181.457 534.203 176.204 535.548 170.972C538.923 169.118 541.477 166.062 542.703 162.411C544.13 157.097 541.194 152.361 538.153 147.026C533.406 138.63 529.092 129.995 525.228 121.157L508.952 117.621L456.713 168.987Z" fill="#6456EF"/>
<path d="M471.024 392.918L511.661 406.111C512.313 406.068 512.945 405.871 513.506 405.537C514.066 405.203 514.54 404.74 514.888 404.188C516.418 400.714 508.732 393.194 491.829 381.627C491.829 381.007 491.539 380.118 491.043 379.973C489.368 379.498 487.134 387.645 483.432 387.934C482.212 387.934 480.351 387.314 477.828 383.116C475.751 384.331 474.01 386.044 472.761 388.1C471.888 389.584 471.298 391.218 471.024 392.918Z" fill="#110003"/>
<path d="M480.289 392.567C480.653 392.567 481.009 392.459 481.311 392.256C481.614 392.054 481.85 391.767 481.989 391.43C482.129 391.094 482.165 390.724 482.094 390.367C482.023 390.01 481.848 389.682 481.59 389.425C481.333 389.167 481.005 388.992 480.648 388.921C480.291 388.85 479.921 388.887 479.584 389.026C479.248 389.165 478.961 389.401 478.758 389.704C478.556 390.006 478.448 390.362 478.448 390.726C478.454 391.213 478.649 391.678 478.993 392.022C479.337 392.366 479.802 392.561 480.289 392.567Z" fill="white"/>
<path d="M456.775 273.333C461.904 286.608 467.039 299.891 472.182 313.181C472.628 313.659 473.181 314.024 473.796 314.247C474.411 314.47 475.07 314.544 475.718 314.463C479.358 313.47 480.33 302.765 478.634 282.349C479.069 281.894 479.648 281.191 479.441 280.694C478.758 279.102 471.024 282.514 468.459 279.805C467.632 278.937 467.012 277.034 468.666 272.443C466.414 271.586 463.98 271.315 461.593 271.658C459.896 271.906 458.261 272.475 456.775 273.333Z" fill="#110003"/>
<path d="M462.896 280.301C463.043 280.504 463.23 280.675 463.445 280.803C463.66 280.931 463.898 281.014 464.147 281.047C464.395 281.079 464.647 281.061 464.888 280.993C465.128 280.925 465.353 280.809 465.547 280.651C465.741 280.493 465.902 280.298 466.018 280.076C466.134 279.854 466.204 279.611 466.223 279.362C466.242 279.112 466.21 278.862 466.128 278.625C466.047 278.388 465.919 278.171 465.75 277.985C465.439 277.606 464.991 277.365 464.503 277.315C464.015 277.265 463.527 277.409 463.145 277.717C462.77 278.027 462.533 278.473 462.487 278.958C462.44 279.442 462.588 279.925 462.896 280.301Z" fill="white"/>
<path d="M493.442 371.495L482.336 369.427C482.303 369.422 482.272 369.411 482.244 369.393C482.215 369.376 482.191 369.353 482.172 369.326C482.152 369.299 482.139 369.268 482.132 369.236C482.124 369.204 482.124 369.17 482.129 369.138C482.144 369.07 482.185 369.01 482.243 368.972C482.301 368.933 482.371 368.918 482.44 368.931L493.483 370.999C493.551 371.014 493.611 371.054 493.649 371.112C493.688 371.17 493.702 371.24 493.69 371.309C493.676 371.363 493.644 371.412 493.599 371.445C493.553 371.479 493.498 371.497 493.442 371.495Z" fill="#210B04"/>
<path d="M515.115 298.623C515.056 298.624 514.998 298.603 514.953 298.565C514.907 298.527 514.877 298.474 514.867 298.416L502.272 226.743C502.265 226.675 502.281 226.607 502.319 226.55C502.357 226.494 502.414 226.452 502.479 226.433C502.514 226.427 502.551 226.428 502.585 226.437C502.62 226.445 502.653 226.46 502.682 226.481C502.711 226.503 502.735 226.529 502.754 226.56C502.772 226.591 502.784 226.625 502.789 226.661L515.342 298.313C515.348 298.381 515.328 298.449 515.286 298.502C515.244 298.556 515.183 298.592 515.115 298.602V298.623Z" fill="#210B04"/>
<path d="M507.174 299.739L503.741 299.223C503.706 299.22 503.672 299.211 503.642 299.194C503.611 299.178 503.584 299.156 503.563 299.128C503.541 299.101 503.526 299.07 503.517 299.036C503.509 299.002 503.507 298.967 503.513 298.933C503.518 298.898 503.53 298.863 503.549 298.833C503.567 298.802 503.592 298.775 503.621 298.754C503.649 298.733 503.682 298.718 503.717 298.709C503.752 298.701 503.788 298.7 503.824 298.706L507.215 299.223C507.248 299.228 507.279 299.239 507.308 299.256C507.336 299.274 507.36 299.297 507.38 299.324C507.399 299.351 507.413 299.381 507.42 299.414C507.427 299.446 507.428 299.479 507.422 299.512C507.413 299.573 507.383 299.628 507.338 299.669C507.293 299.711 507.235 299.735 507.174 299.739Z" fill="#210B04"/>
<path d="M505.478 298.623C505.421 298.629 505.363 298.613 505.317 298.579C505.271 298.544 505.24 298.493 505.23 298.437C505.22 298.406 505.217 298.373 505.22 298.34C505.223 298.308 505.233 298.276 505.248 298.247C505.263 298.219 505.284 298.193 505.309 298.172C505.335 298.152 505.364 298.136 505.395 298.127L507.339 297.589C507.372 297.58 507.406 297.577 507.439 297.582C507.473 297.586 507.505 297.598 507.534 297.615C507.563 297.632 507.589 297.656 507.608 297.683C507.628 297.711 507.642 297.742 507.649 297.775C507.659 297.808 507.661 297.842 507.656 297.875C507.652 297.909 507.641 297.941 507.623 297.97C507.606 298 507.583 298.025 507.555 298.044C507.528 298.064 507.496 298.078 507.463 298.085L505.54 298.623H505.478Z" fill="#210B04"/>
<path d="M488.768 368.186C488.54 368.186 488.478 367.959 488.52 367.835L512.53 305.323C512.557 305.262 512.606 305.213 512.668 305.187C512.729 305.16 512.798 305.157 512.861 305.178C512.895 305.186 512.926 305.202 512.953 305.225C512.98 305.247 513.001 305.276 513.015 305.308C513.029 305.34 513.035 305.375 513.034 305.409C513.032 305.444 513.023 305.478 513.006 305.509L488.995 368.083C488.97 368.119 488.936 368.147 488.896 368.165C488.856 368.184 488.812 368.191 488.768 368.186Z" fill="#210B04"/>
<path d="M550.934 150.997L552.733 155.339C542.045 164.157 529.797 170.891 516.625 175.191C513.079 176.337 509.476 177.297 505.83 178.065C504.171 176.653 502.941 174.804 502.279 172.728C501.618 170.652 501.551 168.432 502.086 166.32C504.624 164.911 507.257 163.681 509.966 162.639C523.76 157.263 531.867 159.682 544.999 153.995C547.037 153.119 549.019 152.117 550.934 150.997Z" fill="#F24040"/>
<path d="M501.507 150.232C501.445 151.423 501.445 152.617 501.507 153.809C501.542 158.757 501.839 163.699 502.397 168.615L514.061 172.627C514.64 165.679 515.26 158.731 515.839 151.783C516.542 143.739 517.225 135.715 517.907 127.65C516.855 125.726 515.133 124.254 513.068 123.515C511.504 123.021 509.837 122.953 508.238 123.316C506.639 123.68 505.165 124.462 503.968 125.583C503.203 129.718 502.562 133.854 502.107 138.548C501.714 142.622 501.528 146.489 501.507 150.232Z" fill="#F24040"/>
<path d="M492.366 149.218L519.458 152.155V126.575C518.561 124.969 517.251 123.631 515.664 122.7C514.077 121.769 512.271 121.278 510.431 121.278C508.591 121.278 506.784 121.769 505.198 122.7C503.611 123.631 502.301 124.969 501.404 126.575L492.366 149.218Z" fill="#6456EF"/>
<path d="M501.507 150.232C501.445 151.423 501.445 152.617 501.507 153.809L515.839 151.741L501.507 150.232Z" fill="#210B04"/>
<path d="M516.542 151.741C516.508 151.741 516.473 151.734 516.442 151.721C516.41 151.707 516.382 151.687 516.359 151.661C516.335 151.636 516.318 151.606 516.306 151.574C516.295 151.541 516.291 151.507 516.294 151.473L517.08 133.11C517.084 133.045 517.112 132.985 517.158 132.94C517.203 132.894 517.264 132.866 517.328 132.862C517.401 132.867 517.469 132.9 517.519 132.953C517.569 133.007 517.597 133.078 517.597 133.151L516.811 151.493C516.811 151.528 516.804 151.562 516.79 151.593C516.776 151.625 516.756 151.653 516.731 151.676C516.706 151.7 516.676 151.718 516.643 151.729C516.611 151.74 516.576 151.744 516.542 151.741Z" fill="#210B04"/>
<path d="M492.366 149.467C492.333 149.453 492.304 149.434 492.279 149.408C492.255 149.383 492.236 149.352 492.225 149.319C492.213 149.286 492.208 149.25 492.211 149.215C492.214 149.18 492.225 149.146 492.242 149.115L503.244 127.092C503.282 127.042 503.335 127.007 503.395 126.992C503.456 126.978 503.519 126.984 503.575 127.011C503.631 127.038 503.676 127.083 503.703 127.139C503.729 127.196 503.735 127.259 503.72 127.32L492.697 149.343C492.684 149.373 492.664 149.4 492.64 149.422C492.617 149.445 492.588 149.462 492.558 149.474C492.527 149.485 492.494 149.491 492.461 149.489C492.428 149.488 492.396 149.48 492.366 149.467Z" fill="#210B04"/>
<path d="M524.587 235.201L585.057 243.286C583.678 217.81 582.362 192.306 581.107 166.775L540.428 166.423L533.5 165.327C527.213 184.724 520.919 204.121 514.619 223.517L519.52 225.089C521.319 228.439 522.891 231.83 524.587 235.201Z" fill="#110003"/>
<path d="M519.52 225.317C519.313 225.317 519.231 225.13 519.272 224.986L537.223 166.465C537.232 166.433 537.248 166.404 537.269 166.379C537.289 166.354 537.315 166.333 537.344 166.318C537.372 166.302 537.404 166.293 537.437 166.289C537.469 166.286 537.502 166.29 537.533 166.299C537.602 166.318 537.66 166.364 537.695 166.426C537.729 166.488 537.738 166.562 537.719 166.63L519.768 225.151C519.748 225.2 519.714 225.242 519.669 225.271C519.625 225.301 519.573 225.317 519.52 225.317Z" fill="white"/>
<path d="M524.587 235.449C524.549 235.45 524.51 235.443 524.475 235.426C524.44 235.41 524.41 235.386 524.385 235.356C524.361 235.326 524.345 235.291 524.337 235.253C524.328 235.215 524.329 235.176 524.339 235.139L539.932 167.023C539.952 166.959 539.994 166.904 540.051 166.87C540.109 166.835 540.177 166.824 540.242 166.837C540.31 166.852 540.37 166.892 540.408 166.95C540.447 167.008 540.462 167.079 540.449 167.147L524.794 235.263C524.785 235.312 524.76 235.358 524.722 235.391C524.685 235.425 524.637 235.445 524.587 235.449Z" fill="white"/>
<path d="M546.529 171.055C546.468 171.053 546.409 171.032 546.361 170.995C546.313 170.958 546.278 170.907 546.26 170.848C545.225 165.603 546.144 160.16 548.845 155.546C550.045 153.582 551.699 150.914 554.243 150.273C559.31 148.991 566.507 156.104 571.656 167.54C571.67 167.57 571.678 167.602 571.679 167.635C571.68 167.668 571.675 167.7 571.663 167.731C571.652 167.762 571.634 167.79 571.612 167.814C571.589 167.838 571.562 167.857 571.532 167.871C571.503 167.888 571.47 167.898 571.436 167.901C571.403 167.904 571.369 167.899 571.337 167.887C571.305 167.876 571.277 167.857 571.253 167.832C571.23 167.808 571.212 167.779 571.201 167.747C566.217 156.725 559.124 149.591 554.367 150.769C552.01 151.348 550.438 153.933 549.28 155.794C546.649 160.306 545.759 165.623 546.777 170.745C546.79 170.813 546.775 170.884 546.736 170.942C546.698 171 546.638 171.04 546.57 171.055H546.529Z" fill="#210B04"/>
<path d="M561.812 151.865C562.547 152.462 563.336 152.988 564.17 153.437C565.915 154.352 567.816 154.934 569.774 155.153C570.448 155.232 571.127 155.066 571.688 154.687C572.25 154.307 572.657 153.739 572.835 153.085C572.867 152.711 572.82 152.334 572.699 151.978C572.578 151.622 572.385 151.295 572.132 151.017C571.493 149.672 570.568 148.483 569.421 147.533C568.275 146.582 566.934 145.894 565.493 145.517C563.646 145.126 561.725 145.292 559.972 145.992C560.613 147.978 561.192 149.921 561.812 151.865Z" fill="#F24040"/>
<path d="M546.694 159.785C548.785 159.844 550.874 159.607 552.899 159.082C555.472 158.415 557.904 157.287 560.075 155.753C561.13 156.104 564.211 156.994 564.873 155.939C565.535 154.884 564.004 152.175 560.944 149.115C557.889 148.47 554.733 148.47 551.679 149.115C547.096 150.131 542.929 152.51 539.725 155.939L546.694 159.785Z" fill="#F24040"/>
<path d="M547.419 159.806C547.364 159.802 547.311 159.782 547.268 159.749C547.224 159.716 547.19 159.671 547.17 159.62C547.157 159.587 547.152 159.552 547.155 159.517C547.158 159.482 547.169 159.449 547.187 159.419C547.205 159.389 547.229 159.363 547.259 159.344C547.288 159.325 547.322 159.314 547.357 159.31L559.579 155.794C559.647 155.775 559.721 155.784 559.783 155.819C559.845 155.854 559.89 155.912 559.91 155.98C559.919 156.013 559.921 156.047 559.917 156.081C559.913 156.114 559.901 156.147 559.884 156.176C559.866 156.205 559.843 156.23 559.816 156.25C559.788 156.269 559.757 156.283 559.724 156.291L547.501 159.806H547.419Z" fill="#210B04"/>
<path d="M561.792 156.435L560.323 156.043C560.289 156.039 560.255 156.027 560.226 156.008C560.196 155.989 560.171 155.964 560.153 155.933C560.135 155.903 560.125 155.87 560.122 155.835C560.119 155.8 560.124 155.765 560.137 155.732C560.156 155.668 560.199 155.614 560.256 155.579C560.314 155.545 560.382 155.533 560.447 155.546L561.854 155.918C561.887 155.926 561.918 155.94 561.946 155.959C561.973 155.979 561.996 156.004 562.014 156.033C562.031 156.062 562.043 156.095 562.047 156.128C562.052 156.162 562.049 156.196 562.04 156.229C562.03 156.287 562 156.34 561.954 156.378C561.908 156.416 561.851 156.436 561.792 156.435Z" fill="#210B04"/>
<path d="M564.873 154.037C564.806 154.059 564.733 154.059 564.666 154.037L561.44 149.363C561.407 149.338 561.38 149.305 561.361 149.268C561.343 149.231 561.333 149.19 561.333 149.148C561.334 149.107 561.343 149.066 561.362 149.028C561.381 148.991 561.408 148.959 561.441 148.934C561.474 148.909 561.513 148.892 561.554 148.885C561.595 148.877 561.637 148.879 561.677 148.891C561.717 148.902 561.754 148.923 561.784 148.951C561.815 148.979 561.839 149.014 561.853 149.053L565.1 153.747C565.143 153.796 565.166 153.858 565.166 153.923C565.166 153.987 565.143 154.05 565.1 154.099C565.06 154.108 565.018 154.107 564.979 154.096C564.939 154.085 564.903 154.065 564.873 154.037Z" fill="#210B04"/>
<path d="M542.641 163.073C542.609 163.09 542.574 163.098 542.538 163.098C542.502 163.098 542.466 163.09 542.434 163.073C542.411 163.05 542.393 163.023 542.38 162.993C542.368 162.962 542.361 162.93 542.361 162.897C542.361 162.865 542.368 162.832 542.38 162.802C542.393 162.772 542.411 162.745 542.434 162.722L546.57 159.682C546.593 159.659 546.621 159.64 546.651 159.628C546.681 159.615 546.714 159.609 546.746 159.609C546.779 159.609 546.811 159.615 546.841 159.628C546.872 159.64 546.899 159.659 546.922 159.682C546.966 159.734 546.99 159.8 546.99 159.868C546.99 159.936 546.966 160.002 546.922 160.054L542.786 163.094C542.737 163.102 542.686 163.094 542.641 163.073Z" fill="#210B04"/>
<path d="M564.066 155.422H563.942L559.082 153.127C559.052 153.113 559.025 153.094 559.002 153.07C558.98 153.046 558.962 153.018 558.951 152.987C558.939 152.956 558.934 152.924 558.935 152.891C558.936 152.858 558.944 152.826 558.958 152.796C558.971 152.763 558.991 152.734 559.017 152.709C559.042 152.685 559.072 152.666 559.106 152.654C559.139 152.643 559.174 152.638 559.21 152.641C559.245 152.644 559.279 152.655 559.31 152.672L564.17 154.946C564.232 154.978 564.279 155.032 564.302 155.097C564.326 155.163 564.322 155.235 564.294 155.298C564.268 155.335 564.234 155.365 564.195 155.387C564.155 155.408 564.111 155.42 564.066 155.422Z" fill="#210B04"/>
<path d="M551.554 156.849C551.504 156.851 551.453 156.838 551.409 156.812C551.366 156.787 551.33 156.749 551.306 156.704C551.278 156.641 551.274 156.569 551.298 156.503C551.321 156.438 551.368 156.384 551.43 156.353L558.296 152.961C558.357 152.931 558.427 152.925 558.493 152.944C558.558 152.963 558.613 153.006 558.648 153.065C558.677 153.128 558.68 153.2 558.657 153.265C558.634 153.331 558.586 153.385 558.524 153.416L551.658 156.828L551.554 156.849Z" fill="#210B04"/>
<path d="M562.681 153.313H562.557L558.69 151.245C558.649 151.236 558.612 151.217 558.58 151.191C558.548 151.164 558.522 151.131 558.505 151.093C558.488 151.055 558.481 151.014 558.482 150.973C558.484 150.931 558.495 150.891 558.515 150.854C558.535 150.818 558.563 150.787 558.596 150.763C558.63 150.739 558.669 150.724 558.71 150.717C558.751 150.711 558.793 150.714 558.833 150.727C558.872 150.74 558.908 150.761 558.938 150.79L562.805 152.858C562.828 152.881 562.847 152.908 562.859 152.939C562.872 152.969 562.878 153.001 562.878 153.034C562.878 153.066 562.872 153.099 562.859 153.129C562.847 153.159 562.828 153.186 562.805 153.209C562.778 153.258 562.734 153.295 562.681 153.313Z" fill="#210B04"/>
<path d="M511.413 163.59C511.346 163.612 511.274 163.612 511.206 163.59C511.164 163.541 511.141 163.479 511.141 163.414C511.141 163.35 511.164 163.288 511.206 163.239L514.412 160.902C514.462 160.854 514.529 160.827 514.598 160.827C514.668 160.827 514.734 160.854 514.784 160.902C514.826 160.951 514.85 161.013 514.85 161.078C514.85 161.142 514.826 161.205 514.784 161.254L511.579 163.59H511.413Z" fill="#210B04"/>
<path d="M497.991 93.8199C508.682 93.8199 517.349 85.1542 517.349 74.4645C517.349 63.7748 508.682 55.1091 497.991 55.1091C487.301 55.1091 478.634 63.7748 478.634 74.4645C478.634 85.1542 487.301 93.8199 497.991 93.8199Z" fill="#210B04"/>
<path d="M497.991 91.9173C494.109 91.9173 490.313 90.7659 487.085 88.6086C483.858 86.4514 481.342 83.3853 479.857 79.7982C478.372 76.2112 477.985 72.2643 478.744 68.457C479.503 64.6498 481.374 61.1531 484.121 58.4094C486.868 55.6658 490.367 53.7984 494.175 53.0435C497.983 52.2886 501.93 52.6802 505.516 54.1687C509.102 55.6572 512.166 58.1757 514.32 61.4056C516.474 64.6355 517.621 68.4317 517.617 72.3138C517.606 77.5132 515.534 82.4962 511.856 86.1708C508.177 89.8454 503.191 91.9119 497.991 91.9173ZM497.991 53.2066C494.215 53.223 490.529 54.3574 487.397 56.4669C484.266 58.5763 481.83 61.5661 480.396 65.0589C478.962 68.5517 478.596 72.3909 479.342 76.0919C480.089 79.7929 481.915 83.1897 484.591 85.8536C487.267 88.5176 490.672 90.3292 494.376 91.0597C498.081 91.7903 501.919 91.4071 505.406 89.9586C508.893 88.51 511.872 86.0609 513.968 82.9206C516.064 79.7802 517.183 76.0894 517.183 72.3138C517.183 69.7977 516.686 67.3063 515.72 64.9827C514.755 62.6591 513.34 60.549 511.557 58.7737C509.774 56.9983 507.657 55.5926 505.329 54.6372C503.001 53.6819 500.508 53.1957 497.991 53.2066Z" fill="#210B04"/>
<path d="M572.628 85.3C572.628 92.9719 568.595 96.7768 563.9 96.7768C559.206 96.7768 555.442 93.1373 555.401 85.817C555.359 78.4967 559.371 74.4644 564.169 74.4644C568.967 74.4644 572.628 78.3726 572.628 85.3ZM559.309 85.6516C559.206 90.2836 560.943 93.8197 564.004 93.8197C567.065 93.8197 568.719 90.3457 568.719 85.5482C568.719 81.1229 567.416 77.4421 564.004 77.4421C560.943 77.4214 559.309 81.0609 559.309 85.6516ZM563.57 112.038L584.933 74.4644H588.076L566.692 112.038H563.57ZM596.286 100.354C596.286 108.026 592.254 111.831 587.621 111.831C582.989 111.831 579.225 108.192 579.225 100.913C579.225 93.6336 583.196 89.4979 587.993 89.4979C592.998 89.4979 596.286 93.4268 596.286 100.354ZM582.968 100.685C582.968 105.338 584.705 108.853 587.725 108.853C590.744 108.853 592.44 105.4 592.44 100.582C592.44 96.1564 591.137 92.4756 587.725 92.4756C584.664 92.4756 582.968 96.0944 582.968 100.602V100.685Z" fill="white"/>
<path d="M447.696 225.378C447.696 232.45 443.994 235.966 439.651 235.966C435.308 235.966 431.834 232.595 431.792 225.833C431.751 219.071 435.453 215.349 439.899 215.349C444.346 215.349 447.696 218.968 447.696 225.378ZM435.411 225.689C435.411 229.969 436.9 233.216 439.754 233.216C442.608 233.216 444.097 230.01 444.097 225.585C444.097 221.449 442.898 218.079 439.754 218.079C436.611 218.079 435.411 221.449 435.411 225.689ZM439.341 250.069L459.07 215.349H461.965L442.236 250.069H439.341ZM469.617 239.275C469.617 246.347 465.895 249.862 461.593 249.862C457.292 249.862 453.797 246.512 453.735 239.791C453.673 233.071 457.416 229.245 461.862 229.245C466.308 229.245 469.617 232.947 469.617 239.275ZM457.209 239.585C457.209 243.865 458.801 247.132 461.593 247.132C464.385 247.132 465.936 243.927 465.936 239.481C465.936 235.346 464.757 231.975 461.593 231.975C458.822 231.975 457.209 235.346 457.209 239.585Z" fill="white"/>
<path d="M143.297 62.0985C143.297 71.9416 138.127 76.8218 132.108 76.8218C126.09 76.8218 121.251 72.1691 121.189 62.7602C121.127 53.3513 126.318 48.1816 132.522 48.1816C138.995 48.1816 143.297 53.2066 143.297 62.0985ZM126.214 62.5327C126.07 68.4882 128.282 73.0169 132.253 73.0169C136.224 73.0169 138.271 68.571 138.271 62.388C138.271 56.722 136.617 52.0486 132.253 52.0486C128.386 51.9865 126.318 56.6393 126.318 62.5327H126.214ZM131.674 96.4667L159.117 48.223H163.129L135.686 96.4667H131.674ZM173.697 81.4745C173.697 91.297 168.527 96.1978 162.55 96.1978C156.574 96.1978 151.714 91.5244 151.631 82.1776C151.548 72.8308 156.739 67.5163 162.923 67.5163C169.458 67.5163 173.697 72.5206 173.697 81.4332V81.4745ZM156.594 81.8881C156.594 87.8643 158.828 92.3723 162.799 92.3723C166.935 92.3723 168.837 87.9263 168.837 81.764C168.837 76.0774 167.183 71.4246 162.799 71.4246C158.745 71.3006 156.594 75.974 156.594 81.8468V81.8881Z" fill="white"/>
<path d="M360.154 16.7085C360.154 28.5161 353.95 34.3682 346.712 34.3682C339.474 34.3682 333.704 28.7849 333.621 17.4943C333.538 6.20364 339.825 0 347.146 0C354.984 0 360.154 6.03821 360.154 16.7085ZM339.639 17.2255C339.474 24.3803 342.141 29.8188 346.898 29.8188C351.655 29.8188 354.136 24.463 354.136 17.06C354.136 10.2567 352.068 4.65273 346.898 4.65273C342.141 4.57002 339.639 10.174 339.639 17.2255ZM346.195 57.9007L379.118 0H383.937L351.034 57.9007H346.195ZM396.614 39.8894C396.614 51.697 390.41 57.5491 383.255 57.5491C376.099 57.5491 370.246 51.9659 370.164 40.7579C370.081 29.55 376.265 23.1809 383.689 23.1809C391.527 23.1809 396.614 29.2192 396.614 39.8894ZM376.099 40.4064C376.099 47.5613 378.767 52.9998 383.42 52.9998C388.425 52.9998 390.658 47.644 390.658 40.241C390.658 33.4376 388.694 27.8337 383.42 27.8337C378.622 27.751 376.099 33.3549 376.099 40.4064Z" fill="white"/>
<path d="M199.775 70.8044C199.775 70.4528 196.632 56.0604 196.26 55.3986C195.329 53.765 192.909 50.7666 185.754 49.4018C189.523 48.8789 192.945 46.9237 195.308 43.9426C197.128 41.4404 197.749 38.4627 198.7 33.872C199.114 31.8041 199.341 30.1291 199.486 28.9504C199.486 29.4054 198.08 40.0963 205.69 45.8037C208.308 47.7198 211.444 48.8009 214.686 48.9055C211.457 49.2718 208.382 50.4845 205.773 52.4209C204.916 53.0016 204.144 53.6974 203.477 54.4888C200.996 57.632 199.92 70.246 199.775 70.8044Z" fill="white"/>
<path d="M92.2773 177.528C92.2773 177.218 89.5268 164.583 89.1959 164.004C88.3687 162.556 86.2593 159.868 79.9517 158.731C83.2708 158.293 86.2857 156.57 88.348 153.933C89.9693 151.241 90.9854 148.228 91.326 145.103C91.6983 143.304 91.9051 141.795 92.0292 140.781C92.0292 141.174 90.7884 150.563 97.5096 155.588C99.8075 157.252 102.552 158.189 105.389 158.276C102.55 158.608 99.8482 159.678 97.5509 161.378C96.7732 161.876 96.0759 162.489 95.4829 163.197C93.3527 165.968 92.4221 177.114 92.2773 177.528Z" fill="white"/>
<path d="M58.8572 178.706C58.8572 178.52 57.1406 170.6 56.9338 170.228C56.4168 169.318 55.0726 167.684 51.1226 166.919C53.1967 166.624 55.0815 165.552 56.3961 163.921C57.4003 162.225 58.0345 160.337 58.2574 158.379C58.4849 157.242 58.6297 156.311 58.6917 155.649C58.6917 155.918 57.9265 161.853 62.1454 164.955C63.5802 165.996 65.2956 166.579 67.0674 166.63C65.2931 166.843 63.6044 167.513 62.166 168.574C61.6954 168.893 61.2709 169.276 60.9045 169.711C59.5396 171.469 58.9399 178.417 58.8572 178.706Z" fill="white"/>
<path d="M279.499 74.4024C279.499 74.0715 276.542 60.4856 276.191 59.9272C275.301 58.3556 273.026 55.5433 266.243 54.2406C269.795 53.7256 273.011 51.8587 275.219 49.0295C276.935 46.6721 277.514 43.8598 278.424 39.5172C278.817 37.5941 279.024 35.9812 279.148 34.8645C279.148 35.2988 277.845 45.39 285.063 50.7872C287.524 52.5851 290.474 53.5945 293.521 53.6822C290.474 54.043 287.573 55.1903 285.104 57.0115C284.324 57.564 283.628 58.2256 283.036 58.976C280.658 61.9744 279.644 73.8854 279.499 74.4024Z" fill="white"/>
<path d="M431.585 83.9354C431.585 83.7906 430.159 77.2561 429.993 76.9666C429.46 76.1749 428.752 75.5167 427.924 75.0433C427.095 74.5699 426.168 74.294 425.216 74.237C426.925 74.0026 428.479 73.1219 429.559 71.7762C430.388 70.3789 430.909 68.821 431.089 67.2062C431.251 66.4685 431.375 65.7231 431.461 64.9729C431.267 66.3798 431.424 67.8129 431.918 69.1444C432.413 70.4759 433.229 71.6642 434.295 72.6034C435.499 73.4797 436.942 73.9701 438.431 74.0095C436.935 74.1623 435.507 74.712 434.295 75.6018C433.914 75.869 433.566 76.1815 433.261 76.5324C432.144 77.9799 431.647 83.7079 431.585 83.9354Z" fill="white"/>
<path d="M594.301 150.542C594.301 150.397 593.04 144.628 592.895 144.338C592.41 143.651 591.778 143.081 591.044 142.669C590.311 142.258 589.494 142.016 588.655 141.96C590.174 141.759 591.555 140.973 592.502 139.768C593.245 138.502 593.711 137.092 593.867 135.632C594.032 134.805 594.115 134.123 594.177 133.564C594.012 134.812 594.156 136.081 594.596 137.26C595.036 138.439 595.759 139.492 596.7 140.326C597.749 141.09 599.002 141.522 600.299 141.567C598.998 141.719 597.759 142.204 596.7 142.973C596.337 143.274 596.023 143.63 595.769 144.028C594.797 145.248 594.363 150.232 594.301 150.542Z" fill="white"/>
<path d="M537.595 64.456C537.595 64.1251 534.679 50.7459 534.327 50.1255C533.459 48.5953 531.205 45.8037 524.545 44.5216C528.053 44.0438 531.239 42.2284 533.438 39.4553C535.134 37.1186 535.713 34.3476 536.602 30.0671C536.995 28.1646 537.202 26.5724 537.326 25.4971C537.326 25.9106 536.023 35.8365 543.158 41.1923C545.566 42.954 548.449 43.9485 551.43 44.046C548.434 44.4049 545.583 45.5381 543.158 47.3339C542.383 47.8761 541.687 48.5233 541.09 49.257C538.732 52.2141 537.74 63.9597 537.595 64.456Z" fill="white"/>
<path d="M454.768 71.3006C454.768 70.9283 451.563 56.205 451.191 55.5433C450.219 53.8476 447.758 50.7872 440.416 49.3397C444.274 48.8059 447.777 46.8063 450.198 43.7564C452.059 41.2129 452.7 38.1524 453.672 33.417C454.107 31.3491 454.334 29.5707 454.479 28.3713C454.479 28.847 453.052 39.7654 460.869 45.6381C463.527 47.6336 466.73 48.7732 470.051 48.9054C466.742 49.2967 463.591 50.544 460.911 52.5242C460.039 53.1005 459.252 53.7966 458.574 54.5921C456.03 57.818 454.934 70.7422 454.768 71.3006Z" fill="white"/>
<path d="M463.992 132.923C463.992 132.675 461.697 122.15 461.428 121.674C460.746 120.454 458.967 118.283 453.735 117.27C456.492 116.888 458.995 115.459 460.725 113.279C462.061 111.027 462.906 108.518 463.207 105.917C463.456 104.728 463.643 103.527 463.765 102.319C463.765 102.65 462.752 110.466 468.356 114.726C470.265 116.12 472.55 116.905 474.912 116.98C472.544 117.251 470.289 118.143 468.377 119.565C467.745 119.981 467.181 120.49 466.702 121.075C464.882 123.349 464.096 132.531 463.992 132.923Z" fill="white"/>
<path d="M129.813 135.757C129.813 135.591 128.303 128.643 128.117 128.333C127.547 127.498 126.794 126.804 125.917 126.303C125.039 125.801 124.059 125.506 123.05 125.438C124.874 125.191 126.529 124.241 127.662 122.791C128.545 121.313 129.102 119.663 129.296 117.952C129.503 116.959 129.606 116.132 129.668 115.574C129.474 117.072 129.647 118.595 130.174 120.01C130.7 121.426 131.562 122.693 132.688 123.701C133.947 124.618 135.453 125.136 137.01 125.19C135.452 125.368 133.968 125.952 132.708 126.885C132.297 127.162 131.928 127.496 131.612 127.878C130.454 129.553 129.896 135.55 129.813 135.757Z" fill="white"/>
<path d="M302.828 29.8189C302.828 29.6328 301.318 22.7054 301.132 22.3952C300.565 21.5559 299.813 20.857 298.935 20.3517C298.057 19.8464 297.076 19.5481 296.065 19.4795C297.883 19.2296 299.534 18.2891 300.677 16.8533C301.55 15.3631 302.106 13.7088 302.311 11.9938C302.497 11.0012 302.621 10.1741 302.683 9.61572C302.476 11.1174 302.643 12.6469 303.17 14.0682C303.697 15.4896 304.567 16.7588 305.702 17.7632C306.967 18.6672 308.471 19.1779 310.024 19.2314C308.469 19.4186 306.988 20.0025 305.723 20.927C305.305 21.2104 304.929 21.5516 304.606 21.9403C303.407 23.4705 302.89 29.5501 302.828 29.8189Z" fill="white"/>
</g>
<defs>
<clipPath id="clip0_912_33">
<rect width="621" height="421" fill="white"/>
</clipPath>
</defs>
</svg>
