<svg width="202" height="66" viewBox="0 0 202 66" fill="none" xmlns="http://www.w3.org/2000/svg">
<path d="M202 57.0685C202 61.9789 198.012 66 193.056 66H8.94422C3.98812 66 0 61.9789 0 57.0685V8.93146C0 3.98243 3.98812 0 8.94422 0H193.095C198.012 0 202.039 3.98243 202.039 8.93146V57.0685H202Z" fill="black"/>
<path d="M52.6586 43.6134C51.5745 45.972 51.0711 47.0546 49.7159 49.1424C47.78 52.0809 45.0696 55.7154 41.7397 55.7154C38.7583 55.754 37.9839 53.7822 33.9571 53.7822C29.9302 53.8208 29.0784 55.7154 26.097 55.7154C22.7284 55.6767 20.1342 52.4289 18.2369 49.4904C12.8549 41.3322 12.3128 31.7435 15.604 26.6398C17.9659 23.0054 21.683 20.9175 25.1677 20.9175C28.7299 20.9175 30.9757 22.8507 33.9184 22.8507C36.7836 22.8507 38.526 20.9175 42.6303 20.9175C45.7278 20.9175 49.019 22.6187 51.3809 25.5185C43.6757 29.7329 44.9147 40.675 52.6586 43.6134Z" fill="white"/>
<path d="M39.494 17.631C41.004 15.6978 42.1269 13.0299 41.701 10.2461C39.2616 10.4008 36.3964 11.9473 34.7315 13.9965C33.2214 15.8138 31.9824 18.5589 32.447 21.1881C35.1186 21.2654 37.8677 19.6802 39.494 17.631Z" fill="white"/>
<path d="M69.037 26.5237L61.3318 49.1423H64.8553L67.1397 42.1827H74.5739L76.9358 49.1423H80.5754L72.8315 26.5237H69.037ZM70.8568 30.2355C71.1279 31.2407 71.3989 32.2847 71.7474 33.4446L73.8382 39.4376H67.9528L70.005 33.4059C70.3147 32.4007 70.5858 31.3567 70.8568 30.2355Z" fill="white"/>
<path d="M90.5651 32.4008C88.2419 32.4008 86.3446 33.29 85.1056 35.0299L84.9507 32.7874H81.8144V33.058C81.8919 34.45 81.9306 35.9965 81.9306 38.2004V55.638H85.3766V47.5185C86.4221 48.7944 88.1257 49.5291 90.0617 49.5291C92.0751 49.5291 93.895 48.7558 95.2502 47.3252C96.7602 45.7399 97.5346 43.4588 97.5346 40.7522C97.5346 38.3551 96.8377 36.2672 95.5599 34.7593C94.3209 33.2127 92.5398 32.4008 90.5651 32.4008ZM89.7132 35.2233C92.7721 35.2233 94.1273 38.0457 94.1273 40.8682C94.1273 44.464 92.3849 46.7066 89.5584 46.7066C87.6224 46.7066 85.9962 45.392 85.5315 43.5361C85.4541 43.2268 85.4154 42.8788 85.4154 42.4148V39.6696C85.4154 39.4377 85.4541 39.1283 85.5315 38.819C85.5315 38.7417 85.5702 38.6257 85.5702 38.5484C86.0736 36.5765 87.7773 35.2233 89.7132 35.2233Z" fill="white"/>
<path d="M108.221 32.4008C105.898 32.4008 104.001 33.29 102.762 35.0299L102.607 32.7874H99.5093V33.058C99.5867 34.45 99.6254 35.9965 99.6254 38.2004V55.638H103.071V47.5185C104.117 48.7944 105.821 49.5291 107.757 49.5291C109.77 49.5291 111.59 48.7558 112.945 47.3252C114.455 45.7399 115.229 43.4588 115.229 40.7522C115.229 38.3551 114.532 36.2672 113.255 34.7593C111.977 33.2127 110.196 32.4008 108.221 32.4008ZM107.369 35.2233C110.428 35.2233 111.783 38.0457 111.783 40.8682C111.783 44.464 110.041 46.7066 107.214 46.7066C105.317 46.7066 103.652 45.392 103.188 43.5361C103.11 43.2268 103.071 42.8788 103.071 42.4148V39.6696C103.071 39.4377 103.11 39.1283 103.188 38.819C103.188 38.7417 103.226 38.6257 103.226 38.5484C103.73 36.5765 105.433 35.2233 107.369 35.2233Z" fill="white"/>
<path d="M130.33 36.1125C127.116 34.8752 126.11 33.9086 126.11 32.0914C126.11 30.5835 127.31 29.0369 130.02 29.0369C132.227 29.0369 133.66 29.8102 134.047 30.0422L134.357 30.2355L135.325 27.3743L135.131 27.2584C134.551 26.9104 132.924 26.1371 130.136 26.1371C125.761 26.1371 122.702 28.7276 122.702 32.4007C122.702 35.3779 124.6 37.4657 128.704 38.935C131.608 40.0176 132.692 41.1388 132.692 43.0334C132.692 45.1986 131.027 46.5132 128.317 46.5132C126.574 46.5132 124.754 46.0105 123.361 45.1213L123.051 44.9279L122.122 47.8664L122.276 47.9824C123.554 48.833 125.993 49.4517 128.084 49.4517C133.97 49.4517 136.061 45.8559 136.061 42.8014C136.099 39.6696 134.434 37.7364 130.33 36.1125Z" fill="white"/>
<path d="M142.256 28.8436L138.887 29.8876V32.7487H136.409V35.4939H138.887V43.884C138.887 45.8946 139.274 47.3252 140.087 48.2145C140.862 49.0651 142.023 49.529 143.417 49.529C144.695 49.529 145.624 49.2584 146.05 49.1037L146.244 49.0264L146.089 46.2812L145.779 46.3972C145.353 46.5132 144.889 46.5905 144.192 46.5905C142.875 46.5905 142.294 45.7399 142.294 43.7681V35.4939H146.437V32.7487H142.294V28.8436H142.256Z" fill="white"/>
<path d="M154.917 32.4008C150.116 32.4008 146.786 35.9579 146.786 41.1002C146.786 46.0493 150.038 49.5291 154.685 49.5291H154.723C158.634 49.5291 162.855 46.7839 162.855 40.7909C162.855 38.3551 162.119 36.2672 160.686 34.7206C159.176 33.2127 157.201 32.4008 154.917 32.4008ZM154.801 35.0686C157.898 35.0686 159.292 38.0844 159.292 40.8682C159.292 44.3094 157.395 46.7839 154.723 46.7839H154.685C152.09 46.7839 150.193 44.348 150.193 40.9456C150.232 38.0457 151.626 35.0686 154.801 35.0686Z" fill="white"/>
<path d="M173.309 32.5554L173.115 32.5167C172.805 32.4394 172.573 32.4008 172.263 32.4008C170.482 32.4008 168.856 33.4447 167.965 35.1459L167.849 32.7487H164.79L164.829 33.0194C164.907 34.3726 164.945 35.8805 164.945 37.9298L164.907 49.1037H168.353V40.3656C168.353 39.9016 168.391 39.4377 168.43 39.051C168.817 36.9631 170.25 35.6099 172.031 35.6099C172.38 35.6099 172.651 35.6486 172.96 35.6486L173.309 35.6872V32.5554Z" fill="white"/>
<path d="M181.014 32.3621C176.445 32.3621 173.27 35.9965 173.27 41.2162C173.27 46.2426 176.445 49.4904 181.362 49.4904C183.957 49.4904 185.738 48.9104 186.783 48.4464L186.977 48.3691L186.319 45.8172L186.048 45.9332C185.118 46.3199 183.879 46.7065 181.75 46.7065C180.278 46.7065 176.832 46.2039 176.6 41.7575L187.674 41.7962L187.712 41.5642C187.79 41.2162 187.829 40.7522 187.829 40.1336C187.829 36.5378 186.048 32.3621 181.014 32.3621ZM180.782 34.9526C181.827 34.9526 182.679 35.2619 183.298 35.9192C184.266 36.9245 184.46 38.3937 184.46 39.0897H176.639C176.987 37.1178 178.226 34.9526 180.782 34.9526Z" fill="white"/>
<path d="M61.3318 11.058C62.2998 10.942 63.3839 10.826 64.623 10.826C66.83 10.826 68.4175 11.29 69.4629 12.1406C70.5471 13.0299 71.1666 14.2672 71.1666 16.0071C71.1666 17.747 70.5471 19.1775 69.4629 20.1828C68.34 21.1881 66.4815 21.7294 64.197 21.7294C63.0742 21.7294 62.1836 21.6907 61.3705 21.6134V11.058H61.3318ZM62.9193 20.5695C63.3065 20.6468 63.8873 20.6468 64.4681 20.6468C67.7592 20.6468 69.5404 18.9842 69.5404 16.1231C69.5404 13.5712 67.9528 11.986 64.7004 11.986C63.8873 11.986 63.3065 12.0633 62.8806 12.1406V20.5695H62.9193Z" fill="white"/>
<path d="M76.6647 21.8067C74.3803 21.8067 72.5605 20.2988 72.5605 17.8629C72.5605 15.2724 74.4577 13.7645 76.8196 13.7645C79.259 13.7645 80.9239 15.3498 80.9239 17.7083C80.9239 20.5694 78.7169 21.8067 76.6647 21.8067ZM76.7035 20.7628C78.1748 20.7628 79.2977 19.5255 79.2977 17.747C79.2977 16.4324 78.562 14.8085 76.7422 14.8085C74.9224 14.8085 74.1093 16.3164 74.1093 17.7856C74.148 19.4868 75.1934 20.7628 76.7035 20.7628Z" fill="white"/>
<path d="M83.402 13.9579L84.5635 17.863C84.7959 18.7136 85.0282 19.5255 85.1831 20.3375H85.2218C85.4154 19.5642 85.6864 18.7522 85.9962 17.9016L87.3901 13.9965H88.7065L90.023 17.8243C90.3328 18.7136 90.6038 19.5642 90.7974 20.3375H90.8361C90.991 19.5642 91.2233 18.7522 91.4943 17.8243L92.6946 13.9579H94.2434L91.4943 21.6521H90.0617L88.7453 17.9789C88.4355 17.0897 88.2032 16.355 87.9709 15.4271H87.9321C87.7385 16.355 87.4675 17.167 87.1578 17.9789L85.7638 21.6134H84.3312L81.737 13.9192H83.402V13.9579Z" fill="white"/>
<path d="M95.7922 16.007C95.7922 15.1951 95.7922 14.5764 95.7148 13.9192H97.1087L97.1861 15.1564H97.2248C97.6508 14.4605 98.6575 13.7258 100.051 13.7258C101.252 13.7258 103.071 14.3445 103.071 17.0123V21.6134H101.523V17.2056C101.523 15.9684 101.019 14.9244 99.548 14.9244C98.5413 14.9244 97.7282 15.5817 97.4572 16.355C97.3797 16.5483 97.341 16.7803 97.341 17.0123V21.652H95.7922V16.007Z" fill="white"/>
<path d="M105.588 10.3621H107.137V21.652H105.588V10.3621Z" fill="white"/>
<path d="M113.216 21.8067C110.932 21.8067 109.112 20.2988 109.112 17.8629C109.112 15.2724 111.009 13.7645 113.371 13.7645C115.81 13.7645 117.475 15.3498 117.475 17.7083C117.475 20.5694 115.268 21.8067 113.216 21.8067ZM113.255 20.7628C114.726 20.7628 115.849 19.5255 115.849 17.747C115.849 16.4324 115.113 14.8085 113.293 14.8085C111.474 14.8085 110.661 16.3164 110.661 17.7856C110.699 19.4868 111.745 20.7628 113.255 20.7628Z" fill="white"/>
<path d="M125.451 19.7961C125.451 20.4534 125.49 21.1107 125.568 21.652H124.174L124.019 20.6854H123.98C123.515 21.304 122.586 21.8453 121.347 21.8453C119.605 21.8453 118.714 20.7627 118.714 19.6414C118.714 17.7856 120.534 16.7803 123.864 16.7803V16.6256C123.864 16.007 123.67 14.8471 121.928 14.8471C121.115 14.8471 120.302 15.0404 119.682 15.427L119.334 14.4991C120.031 14.1124 121.076 13.8418 122.16 13.8418C124.793 13.8418 125.413 15.427 125.413 16.9736V19.7961H125.451ZM123.941 17.7082C122.238 17.6696 120.302 17.9402 120.302 19.4481C120.302 20.3761 120.96 20.8014 121.734 20.8014C122.857 20.8014 123.593 20.1827 123.825 19.5255C123.864 19.3708 123.903 19.2161 123.903 19.0615V17.7082H123.941Z" fill="white"/>
<path d="M135.325 10.3621V19.6415C135.325 20.3375 135.325 21.1107 135.402 21.6134H134.008L133.931 20.2601H133.892C133.428 21.1107 132.382 21.768 130.988 21.768C128.936 21.768 127.31 20.1828 127.31 17.8629C127.31 15.2724 129.091 13.7259 131.143 13.7259C132.46 13.7259 133.35 14.2672 133.737 14.8858H133.776V10.3621H135.325ZM133.776 17.0897C133.776 16.8963 133.776 16.6643 133.699 16.471C133.466 15.5817 132.615 14.8858 131.453 14.8858C129.827 14.8858 128.897 16.1617 128.897 17.8243C128.897 19.4095 129.749 20.6854 131.414 20.6854C132.46 20.6854 133.428 20.0668 133.699 19.0229C133.737 18.8295 133.776 18.6362 133.776 18.4042V17.0897Z" fill="white"/>
<path d="M145.16 21.8067C142.875 21.8067 141.055 20.2988 141.055 17.8629C141.055 15.2724 142.953 13.7645 145.315 13.7645C147.754 13.7645 149.419 15.3498 149.419 17.7083C149.419 20.5694 147.212 21.8067 145.16 21.8067ZM145.198 20.7628C146.67 20.7628 147.793 19.5255 147.793 17.747C147.793 16.4324 147.057 14.8085 145.237 14.8085C143.417 14.8085 142.604 16.3164 142.604 17.7856C142.604 19.4868 143.688 20.7628 145.198 20.7628Z" fill="white"/>
<path d="M151.355 16.007C151.355 15.1951 151.355 14.5764 151.277 13.9192H152.671L152.749 15.1564H152.787C153.213 14.4605 154.22 13.7258 155.614 13.7258C156.814 13.7258 158.634 14.3445 158.634 17.0123V21.6134H157.085V17.2056C157.085 15.9684 156.582 14.9244 155.111 14.9244C154.104 14.9244 153.291 15.5817 153.02 16.355C152.942 16.5483 152.904 16.7803 152.904 17.0123V21.652H151.355V16.007Z" fill="white"/>
<path d="M166.804 12.1019V13.9578H169.05V15.0404H166.804V19.1775C166.804 20.1441 167.114 20.6854 167.965 20.6854C168.391 20.6854 168.624 20.6467 168.856 20.6081L168.933 21.6907C168.624 21.768 168.159 21.884 167.54 21.884C166.804 21.884 166.223 21.652 165.875 21.304C165.449 20.8787 165.255 20.1828 165.255 19.2935V15.0018H163.939V13.9192H165.255V12.4886L166.804 12.1019Z" fill="white"/>
<path d="M170.792 10.3621H172.341V15.1564H172.38C172.612 14.7698 172.999 14.3832 173.502 14.1898C173.967 13.9192 174.509 13.8032 175.09 13.8032C176.251 13.8032 178.071 14.4218 178.071 17.0897V21.652H176.523V17.2056C176.523 15.9684 176.019 14.9245 174.548 14.9245C173.541 14.9245 172.767 15.5431 172.457 16.3164C172.38 16.5097 172.341 16.703 172.341 16.9737V21.6134H170.792V10.3621Z" fill="white"/>
<path d="M181.479 18.0176C181.517 19.9121 182.834 20.6854 184.383 20.6854C185.505 20.6854 186.202 20.4921 186.744 20.2988L187.016 21.2654C186.473 21.4974 185.505 21.768 184.15 21.768C181.517 21.768 179.93 20.1828 179.93 17.9016C179.93 15.5817 181.479 13.7258 183.957 13.7258C186.744 13.7258 187.48 15.9297 187.48 17.3603C187.48 17.6309 187.48 17.8629 187.441 18.0176H181.479ZM186.009 17.0123C186.009 16.123 185.583 14.7311 183.879 14.7311C182.292 14.7311 181.634 16.0457 181.479 17.0123H186.009Z" fill="white"/>
</svg>
