<svg width="202" height="66" viewBox="0 0 202 66" fill="none" xmlns="http://www.w3.org/2000/svg">
<path d="M202 57.0843C202 62.0155 198.011 66 193.075 66H8.92512C3.98866 66 0 62.0155 0 57.0843V8.91572C0 3.98446 3.98866 0 8.92512 0H193.075C198.011 0 202 3.98446 202 8.91572V57.0843Z" fill="black"/>
<path d="M15.1648 12.703V35.0712V57.4L37.7146 35.0712L15.1648 12.703Z" fill="url(#paint0_linear)"/>
<path d="M43.7568 29.0353L34.6737 23.7884L15.1648 12.5452V12.703L37.7146 35.0712L43.7568 29.0353Z" fill="url(#paint1_linear)"/>
<path d="M15.1648 57.3999V57.5577L34.6737 46.3144L43.7568 41.0676L37.7146 35.0712L15.1648 57.3999Z" fill="url(#paint2_linear)"/>
<path d="M43.7568 29.0353L37.7146 35.0711L43.7568 41.0676L54.1826 35.0711L43.7568 29.0353Z" fill="url(#paint3_linear)"/>
<path d="M157.216 43.7895C156.387 43.7895 155.597 43.6317 154.886 43.3161C154.176 43.0005 153.583 42.5271 153.109 41.8565H152.951C153.03 42.606 153.109 43.3161 153.109 44.0262V49.3914H151.135V30.5737H152.754L153.03 32.349H153.109C153.623 31.6389 154.215 31.126 154.886 30.8104C155.558 30.4948 156.348 30.337 157.216 30.337C158.954 30.337 160.257 30.9288 161.205 32.1123C162.153 33.2958 162.627 34.9527 162.627 37.083C162.627 39.2133 162.153 40.8702 161.205 42.0537C160.218 43.1978 158.875 43.7895 157.216 43.7895ZM156.9 31.9939C155.558 31.9939 154.61 32.349 154.018 33.0985C153.425 33.8481 153.109 34.9921 153.109 36.6096V37.0436C153.109 38.8583 153.425 40.1601 154.018 40.9491C154.61 41.7381 155.597 42.1326 156.94 42.1326C158.046 42.1326 158.954 41.6592 159.586 40.7519C160.218 39.8445 160.534 38.5821 160.534 37.0041C160.534 35.3866 160.218 34.1242 159.586 33.2563C158.954 32.4279 158.085 31.9939 156.9 31.9939Z" fill="#F9F9F9"/>
<path d="M167.168 43.5529H165.194V25.0902H167.168V43.5529Z" fill="#F9F9F9"/>
<path d="M178.502 43.5528L178.108 41.6987H178.029C177.397 42.5271 176.725 43.0794 176.093 43.3556C175.462 43.6317 174.632 43.7895 173.684 43.7895C172.381 43.7895 171.394 43.4739 170.644 42.8033C169.893 42.1326 169.538 41.1858 169.538 39.9629C169.538 37.3197 171.631 35.9784 175.856 35.8206L178.068 35.7417V34.9527C178.068 33.927 177.831 33.1774 177.397 32.704C176.962 32.2306 176.251 31.9939 175.304 31.9939C174.237 31.9939 172.974 32.3095 171.631 32.9802L171.039 31.4811C171.67 31.126 172.381 30.8499 173.132 30.6526C173.882 30.4554 174.672 30.337 175.422 30.337C176.962 30.337 178.108 30.6921 178.858 31.3627C179.608 32.0334 179.964 33.138 179.964 34.6765V43.5528H178.502ZM174.04 42.1721C175.264 42.1721 176.212 41.817 176.923 41.1464C177.634 40.4757 177.989 39.5289 177.989 38.3059V37.1224L176.014 37.2013C174.435 37.2408 173.329 37.5169 172.618 37.9509C171.907 38.3848 171.591 39.0555 171.591 39.9629C171.591 40.673 171.789 41.2253 172.223 41.5803C172.658 41.9748 173.25 42.1721 174.04 42.1721Z" fill="#F9F9F9"/>
<path d="M181.109 30.5737H183.202L186.045 37.9903C186.677 39.6867 187.072 40.9097 187.191 41.6592H187.27C187.388 41.2647 187.586 40.5546 187.901 39.6078C188.217 38.6215 189.323 35.6233 191.14 30.6132H193.272L187.704 45.3675C187.151 46.8272 186.519 47.8529 185.769 48.4841C185.019 49.1153 184.11 49.3914 183.044 49.3914C182.452 49.3914 181.859 49.3125 181.267 49.1942V47.6162C181.701 47.6951 182.175 47.774 182.728 47.774C184.071 47.774 185.058 47.0244 185.611 45.4859L186.322 43.6317L181.109 30.5737Z" fill="#F9F9F9"/>
<path d="M120.687 31.7574C121.318 32.2702 122.622 33.3748 122.622 35.4262C122.622 37.4382 121.476 38.385 120.331 39.2923C119.976 39.6474 119.581 40.0419 119.581 40.6336C119.581 41.2254 119.976 41.541 120.292 41.8171L121.279 42.5667C122.464 43.5924 123.569 44.4998 123.569 46.3934C123.569 48.9576 121.082 51.5219 116.422 51.5219C112.472 51.5219 110.577 49.6283 110.577 47.6163C110.577 46.6301 111.051 45.2493 112.67 44.3025C114.368 43.2768 116.658 43.119 117.883 43.0401C117.488 42.5667 117.053 42.0538 117.053 41.1859C117.053 40.7125 117.172 40.4364 117.33 40.1208C117.014 40.1602 116.737 40.1602 116.461 40.1602C113.578 40.1602 111.959 38.0299 111.959 35.8996C111.959 34.6372 112.512 33.2565 113.697 32.2702C115.237 31.0078 117.093 30.7711 118.554 30.7711H124.162L122.424 31.7574H120.687ZM118.752 43.8291C118.515 43.7896 118.396 43.7896 118.12 43.7896C117.883 43.7896 116.422 43.8291 115.276 44.2236C114.684 44.4208 112.946 45.0915 112.946 47.0246C112.946 48.9576 114.842 50.3384 117.725 50.3384C120.331 50.3384 121.713 49.076 121.713 47.4191C121.713 46.0383 120.845 45.2888 118.752 43.8291ZM119.541 38.6611C120.173 38.0299 120.213 37.162 120.213 36.6886C120.213 34.7161 119.028 31.6785 116.777 31.6785C116.066 31.6785 115.316 32.0335 114.881 32.5858C114.407 33.1381 114.289 33.8877 114.289 34.5978C114.289 36.4125 115.355 39.4501 117.685 39.4501C118.396 39.4501 119.107 39.0951 119.541 38.6611Z" fill="#F9F9F9"/>
<path d="M103.547 43.3951C99.2426 43.3951 96.9126 40.0418 96.9126 37.0042C96.9126 33.4537 99.835 30.416 103.942 30.416C107.931 30.416 110.419 33.5326 110.419 36.8069C110.458 40.0024 107.97 43.3951 103.547 43.3951ZM106.943 41.1859C107.615 40.318 107.773 39.2134 107.773 38.1877C107.773 35.7812 106.628 31.2445 103.271 31.2445C102.362 31.2445 101.494 31.5995 100.822 32.1518C99.756 33.0986 99.5585 34.2821 99.5585 35.4656C99.5585 38.1482 100.901 42.5666 104.179 42.5666C105.245 42.6061 106.312 42.0538 106.943 41.1859Z" fill="#F9F9F9"/>
<path d="M88.8168 43.3951C84.5122 43.3951 82.1822 40.0418 82.1822 37.0042C82.1822 33.4537 85.1046 30.416 89.2117 30.416C93.2004 30.416 95.6884 33.5326 95.6884 36.8069C95.7278 40.0024 93.2399 43.3951 88.8168 43.3951ZM92.2131 41.1859C92.8844 40.318 93.0424 39.2134 93.0424 38.1877C93.0424 35.7812 91.8972 31.2445 88.5404 31.2445C87.632 31.2445 86.7632 31.5995 86.0919 32.1518C85.0256 33.0986 84.8281 34.2821 84.8281 35.4656C84.8281 38.1482 86.1709 42.5666 89.4487 42.5666C90.5149 42.6061 91.5812 42.0538 92.2131 41.1859Z" fill="#F9F9F9"/>
<path d="M80.1286 42.9612L76.219 43.8685C74.6393 44.1052 73.2176 44.3419 71.7169 44.3419C64.174 44.3419 61.2911 38.8189 61.2911 34.4794C61.2911 29.1931 65.3587 24.2618 72.3093 24.2618C73.7705 24.2618 75.1922 24.4985 76.4954 24.8536C78.549 25.4453 79.4968 26.1554 80.0891 26.5499L77.8381 28.7197L76.8903 28.9564L77.5617 27.8518C76.6139 26.9444 74.9552 25.2875 71.7169 25.2875C67.4123 25.2875 64.1345 28.5619 64.1345 33.3354C64.1345 38.4639 67.8467 43.2768 73.81 43.2768C75.5476 43.2768 76.4559 42.9217 77.2852 42.6061V38.1877L73.1781 38.4244L75.3501 37.2409H81.1554L80.4446 37.9116C80.2471 38.0694 80.2076 38.1483 80.1681 38.3455C80.1286 38.5822 80.1286 39.3712 80.1286 39.6474V42.9612Z" fill="#F9F9F9"/>
<path d="M129.335 42.1721C128.427 42.0932 128.229 41.9354 128.229 40.8703V40.5547V25.4453C128.229 25.4058 128.229 25.3269 128.229 25.2875C128.348 24.3407 128.624 24.1829 129.454 23.67H125.584L123.53 24.6563H125.623V40.5941V41.5015C125.623 42.0538 125.505 42.1327 124.873 42.9611H129.691L130.717 42.3694C130.244 42.2905 129.809 42.251 129.335 42.1721Z" fill="#F9F9F9"/>
<path d="M140.432 42.4483C140.117 42.6061 139.84 42.8034 139.524 42.9217C138.616 43.3162 137.708 43.4346 136.878 43.4346C136.009 43.4346 134.667 43.3951 133.284 42.3694C131.349 41.0281 130.52 38.7006 130.52 36.6492C130.52 32.4674 133.956 30.3766 136.72 30.3766C137.708 30.3766 138.695 30.6133 139.524 31.1261C140.867 32.0335 141.222 33.1775 141.42 33.8087L135.062 36.4125L132.969 36.5703C133.64 40.0024 135.97 42.0144 138.576 42.0144C139.959 42.0144 140.946 41.541 141.894 41.0676L140.432 42.4483ZM137.905 34.361C138.418 34.1638 138.695 34.006 138.695 33.6115C138.695 32.5463 137.471 31.2839 136.009 31.2839C134.904 31.2839 132.89 32.1124 132.89 35.0317C132.89 35.5051 132.929 35.9785 132.969 36.4519L137.905 34.361Z" fill="#F9F9F9"/>
<path d="M143.078 30.6133V32.3885H142.841V30.6133H142.249V30.416H143.631V30.6133H143.078Z" fill="#F9F9F9"/>
<path d="M145.487 32.3885V30.5738L144.935 32.3885H144.777L144.224 30.5738V32.3885H144.026V30.416H144.382L144.895 31.994L145.408 30.416H145.764V32.3885H145.487Z" fill="#F9F9F9"/>
<path d="M66.741 18.9361H65.3982C65.3982 18.7388 65.2798 18.226 65.0033 17.3581H63.0287C62.7523 18.226 62.6338 18.7388 62.6338 18.9361H61.3701C61.3701 18.8177 61.686 17.9104 62.3574 16.214C63.0287 14.5177 63.3447 13.5709 63.3447 13.4131H64.9638C64.9638 13.5709 65.2798 14.4782 65.8721 16.1746C66.425 17.8709 66.741 18.7783 66.741 18.9361ZM64.7664 16.5296C64.2925 15.07 64.0555 14.281 64.0555 14.1626H63.9765C63.9765 14.281 63.7396 15.07 63.2262 16.5296H64.7664Z" fill="#F9F9FA"/>
<path d="M72.1908 18.936H71.1246C71.1246 18.8176 70.7296 18.2259 69.9398 17.0818C69.1105 15.8983 68.6761 15.1093 68.5576 14.6754H68.4786C68.5576 15.3066 68.5971 15.8589 68.5971 16.3717C68.5971 17.0818 68.5971 17.9103 68.6761 18.936H67.6493C67.6888 18.0681 67.7283 17.0818 67.7283 16.0561C67.7283 15.0304 67.6888 14.1625 67.6493 13.413H68.913C68.913 13.5708 69.2684 14.1625 69.9793 15.1882C70.7296 16.2928 71.164 17.0424 71.243 17.4369H71.322C71.243 16.8057 71.2035 16.2534 71.2035 15.7405C71.2035 14.991 71.164 14.202 71.1246 13.3735H72.1908C72.1513 14.0836 72.1118 14.9515 72.1118 16.0167C72.1513 17.1213 72.1513 18.0681 72.1908 18.936Z" fill="#F9F9FA"/>
<path d="M78.3515 15.9773C78.3515 16.7663 78.0751 17.4764 77.5617 18.0682C77.0483 18.66 76.3374 18.9756 75.3896 18.9756C74.9552 18.9756 74.4023 18.9756 73.652 18.9361C73.6915 18.0682 73.6915 17.1214 73.6915 16.0562C73.6915 15.0305 73.6915 14.1626 73.652 13.4131H74.4023C74.5208 13.4131 74.7183 13.4131 74.9552 13.4131C75.1922 13.4131 75.3501 13.4131 75.4291 13.4131C76.4559 13.4131 77.2063 13.6498 77.6407 14.1626C78.1146 14.6755 78.3515 15.2672 78.3515 15.9773ZM77.1668 16.1746C77.1668 15.6223 77.0088 15.1883 76.6929 14.7938C76.3769 14.4388 75.903 14.2415 75.2317 14.2415C75.1132 14.2415 74.9552 14.2415 74.7183 14.281C74.7578 14.8333 74.7578 15.425 74.7578 16.0562C74.7578 16.7269 74.7578 17.3975 74.7973 18.0682C74.9947 18.1076 75.1527 18.1076 75.3501 18.1076C75.9425 18.1076 76.4164 17.9104 76.6929 17.5553C77.0483 17.1608 77.1668 16.7269 77.1668 16.1746Z" fill="#F9F9FA"/>
<path d="M83.9988 18.9361H82.7351C82.4192 17.9498 82.1427 17.3186 81.9848 17.0819C81.8268 16.8452 81.5109 16.7269 81.1554 16.7269C80.9975 16.7269 80.8395 16.7269 80.6815 16.7269C80.6815 17.437 80.6815 18.1865 80.721 18.9361H79.5363C79.5758 18.0682 79.5758 17.1214 79.5758 16.0562C79.5758 15.0305 79.5758 14.1626 79.5363 13.4131H80.2866C80.3656 13.4131 80.5631 13.4131 80.8 13.4131C81.0765 13.4131 81.3134 13.4131 81.5503 13.4131C82.8536 13.4131 83.4854 13.847 83.4854 14.7544C83.4854 15.4645 83.13 15.9379 82.3797 16.214V16.2929C82.6561 16.3718 82.9326 16.6085 83.13 16.9636C83.367 17.2792 83.6434 17.9498 83.9988 18.9361ZM82.4192 15.0305C82.4192 14.4782 82.0637 14.2021 81.3134 14.2021C81.037 14.2021 80.8 14.2021 80.6026 14.281C80.642 14.7149 80.642 15.3067 80.642 15.9773C80.8 15.9773 80.9185 15.9773 81.037 15.9773C81.9848 15.9773 82.4192 15.6617 82.4192 15.0305Z" fill="#F9F9FA"/>
<path d="M90.0806 16.0956C90.0806 16.9635 89.8041 17.6736 89.2907 18.2654C88.7773 18.8177 88.106 19.1333 87.3161 19.1333C86.5658 19.1333 85.9339 18.8571 85.46 18.3443C84.9466 17.8314 84.7097 17.1608 84.7097 16.3323C84.7097 15.4644 84.9861 14.7543 85.4995 14.1626C86.0129 13.6103 86.6843 13.2947 87.4741 13.2947C88.2244 13.2947 88.8563 13.5708 89.3302 14.0837C89.8436 14.5965 90.0806 15.2672 90.0806 16.0956ZM88.9353 16.214C88.9353 15.6222 88.7773 15.1488 88.5009 14.7938C88.185 14.4387 87.8295 14.2415 87.3951 14.2415C87.0002 14.2415 86.6448 14.4387 86.3288 14.7938C86.0524 15.1488 85.8944 15.6222 85.8944 16.214C85.8944 16.8057 86.0524 17.2791 86.3683 17.6342C86.6843 17.9892 87.0397 18.1865 87.4741 18.1865C87.869 18.1865 88.2244 17.9892 88.5404 17.6342C88.7773 17.2397 88.9353 16.7663 88.9353 16.214Z" fill="#F9F9FA"/>
<path d="M92.4895 18.9361H91.3048C91.3443 18.0682 91.3443 17.0819 91.3443 16.0562C91.3443 15.0305 91.3443 14.1626 91.3048 13.4131H92.4895C92.45 14.1232 92.45 14.9911 92.45 16.0562C92.45 17.1214 92.45 18.0682 92.4895 18.9361Z" fill="#F9F9FA"/>
<path d="M98.6502 15.9773C98.6502 16.7663 98.3738 17.4764 97.8604 18.0682C97.347 18.66 96.6362 18.9756 95.6884 18.9756C95.254 18.9756 94.7011 18.9756 93.9507 18.9361C93.9902 18.0682 93.9902 17.1214 93.9902 16.0562C93.9902 15.0305 93.9902 14.1626 93.9507 13.4131H94.7011C94.8196 13.4131 95.017 13.4131 95.254 13.4131C95.4909 13.4131 95.6489 13.4131 95.7279 13.4131C96.7546 13.4131 97.505 13.6498 97.9394 14.1626C98.4133 14.6755 98.6502 15.2672 98.6502 15.9773ZM97.4655 16.1746C97.4655 15.6223 97.3075 15.1883 96.9916 14.7938C96.6757 14.4388 96.2018 14.2415 95.5304 14.2415C95.4119 14.2415 95.254 14.2415 95.017 14.281C95.0565 14.8333 95.0565 15.425 95.0565 16.0562C95.0565 16.7269 95.0565 17.3975 95.096 18.0682C95.2935 18.1076 95.4514 18.1076 95.6489 18.1076C96.2412 18.1076 96.7152 17.9104 96.9916 17.5553C97.347 17.1608 97.4655 16.7269 97.4655 16.1746Z" fill="#F9F9FA"/>
<path d="M106.786 18.9361H105.443C105.443 18.7388 105.324 18.226 105.048 17.3581H103.073C102.797 18.226 102.678 18.7388 102.678 18.9361H101.415C101.415 18.8177 101.731 17.9104 102.402 16.214C103.073 14.5177 103.389 13.5709 103.389 13.4131H105.008C105.008 13.5709 105.324 14.4782 105.917 16.1746C106.509 17.8709 106.786 18.7783 106.786 18.9361ZM104.85 16.5296C104.377 15.07 104.14 14.281 104.14 14.1626H104.061C104.061 14.281 103.824 15.07 103.31 16.5296H104.85Z" fill="#F9F9FA"/>
<path d="M111.761 14.8727C111.761 15.5434 111.525 16.0562 111.011 16.3718C110.498 16.6874 109.905 16.8452 109.155 16.8452C109.037 16.8452 108.918 16.8452 108.879 16.8452C108.879 17.3581 108.879 18.0682 108.918 18.9361H107.733C107.773 18.1076 107.773 17.1608 107.773 16.0562C107.773 15.0305 107.773 14.1626 107.733 13.4131H108.484C108.602 13.4131 108.8 13.4131 109.076 13.4131C109.392 13.4131 109.629 13.4131 109.866 13.4131C110.419 13.4131 110.853 13.5314 111.209 13.7681C111.564 14.0048 111.761 14.3599 111.761 14.8727ZM110.656 15.1094C110.656 14.5177 110.261 14.2021 109.431 14.2021C109.234 14.2021 109.037 14.2415 108.8 14.281C108.839 14.8333 108.839 15.425 108.839 16.0957C108.918 16.0957 108.997 16.0957 109.076 16.0957C110.142 16.0957 110.656 15.7406 110.656 15.1094Z" fill="#F9F9FA"/>
<path d="M116.816 14.8727C116.816 15.5434 116.579 16.0562 116.066 16.3718C115.553 16.6874 114.96 16.8452 114.21 16.8452C114.092 16.8452 113.973 16.8452 113.934 16.8452C113.934 17.3581 113.934 18.0682 113.973 18.9361H112.788C112.828 18.1076 112.828 17.1608 112.828 16.0562C112.828 15.0305 112.828 14.1626 112.788 13.4131H113.539C113.657 13.4131 113.855 13.4131 114.131 13.4131C114.447 13.4131 114.684 13.4131 114.921 13.4131C115.474 13.4131 115.908 13.5314 116.264 13.7681C116.658 14.0048 116.816 14.3599 116.816 14.8727ZM115.75 15.1094C115.75 14.5177 115.355 14.2021 114.526 14.2021C114.328 14.2021 114.131 14.2415 113.894 14.281C113.934 14.8333 113.934 15.425 113.934 16.0957C114.013 16.0957 114.092 16.0957 114.17 16.0957C115.237 16.0957 115.75 15.7406 115.75 15.1094Z" fill="#F9F9FA"/>
<path d="M125.149 16.0956C125.149 16.9635 124.873 17.6736 124.359 18.2654C123.846 18.8571 123.175 19.1333 122.385 19.1333C121.634 19.1333 121.003 18.8571 120.529 18.3443C120.015 17.8314 119.778 17.1608 119.778 16.3323C119.778 15.4644 120.055 14.7543 120.568 14.1626C121.082 13.6103 121.753 13.2947 122.543 13.2947C123.293 13.2947 123.925 13.5708 124.399 14.0837C124.912 14.5965 125.149 15.2672 125.149 16.0956ZM123.964 16.214C123.964 15.6222 123.806 15.1488 123.53 14.7938C123.214 14.4387 122.859 14.2415 122.424 14.2415C122.029 14.2415 121.674 14.4387 121.358 14.7938C121.082 15.1488 120.924 15.6222 120.924 16.214C120.924 16.8057 121.082 17.2791 121.397 17.6342C121.713 17.9892 122.069 18.1865 122.503 18.1865C122.898 18.1865 123.254 17.9892 123.57 17.6342C123.846 17.2397 123.964 16.7663 123.964 16.214Z" fill="#F9F9FA"/>
<path d="M130.915 18.936H129.849C129.849 18.8176 129.454 18.2259 128.664 17.0818C127.835 15.8983 127.4 15.1093 127.282 14.6754H127.203C127.282 15.3066 127.321 15.8589 127.321 16.3717C127.321 17.0818 127.321 17.9103 127.4 18.936H126.373C126.413 18.0681 126.452 17.0818 126.452 16.0561C126.452 15.0304 126.413 14.1625 126.373 13.413H127.637C127.637 13.5708 127.993 14.1625 128.703 15.1882C129.454 16.2928 129.888 17.0424 129.967 17.4369H130.046C129.967 16.8057 129.928 16.2534 129.928 15.7405C129.928 14.991 129.928 14.202 129.849 13.3735H130.915C130.875 14.0836 130.836 14.9515 130.836 16.0167C130.836 17.1213 130.875 18.0681 130.915 18.936Z" fill="#F9F9FA"/>
<defs>
<linearGradient id="paint0_linear" x1="26.4324" y1="12.7073" x2="26.4324" y2="57.4054" gradientUnits="userSpaceOnUse">
<stop stop-color="#257CB0"/>
<stop offset="0.2863" stop-color="#4A93B5"/>
<stop offset="0.767" stop-color="#78BCBB"/>
<stop offset="1" stop-color="#89CFBD"/>
</linearGradient>
<linearGradient id="paint1_linear" x1="15.1509" y1="23.8007" x2="43.7743" y2="23.8007" gradientUnits="userSpaceOnUse">
<stop stop-color="#52C1AD"/>
<stop offset="1" stop-color="#DEE89A"/>
</linearGradient>
<linearGradient id="paint2_linear" x1="29.4624" y1="35.0567" x2="29.4624" y2="57.5679" gradientUnits="userSpaceOnUse">
<stop stop-color="#EC413D"/>
<stop offset="0.1668" stop-color="#DA4452"/>
<stop offset="0.5748" stop-color="#B0487A"/>
<stop offset="0.8619" stop-color="#954A92"/>
<stop offset="1" stop-color="#8A4A9D"/>
</linearGradient>
<linearGradient id="paint3_linear" x1="45.9483" y1="29.0536" x2="45.9483" y2="41.0589" gradientUnits="userSpaceOnUse">
<stop stop-color="#F58879"/>
<stop offset="0.1194" stop-color="#F69079"/>
<stop offset="0.7128" stop-color="#FCB877"/>
<stop offset="1" stop-color="#FEC874"/>
</linearGradient>
</defs>
</svg>
