<svg width="1024" height="382" viewBox="0 0 1024 382" fill="none" xmlns="http://www.w3.org/2000/svg">
<rect x="-135" y="158.938" width="1279.53" height="216.303" transform="rotate(-5.8 -135 158.938)" fill="#d56a34"/>
<path d="M518.468 61.7232C515.804 69.7154 497.599 133.209 490.495 168.286C501.595 138.981 518.734 97.1552 498.487 164.29C473.179 248.208 470.515 288.168 474.511 358.766C476.155 387.812 523.843 354.722 533.12 345.446C542.444 336.122 543.776 316.141 547.772 306.817C551.768 297.493 550.76 292.675 558.429 272.184C587.514 194.472 649.007 115.004 671.651 69.7153C680.309 52.3989 684.254 65.7667 683.64 69.7153C674.316 129.657 643.019 286.533 671.651 304.153C706.284 325.465 743.581 273.516 752.905 261.528C760.365 251.937 757.789 237.107 755.569 230.891C747.577 242.879 728.929 276.846 724.933 250.872C716.94 198.922 743.581 112.34 755.569 84.3677C767.506 56.5153 766.237 43.1895 763.596 15.4622L763.561 15.102C761.43 -7.27611 722.712 4.00176 703.62 12.438C674.371 20.4149 619.026 113.759 589.236 164.002L589.065 164.29C578.409 174.946 589.065 119 591.729 95.0239C597.798 40.4106 525.128 60.3911 518.468 61.7232Z" fill="black" stroke="black" stroke-width="2.66406"/>
<path d="M451.866 292.165C445.472 284.705 423.893 280.176 418.565 284.172C406.577 290.832 406.577 314.809 410.573 326.797C414.569 338.786 434.55 341.45 439.878 336.122C445.206 330.793 459.858 301.489 451.866 292.165Z" fill="black" stroke="black" stroke-width="2.66406"/>
<path d="M851.201 251.026C844.808 243.567 823.229 239.038 817.901 243.034C805.912 249.694 805.912 273.671 809.909 285.659C813.905 297.648 833.885 300.312 839.213 294.983C844.541 289.655 859.194 260.351 851.201 251.026Z" fill="black" stroke="black" stroke-width="2.66406"/>
<path d="M192.12 181.606L184.128 190.93C214.765 97.6878 260.054 29.8431 269.378 21.7621C309.339 -12.871 358.205 20.2333 373.276 92.3599C391.925 181.606 330.651 173.614 319.995 174.946C311.47 176.011 309.339 99.0199 309.339 60.3909C294.686 -2.21439 233.289 149.637 238.741 237.551C249.397 409.383 292.022 282.84 288.026 258.863C274.706 237.551 294.686 233.555 322.659 224.231C345.037 216.771 345.304 238.883 342.64 250.871C340.508 270.052 313.335 365.426 292.022 373.418C261.385 382.743 156.155 401.391 172.14 272.184C173.205 253.002 185.904 203.806 192.12 181.606Z" fill="black" stroke="black" stroke-width="2.66406"/>
</svg>
