<svg version="1.2" baseProfile="tiny-ps" xmlns="http://www.w3.org/2000/svg" viewBox="0 0 18 15" width="18" height="15">
	<title>twitter-svg</title>
	<style>
		tspan { white-space:pre }
		.shp0 { fill: #ff13a7 } 
	</style>
	<path id="Layer" class="shp0" d="M16.18 3.54C16.19 3.69 16.19 3.85 16.19 4C16.19 8.74 12.53 14.2 5.83 14.2C3.78 14.2 1.86 13.61 0.25 12.59C0.53 12.62 0.82 12.64 1.12 12.64C2.83 12.64 4.4 12.07 5.64 11.1C4.05 11.08 2.7 10.04 2.24 8.61C2.46 8.66 2.69 8.68 2.92 8.68C3.26 8.68 3.58 8.64 3.88 8.55C2.22 8.23 0.96 6.78 0.96 5.04C0.96 5.02 0.96 5.01 0.96 4.99C1.45 5.26 2.02 5.42 2.61 5.44C1.63 4.8 0.99 3.7 0.99 2.46C0.99 1.8 1.17 1.19 1.49 0.66C3.28 2.83 5.97 4.25 8.99 4.4C8.93 4.14 8.9 3.87 8.9 3.58C8.9 1.61 10.53 0 12.54 0C13.59 0 14.53 0.44 15.2 1.13C16.03 0.97 16.81 0.67 17.51 0.26C17.24 1.1 16.66 1.8 15.91 2.25C16.65 2.16 17.35 1.97 18 1.68C17.51 2.4 16.89 3.03 16.18 3.54Z" />
</svg>