<svg width="80" height="80" viewBox="0 0 80 80" fill="none" xmlns="http://www.w3.org/2000/svg">
<path d="M78.8281 35.224H77.1613V29.3756C77.1595 28.0889 76.7236 26.8405 75.9241 25.8324L75.0903 24.784V21.9377C75.0903 20.8606 74.2145 19.9846 73.1372 19.9846H71.8658C70.7886 19.9846 69.9127 20.8606 69.9127 21.9377V24.7838L69.0783 25.8324C68.279 26.8406 67.8433 28.089 67.8419 29.3756V35.224H66.4831V32.3443C66.4813 31.0577 66.0454 29.8093 65.2459 28.8012L64.4122 27.7527V24.9065C64.4122 23.8293 63.5364 22.9534 62.4591 22.9534H61.1878C60.1105 22.9534 59.2347 23.8293 59.2347 24.9065V27.7526L58.4003 28.8012C57.6009 29.8093 57.165 31.0577 57.1631 32.3443V35.224H53.0469V34.7662C53.0469 33.3501 51.8952 32.1984 50.4791 32.1984H48.5058C48.195 32.1984 47.8969 32.3218 47.6771 32.5416C47.4574 32.7614 47.3339 33.0594 47.3339 33.3702C47.3339 33.681 47.4574 33.9791 47.6771 34.1989C47.8969 34.4187 48.195 34.5421 48.5058 34.5421H50.4792C50.6023 34.5421 50.7031 34.6429 50.7031 34.7662V35.224H41.1719V33.3702C41.1719 32.7234 40.6477 32.1984 40 32.1984C39.3523 32.1984 38.8281 32.7234 38.8281 33.3702V35.224H29.2963V34.7662C29.2963 34.6427 29.397 34.5421 29.5209 34.5421H31.4941C31.8049 34.5421 32.1029 34.4187 32.3227 34.1989C32.5425 33.9791 32.6659 33.681 32.6659 33.3702C32.6659 33.0594 32.5425 32.7614 32.3227 32.5416C32.1029 32.3218 31.8049 32.1984 31.4941 32.1984H29.5209C28.1048 32.1984 26.9525 33.3501 26.9525 34.7662V35.224H8.82812V27.2765C8.82812 26.0559 9.82109 25.0627 11.0419 25.0627C12.2627 25.0627 13.255 26.0559 13.255 27.2765V31.2396C13.255 31.5504 13.3785 31.8485 13.5982 32.0683C13.818 32.288 14.1161 32.4115 14.4269 32.4115C14.7377 32.4115 15.0357 32.288 15.2555 32.0683C15.4753 31.8485 15.5988 31.5504 15.5988 31.2396V27.2765C15.5988 24.7637 13.5547 22.719 11.0419 22.719C8.52906 22.719 6.48438 24.7637 6.48438 27.2765V31.3652H5.05188C4.74107 31.3652 4.443 31.4887 4.22323 31.7085C4.00347 31.9282 3.88 32.2263 3.88 32.5371C3.88 32.8479 4.00347 33.146 4.22323 33.3658C4.443 33.5855 4.74107 33.709 5.05188 33.709H6.48438V35.224H1.17188C1.01796 35.2239 0.865551 35.2542 0.723345 35.3131C0.581139 35.3719 0.451928 35.4583 0.343097 35.5671C0.234266 35.6759 0.147949 35.8051 0.0890783 35.9473C0.0302079 36.0895 -6.15072e-05 36.242 9.38337e-08 36.3959V55.6512C9.38337e-08 56.2981 0.524219 56.8231 1.17188 56.8231C1.81953 56.8231 2.34375 56.2981 2.34375 55.6512V52.5995H22.4219V74.062H2.73438C2.6308 74.0619 2.53149 74.0207 2.45825 73.9475C2.38501 73.8742 2.34383 73.7749 2.34375 73.6713V60.3387C2.34375 59.691 1.81953 59.1668 1.17188 59.1668C0.524219 59.1668 9.38337e-08 59.691 9.38337e-08 60.3387V73.6712C9.38337e-08 75.1788 1.22688 76.4056 2.73438 76.4056H77.2656C78.7731 76.4056 80 75.1788 80 73.6712V60.3387C80 59.691 79.4758 59.1668 78.8281 59.1668C78.1805 59.1668 77.6562 59.691 77.6562 60.3387V73.6712C77.6562 73.8866 77.4811 74.0618 77.2656 74.0618H57.5781V52.5993H77.6562V55.6512C77.6562 56.2981 78.1805 56.8231 78.8281 56.8231C79.4758 56.8231 80 56.2981 80 55.6512V36.3959C80 35.7482 79.4758 35.224 78.8281 35.224ZM70.1855 29.3756C70.1855 28.6218 70.4437 27.8813 70.9131 27.2912L72.002 25.9221C72.1668 25.7147 72.2565 25.4576 72.2564 25.1927V22.3284H72.7466V25.1927C72.7466 25.4584 72.8362 25.7152 73.0017 25.9221L74.09 27.2912C74.5604 27.8842 74.817 28.6186 74.8181 29.3756V35.224H70.1855V29.3756ZM59.5073 32.3443C59.5073 31.5906 59.7656 30.8501 60.235 30.2599L61.3239 28.8909C61.4888 28.6835 61.5785 28.4264 61.5784 28.1615V25.2971H62.0684V28.1615C62.0684 28.4265 62.1583 28.684 62.3231 28.8909L63.4119 30.2599C63.8821 30.853 64.1384 31.5874 64.1394 32.3443V35.224H59.5075L59.5073 32.3443ZM2.34375 37.5677H77.6562V39.5843H2.34375V37.5677ZM55.2344 41.9281V50.2557H24.7656V41.9281H55.2344ZM2.34375 50.2557V41.9281H22.4219V50.2557H2.34375ZM55.2344 74.062H24.7656V52.5995H55.2344V74.062ZM57.5781 50.2557V41.9281H77.6562V50.2557H57.5781Z" fill="#D56A34"/>
<path d="M32.8284 49.0156C34.5258 49.0156 35.907 47.6348 35.907 45.9369C35.907 44.2395 34.5258 42.8587 32.8284 42.8587C31.1309 42.8587 29.7497 44.2395 29.7497 45.9369C29.7497 47.6348 31.1309 49.0155 32.8284 49.0155V49.0156ZM32.8284 45.2027C33.0232 45.2028 33.2099 45.2802 33.3477 45.4179C33.4855 45.5556 33.563 45.7423 33.5633 45.937C33.5633 46.3422 33.2336 46.6717 32.8284 46.6717C32.4233 46.6717 32.0934 46.342 32.0934 45.9369C32.0934 45.5322 32.4231 45.2025 32.8284 45.2025V45.2027ZM47.1716 49.0156C48.8691 49.0156 50.2503 47.6348 50.2503 45.9369C50.2503 44.2395 48.8691 42.8587 47.1716 42.8587C45.4742 42.8587 44.093 44.2395 44.093 45.9369C44.093 47.6348 45.4742 49.0155 47.1716 49.0155V49.0156ZM47.1716 45.2027C47.3664 45.2028 47.5531 45.2802 47.6909 45.4178C47.8287 45.5555 47.9063 45.7422 47.9066 45.937C47.9066 46.3422 47.5769 46.6717 47.1716 46.6717C46.7663 46.6717 46.4367 46.342 46.4367 45.9369C46.4367 45.5322 46.7664 45.2025 47.1716 45.2025V45.2027ZM24.375 17.1875H55.625C56.7023 17.1875 57.5781 16.3117 57.5781 15.2344V11.5881C57.5781 11.5795 57.5781 11.5709 57.5775 11.5619V11.5541C57.5775 11.5472 57.5769 11.5405 57.5769 11.5338C57.5769 11.5295 57.5763 11.5253 57.5763 11.5209C57.5756 11.5155 57.5756 11.51 57.575 11.5045C57.575 11.5003 57.5745 11.4953 57.5739 11.4905C57.5739 11.488 57.5739 11.4856 57.5733 11.4827C57.5538 11.2612 57.4711 11.05 57.3352 10.8741C57.3345 10.8734 57.3345 10.8728 57.3341 10.8722C57.3303 10.868 57.3267 10.863 57.3231 10.8588C57.3217 10.8569 57.3206 10.8552 57.3194 10.8539L57.3028 10.8336C57.3005 10.8306 57.2986 10.8283 57.2961 10.8258C57.2938 10.8227 57.2906 10.8197 57.2883 10.8167C57.2845 10.8123 57.2816 10.8088 57.2778 10.805L57.2723 10.7983C57.2669 10.7928 57.262 10.7873 57.2564 10.7819C57.2547 10.7797 57.2529 10.7776 57.2509 10.7756L57.2381 10.763L57.2333 10.7575L57.2161 10.7403L57.2114 10.7367C57.207 10.7323 57.2028 10.7281 57.1978 10.7239C57.1955 10.7214 57.1931 10.7195 57.1906 10.7172C57.1866 10.7139 57.1827 10.7104 57.1789 10.7067C57.1753 10.7036 57.1711 10.7 57.1667 10.697C57.1631 10.6934 57.1594 10.6903 57.1558 10.6872L57.1448 10.6781C57.143 10.6769 57.1411 10.675 57.1386 10.6733C57.076 10.6229 57.0083 10.5791 56.9367 10.5427L46.4367 4.93047V1.17188C46.4367 0.861074 46.3133 0.563003 46.0935 0.343234C45.8737 0.123465 45.5756 0 45.2648 0C44.954 0 44.656 0.123465 44.4362 0.343234C44.2164 0.563003 44.093 0.861074 44.093 1.17188V5.16484C44.0926 5.51855 44.1885 5.86569 44.3703 6.16908C44.5522 6.47248 44.8131 6.72071 45.1252 6.88719L51.728 10.4163H28.2719L34.8741 6.88719C35.1863 6.72083 35.4474 6.47265 35.6293 6.16924C35.8113 5.86583 35.9072 5.51862 35.9069 5.16484V1.17188C35.9069 0.861074 35.7834 0.563003 35.5636 0.343234C35.3439 0.123465 35.0458 0 34.735 0C34.4242 0 34.1261 0.123465 33.9064 0.343234C33.6866 0.563003 33.5631 0.861074 33.5631 1.17188V4.93047L23.0631 10.5433C22.9913 10.5798 22.9234 10.6237 22.8606 10.6737L22.855 10.6788L22.8434 10.6878L22.8325 10.697C22.8288 10.7006 22.8247 10.7038 22.8209 10.7073C22.8166 10.7111 22.813 10.7141 22.8092 10.7178L22.802 10.7245C22.797 10.7288 22.7928 10.733 22.788 10.7373C22.7867 10.7386 22.7848 10.7397 22.7836 10.7409L22.7666 10.7581C22.7647 10.7598 22.763 10.7613 22.7617 10.7628C22.7573 10.7672 22.7531 10.7722 22.7489 10.7764L22.7434 10.7819C22.7378 10.7873 22.7325 10.7934 22.7275 10.7991L22.722 10.8056C22.7183 10.8094 22.7147 10.813 22.7116 10.8172C22.7092 10.8197 22.7061 10.8228 22.7038 10.8258L22.697 10.8344C22.6916 10.8405 22.6861 10.8472 22.6805 10.8539C22.6793 10.8559 22.6778 10.8577 22.6763 10.8594C22.6725 10.8636 22.6695 10.8686 22.6659 10.8728C22.5292 11.0491 22.446 11.2609 22.4261 11.4831C22.4261 11.4856 22.4261 11.4886 22.4253 11.4911C22.4253 11.4959 22.4248 11.5003 22.4248 11.5052C22.4242 11.5106 22.4236 11.5161 22.4236 11.5216C22.4236 11.5259 22.423 11.5302 22.423 11.5338C22.4223 11.5405 22.4223 11.5478 22.4223 11.5545C22.4223 11.557 22.4217 11.56 22.4217 11.5625V15.235C22.4217 16.3116 23.2975 17.1875 24.3748 17.1875H24.375ZM55.2344 14.8438H24.7656V12.76H55.2344V14.8438ZM70.4688 43.7817H64.7656C64.6117 43.7817 64.4593 43.8119 64.3171 43.8708C64.1749 43.9297 64.0457 44.016 63.9368 44.1248C63.828 44.2336 63.7417 44.3629 63.6828 44.5051C63.624 44.6473 63.5937 44.7997 63.5938 44.9536C63.5938 45.2644 63.7172 45.5625 63.937 45.7822C64.1568 46.002 64.4548 46.1255 64.7656 46.1255H70.4688C70.7796 46.1255 71.0776 46.002 71.2974 45.7822C71.5172 45.5625 71.6406 45.2644 71.6406 44.9536C71.6406 44.3061 71.1164 43.7817 70.4688 43.7817ZM15.2344 43.7817H9.53125C9.37734 43.7817 9.22493 43.8119 9.08272 43.8708C8.94051 43.9297 8.8113 44.016 8.70247 44.1248C8.59364 44.2336 8.50732 44.3629 8.44845 44.5051C8.38958 44.6473 8.35931 44.7997 8.35938 44.9536C8.35938 45.2644 8.48284 45.5625 8.70261 45.7822C8.92238 46.002 9.22045 46.1255 9.53125 46.1255H15.2344C15.5452 46.1255 15.8432 46.002 16.063 45.7822C16.2828 45.5625 16.4062 45.2644 16.4062 44.9536C16.4062 44.3061 15.882 43.7817 15.2344 43.7817ZM59.0625 59.9023V64.8175C59.0625 65.4652 59.5867 65.9894 60.2344 65.9894C60.882 65.9894 61.4062 65.4652 61.4062 64.8175V59.9023C61.4062 59.2547 60.882 58.7305 60.2344 58.7305C59.5867 58.7305 59.0625 59.2547 59.0625 59.9023ZM20.9375 64.8175V59.9023C20.9375 59.2547 20.4133 58.7305 19.7656 58.7305C19.118 58.7305 18.5938 59.2547 18.5938 59.9023V64.8175C18.5938 65.4652 19.118 65.9894 19.7656 65.9894C20.4133 65.9894 20.9375 65.4652 20.9375 64.8175ZM28.75 72.0806H51.25C52.3273 72.0806 53.2031 71.2048 53.2031 70.1275V56.5338C53.2031 55.4572 52.3273 54.5806 51.25 54.5806H28.75C27.6727 54.5806 26.7969 55.4572 26.7969 56.5338V70.1275C26.7969 71.2048 27.6727 72.0806 28.75 72.0806ZM29.1406 56.9244H50.8594V69.7369H29.1406V56.9244Z" fill="#D56A34"/>
</svg>
