<svg width="80" height="80" viewBox="0 0 80 80" fill="none" xmlns="http://www.w3.org/2000/svg">
<g clip-path="url(#clip0_913_310)">
<path d="M63.5682 37.4708C58.5243 37.4708 55.8223 41.131 53.3162 46.6272C49.9763 53.9538 46.5485 58.1555 43.9124 58.1555C43.4273 58.1555 41.949 58.1555 40.6624 55.2838C40.2595 54.3853 39.2726 53.8861 38.3137 54.0961C33.5712 55.1367 30.0929 57.2938 27.9749 60.506C26.2146 63.1763 25.8832 65.9033 25.8424 67.2906C25.8259 67.8663 26.0359 68.4088 26.4345 68.8195C26.8324 69.2291 27.3676 69.455 27.9413 69.455H43.6304C43.8475 71.1635 44.0308 72.876 44.1804 74.5917C39.7195 77.8235 34.6931 77.9308 31.2068 77.4292C27.2035 76.8524 23.1654 75.3089 19.2598 73.8166C17.7076 73.2233 16.1031 72.6099 14.5099 72.0594C9.74119 70.4108 5.96447 69.6984 2.5026 69.8145C4.35557 54.8413 8.73228 39.1797 11.756 33.6883H17.1107C16.7029 35.8306 16.2421 39.0295 15.7862 42.9005C15.7669 43.0649 15.7826 43.2316 15.8323 43.3895C15.8821 43.5474 15.9647 43.693 16.0748 43.8167C16.1848 43.9404 16.3199 44.0393 16.471 44.107C16.6221 44.1747 16.7858 44.2097 16.9513 44.2095C17.2383 44.2092 17.5151 44.1036 17.7293 43.9128C17.9436 43.722 18.0806 43.4593 18.1142 43.1744C18.5981 39.065 19.0828 35.7453 19.4985 33.6885H26.9215C27.3353 35.7514 27.8174 39.0577 28.3021 43.1744C28.3385 43.483 28.4959 43.7646 28.7398 43.9573C28.9837 44.1499 29.2941 44.2378 29.6028 44.2017C29.7556 44.1837 29.9035 44.1358 30.0379 44.0607C30.1722 43.9856 30.2905 43.8847 30.3859 43.7639C30.4813 43.643 30.5519 43.5046 30.5938 43.3564C30.6357 43.2083 30.6479 43.0534 30.6299 42.9005C30.1734 39.0247 29.7151 35.8367 29.3085 33.6883H34.4203C36.2904 37.1174 38.6963 44.5416 40.6581 52.987C40.6928 53.1369 40.7568 53.2785 40.8463 53.4037C40.9358 53.5289 41.0491 53.6352 41.1796 53.7166C41.3102 53.798 41.4556 53.8528 41.6074 53.8781C41.7591 53.9033 41.9144 53.8984 42.0643 53.8636C42.2142 53.8288 42.3558 53.7649 42.481 53.6754C42.6061 53.5859 42.7124 53.4726 42.7938 53.342C42.8752 53.2114 42.9301 53.0661 42.9553 52.9143C42.9806 52.7625 42.9757 52.6072 42.9409 52.4574C40.8956 43.6492 38.3351 35.8558 36.3374 32.3152C36.6596 30.7953 37.0301 29.1327 37.389 27.5202C38.3137 23.3717 39.2695 19.0814 39.5259 16.673C39.8982 13.1745 39.6449 4.4683 39.5582 1.88361C39.5431 1.37761 39.331 0.89751 38.9671 0.545649C38.6031 0.193788 38.1162 -0.00200161 37.6099 1.54314e-05H34.8603C33.7856 1.54314e-05 32.9115 0.874703 32.9115 1.94955V4.76814C32.9115 10.3058 28.4803 14.826 23.0335 14.8444H22.9993C20.3504 14.8444 17.862 13.8141 15.9895 11.9422C14.1181 10.0703 13.0873 7.58127 13.0873 4.9322V1.94939C13.0873 0.874859 12.2126 1.54314e-05 11.1376 1.54314e-05H8.38869C7.88253 -0.00191993 7.39562 0.193906 7.03174 0.545758C6.66786 0.897611 6.45579 1.37766 6.44072 1.88361C6.39072 3.37267 6.27463 7.21923 6.27463 10.7581C6.27463 11.0689 6.39809 11.367 6.61786 11.5868C6.83763 11.8066 7.1357 11.93 7.4465 11.93C7.7573 11.93 8.05537 11.8066 8.27514 11.5868C8.49491 11.367 8.61838 11.0689 8.61838 10.7581C8.61838 7.52439 8.71603 4.02533 8.77041 2.34377H10.7437V4.9322C10.7437 8.20673 12.0181 11.2849 14.3326 13.5994C16.6579 15.9247 19.7451 17.1936 23.0423 17.1881C29.7762 17.1655 35.2554 11.5936 35.2554 4.76814V2.34377H37.2287C37.3226 5.27408 37.5357 13.2288 37.1957 16.4245C36.9528 18.7011 36.0123 22.9255 35.1015 27.0105C34.7787 28.4602 34.4473 29.9494 34.1482 31.3445H27.9188C27.8848 31.3433 27.8508 31.3433 27.8168 31.3445H18.5456C18.5082 31.3427 18.4708 31.3427 18.4334 31.3445H11.8482C11.5626 30.0164 11.247 28.6005 10.9401 27.2205C10.0104 23.05 9.04916 18.7366 8.80322 16.4245C8.77322 16.1438 8.74588 15.8002 8.72025 15.3736C8.68057 14.7278 8.12635 14.2389 7.47869 14.2755C7.32511 14.2848 7.17487 14.3244 7.03656 14.3918C6.89826 14.4592 6.77459 14.5533 6.67263 14.6685C6.57067 14.7837 6.49241 14.9179 6.44232 15.0634C6.39224 15.2089 6.3713 15.3628 6.38072 15.5164C6.40885 15.9785 6.43869 16.3563 6.47228 16.6724C6.73291 19.1169 7.70822 23.4955 8.65197 27.7302C9.01447 29.3561 9.38791 31.0327 9.709 32.5477C8.12088 35.4395 6.22072 40.8477 4.45385 47.525C2.43353 55.1588 0.854628 63.4766 0.00744026 70.9461C-0.0122622 71.1202 0.00728643 71.2964 0.0646494 71.4619C0.122012 71.6274 0.215732 71.7779 0.33892 71.9025C0.462107 72.027 0.611633 72.1223 0.776506 72.1815C0.941379 72.2406 1.11741 72.2621 1.29166 72.2442C4.80103 71.8849 8.64088 72.511 13.744 74.2749C15.3017 74.8127 16.8885 75.4194 18.4229 76.0059C22.4482 77.5445 26.6109 79.1352 30.8723 79.7492C32.0381 79.917 33.1818 80 34.2982 80C38.7709 80 42.8107 78.6627 46.1256 76.0589C46.2778 75.9394 46.3981 75.7841 46.4757 75.6067C46.5532 75.4294 46.5856 75.2356 46.5699 75.0427C46.4177 73.1762 46.2252 71.3132 45.9926 69.455H46.7098C47.7515 69.455 48.6701 68.7941 48.996 67.8094C49.9929 64.7931 52.1198 61.4105 54.8317 58.5291C56.8818 56.3502 58.7715 55.0128 59.9201 54.5838C60.1038 55.4133 60.1967 57.0197 60.1967 59.3792V67.3456C60.1967 68.5083 61.1428 69.455 62.306 69.455H64.247C65.4096 69.455 66.3563 68.5083 66.3563 67.3456V59.3792C66.3563 57.638 67.0673 56.1574 67.8212 54.5905C68.6867 52.7899 69.5807 50.9283 69.5807 48.4881C69.5807 42.1045 67.0521 37.4708 63.5682 37.4708ZM65.7088 53.5749C64.8745 55.31 64.0126 57.1039 64.0126 59.3792V67.1113H62.5404V59.3792C62.5404 55.6342 62.3665 53.4211 61.4485 52.4536C61.339 52.3382 61.2071 52.2463 61.0609 52.1836C60.9148 52.1208 60.7573 52.0885 60.5982 52.0886C57.8846 52.0886 54.192 55.7886 53.1251 56.9227C50.1876 60.0445 47.8712 63.7445 46.7707 67.0739C46.7634 67.0953 46.7379 67.1113 46.7098 67.1113H44.6863C44.6703 67.1107 44.6543 67.1107 44.6382 67.1113H28.1953C28.3412 64.386 29.7156 58.4686 38.6103 56.4313C39.8712 59.1308 41.6548 60.4992 43.9124 60.4992C47.6656 60.4992 51.5468 56.1591 55.4487 47.5995C58.0696 41.8511 60.1942 39.8144 63.5682 39.8144C65.1063 39.8144 67.237 42.8285 67.237 48.4881C67.237 50.3949 66.4948 51.9397 65.7088 53.5749Z" fill="#D56A34"/>
<path d="M70.5163 18.8868C70.5083 18.8666 70.4997 18.8465 70.4913 18.8269L67.0108 10.6354C66.8439 10.2414 66.5646 9.90535 66.2078 9.66925C65.851 9.43314 65.4325 9.30744 65.0046 9.30786H46.3348C45.9067 9.30743 45.4881 9.43319 45.1311 9.66942C44.7742 9.90564 44.4948 10.2418 44.3279 10.636L43.8915 11.6633C43.8312 11.8049 43.7995 11.957 43.798 12.1109C43.7966 12.2648 43.8255 12.4175 43.8831 12.5602C43.9407 12.7029 44.0258 12.8329 44.1337 12.9427C44.2415 13.0525 44.37 13.1399 44.5116 13.2001C44.6532 13.2603 44.8053 13.2921 44.9592 13.2936C45.1131 13.295 45.2658 13.2662 45.4086 13.2086C45.5513 13.151 45.6813 13.0658 45.7911 12.958C45.9009 12.8502 45.9884 12.7217 46.0485 12.5801L46.4427 11.6516H50.9191L49.9829 18.1379H43.6874L44.1551 17.0363C44.2152 16.8947 44.2469 16.7426 44.2483 16.5887C44.2497 16.4348 44.2207 16.2822 44.1631 16.1395C44.1055 15.9968 44.0204 15.8669 43.9125 15.7571C43.8047 15.6473 43.6763 15.5598 43.5347 15.4997C43.393 15.4395 43.2409 15.4078 43.0871 15.4064C42.9332 15.4051 42.7806 15.434 42.6379 15.4916C42.4952 15.5492 42.3652 15.6344 42.2554 15.7422C42.1457 15.85 42.0582 15.9784 41.998 16.12L40.848 18.8269C40.839 18.8465 40.831 18.8666 40.823 18.8868C40.5143 19.6516 40.6668 20.5372 41.2162 21.1543L54.0415 35.5505C54.2446 35.7784 54.4933 35.9612 54.7715 36.0869C55.0497 36.2127 55.3512 36.2786 55.6565 36.2805H55.6821C55.9874 36.2786 56.2889 36.2127 56.5671 36.0869C56.8453 35.9612 57.094 35.7784 57.2971 35.5505L70.1224 21.1543C70.6724 20.5371 70.8249 19.651 70.5162 18.8868H70.5163ZM49.9358 20.7141L53.0083 30.8672L43.756 20.4816H49.8766C49.8938 20.5622 49.9132 20.6397 49.9358 20.7141ZM58.8108 25.2363C58.1908 25.0494 57.5371 25.3993 57.3499 26.0188L55.6694 31.5704L52.3144 20.4816H59.0252L58.7487 21.3954C58.6588 21.6929 58.6908 22.0139 58.8375 22.2878C58.9842 22.5617 59.2337 22.7662 59.5312 22.8563C60.1507 23.0432 60.8049 22.6933 60.9924 22.0738L61.4037 20.714C61.4263 20.6402 61.4458 20.5621 61.463 20.4815H67.5835L58.3312 30.8672L59.5933 26.6972C59.7802 26.0777 59.4299 25.4235 58.811 25.2361L58.8108 25.2363ZM67.6519 18.1379H61.3562L60.4202 11.6516H64.896L67.6519 18.1379ZM53.2873 11.6516H58.0523L58.9879 18.1379H52.351L53.2873 11.6516Z" fill="#D56A34"/>
</g>
<defs>
<clipPath id="clip0_913_310">
<rect width="80" height="80" fill="white"/>
</clipPath>
</defs>
</svg>
