<svg width="80" height="80" viewBox="0 0 80 80" fill="none" xmlns="http://www.w3.org/2000/svg">
<g clip-path="url(#clip0_913_252)">
<path d="M67.4725 34.2028C70.7209 34.0308 73.3197 30.7489 73.3197 26.7402C73.3197 23.0828 71.1566 20.0311 68.3119 19.392V18.4381C68.5791 18.1819 68.8227 17.8973 69.0381 17.5794C69.1877 17.3579 69.2572 17.092 69.2352 16.8256C68.855 12.2503 66.778 8.00719 63.3852 4.87859C59.9736 1.73281 55.5339 0 50.883 0H45.7987C35.6414 0 27.3781 8.23547 27.3781 18.3575V18.6152C27.3783 18.7949 27.4197 18.9722 27.4993 19.1334C27.5789 19.2946 27.6944 19.4353 27.837 19.5447C28.2495 19.8614 28.7252 20.1275 29.2488 20.3352C29.2916 20.3522 29.3342 20.3648 29.3769 20.3808V28.9197C29.3769 34.1419 31.1214 38.5236 34.4209 41.5912C35.3822 42.4847 36.4681 43.2506 37.6522 43.8819C37.1541 44.3728 36.6959 44.9026 36.2819 45.4663C34.8305 46.0669 33.2583 46.3831 31.6347 46.3831C31.3386 46.3831 31.0445 46.3703 30.7522 46.3483V42.6359C30.7522 41.4384 29.7738 40.4644 28.5713 40.4644H26.8159C26.7995 38.6198 25.2852 37.1237 23.4253 37.1237H16.968C15.1081 37.1237 13.5933 38.6198 13.5769 40.4644H11.8219C10.6188 40.4644 9.64094 41.4384 9.64094 42.6359V59.0605H2.33703C1.13469 59.0606 0.15625 60.0348 0.15625 61.2323V77.8284C0.15625 79.0259 1.13469 80 2.33703 80H44.7833C44.8723 80 44.9598 79.9897 45.0439 79.9702C45.956 79.8719 46.816 79.4963 47.508 78.8941C48.1991 79.4952 49.0577 79.8705 49.9683 79.9695C50.0551 79.9897 50.144 79.9997 50.2331 79.9994H63.7134C66.7834 79.9994 69.2809 77.5202 69.2809 74.472C69.2809 71.7298 67.2583 69.4489 64.6167 69.0192V66.7181C64.6167 66.4073 64.4933 66.1093 64.2735 65.8895C64.0537 65.6697 63.7556 65.5463 63.4448 65.5463C63.134 65.5463 62.836 65.6697 62.6162 65.8895C62.3964 66.1093 62.273 66.4073 62.273 66.7181V68.9453H54.6795C54.0423 67.2247 52.3803 66.0255 50.4595 66.0255C49.3749 66.0244 48.3264 66.4154 47.5073 67.1264C46.6887 66.4154 45.6406 66.0244 44.5563 66.0255C42.6355 66.0255 40.9734 67.2247 40.3363 68.9453H40.0342V65.7013C40.8764 65.8094 41.72 65.8642 42.5611 65.8642C49.9555 65.8642 57.088 61.77 60.5603 54.7442C61.0723 53.7078 61.1488 52.5366 60.7739 51.4466C60.3986 50.3528 59.6161 49.472 58.5706 48.9667C56.4245 47.9303 53.8208 48.822 52.7661 50.9552C51.7614 52.9877 50.1806 54.6516 48.1952 55.7666C48.061 55.8419 47.9429 55.9429 47.8477 56.0638C47.7526 56.1848 47.6821 56.3233 47.6405 56.4714C47.5989 56.6196 47.5868 56.7745 47.605 56.9273C47.6233 57.0801 47.6714 57.2278 47.7467 57.362C47.8989 57.6331 48.1526 57.8326 48.4518 57.9167C48.7511 58.0008 49.0715 57.9627 49.3427 57.8106C51.7419 56.463 53.6523 54.4519 54.8677 51.9934C55.3541 51.0083 56.5583 50.5981 57.5506 51.0773C58.0292 51.308 58.3862 51.7095 58.5572 52.2077C58.7269 52.702 58.692 53.2342 58.4587 53.7061C54.9981 60.7086 47.4177 64.403 40.0342 63.3302V63.0773C40.6358 62.2852 41.0063 61.342 41.1047 60.3522C41.1341 60.0647 41.1383 59.7772 41.1206 59.4922C41.9227 59.5811 42.7311 59.5987 43.5362 59.5447C43.8464 59.5232 44.1353 59.3795 44.3395 59.1451C44.5437 58.9107 44.6465 58.6048 44.6253 58.2947C44.5806 57.6489 44.0216 57.1644 43.3753 57.2058C42.3541 57.2766 41.3312 57.2022 40.3352 56.997C40.3008 56.9416 40.2661 56.8861 40.2302 56.8311L39.0333 53.7017C38.6731 52.7491 37.7478 52.1094 36.7297 52.1094C36.5302 52.1094 36.333 52.1356 36.1395 52.1833C36.4405 49.2114 37.815 46.7005 39.9719 44.8992C41.0242 45.2711 42.1313 45.5492 43.28 45.7305C43.7714 47.9437 45.7617 49.6058 48.1359 49.6058C50.4547 49.6058 52.4072 48.0212 52.9553 45.8856C54.6969 45.7066 56.4007 45.2613 58.0072 44.5653C60.6872 46.5919 62.2723 49.6375 62.2723 53.2812V61.25C62.2723 61.5608 62.3958 61.8589 62.6156 62.0786C62.8353 62.2984 63.1334 62.4219 63.4442 62.4219C63.755 62.4219 64.0531 62.2984 64.2729 62.0786C64.4926 61.8589 64.6161 61.5608 64.6161 61.25V53.2812C64.6161 49.3097 63.1122 45.8948 60.263 43.3831C63.6041 41.3025 66.2042 38.092 67.4725 34.2028ZM48.3063 70.4925C48.3063 69.3219 49.2725 68.3691 50.4602 68.3691C51.5564 68.3691 52.4756 69.1784 52.5989 70.2508C52.6317 70.5365 52.7684 70.8002 52.983 70.9917C53.1977 71.1831 53.4752 71.289 53.7628 71.2891H63.7134C65.4914 71.2891 66.9372 72.7172 66.9372 74.4727C66.9372 76.2281 65.4914 77.6562 63.7134 77.6562H50.3948C50.3673 77.6525 50.3397 77.6496 50.312 77.6477C49.187 77.5727 48.3063 76.643 48.3063 75.5328V70.4925ZM40.0348 71.2891H41.2536C41.5413 71.2892 41.819 71.1835 42.0337 70.992C42.2484 70.8005 42.3851 70.5366 42.4177 70.2508C42.5409 69.1784 43.4606 68.3691 44.5569 68.3691C45.2069 68.3691 45.7897 68.6559 46.1853 69.107C46.0376 69.554 45.9624 70.0218 45.9625 70.4925V75.5328C45.9625 76.0138 46.0412 76.4781 46.1853 76.9141C45.9988 77.1276 45.772 77.3024 45.5179 77.4283C45.2639 77.5541 44.9875 77.6287 44.7045 77.6477C44.6764 77.6495 44.6491 77.6527 44.6217 77.6562H40.0348V71.2891ZM30.752 48.6981C31.045 48.7158 31.3391 48.7269 31.6345 48.7269C32.6518 48.7263 33.6662 48.6195 34.6613 48.4081C34.1138 49.8066 33.7952 51.3294 33.742 52.9467C33.0475 53.0231 32.3444 53.0622 31.6345 53.0622C31.3392 53.0622 31.045 53.0536 30.752 53.0395V48.6981ZM30.9417 66.4612C31.0784 66.4612 31.3733 66.6278 31.4422 66.7444L32.9047 69.2542C32.97 69.3677 32.97 69.6923 32.9047 69.8066L31.4422 72.3156C31.3734 72.4322 31.0784 72.5995 30.9417 72.5995H28.0172C27.8797 72.5995 27.585 72.4323 27.5161 72.3156L26.0536 69.8059C25.9883 69.6923 25.9883 69.3677 26.0536 69.2542L27.5161 66.7444C27.585 66.6278 27.8798 66.4606 28.0172 66.4606H30.9419L30.9417 66.4612ZM16.9678 39.4678H23.4253C23.9923 39.4678 24.455 39.912 24.4714 40.4645H15.9216C15.9381 39.912 16.4002 39.4678 16.9678 39.4678ZM11.985 42.8083H28.4083V59.0606H11.9848L11.985 42.8083ZM18.9239 77.6562H2.5V61.4044H18.9239V77.6562ZM37.6909 77.6562H21.2675V61.4044H29.1728C29.1162 61.5711 29.0785 61.7437 29.0605 61.9189L29.0277 62.2442C28.9561 62.9602 29.2131 63.6341 29.6758 64.1169H28.0169C27.042 64.1169 25.9794 64.7259 25.4906 65.5645L24.0287 68.0744C23.5369 68.9178 23.5369 70.1428 24.0287 70.9863L25.4906 73.4961C25.98 74.3347 27.0422 74.9439 28.0169 74.9439H30.9416C31.9164 74.9439 32.9791 74.3347 33.4672 73.4955L34.9297 70.9863C35.4209 70.1428 35.4209 68.9184 34.9297 68.0744L33.4678 65.5645C33.355 65.3723 33.2116 65.1922 33.0467 65.0281L35.0297 65.2277C35.2195 65.2466 35.4119 65.2564 35.6016 65.2564C36.3402 65.2564 37.0458 65.1147 37.6909 64.8572V77.6562ZM36.2456 56.1645C36.3645 56.0067 36.4416 55.8214 36.4696 55.6258C36.4977 55.4302 36.4758 55.2307 36.4061 55.0458L36.2895 54.7388C36.2838 54.7242 36.2812 54.7086 36.2817 54.693C36.2823 54.6773 36.286 54.662 36.2927 54.6478C36.2991 54.6334 36.3083 54.6205 36.3199 54.6098C36.3314 54.5991 36.345 54.5909 36.3598 54.5856L36.6875 54.4617C36.7011 54.4563 36.7155 54.4534 36.7302 54.4531C36.755 54.4538 36.7791 54.4619 36.7993 54.4765C36.8194 54.4911 36.8347 54.5114 36.8431 54.5348L38.0906 57.7961C38.1249 57.8866 38.1704 57.9725 38.2261 58.0517C38.6522 58.6572 38.8464 59.3914 38.7736 60.1178C38.6131 61.7116 37.2495 62.9131 35.6017 62.9131C35.49 62.9131 35.377 62.907 35.2647 62.8961L31.3817 62.5055C31.3754 62.5048 31.3695 62.5017 31.3654 62.4968C31.3613 62.4919 31.3593 62.4856 31.3598 62.4792L31.3927 62.1545C31.3945 62.1369 31.4109 62.1327 31.4189 62.1327H31.4195L34.2242 62.4145C34.8667 62.4811 35.4423 62.0105 35.5077 61.3666L35.5284 61.1584C35.544 61.0052 35.5293 60.8505 35.4849 60.703C35.4406 60.5555 35.3676 60.4183 35.2702 60.2991C35.1728 60.1798 35.0529 60.0808 34.9173 60.0079C34.7817 59.935 34.633 59.8896 34.4798 59.8742L31.0564 59.5294C31.0455 59.5281 31.0337 59.5142 31.035 59.5031L31.0673 59.1784C31.0692 59.1608 31.0869 59.1583 31.0942 59.1566L34.5177 59.5014C34.8271 59.532 35.136 59.4389 35.377 59.2425C35.6175 59.0459 35.7701 58.7618 35.8013 58.4528L35.822 58.2441C35.8531 57.9348 35.7602 57.6259 35.5635 57.3851C35.3669 57.1444 35.0827 56.9917 34.7734 56.9605L31.9683 56.6784C31.9566 56.6772 31.945 56.6633 31.9462 56.6516L31.9792 56.3269C31.9811 56.3092 31.9988 56.3073 32.0055 56.3055L35.1848 56.6253C35.1927 56.6259 35.2073 56.6272 35.2147 56.6284C35.4117 56.6446 35.6096 56.6105 35.7899 56.5293C35.9702 56.4482 36.127 56.3227 36.2456 56.1645ZM48.1364 47.262C47.6781 47.2628 47.2275 47.144 46.8292 46.9173C46.4308 46.6905 46.0986 46.3637 45.8653 45.9692C46.0741 45.9755 46.2828 45.9791 46.4934 45.9791H50.4014C50.1675 46.3709 49.8357 46.6952 49.4386 46.9201C49.0415 47.145 48.5928 47.263 48.1364 47.262ZM51.1938 43.6353H46.4934C37.5194 43.6353 31.7205 37.8595 31.7205 28.9197V20.7191C32.9002 20.6152 34.0373 20.0909 35.0859 19.1486C35.2853 18.9694 35.4765 18.7814 35.6591 18.5852C35.7242 18.8043 35.8065 19.0179 35.905 19.2242C36.403 20.2617 37.2869 20.9919 38.4612 21.3342C40.3684 21.892 42.2953 21.073 44.21 18.897C44.6892 20.0366 45.667 20.8741 47.1037 21.3275C47.7342 21.5259 48.3592 21.6247 48.9769 21.6242C51.0277 21.6242 52.9912 20.537 54.738 18.4117C55.3306 17.6905 55.8214 16.9414 56.2052 16.2817C56.7003 16.9641 57.36 17.7228 58.1969 18.3869C58.4406 18.5798 58.7509 18.6681 59.0597 18.6324C59.3684 18.5967 59.6504 18.4399 59.8436 18.1964C59.9392 18.0758 60.0101 17.9376 60.0523 17.7896C60.0944 17.6416 60.107 17.4868 60.0893 17.3339C60.0717 17.181 60.024 17.0332 59.9492 16.8987C59.8743 16.7643 59.7737 16.6459 59.6531 16.5503C58.007 15.2447 57.2105 13.4016 57.2044 13.3862C57.1152 13.1729 56.965 12.9907 56.7725 12.8626C56.5801 12.7344 56.354 12.666 56.1228 12.6659H56.1131C55.8803 12.6682 55.6534 12.7396 55.4612 12.8711C55.2691 13.0026 55.1204 13.1883 55.0341 13.4045C55.0059 13.4753 52.1666 20.4662 47.8088 19.0917C46.7345 18.7531 45.7328 18.0811 46.4427 15.6628C46.523 15.3893 46.5008 15.0959 46.3802 14.8376C46.2597 14.5793 46.049 14.3738 45.7878 14.2597C45.5267 14.1454 45.2329 14.1301 44.9613 14.2169C44.6898 14.3036 44.4592 14.4863 44.3127 14.7308C42.4102 17.9058 40.5186 19.4947 39.1178 19.0852C38.5783 18.927 38.2292 18.6492 38.018 18.2105C37.6023 17.3444 37.747 15.877 38.4044 14.2859C38.5196 14.0039 38.5205 13.6881 38.4068 13.4054C38.2932 13.1227 38.0739 12.8954 37.7956 12.7716C37.5172 12.6478 37.2015 12.6372 36.9155 12.7422C36.6295 12.8471 36.3955 13.0593 36.2633 13.3337C33.3513 19.4397 30.9136 18.4734 30.1122 18.1561C29.9805 18.104 29.8518 18.0449 29.7264 17.9791C29.9292 9.32375 37.0611 2.34375 45.7989 2.34375H50.8833C59.0314 2.34375 65.9625 8.56016 66.8567 16.5772C66.5308 16.947 66.1292 17.2131 65.6372 17.387C65.152 17.5592 64.6728 17.6831 64.2114 17.7558C63.9061 17.8061 63.6331 17.9752 63.452 18.2261C63.2709 18.4769 63.1963 18.7892 63.2446 19.0948C63.2929 19.4005 63.4601 19.6746 63.7097 19.8574C63.9593 20.0403 64.2711 20.117 64.577 20.0708C65.0477 19.995 65.5125 19.8863 65.968 19.7455V20.4431C65.9679 20.597 65.9982 20.7494 66.0571 20.8916C66.116 21.0338 66.2023 21.163 66.3112 21.2718C66.42 21.3806 66.5492 21.467 66.6914 21.5258C66.8335 21.5847 66.9859 21.615 67.1398 21.615C67.1638 21.6156 67.1869 21.6144 67.2156 21.6131C69.2902 21.6223 70.9759 23.9184 70.9759 26.7402C70.9759 29.5667 69.2834 31.8664 67.2034 31.8664C67.0697 31.8664 66.9331 31.8561 66.7853 31.8336C66.4997 31.7899 66.2081 31.8533 65.9664 32.0116C65.7247 32.1698 65.55 32.4119 65.4759 32.6911C63.7659 39.1352 57.893 43.6353 51.1938 43.6353Z" fill="#D56A34"/>
<path d="M54.793 24.4685C54.6391 24.4684 54.4867 24.4987 54.3445 24.5576C54.2023 24.6164 54.0731 24.7027 53.9643 24.8116C53.8554 24.9204 53.7691 25.0496 53.7103 25.1918C53.6514 25.334 53.6211 25.4864 53.6212 25.6404V27.5622C53.6212 28.2099 54.1454 28.7341 54.793 28.7341C55.1038 28.7341 55.4019 28.6106 55.6217 28.3909C55.8415 28.1711 55.9649 27.873 55.9649 27.5622V25.6404C55.9649 25.3296 55.8415 25.0315 55.6217 24.8117C55.4019 24.5919 55.1038 24.4685 54.793 24.4685ZM37.478 24.4685C37.3241 24.4684 37.1717 24.4987 37.0295 24.5576C36.8873 24.6164 36.7581 24.7027 36.6493 24.8116C36.5404 24.9204 36.4541 25.0496 36.3952 25.1918C36.3364 25.334 36.3061 25.4864 36.3062 25.6404V27.5622C36.3062 28.2099 36.8304 28.7341 37.478 28.7341C37.7888 28.7341 38.0869 28.6106 38.3067 28.3909C38.5265 28.1711 38.6499 27.873 38.6499 27.5622V25.6404C38.6499 25.3296 38.5265 25.0315 38.3067 24.8117C38.0869 24.5919 37.7888 24.4685 37.478 24.4685ZM46.1346 30.4211H46.8945C47.2053 30.4211 47.5033 30.2977 47.7231 30.0779C47.9429 29.8581 48.0663 29.5601 48.0663 29.2493C48.0663 28.6018 47.5421 28.0774 46.8945 28.0774H46.5471V26.9904C46.5471 26.6796 46.4236 26.3815 46.2039 26.1617C45.9841 25.9419 45.686 25.8185 45.3752 25.8185C45.2213 25.8184 45.0689 25.8487 44.9267 25.9076C44.7845 25.9664 44.6553 26.0527 44.5465 26.1616C44.4376 26.2704 44.3513 26.3996 44.2924 26.5418C44.2336 26.684 44.2033 26.8364 44.2034 26.9904V28.468C44.2034 29.5446 45.0695 30.4211 46.1346 30.4211ZM50.7568 32.276H42.0427C40.8404 32.276 39.862 33.2502 39.862 34.4477C39.862 38.0255 42.7948 40.9363 46.3995 40.9363C50.0048 40.9363 52.9376 38.0255 52.9376 34.4477C52.9376 33.2508 51.9591 32.276 50.7568 32.276ZM46.3995 38.5932C44.1454 38.5932 42.3004 36.8261 42.2088 34.6197H50.5907C50.4985 36.8261 48.6541 38.5932 46.3995 38.5932ZM24.729 48.2654L22.6751 47.9719L21.7595 46.1438C21.4623 45.55 20.8635 45.1807 20.1965 45.1807C19.5293 45.1807 18.9305 45.55 18.6334 46.1432L17.7177 47.9719L15.6615 48.266C15.0018 48.3613 14.4623 48.8122 14.2529 49.4446C14.0448 50.074 14.2205 50.7782 14.699 51.2372L16.1755 52.655L15.8282 54.6535C15.7141 55.3058 15.9899 55.9766 16.5251 56.3582C16.8226 56.5737 17.1808 56.6893 17.5482 56.6883C17.8301 56.6883 18.1109 56.6199 18.3551 56.4918L20.1965 55.5377L22.0318 56.4886C22.2826 56.6197 22.5613 56.6882 22.8443 56.6883C23.2146 56.6883 23.5687 56.5743 23.8629 56.3618C24.403 55.976 24.6788 55.3052 24.5648 54.6533L24.2174 52.655L25.6927 51.2379C26.1718 50.7782 26.3476 50.0738 26.1395 49.4446C25.932 48.8129 25.3918 48.3618 24.729 48.2654ZM22.1441 51.3971C22.0056 51.5299 21.9019 51.6947 21.8422 51.8771C21.7824 52.0594 21.7685 52.2537 21.8016 52.4427L22.0476 53.8574L20.7354 53.1775C20.5689 53.091 20.384 53.046 20.1963 53.0463C20.0088 53.0461 19.824 53.0912 19.6576 53.1775L18.3459 53.8574L18.5918 52.4427C18.6246 52.2536 18.6105 52.0592 18.5507 51.8768C18.4909 51.6944 18.3873 51.5295 18.2488 51.3965L17.2216 50.4102L18.6571 50.205C18.8443 50.178 19.0222 50.1061 19.1757 49.9955C19.3291 49.8849 19.4535 49.7388 19.5384 49.5697L20.1965 48.2563L20.8543 49.5697C20.9391 49.739 21.0636 49.8852 21.2172 49.9958C21.3708 50.1065 21.5489 50.1783 21.7363 50.205L23.1713 50.4102L22.1441 51.3971ZM9.5568 74.5271C9.86498 74.8294 10.2798 74.9982 10.7115 74.9969C11.1431 74.9982 11.5579 74.8297 11.8663 74.5277L16.0607 70.4249C16.7798 69.7218 17.1759 68.7843 17.1759 67.7844C17.1759 66.7847 16.7798 65.8472 16.0607 65.1441C15.3479 64.4471 14.4024 64.0638 13.3984 64.0638C12.3943 64.0638 11.4484 64.4477 10.7359 65.1441L10.7116 65.1679L10.6877 65.1441C9.97555 64.4477 9.02945 64.0638 8.02539 64.0638C7.0207 64.0638 6.07539 64.4471 5.36305 65.1441C4.64414 65.8472 4.24805 66.7847 4.24805 67.7844C4.24805 68.7843 4.64414 69.7218 5.36305 70.4255L9.5568 74.5271ZM7.00148 66.8196C7.27305 66.5533 7.6368 66.4069 8.02492 66.4069C8.41305 66.4069 8.77695 66.5533 9.04914 66.8194L9.89211 67.6447C10.1112 67.8587 10.4053 67.9784 10.7115 67.9784C11.0177 67.9784 11.3118 67.8587 11.5309 67.6447L12.3743 66.82C12.6466 66.554 13.0098 66.4069 13.3985 66.4069C13.7866 66.4069 14.1499 66.5533 14.422 66.8194C14.6863 67.0777 14.8316 67.4207 14.8316 67.7844C14.8323 68.1482 14.6863 68.4913 14.4221 68.7494L10.7116 72.3782L7.00133 68.7496C6.73695 68.4915 6.59117 68.1483 6.5918 67.7846C6.5918 67.4208 6.73711 67.0779 7.00117 66.8197L7.00148 66.8196ZM67.1038 30.4114C67.2918 30.4114 67.4829 30.3661 67.6598 30.2704C70.1629 28.9179 69.7534 26.0846 69.1876 24.7755C69.1265 24.6342 69.0382 24.5063 68.9277 24.3992C68.8172 24.292 68.6866 24.2077 68.5435 24.151C68.4004 24.0943 68.2475 24.0663 68.0936 24.0687C67.9397 24.0712 67.7878 24.1039 67.6465 24.165C67.3612 24.2884 67.1367 24.52 67.0222 24.8089C66.9077 25.0979 66.9127 25.4204 67.036 25.7057C67.0684 25.7794 67.8063 27.5275 66.5454 28.2088C66.316 28.3329 66.1345 28.53 66.0297 28.7688C65.9249 29.0077 65.9028 29.2747 65.9669 29.5276C66.031 29.7804 66.1777 30.0046 66.3836 30.1647C66.5895 30.3248 66.843 30.4117 67.1038 30.4114Z" fill="#D56A34"/>
</g>
<defs>
<clipPath id="clip0_913_252">
<rect width="80" height="80" fill="white"/>
</clipPath>
</defs>
</svg>
