<svg width="103" height="80" viewBox="0 0 103 80" fill="none" xmlns="http://www.w3.org/2000/svg">
<g clip-path="url(#clip0_913_297)">
<mask id="mask0_913_297" style="mask-type:luminance" maskUnits="userSpaceOnUse" x="0" y="-11" width="103" height="103">
<path d="M102.435 -10.3916H0.078125V91.9649H102.435V-10.3916Z" fill="white"/>
</mask>
<g mask="url(#mask0_913_297)">
<path d="M93.6682 7.85452C91.3454 5.65019 88.5902 3.9522 85.577 2.86807C82.5638 1.78394 79.3583 1.33729 76.1635 1.55641C72.9688 1.77554 69.8543 2.65566 67.0173 4.14104C64.1804 5.62642 61.6828 7.6847 59.6827 10.1855C59.5219 10.3857 59.3183 10.5472 59.0869 10.6582C58.8554 10.7692 58.602 10.8268 58.3452 10.8268C58.0885 10.8268 57.8351 10.7692 57.6036 10.6582C57.3721 10.5472 57.1685 10.3857 57.0078 10.1855C54.8417 7.47704 52.0942 5.29041 48.9687 3.7875C45.8431 2.28459 42.4196 1.5039 38.9515 1.50322C26.2049 1.48523 15.7613 11.8988 15.7374 24.6334C15.7214 33.1818 19.8056 41.6702 25.4512 49.3149" stroke="#D56A34" stroke-width="2.5" stroke-linecap="round" stroke-linejoin="round"/>
<path d="M33.3481 58.593C42.3703 67.989 52.3061 75.1159 56.4063 77.9048C56.9764 78.2926 57.65 78.5001 58.3395 78.5001C59.029 78.5001 59.7026 78.2926 60.2727 77.9048C68.6012 72.2412 100.985 48.6672 100.941 24.6294C100.938 20.6789 99.9153 16.7961 97.9727 13.3562" stroke="#D56A34" stroke-width="2.5" stroke-linecap="round" stroke-linejoin="round"/>
<path d="M24.1519 23.5858H38.9056L43.7835 39.611L50.2488 18.376L52.7477 26.5905H67.0456" stroke="#D56A34" stroke-width="2.5" stroke-linecap="round" stroke-linejoin="round"/>
<path d="M52.4318 58.5911H16.1353" stroke="#D56A34" stroke-width="2.5" stroke-linecap="round" stroke-linejoin="round"/>
<path d="M46.2046 49.313H52.4319" stroke="#D56A34" stroke-width="2.5" stroke-linecap="round" stroke-linejoin="round"/>
<path d="M16.1353 49.313H39.4234" stroke="#D56A34" stroke-width="2.5" stroke-linecap="round" stroke-linejoin="round"/>
<path d="M57.6974 68.1669H54.4308C53.9006 68.1669 53.3921 67.9563 53.0172 67.5814C52.6423 67.2065 52.4316 66.698 52.4316 66.1678V41.8861C52.4316 41.3559 52.6423 40.8474 53.0172 40.4725C53.3921 40.0976 53.9006 39.887 54.4308 39.887H57.6974C58.2276 39.887 58.7361 40.0976 59.111 40.4725C59.4859 40.8474 59.6966 41.3559 59.6966 41.8861V66.1678C59.6966 66.698 59.4859 67.2065 59.111 67.5814C58.7361 67.9563 58.2276 68.1669 57.6974 68.1669Z" stroke="#D56A34" stroke-width="2.5" stroke-linecap="round" stroke-linejoin="round"/>
<path d="M59.6968 45.4706C59.6968 44.9404 59.9074 44.4319 60.2823 44.057C60.6572 43.6821 61.1657 43.4714 61.6959 43.4714H64.9625C65.4927 43.4714 66.0012 43.6821 66.3762 44.057C66.7511 44.4319 66.9617 44.9404 66.9617 45.4706V62.5813C66.9617 63.1115 66.7511 63.62 66.3762 63.9949C66.0012 64.3698 65.4927 64.5805 64.9625 64.5805H61.6959C61.1657 64.5805 60.6572 64.3698 60.2823 63.9949C59.9074 63.62 59.6968 63.1115 59.6968 62.5813" stroke="#D56A34" stroke-width="2.5" stroke-linecap="round" stroke-linejoin="round"/>
<path d="M8.76221 47.3118V41.8861C8.76221 41.3559 8.97283 40.8474 9.34774 40.4725C9.72266 40.0976 10.2311 39.887 10.7614 39.887H14.028C14.5582 39.887 15.0667 40.0976 15.4416 40.4725C15.8165 40.8474 16.0271 41.3559 16.0271 41.8861V66.1678C16.0271 66.698 15.8165 67.2065 15.4416 67.5814C15.0667 67.9563 14.5582 68.1669 14.028 68.1669H10.7614C10.2311 68.1669 9.72266 67.9563 9.34774 67.5814C8.97283 67.2065 8.76221 66.698 8.76221 66.1678V54.3128" stroke="#D56A34" stroke-width="2.5" stroke-linecap="round" stroke-linejoin="round"/>
<path d="M8.76243 62.5813C8.76243 63.1115 8.5518 63.62 8.17689 63.9949C7.80198 64.3698 7.29348 64.5805 6.76327 64.5805H3.49866C2.96845 64.5805 2.45996 64.3698 2.08505 63.9949C1.71014 63.62 1.49951 63.1115 1.49951 62.5813V45.4706C1.49951 44.9404 1.71014 44.4319 2.08505 44.057C2.45996 43.6821 2.96845 43.4714 3.49866 43.4714H6.76327C7.29348 43.4714 7.80198 43.6821 8.17689 44.057C8.5518 44.4319 8.76243 44.9404 8.76243 45.4706" stroke="#D56A34" stroke-width="2.5" stroke-linecap="round" stroke-linejoin="round"/>
</g>
</g>
<defs>
<clipPath id="clip0_913_297">
<rect width="102.442" height="80" fill="white"/>
</clipPath>
</defs>
</svg>
