<svg width="80" height="80" viewBox="0 0 80 80" fill="none" xmlns="http://www.w3.org/2000/svg">
<g clip-path="url(#clip0_913_243)">
<path d="M32.9167 39.27C32.3805 40.1986 32.2381 41.2807 32.5158 42.3165L33.4233 45.7032C33.7008 46.739 34.365 47.6047 35.2939 48.141C35.9125 48.4982 36.5989 48.6805 37.2947 48.6805C37.6434 48.6805 37.9945 48.6347 38.3403 48.5421C39.3761 48.2646 40.2419 47.6002 40.7781 46.6716C41.3144 45.7429 41.4567 44.661 41.1791 43.625L40.2714 40.2383C39.9939 39.2025 39.3297 38.3368 38.4009 37.8005C37.4725 37.2643 36.3908 37.1219 35.3545 37.3994C34.3186 37.6769 33.4528 38.3413 32.9167 39.27ZM34.9464 40.4419C35.0557 40.2515 35.2016 40.0847 35.3758 39.951C35.5499 39.8174 35.7489 39.7197 35.9611 39.6635C36.102 39.6256 36.2472 39.6064 36.3931 39.6063C37.1308 39.6063 37.8077 40.0993 38.0075 40.845L38.9152 44.2318C38.9725 44.4437 38.9873 44.6648 38.9586 44.8825C38.93 45.1001 38.8585 45.3099 38.7483 45.4997C38.639 45.6901 38.4931 45.857 38.3189 45.9906C38.1448 46.1242 37.9458 46.222 37.7336 46.2782C36.8425 46.5169 35.9256 45.9865 35.687 45.0968L34.7795 41.71C34.7221 41.4981 34.7073 41.2769 34.7359 41.0593C34.7646 40.8416 34.8361 40.6318 34.9464 40.4419ZM66.6425 37.3994C65.6069 37.1222 64.5248 37.2643 63.5961 37.8005C62.6675 38.3366 62.0033 39.2024 61.7256 40.2382L60.818 43.625C60.5405 44.6608 60.6828 45.7427 61.2189 46.6715C61.7552 47.6 62.6209 48.2644 63.6567 48.5419C64.1658 48.6797 64.6972 48.7152 65.2201 48.6464C65.743 48.5775 66.247 48.4057 66.7031 48.1408C67.6319 47.6046 68.2961 46.7388 68.5738 45.703L69.4812 42.3163C69.7587 41.2805 69.6164 40.1986 69.0803 39.2699C68.5441 38.3413 67.6783 37.6769 66.6425 37.3994ZM67.2175 41.7097L66.31 45.0965C66.0716 45.9863 65.1533 46.5168 64.2634 46.2779C64.0512 46.2216 63.8523 46.1239 63.6781 45.9903C63.504 45.8566 63.358 45.6898 63.2487 45.4994C63.1385 45.3096 63.0669 45.0999 63.0383 44.8822C63.0096 44.6646 63.0245 44.4435 63.0819 44.2316L63.9895 40.8447C64.1894 40.0991 64.8661 39.6061 65.6039 39.6061C65.7466 39.6061 65.8917 39.6246 66.0359 39.6633C66.2481 39.7196 66.4471 39.8173 66.6212 39.9509C66.7954 40.0845 66.9413 40.2514 67.0506 40.4418C67.1608 40.6316 67.2323 40.8414 67.261 41.059C67.2896 41.2767 67.2748 41.4978 67.2175 41.7097ZM41.4455 34.0257V37.5319C41.4455 39.7455 43.2464 41.5466 45.46 41.5466C47.6737 41.5466 49.4747 39.7457 49.4747 37.5319V34.0257C49.4747 31.8119 47.6737 30.011 45.46 30.011C43.2464 30.011 41.4455 31.8121 41.4455 34.0257ZM47.1309 34.0257V37.5319C47.1309 38.4532 46.3812 39.2029 45.46 39.2029C44.5387 39.2029 43.7892 38.4533 43.7892 37.5319V34.0257C43.7892 33.1044 44.5387 32.3547 45.46 32.3547C46.3814 32.3547 47.1309 33.1044 47.1309 34.0257ZM52.5222 34.0257V37.5319C52.5222 39.7455 54.3231 41.5466 56.5369 41.5466C58.7505 41.5466 60.5514 39.7457 60.5514 37.5319V34.0257C60.5514 31.8119 58.7505 30.011 56.5369 30.011C54.3233 30.011 52.5222 31.8121 52.5222 34.0257ZM58.2078 34.0257V37.5319C58.2078 38.4532 57.4583 39.2029 56.537 39.2029C55.6156 39.2029 54.8661 38.4533 54.8661 37.5319V34.0257C54.8661 33.1044 55.6158 32.3547 56.537 32.3547C57.4583 32.3547 58.2078 33.1044 58.2078 34.0257ZM24.4319 65.1249L24.1648 65.3921L23.8977 65.1249C23.1483 64.3757 22.152 63.963 21.0923 63.963C20.0327 63.963 19.0364 64.3757 18.287 65.125C17.5377 65.8744 17.125 66.8707 17.125 67.9305C17.125 68.9902 17.5377 69.9865 18.287 70.7358L22.8048 75.2536C22.9833 75.4323 23.1954 75.574 23.4288 75.6704C23.6621 75.7669 23.9123 75.8163 24.1648 75.8158C24.6573 75.8158 25.15 75.6283 25.525 75.2535L30.0427 70.7358C30.792 69.9865 31.2047 68.9902 31.2047 67.9305C31.2047 66.8708 30.792 65.8744 30.0425 65.125C28.4959 63.5782 25.9787 63.5783 24.4319 65.1249ZM28.3853 69.0785L24.1648 73.299L19.9444 69.0785C19.3112 68.4454 19.3112 67.4154 19.9444 66.7822C20.2509 66.4757 20.6586 66.3068 21.0923 66.3068C21.5261 66.3068 21.9339 66.4757 22.2405 66.7822L23.3363 67.878C23.4451 67.9868 23.5743 68.0732 23.7164 68.1321C23.8586 68.191 24.011 68.2213 24.1649 68.2213C24.3188 68.2213 24.4712 68.191 24.6134 68.1321C24.7556 68.0732 24.8848 67.9868 24.9936 67.878L26.0892 66.7824C26.7223 66.1496 27.7522 66.1493 28.3853 66.7824C29.0183 67.4152 29.0183 68.4454 28.3853 69.0785ZM60.9931 72.2649C60.9931 72.5757 61.1166 72.8738 61.3364 73.0935C61.5561 73.3133 61.8542 73.4368 62.165 73.4368H69.6814C70.3287 73.4368 70.8533 72.9121 70.8533 72.2649C70.8533 71.6177 70.3287 71.093 69.6814 71.093H62.165C61.8542 71.093 61.5561 71.2165 61.3364 71.4363C61.1166 71.656 60.9931 71.9541 60.9931 72.2649Z" fill="#D56A34"/>
<path d="M74.2472 80C75.7366 80 77.1277 79.4109 78.1642 78.3414C79.2008 77.2719 79.7458 75.863 79.6991 74.3744L78.1497 24.9406C78.1289 24.2503 77.9666 23.5715 77.673 22.9464L73.2436 13.4859C73.0743 13.1229 72.9863 12.7272 72.9858 12.3266V3.74156C72.9858 1.67844 71.3074 0 69.2442 0H32.7528C30.6897 0 29.0113 1.67844 29.0113 3.74156V12.3266C29.0113 12.7247 28.9222 13.1256 28.7534 13.4859L24.3238 22.9464C24.0302 23.5715 23.868 24.2502 23.8472 24.9405L23.567 33.8811C23.5621 34.0381 23.5888 34.1944 23.6454 34.3409C23.7021 34.4873 23.7877 34.6209 23.897 34.7336C24.0063 34.8464 24.1372 34.936 24.2818 34.9971C24.4264 35.0583 24.5819 35.0898 24.7389 35.0897C25.0432 35.0895 25.3356 34.971 25.554 34.7591C25.7725 34.5472 25.9 34.2587 25.9095 33.9545L26.1897 25.0139C26.2009 24.6422 26.2883 24.2768 26.4464 23.9402L30.8759 14.4798C31.1905 13.8055 31.354 13.0706 31.355 12.3266V3.74156C31.355 2.97078 31.9822 2.34375 32.7528 2.34375H69.2442C70.015 2.34375 70.642 2.97078 70.642 3.74156V12.3266C70.6431 13.0706 70.8066 13.8055 71.1211 14.4798L75.5505 23.9402C75.7086 24.2768 75.796 24.6423 75.8074 25.0141L77.3567 74.448C77.3833 75.297 77.0725 76.1005 76.4813 76.7103C75.8902 77.3203 75.0967 77.6562 74.2472 77.6562H47.8297C48.0316 77.0865 48.083 76.4743 47.9788 75.8789L46.0553 64.8761C47.4053 64.8734 48.7317 64.5431 49.9175 63.91C50.25 63.732 50.6214 63.6389 50.9985 63.6389C51.3757 63.6389 51.747 63.732 52.0795 63.91C53.4025 64.6166 54.9003 64.9469 56.4116 64.8642C60.6691 64.6328 64.0858 61.1097 64.1902 56.8436C64.2756 53.357 62.1452 50.18 58.8886 48.9381C58.6695 48.8545 58.4889 48.688 58.3803 48.4691C56.978 45.6442 54.1494 43.8895 50.9984 43.8895C47.8475 43.8895 45.0189 45.6442 43.6164 48.4692C43.508 48.688 43.3274 48.8545 43.1081 48.9381C42.0259 49.3514 41.0429 49.9879 40.2231 50.8063C39.4032 51.6247 38.7649 52.6065 38.3497 53.688C37.0904 52.9528 35.6581 52.5659 34.1999 52.567C32.6544 52.567 31.176 52.9858 29.8786 53.7847C28.6445 53.0881 27.2586 52.7233 25.8252 52.7233C25.6567 52.7233 25.4888 52.73 25.3209 52.7403L25.7497 39.0619C25.7546 38.9049 25.728 38.7486 25.6713 38.6021C25.6146 38.4557 25.5291 38.3221 25.4198 38.2093C25.3105 38.0966 25.1796 38.007 25.035 37.9458C24.8903 37.8847 24.7349 37.8532 24.5778 37.8533C24.2735 37.8535 23.9812 37.972 23.7627 38.1839C23.5442 38.3957 23.4167 38.6843 23.4072 38.9884L22.9949 52.1445C21.3614 51.1868 19.5022 50.6818 17.6088 50.6816C17.2859 50.6816 16.9594 50.6962 16.6384 50.7252C15.9938 50.7834 15.5184 51.3531 15.5766 51.9977C15.6347 52.6422 16.2064 53.117 16.8489 53.0594C17.1015 53.0366 17.355 53.0252 17.6086 53.0252C19.613 53.0254 21.5498 53.75 23.0622 55.0655C23.2103 55.1942 23.3885 55.2837 23.5802 55.3257C23.7719 55.3678 23.9711 55.3609 24.1595 55.3059C24.7005 55.1476 25.2613 55.0672 25.825 55.067C27.0444 55.0649 28.2344 55.4414 29.2306 56.1445C29.4342 56.2878 29.678 56.3626 29.9269 56.3579C30.1757 56.3533 30.4167 56.2695 30.6147 56.1188C31.6531 55.3284 32.8928 54.9108 34.1997 54.9108C37.1069 54.9108 39.5303 57.015 40.0313 59.7795H9.44064C9.82532 57.7534 10.948 55.9375 12.6325 54.6772C12.8778 54.4897 13.0393 54.2131 13.0817 53.9073C13.1242 53.6015 13.0443 53.2913 12.8594 53.0441C12.6745 52.7969 12.3995 52.6326 12.0942 52.587C11.7889 52.5414 11.4779 52.6181 11.2288 52.8005C8.94907 54.5058 7.47017 57.0058 7.06282 59.7795H6.11939C5.29167 59.7783 4.49016 60.0697 3.85648 60.6022C3.2228 61.1348 2.79775 61.8741 2.65642 62.6897L0.350948 75.8789C0.262014 76.3842 0.285015 76.9028 0.418328 77.3982C0.551641 77.8936 0.792019 78.3537 1.12251 78.7461C1.45214 79.1392 1.86399 79.4552 2.32901 79.6718C2.79403 79.8884 3.30091 80.0004 3.81392 79.9998H74.2472V80ZM43.9433 51.1281C44.715 50.8339 45.3445 50.2597 45.7159 49.5113C46.7199 47.4894 48.7439 46.2333 50.9986 46.2333C53.2533 46.2333 55.2774 47.4894 56.2813 49.5114C56.653 50.2598 57.2825 50.8341 58.0538 51.1281C60.3841 52.0167 61.9084 54.2906 61.8472 56.7863C61.7725 59.8383 59.3292 62.3586 56.2844 62.5241C55.2014 62.5828 54.1289 62.3473 53.1836 61.8427C52.5115 61.4828 51.7609 61.2946 50.9985 61.2946C50.2361 61.2946 49.4856 61.4828 48.8134 61.8427C47.8683 62.3473 46.7955 62.5828 45.7125 62.5241C45.6869 62.5227 45.6617 62.5234 45.6364 62.5236C45.4697 61.7772 45.0635 61.1058 44.4796 60.6119C43.8957 60.118 43.1662 59.8287 42.4025 59.7881C42.1824 58.06 41.4291 56.4961 40.3102 55.2695C40.5329 54.3356 40.9803 53.4702 41.6134 52.7485C42.2466 52.0268 43.0463 51.4705 43.9433 51.1281ZM2.91689 77.2383C2.80582 77.108 2.72512 76.9547 2.68064 76.7894C2.63616 76.6241 2.62901 76.4509 2.6597 76.2825L4.96532 63.0933C5.01242 62.8214 5.15411 62.5749 5.36534 62.3974C5.57658 62.2199 5.84377 62.1227 6.1197 62.1231H42.2103C42.4862 62.1228 42.7534 62.2199 42.9646 62.3974C43.1759 62.575 43.3176 62.8214 43.3647 63.0933L45.6703 76.2825C45.7309 76.6292 45.6395 76.9688 45.4131 77.2383C45.1867 77.5078 44.8681 77.6562 44.5161 77.6562H3.81392C3.64275 77.6575 3.47346 77.6206 3.31831 77.5483C3.16315 77.476 3.02603 77.3701 2.91689 77.2383Z" fill="#D56A34"/>
<path d="M66.2478 6.51147H59.0906C58.4433 6.51147 57.9187 7.03616 57.9187 7.68335C57.9187 8.33054 58.4433 8.85522 59.0906 8.85522H66.2478C66.8951 8.85522 67.4197 8.33054 67.4197 7.68335C67.4197 7.03616 66.8951 6.51147 66.2478 6.51147ZM53.9834 6.51147H35.7495C35.1022 6.51147 34.5776 7.03616 34.5776 7.68335C34.5776 8.33054 35.1022 8.85522 35.7495 8.85522H53.9834C54.2942 8.85522 54.5923 8.73176 54.8121 8.51199C55.0318 8.29222 55.1553 7.99415 55.1553 7.68335C55.1553 7.37255 55.0318 7.07448 54.8121 6.85471C54.5923 6.63494 54.2942 6.51147 53.9834 6.51147Z" fill="#D56A34"/>
</g>
<defs>
<clipPath id="clip0_913_243">
<rect width="80" height="80" fill="white"/>
</clipPath>
</defs>
</svg>
